<?xml version="1.0" encoding="UTF-8"?>
<svg version="1.1" xmlns="http://www.w3.org/2000/svg" width="202" height="234">
<path d="M0 0 C4.23429318 3.43290515 8.14476987 7.15040618 12 11 C12.71671875 11.70511719 13.4334375 12.41023438 14.171875 13.13671875 C26.31402217 25.88597328 36.16796246 43.46929599 38 61 C34.59119748 59.29559874 34.15212504 55.1873369 32.9375 51.75 C29.7320123 43.12089201 25.75374441 36.2447147 20 29 C19.35160156 28.16984375 18.70320312 27.3396875 18.03515625 26.484375 C6.32203218 12.39988225 -12.77268187 2.19872989 -31 0 C-55.9213426 -2.02884999 -77.63497777 3.84703887 -97 20 C-107.84624545 29.26337713 -115.44676337 41.53670424 -120 55 C-120.47759766 56.36511719 -120.47759766 56.36511719 -120.96484375 57.7578125 C-125.56178946 73.6458737 -124.66998298 92.56829375 -119 108 C-118.51466797 109.40765625 -118.51466797 109.40765625 -118.01953125 110.84375 C-116.25150212 115.63546978 -114.04447692 119.88701786 -111.19921875 124.125 C-110 126 -110 126 -109.14453125 127.875 C-107.30188856 131.88901975 -105.72220709 133.32235077 -101.625 135 C-92.7886 138.90689495 -86.50750177 147.55804225 -80.45727539 154.86254883 C-72.2090677 164.78858559 -61.02968254 171.53743642 -50 178 C-50.33 179.65 -50.66 181.3 -51 183 C-73.03686205 185.71820325 -99.97327708 185.78909623 -119 173 C-119.57363281 172.62101563 -120.14726563 172.24203125 -120.73828125 171.8515625 C-125.67438213 168.2015425 -128.43204076 163.5932115 -129.3828125 157.578125 C-129.67004959 151.41210214 -128.45498354 146.15699608 -125 141 C-120.72205605 136.55960248 -115.92923262 135.14423787 -110 134 C-118.4461011 133.53267444 -118.4461011 133.53267444 -126 137 C-130.10989317 141.9602159 -130 147.77443708 -130 154 C-143.47778316 147.8019739 -152.05874386 129.35367005 -157 116 C-165.71106495 88.96961002 -163.88968231 59.74046715 -151.21875 34.34375 C-138.6263895 10.40381372 -116.79489031 -6.90927448 -91.25390625 -15.21875 C-60.6386676 -24.28993182 -25.62943156 -19.51323182 0 0 Z M-134.4375 133.1875 C-136.53548767 136.96387781 -137.24278667 140.67839727 -137 145 C-136.34 145.99 -135.68 146.98 -135 148 C-134.91363281 147.34773438 -134.82726562 146.69546875 -134.73828125 146.0234375 C-133.74826834 139.86537558 -132.60476955 136.28350656 -128 132 C-123.51839197 129.31103518 -118.11176367 129.37717868 -113 129 C-120.45412267 124.03058489 -128.38707441 127.75763088 -134.4375 133.1875 Z " fill="#2584C6" transform="translate(162,19)"/>
<path d="M0 0 C-0.845625 0.94875 -1.69125 1.8975 -2.5625 2.875 C-13.11127772 15.33947556 -19.58636927 28.2701517 -19 45 C-17.56035696 59.29145648 -12.39206202 71.97188646 -1.7421875 81.8125 C10.34745539 91.45665957 23.56744831 96.08935659 39 95 C55.66181756 92.40278141 68.48625026 83.68716493 78.4609375 70.28515625 C80.90153013 66.66143369 83.00696027 62.88504979 85 59 C89.42308166 65.63462249 86.93468731 75.75270164 85.74609375 83.26953125 C80.69585185 108.52074073 67.28390255 131.33213505 46.1875 146.4375 C37.53218439 151.89683179 27.24979537 155.46983817 17 156 C16.36835938 156.05027344 15.73671875 156.10054687 15.0859375 156.15234375 C0.16404073 156.85093442 -15.82816765 152.09403034 -27 142 C-27 141.34 -27 140.68 -27 140 C-25.88367188 140.28875 -24.76734375 140.5775 -23.6171875 140.875 C0.04836832 146.63571137 22.79987088 145.66300345 44.11572266 133.18896484 C53.57975345 127.21723253 66.38339599 116.84981202 70 106 C69.62230469 106.46148437 69.24460937 106.92296875 68.85546875 107.3984375 C54.46015732 124.4570501 36.10920726 136.25179322 13.45849609 138.22094727 C-4.99347419 139.05741291 -19.60566551 136.06258699 -34.0625 123.9375 C-46.08062595 112.69412746 -55.24651131 96.43175485 -56.1796875 79.796875 C-56.18637322 77.18944244 -56.13836865 74.60338045 -56 72 C-55.34 72 -54.68 72 -54 72 C-53.58041016 73.10794922 -53.58041016 73.10794922 -53.15234375 74.23828125 C-45.57281458 93.41863321 -33.3239877 107.94199215 -14.53125 116.59765625 C3.45004468 123.80277783 22.75365636 124.70075988 40.8515625 117.23632812 C52.45971488 112.17293948 61.31978647 105.10594607 70 96 C66.70759701 98.56927043 66.70759701 98.56927043 63.6015625 101.35546875 C52.23067502 112.1202937 36.69090346 116.52600132 21.35498047 116.34960938 C4.31588342 115.78557753 -10.12303748 109.20860545 -22 97 C-22.70769531 96.31292969 -23.41539063 95.62585938 -24.14453125 94.91796875 C-35.03478423 83.69455315 -39.92433146 69.0360928 -40.4375 53.625 C-40.03278076 36.55640617 -33.54303543 22.70927549 -21.81640625 10.67578125 C-15.7403016 4.90306047 -8.73675716 -0.49924327 0 0 Z M73 90 C74 92 74 92 74 92 Z M72 102 C73 104 73 104 73 104 Z " fill="#FCB337" transform="translate(115,36)"/>
<path d="M0 0 C1.65 0 3.3 0 5 0 C7.3125 2.5 7.3125 2.5 9 5 C9.556875 4.175 10.11375 3.35 10.6875 2.5 C11.450625 1.675 12.21375 0.85 13 0 C14.65 0 16.3 0 18 0 C18 4.95 18 9.9 18 15 C16.35 15 14.7 15 13 15 C12.67 13.35 12.34 11.7 12 10 C11.67 10.66 11.34 11.32 11 12 C9.68 12 8.36 12 7 12 C6.67 11.34 6.34 10.68 6 10 C5.67 11.65 5.34 13.3 5 15 C3.35 15 1.7 15 0 15 C0 10.05 0 5.1 0 0 Z " fill="#F58020" transform="translate(93,212)"/>
<path d="M0 0 C1.22589844 -0.04898438 2.45179687 -0.09796875 3.71484375 -0.1484375 C7.0625 0.375 7.0625 0.375 9.50390625 2.7734375 C11.0625 5.375 11.0625 5.375 11.0625 7.375 C9.7425 7.375 8.4225 7.375 7.0625 7.375 C6.7325 6.715 6.4025 6.055 6.0625 5.375 C-2.3836011 4.90767444 -2.3836011 4.90767444 -9.9375 8.375 C-14.04739317 13.3352159 -13.9375 19.14943708 -13.9375 25.375 C-17.8125 23.5 -17.8125 23.5 -18.9375 22.375 C-19.48238516 17.13159691 -19.59552601 12.71542335 -17.25 7.9375 C-11.86170463 1.96668621 -7.99552434 0.21813603 0 0 Z " fill="#25A5DD" transform="translate(45.9375,147.625)"/>
<path d="M0 0 C2.44053024 1.79828544 3.63399544 3.18956132 4.875 5.9375 C5.05132235 8.84681875 4.43082215 10.46354255 3 13 C0.15744489 15.36879593 -1.34843369 16 -5.0625 16 C-8.84861588 14.71110949 -10.09266488 13.50949663 -12 10 C-12 6.22089384 -11.83289714 3.99306967 -9.375 1.0625 C-6.02317947 -0.43699866 -3.63019782 -0.45377473 0 0 Z M-5 4 C-5.66 4.66 -6.32 5.32 -7 6 C-6.67958603 8.60280568 -6.67958603 8.60280568 -6 11 C-4.35 10.67 -2.7 10.34 -1 10 C-0.67 8.68 -0.34 7.36 0 6 C-2.475 5.01 -2.475 5.01 -5 4 Z " fill="#F58020" transform="translate(81,212)"/>
<path d="M0 0 C1.65 0 3.3 0 5 0 C5.33 0.66 5.66 1.32 6 2 C6.33 1.34 6.66 0.68 7 0 C8.98 0 10.96 0 13 0 C12.690625 0.763125 12.38125 1.52625 12.0625 2.3125 C10.27154063 6.02692609 10.27154063 6.02692609 10.77734375 9.82421875 C11.16019531 10.43910156 11.54304687 11.05398437 11.9375 11.6875 C12.618125 12.780625 13.29875 13.87375 14 15 C11.125 15.125 11.125 15.125 8 15 C7.34 14.34 6.68 13.68 6 13 C5.67 13.66 5.34 14.32 5 15 C3.35 15 1.7 15 0 15 C0 10.05 0 5.1 0 0 Z " fill="#F58020" transform="translate(130,212)"/>
<path d="M0 0 C1.65 0 3.3 0 5 0 C5.33 0.66 5.66 1.32 6 2 C6.33 1.34 6.66 0.68 7 0 C8.98 0 10.96 0 13 0 C12.690625 0.763125 12.38125 1.52625 12.0625 2.3125 C10.27154063 6.02692609 10.27154063 6.02692609 10.77734375 9.82421875 C11.16019531 10.43910156 11.54304688 11.05398437 11.9375 11.6875 C12.618125 12.780625 13.29875 13.87375 14 15 C11.125 15.125 11.125 15.125 8 15 C7.34 14.34 6.68 13.68 6 13 C5.67 13.66 5.34 14.32 5 15 C3.35 15 1.7 15 0 15 C0 10.05 0 5.1 0 0 Z " fill="#F58020" transform="translate(52,212)"/>
<path d="M0 0 C1.65 0 3.3 0 5 0 C5 4.95 5 9.9 5 15 C3.35 15 1.7 15 0 15 C0 10.05 0 5.1 0 0 Z " fill="#F58020" transform="translate(118,212)"/>
<path d="M0 0 C3 1 3 1 4.1328125 3.22265625 C6.10501818 8.86751266 7.54947187 14.0305023 8 20 C4.74680494 18.37340247 4.14022939 14.92321822 2.875 11.6875 C2.59785156 11.01009766 2.32070312 10.33269531 2.03515625 9.63476562 C0.65859576 6.16624004 0 3.78176393 0 0 Z " fill="#22A4DC" transform="translate(192,60)"/>
</svg>
