<svg version="1.1" id="Layer_1" xmlns="http://www.w3.org/2000/svg" xmlns:xlink="http://www.w3.org/1999/xlink" x="0px" y="0px"
	 width="100%" viewBox="0 0 500 500" enable-background="new 0 0 500 500" xml:space="preserve">
<path fill="#1977F3" opacity="1.000000" stroke="none" 
	d="
M1.000001,283.000000 
	C1.000000,261.979095 1.000000,240.958206 1.400739,219.660065 
	C2.213015,217.374481 2.643544,215.369827 3.033159,213.357254 
	C7.054724,192.583557 12.071470,172.182129 20.565952,152.609390 
	C32.199886,125.802818 47.614227,101.546242 67.417122,80.215813 
	C84.581055,61.727901 104.296616,46.363201 126.324387,33.776390 
	C154.564728,17.639673 184.519745,7.112001 216.749496,2.923847 
	C217.569153,2.817336 218.252884,1.664732 219.000000,0.999999 
	C240.020889,1.000000 261.041779,1.000000 282.334412,1.399510 
	C287.795319,2.864443 292.969421,4.010755 298.176392,4.980861 
	C317.570618,8.594189 336.306000,14.341706 354.183716,22.673599 
	C374.632568,32.203735 393.665222,43.880569 411.165375,58.342651 
	C426.014160,70.613670 439.076935,84.408440 450.723358,99.537819 
	C463.465668,116.090866 473.699768,134.242599 481.846588,153.510086 
	C490.430115,173.810303 496.353912,194.845398 499.077667,216.756363 
	C499.178955,217.571304 500.335327,218.255081 501.000000,219.000000 
	C501.000000,239.687561 501.000000,260.375122 500.596436,281.333801 
	C499.472565,284.873383 498.523865,288.110443 498.069122,291.415466 
	C495.167633,312.503815 488.955170,332.666992 480.393738,352.044464 
	C468.892609,378.075348 453.378998,401.603790 433.973328,422.456573 
	C421.048859,436.344757 406.537659,448.444672 390.792450,459.019379 
	C368.186096,474.202118 343.706818,485.453400 317.472900,492.659302 
	C308.562347,495.106842 299.293335,496.249512 290.124023,497.524506 
	C290.059906,439.284790 290.059906,381.509003 290.059906,323.229187 
	C292.386932,323.229187 294.178955,323.229218 295.970947,323.229218 
	C312.137482,323.229095 328.304443,323.165924 344.470123,323.284363 
	C347.538147,323.306824 348.671173,322.536346 349.125031,319.221375 
	C351.083374,304.917969 353.501587,290.678101 355.685608,276.404877 
	C356.955261,268.107147 358.098419,259.790100 359.378387,250.928940 
	C335.941925,250.928940 313.192535,250.928940 290.232849,250.928940 
	C290.232849,233.498352 289.269470,216.470703 290.487701,199.600601 
	C291.869904,180.459808 301.148956,170.330307 318.179749,166.528946 
	C323.000366,165.452942 328.065887,165.210434 333.030579,165.100052 
	C342.647186,164.886200 352.271942,165.037552 361.916382,165.037552 
	C361.916382,144.109863 361.916382,123.733727 361.916382,103.251038 
	C357.561890,102.705086 353.611877,102.232491 349.668243,101.711617 
	C328.665741,98.937691 307.587921,97.035103 286.498047,100.108513 
	C267.810120,102.831894 251.080719,110.182892 237.608490,123.849289 
	C219.789780,141.924774 212.920303,164.481827 212.121521,189.089645 
	C211.510818,207.903336 211.978531,226.752029 211.966812,245.585159 
	C211.965729,247.332870 211.966675,249.080566 211.966675,251.288086 
	C190.284439,251.288086 169.373352,251.288086 148.593628,251.288086 
	C148.593628,275.477081 148.593628,299.194702 148.593628,323.465942 
	C169.911377,323.465942 190.819595,323.465942 211.966690,323.465942 
	C211.966690,325.848358 211.966705,327.673615 211.966705,329.498871 
	C211.966705,364.165253 211.984940,398.831635 211.959991,433.498016 
	C211.944519,454.994843 211.863495,476.491608 211.388763,497.995422 
	C206.130768,497.252991 201.217896,496.830261 196.474335,495.698120 
	C174.435944,490.438324 153.258469,482.912872 133.235870,472.107147 
	C107.311493,458.116364 84.326126,440.596985 64.773705,418.439301 
	C53.038475,405.140472 42.706100,391.020630 33.805149,375.665009 
	C17.491922,347.521973 7.179748,317.465149 2.924207,285.260040 
	C2.815359,284.436310 1.664759,283.750275 1.000001,283.000000 
z"/>
<path fill="#FEFEFE" opacity="1.000000" stroke="none" 
	d="
M211.811905,497.988403 
	C211.863495,476.491608 211.944519,454.994843 211.959991,433.498016 
	C211.984940,398.831635 211.966705,364.165253 211.966705,329.498871 
	C211.966705,327.673615 211.966690,325.848358 211.966690,323.465942 
	C190.819595,323.465942 169.911377,323.465942 148.593628,323.465942 
	C148.593628,299.194702 148.593628,275.477081 148.593628,251.288086 
	C169.373352,251.288086 190.284439,251.288086 211.966675,251.288086 
	C211.966675,249.080566 211.965729,247.332870 211.966812,245.585159 
	C211.978531,226.752029 211.510818,207.903336 212.121521,189.089645 
	C212.920303,164.481827 219.789780,141.924774 237.608490,123.849289 
	C251.080719,110.182892 267.810120,102.831894 286.498047,100.108513 
	C307.587921,97.035103 328.665741,98.937691 349.668243,101.711617 
	C353.611877,102.232491 357.561890,102.705086 361.916382,103.251038 
	C361.916382,123.733727 361.916382,144.109863 361.916382,165.037552 
	C352.271942,165.037552 342.647186,164.886200 333.030579,165.100052 
	C328.065887,165.210434 323.000366,165.452942 318.179749,166.528946 
	C301.148956,170.330307 291.869904,180.459808 290.487701,199.600601 
	C289.269470,216.470703 290.232849,233.498352 290.232849,250.928940 
	C313.192535,250.928940 335.941925,250.928940 359.378387,250.928940 
	C358.098419,259.790100 356.955261,268.107147 355.685608,276.404877 
	C353.501587,290.678101 351.083374,304.917969 349.125031,319.221375 
	C348.671173,322.536346 347.538147,323.306824 344.470123,323.284363 
	C328.304443,323.165924 312.137482,323.229095 295.970947,323.229218 
	C294.178955,323.229218 292.386932,323.229187 290.059906,323.229187 
	C290.059906,381.509003 290.059906,439.284790 289.917511,497.898743 
	C287.983643,498.829590 286.163116,498.769653 284.417236,499.101929 
	C283.845154,499.210815 283.466919,500.338348 283.000000,501.000000 
	C261.979095,501.000000 240.958206,501.000000 219.769379,500.648376 
	C217.004929,499.527283 214.408417,498.757843 211.811905,497.988403 
z"/>
<path fill="#000000" opacity="1.000000" stroke="none" 
	d="
M501.000000,218.531342 
	C500.335327,218.255081 499.178955,217.571304 499.077667,216.756363 
	C496.353912,194.845398 490.430115,173.810303 481.846588,153.510086 
	C473.699768,134.242599 463.465668,116.090866 450.723358,99.537819 
	C439.076935,84.408440 426.014160,70.613670 411.165375,58.342651 
	C393.665222,43.880569 374.632568,32.203735 354.183716,22.673599 
	C336.306000,14.341706 317.570618,8.594189 298.176392,4.980861 
	C292.969421,4.010755 287.795319,2.864443 282.803040,1.399510 
	C355.593689,1.000000 428.187408,1.000000 501.000000,1.000000 
	C501.000000,73.354080 501.000000,145.708389 501.000000,218.531342 
z"/>
<path fill="#000000" opacity="1.000000" stroke="none" 
	d="
M283.468658,501.000000 
	C283.466919,500.338348 283.845154,499.210815 284.417236,499.101929 
	C286.163116,498.769653 287.983643,498.829590 289.981628,498.362671 
	C299.293335,496.249512 308.562347,495.106842 317.472900,492.659302 
	C343.706818,485.453400 368.186096,474.202118 390.792450,459.019379 
	C406.537659,448.444672 421.048859,436.344757 433.973328,422.456573 
	C453.378998,401.603790 468.892609,378.075348 480.393738,352.044464 
	C488.955170,332.666992 495.167633,312.503815 498.069122,291.415466 
	C498.523865,288.110443 499.472565,284.873383 500.596436,281.802429 
	C501.000000,354.926849 501.000000,427.853729 501.000000,501.000000 
	C428.645935,501.000000 356.291626,501.000000 283.468658,501.000000 
z"/>
<path fill="#000000" opacity="1.000000" stroke="none" 
	d="
M211.388763,497.995422 
	C214.408417,498.757843 217.004929,499.527283 219.300720,500.648376 
	C146.406296,501.000000 73.812607,501.000000 1.000000,501.000000 
	C1.000000,428.645905 1.000000,356.291626 1.000001,283.468658 
	C1.664759,283.750275 2.815359,284.436310 2.924207,285.260040 
	C7.179748,317.465149 17.491922,347.521973 33.805149,375.665009 
	C42.706100,391.020630 53.038475,405.140472 64.773705,418.439301 
	C84.326126,440.596985 107.311493,458.116364 133.235870,472.107147 
	C153.258469,482.912872 174.435944,490.438324 196.474335,495.698120 
	C201.217896,496.830261 206.130768,497.252991 211.388763,497.995422 
z"/>
<path fill="#000000" opacity="1.000000" stroke="none" 
	d="
M218.531342,0.999999 
	C218.252884,1.664732 217.569153,2.817336 216.749496,2.923847 
	C184.519745,7.112001 154.564728,17.639673 126.324387,33.776390 
	C104.296616,46.363201 84.581055,61.727901 67.417122,80.215813 
	C47.614227,101.546242 32.199886,125.802818 20.565952,152.609390 
	C12.071470,172.182129 7.054724,192.583557 3.033159,213.357254 
	C2.643544,215.369827 2.213015,217.374481 1.400739,219.191406 
	C1.000000,146.406296 1.000000,73.812584 1.000000,1.000000 
	C73.354080,1.000000 145.708389,1.000000 218.531342,0.999999 
z"/>
</svg>