<?xml version="1.0" encoding="UTF-8"?>
<svg version="1.1" xmlns="http://www.w3.org/2000/svg" width="2048" height="2048">
<path d="M0 0 C16.4685557 0.00234378 32.93711042 0.00258591 49.40566624 0.00148464 C50.59094764 0.00140825 51.77622905 0.00133187 52.99742808 0.00125317 C57.81282749 0.00094166 62.62822689 0.00062324 67.4436263 0.00029341 C112.25315048 -0.00273901 157.06267264 -0.00003383 201.8721965 0.0053903 C241.43218674 0.01014259 280.99217375 0.0097001 320.55216396 0.00492931 C365.34529075 -0.00045496 410.13841575 -0.00253312 454.93154282 0.00054158 C459.7267503 0.00086215 464.52195778 0.001175 469.31716526 0.00148464 C470.49725372 0.00156372 471.67734218 0.00164279 472.8931909 0.00172427 C490.49919082 0.00284864 508.10518942 0.00155659 525.71118915 -0.00099491 C545.76102296 -0.00388669 565.81085311 -0.00307105 585.86068648 0.00228583 C596.04036603 0.00491788 606.22003966 0.00612273 616.39971912 0.00263668 C656.22075112 -0.01009592 696.03541454 0.1009216 735.85381496 0.58870006 C737.11350686 0.60380096 737.11350686 0.60380096 738.39864708 0.61920693 C829.50251299 1.71206909 920.49133768 6.93258203 1092.78727138 99.13530041 C1093.32126552 99.55891857 1093.85525967 99.98253673 1094.40543545 100.41899181 C1100.18658382 105.01670072 1105.75398664 109.81590524 1111.20524013 114.79936291 C1112.60983992 116.07009009 1114.02069607 117.33454711 1115.46134365 118.56425548 C1121.18425164 123.46237201 1126.52137028 128.71667824 1131.83292568 134.05058361 C1133.34719718 135.57021709 1134.86674568 137.08442558 1136.38688076 138.59819103 C1141.73068034 143.93806411 1146.8987574 149.37125592 1151.78727138 155.13530041 C1152.64449795 156.11112072 1153.50172451 157.08694103 1154.38492763 158.09233166 C1214.15558837 227.33536335 1245.62153071 316.60062587 1257.78727138 428.13530041 C1257.86775412 429.05943875 1257.94823685 429.98357708 1258.03115845 430.93571962 C1258.8486367 441.17097423 1259.00793449 451.36924687 1259.09900844 461.63227917 C1259.11951998 463.63778787 1259.14019659 465.64329489 1259.16101945 467.64880038 C1259.22933393 474.47577909 1259.28560625 481.30283932 1259.3414706 488.12992931 C1259.36264062 490.61674361 1259.38381474 493.10355787 1259.4049927 495.59037209 C1260.09091504 577.85412004 1259.9340411 660.12342081 1259.92257179 742.38926753 C1259.92022694 759.53920708 1259.91998633 776.68914569 1259.92108715 793.83908535 C1259.92116353 795.07395071 1259.92123992 796.30881606 1259.92131862 797.58110158 C1259.92163014 802.59838076 1259.92194856 807.61565993 1259.92227838 812.6329391 C1259.92531178 859.33972908 1259.92260494 906.0465171 1259.91718149 952.75330677 C1259.91243697 993.92539814 1259.91286502 1035.09748641 1259.91764248 1076.26957775 C1259.92303803 1122.92018617 1259.92509809 1169.57079289 1259.92203021 1216.22140158 C1259.92170967 1221.22573774 1259.92139682 1226.2300739 1259.92108715 1231.23441005 C1259.92100807 1232.46590012 1259.92092899 1233.69739018 1259.92084752 1234.96619812 C1259.91980026 1252.07695224 1259.92069148 1269.18770523 1259.92307616 1286.2984592 C1259.94753095 1465.48052537 1259.94753095 1465.48052537 1259.48947999 1528.44665316 C1259.46712612 1531.74416796 1259.44952694 1535.04167226 1259.43352521 1538.33922339 C1259.27919322 1568.48642113 1257.9288073 1598.28305947 1253.41227138 1628.13530041 C1253.30711208 1628.84647014 1253.20195278 1629.55763988 1253.09360683 1630.29036022 C1251.06846104 1643.98541338 1248.74079665 1657.6068569 1245.78727138 1671.13530041 C1245.55346767 1672.20635021 1245.31966396 1673.27740001 1245.07877529 1674.38090587 C1229.89630899 1742.28666318 1198.48300245 1805.85228787 1153.78727138 1859.13530041 C1152.94494961 1860.14729503 1152.10262783 1861.15928966 1151.23478115 1862.2019508 C1144.2253881 1870.55087263 1136.82920781 1878.40674671 1129.09610927 1886.0872047 C1127.2153861 1887.95713181 1125.34570319 1889.83762679 1123.47672451 1891.71928478 C1116.55008846 1898.65349154 1109.48165178 1905.05421861 1101.78727138 1911.13530041 C1100.68509963 1912.06967479 1099.58878602 1913.0110681 1098.50211513 1913.96342541 C1032.31892684 1971.67591027 945.7098283 2000.2629925 811.66227138 2015.26030041 C810.48640468 2015.33595226 809.31053799 2015.41160412 808.09903896 2015.48954845 C781.1599853 2017.09209349 754.23007125 2017.32860872 727.25311551 2017.43450541 C722.95481711 2017.45204225 718.65653583 2017.47272142 714.35825132 2017.4933506 C701.37423009 2017.5555862 688.39018182 2017.60912348 675.40611279 2017.66026617 C669.13037647 2017.68502103 662.85464584 2017.71098281 656.57891618 2017.73736711 C557.31431308 2018.15468729 458.05004003 2018.27955063 310.28383893 2018.26612443 C307.55813702 2018.26543936 304.83243512 2018.26475516 302.10673321 2018.26407314 C301.4301337 2018.2639034 300.75353419 2018.26373366 300.05643166 2018.26355878 C286.08627198 2018.26009097 272.11611233 2018.25851911 258.14595231 2018.25721535 C91.60410061 2018.24165372 91.60410061 2018.24165372 -128.35212508 2017.72121762 C-133.02981855 2017.70301982 -137.70751373 2017.68535551 -142.38521015 2017.66793133 C-233.9719007 2017.32546651 -233.9719007 2017.32546651 -270.31429112 2016.68217541 C-271.34173624 2016.66481901 -272.36918137 2016.64746261 -273.42776119 2016.62958027 C-293.74453786 2016.27074511 -313.98278552 2015.0285035 -334.21272862 2013.13530041 C-335.36076969 2013.02798595 -335.36076969 2013.02798595 -336.53200352 2012.91850353 C-434.20819448 2003.66192472 -528.66810061 1973.24278676 -603.21272862 1907.13530041 C-604.58734696 1905.94735863 -605.96228599 1904.7597877 -607.33772862 1903.57280041 C-608.63275862 1902.43076972 -609.92413402 1901.28458748 -611.21272862 1900.13530041 C-612.49276768 1898.99448009 -612.49276768 1898.99448009 -613.79866612 1897.83061291 C-619.8608774 1892.35349439 -625.73697372 1886.71390637 -631.52522862 1880.94780041 C-632.51136143 1879.96855602 -632.51136143 1879.96855602 -633.51741612 1878.96952892 C-637.95133421 1874.52161487 -642.12260425 1869.89950428 -646.21272862 1865.13530041 C-647.05835362 1864.17108166 -647.90397862 1863.20686291 -648.77522862 1862.21342541 C-667.34714267 1840.66524308 -683.53737041 1817.06784296 -697.21272862 1792.13530041 C-697.68919834 1791.26743908 -698.16566807 1790.39957775 -698.65657627 1789.50541759 C-748.15791262 1698.59258438 -756.95317473 1599.88971188 -757.75191943 1487.90595882 C-757.76707057 1485.71524749 -757.78264258 1483.52453955 -757.79836008 1481.33383221 C-758.38870504 1399.03304076 -758.36062841 1316.73120833 -758.34802902 1234.42873272 C-758.3456748 1218.74558178 -758.34544734 1203.06243187 -758.34654438 1187.37928081 C-758.34662077 1186.24620688 -758.34669715 1185.11313294 -758.34677585 1183.94572343 C-758.3470874 1179.34146201 -758.34740583 1174.73720058 -758.34773561 1170.13293916 C-758.35075921 1127.40564674 -758.34807652 1084.67835646 -758.34263872 1041.95106438 C-758.33788005 1004.2733802 -758.33833609 966.5956994 -758.34309971 928.91801525 C-758.34848724 886.1671557 -758.35056099 843.41629802 -758.34748745 800.66543818 C-758.34716691 796.08792552 -758.34685406 791.51041286 -758.34654438 786.9329002 C-758.3464653 785.80653735 -758.34638623 784.68017451 -758.34630475 783.51967946 C-758.34518242 766.74749181 -758.34646828 749.97530555 -758.34902393 733.20311809 C-758.35191918 714.11213509 -758.35109269 695.02115592 -758.34574319 675.93017337 C-758.34311684 666.24601463 -758.34189608 656.56186209 -758.34539234 646.87770344 C-758.35836242 608.35462459 -758.24237522 569.8367986 -757.79858758 531.31596518 C-757.76788452 528.64113632 -757.73803909 525.96629892 -757.70829571 523.29145924 C-757.50855066 505.58465111 -757.22877908 487.88295664 -756.72495281 470.18195034 C-756.70517946 469.47971444 -756.68540612 468.77747855 -756.66503357 468.05396278 C-754.56064479 394.50069858 -742.85592368 321.51141029 -712.21272862 254.13530041 C-711.79813389 253.21265392 -711.38353916 252.29000744 -710.95638096 251.33940197 C-689.6808257 204.23466487 -658.2706018 163.20761494 -621.96272862 126.76030041 C-621.1229044 125.91580334 -620.28308018 125.07130626 -619.41780674 124.20121837 C-614.5101958 119.30621592 -609.48784476 114.63039398 -604.21272862 110.13530041 C-603.19152962 109.2463974 -602.1706708 108.35710336 -601.15022862 107.46733166 C-529.61414069 46.10991582 -440.41712625 16.55623188 -332.77522862 3.38530041 C-331.72681797 3.26976818 -330.67840733 3.15423595 -329.59822666 3.03520275 C-301.19237678 0.22847735 -272.29946978 0.82937764 -243.78670323 0.58110119 C-242.05361623 0.56554223 -242.05361623 0.56554223 -240.28551738 0.54966895 C-160.19302012 -0.1668063 -80.0948696 -0.01162269 0 0 Z " fill="#E04F70" transform="translate(773.2127286158502,14.864699594676495)"/>
<path d="M0 0 C16.4685557 0.00234378 32.93711042 0.00258591 49.40566624 0.00148464 C50.59094764 0.00140825 51.77622905 0.00133187 52.99742808 0.00125317 C57.81282749 0.00094166 62.62822689 0.00062324 67.4436263 0.00029341 C112.25315048 -0.00273901 157.06267264 -0.00003383 201.8721965 0.0053903 C241.43218674 0.01014259 280.99217375 0.0097001 320.55216396 0.00492931 C365.34529075 -0.00045496 410.13841575 -0.00253312 454.93154282 0.00054158 C459.7267503 0.00086215 464.52195778 0.001175 469.31716526 0.00148464 C470.49725372 0.00156372 471.67734218 0.00164279 472.8931909 0.00172427 C490.49919082 0.00284864 508.10518942 0.00155659 525.71118915 -0.00099491 C545.76102296 -0.00388669 565.81085311 -0.00307105 585.86068648 0.00228583 C596.04036603 0.00491788 606.22003966 0.00612273 616.39971912 0.00263668 C656.22075112 -0.01009592 696.03541454 0.1009216 735.85381496 0.58870006 C737.11350686 0.60380096 737.11350686 0.60380096 738.39864708 0.61920693 C829.50251299 1.71206909 920.49133768 6.93258203 1092.78727138 99.13530041 C1093.32126552 99.55891857 1093.85525967 99.98253673 1094.40543545 100.41899181 C1100.18658382 105.01670072 1105.75398664 109.81590524 1111.20524013 114.79936291 C1112.60983992 116.07009009 1114.02069607 117.33454711 1115.46134365 118.56425548 C1121.18425164 123.46237201 1126.52137028 128.71667824 1131.83292568 134.05058361 C1133.34719718 135.57021709 1134.86674568 137.08442558 1136.38688076 138.59819103 C1141.73068034 143.93806411 1146.8987574 149.37125592 1151.78727138 155.13530041 C1152.64449795 156.11112072 1153.50172451 157.08694103 1154.38492763 158.09233166 C1214.15558837 227.33536335 1245.62153071 316.60062587 1257.78727138 428.13530041 C1257.86775412 429.05943875 1257.94823685 429.98357708 1258.03115845 430.93571962 C1258.8486367 441.17097423 1259.00793449 451.36924687 1259.09900844 461.63227917 C1259.11951998 463.63778787 1259.14019659 465.64329489 1259.16101945 467.64880038 C1259.22933393 474.47577909 1259.28560625 481.30283932 1259.3414706 488.12992931 C1259.36264062 490.61674361 1259.38381474 493.10355787 1259.4049927 495.59037209 C1260.09091504 577.85412004 1259.9340411 660.12342081 1259.92257179 742.38926753 C1259.92022694 759.53920708 1259.91998633 776.68914569 1259.92108715 793.83908535 C1259.92116353 795.07395071 1259.92123992 796.30881606 1259.92131862 797.58110158 C1259.92163014 802.59838076 1259.92194856 807.61565993 1259.92227838 812.6329391 C1259.92531178 859.33972908 1259.92260494 906.0465171 1259.91718149 952.75330677 C1259.91243697 993.92539814 1259.91286502 1035.09748641 1259.91764248 1076.26957775 C1259.92303803 1122.92018617 1259.92509809 1169.57079289 1259.92203021 1216.22140158 C1259.92170967 1221.22573774 1259.92139682 1226.2300739 1259.92108715 1231.23441005 C1259.92100807 1232.46590012 1259.92092899 1233.69739018 1259.92084752 1234.96619812 C1259.91980026 1252.07695224 1259.92069148 1269.18770523 1259.92307616 1286.2984592 C1259.94753095 1465.48052537 1259.94753095 1465.48052537 1259.48947999 1528.44665316 C1259.46712612 1531.74416796 1259.44952694 1535.04167226 1259.43352521 1538.33922339 C1259.27919322 1568.48642113 1257.9288073 1598.28305947 1253.41227138 1628.13530041 C1253.30711208 1628.84647014 1253.20195278 1629.55763988 1253.09360683 1630.29036022 C1251.06846104 1643.98541338 1248.74079665 1657.6068569 1245.78727138 1671.13530041 C1245.55346767 1672.20635021 1245.31966396 1673.27740001 1245.07877529 1674.38090587 C1229.89630899 1742.28666318 1198.48300245 1805.85228787 1153.78727138 1859.13530041 C1152.94494961 1860.14729503 1152.10262783 1861.15928966 1151.23478115 1862.2019508 C1144.2253881 1870.55087263 1136.82920781 1878.40674671 1129.09610927 1886.0872047 C1127.2153861 1887.95713181 1125.34570319 1889.83762679 1123.47672451 1891.71928478 C1116.55008846 1898.65349154 1109.48165178 1905.05421861 1101.78727138 1911.13530041 C1100.68509963 1912.06967479 1099.58878602 1913.0110681 1098.50211513 1913.96342541 C1032.31892684 1971.67591027 945.7098283 2000.2629925 811.66227138 2015.26030041 C810.48640468 2015.33595226 809.31053799 2015.41160412 808.09903896 2015.48954845 C781.1599853 2017.09209349 754.23007125 2017.32860872 727.25311551 2017.43450541 C722.95481711 2017.45204225 718.65653583 2017.47272142 714.35825132 2017.4933506 C701.37423009 2017.5555862 688.39018182 2017.60912348 675.40611279 2017.66026617 C669.13037647 2017.68502103 662.85464584 2017.71098281 656.57891618 2017.73736711 C557.31431308 2018.15468729 458.05004003 2018.27955063 310.28383893 2018.26612443 C307.55813702 2018.26543936 304.83243512 2018.26475516 302.10673321 2018.26407314 C301.4301337 2018.2639034 300.75353419 2018.26373366 300.05643166 2018.26355878 C286.08627198 2018.26009097 272.11611233 2018.25851911 258.14595231 2018.25721535 C91.60410061 2018.24165372 91.60410061 2018.24165372 -128.35212508 2017.72121762 C-133.02981855 2017.70301982 -137.70751373 2017.68535551 -142.38521015 2017.66793133 C-233.9719007 2017.32546651 -233.9719007 2017.32546651 -270.31429112 2016.68217541 C-271.34173624 2016.66481901 -272.36918137 2016.64746261 -273.42776119 2016.62958027 C-293.74453786 2016.27074511 -313.98278552 2015.0285035 -334.21272862 2013.13530041 C-335.36076969 2013.02798595 -335.36076969 2013.02798595 -336.53200352 2012.91850353 C-434.20819448 2003.66192472 -528.66810061 1973.24278676 -603.21272862 1907.13530041 C-604.58734696 1905.94735863 -605.96228599 1904.7597877 -607.33772862 1903.57280041 C-608.63275862 1902.43076972 -609.92413402 1901.28458748 -611.21272862 1900.13530041 C-612.49276768 1898.99448009 -612.49276768 1898.99448009 -613.79866612 1897.83061291 C-619.8608774 1892.35349439 -625.73697372 1886.71390637 -631.52522862 1880.94780041 C-632.51136143 1879.96855602 -632.51136143 1879.96855602 -633.51741612 1878.96952892 C-637.95133421 1874.52161487 -642.12260425 1869.89950428 -646.21272862 1865.13530041 C-647.05835362 1864.17108166 -647.90397862 1863.20686291 -648.77522862 1862.21342541 C-667.34714267 1840.66524308 -683.53737041 1817.06784296 -697.21272862 1792.13530041 C-697.68919834 1791.26743908 -698.16566807 1790.39957775 -698.65657627 1789.50541759 C-748.15791262 1698.59258438 -756.95317473 1599.88971188 -757.75191943 1487.90595882 C-757.76707057 1485.71524749 -757.78264258 1483.52453955 -757.79836008 1481.33383221 C-758.38870504 1399.03304076 -758.36062841 1316.73120833 -758.34802902 1234.42873272 C-758.3456748 1218.74558178 -758.34544734 1203.06243187 -758.34654438 1187.37928081 C-758.34662077 1186.24620688 -758.34669715 1185.11313294 -758.34677585 1183.94572343 C-758.3470874 1179.34146201 -758.34740583 1174.73720058 -758.34773561 1170.13293916 C-758.35075921 1127.40564674 -758.34807652 1084.67835646 -758.34263872 1041.95106438 C-758.33788005 1004.2733802 -758.33833609 966.5956994 -758.34309971 928.91801525 C-758.34848724 886.1671557 -758.35056099 843.41629802 -758.34748745 800.66543818 C-758.34716691 796.08792552 -758.34685406 791.51041286 -758.34654438 786.9329002 C-758.3464653 785.80653735 -758.34638623 784.68017451 -758.34630475 783.51967946 C-758.34518242 766.74749181 -758.34646828 749.97530555 -758.34902393 733.20311809 C-758.35191918 714.11213509 -758.35109269 695.02115592 -758.34574319 675.93017337 C-758.34311684 666.24601463 -758.34189608 656.56186209 -758.34539234 646.87770344 C-758.35836242 608.35462459 -758.24237522 569.8367986 -757.79858758 531.31596518 C-757.76788452 528.64113632 -757.73803909 525.96629892 -757.70829571 523.29145924 C-757.50855066 505.58465111 -757.22877908 487.88295664 -756.72495281 470.18195034 C-756.70517946 469.47971444 -756.68540612 468.77747855 -756.66503357 468.05396278 C-754.56064479 394.50069858 -742.85592368 321.51141029 -712.21272862 254.13530041 C-711.79813389 253.21265392 -711.38353916 252.29000744 -710.95638096 251.33940197 C-689.6808257 204.23466487 -658.2706018 163.20761494 -621.96272862 126.76030041 C-621.1229044 125.91580334 -620.28308018 125.07130626 -619.41780674 124.20121837 C-614.5101958 119.30621592 -609.48784476 114.63039398 -604.21272862 110.13530041 C-603.19152962 109.2463974 -602.1706708 108.35710336 -601.15022862 107.46733166 C-529.61414069 46.10991582 -440.41712625 16.55623188 -332.77522862 3.38530041 C-331.72681797 3.26976818 -330.67840733 3.15423595 -329.59822666 3.03520275 C-301.19237678 0.22847735 -272.29946978 0.82937764 -243.78670323 0.58110119 C-242.05361623 0.56554223 -242.05361623 0.56554223 -240.28551738 0.54966895 C-160.19302012 -0.1668063 -80.0948696 -0.01162269 0 0 Z M-36.52522862 267.44780041 C-37.20698658 267.47964931 -37.88874455 267.51149822 -38.59116184 267.54431225 C-99.78527205 270.41252975 -159.8224205 276.67494013 -218.21272862 296.13530041 C-219.24268955 296.47641857 -220.27265049 296.81753673 -221.33382237 297.16899181 C-284.86832158 318.45622181 -344.87211138 357.60283025 -388.21272862 409.13530041 C-388.99518955 410.02862072 -389.77765049 410.92194103 -390.58382237 411.84233166 C-452.86378315 483.34296196 -480.10373203 577.32146097 -492.56697666 776.52641369 C-492.5946904 777.78957393 -492.5946904 777.78957393 -492.62296402 779.07825256 C-492.7088832 783.01179713 -492.79262094 786.94535817 -492.87103855 790.87905956 C-493.0123985 797.69231806 -493.18001535 804.50191373 -493.45073807 811.31148601 C-494.14298652 828.91425061 -494.36410926 846.49190928 -494.35811233 864.1069826 C-494.35790351 867.95766269 -494.36347304 871.80833591 -494.3681699 875.65901256 C-494.37638813 883.17767373 -494.37922108 890.69632705 -494.37978228 898.21499234 C-494.38026361 904.37625053 -494.3823485 910.53750622 -494.3854829 916.69876362 C-494.39428105 934.36797821 -494.39890593 952.03718681 -494.39815243 969.70640361 C-494.39811247 970.65400645 -494.39807252 971.60160929 -494.39803135 972.57792736 C-494.39799047 973.52676412 -494.39794959 974.47560089 -494.39790747 975.45319028 C-494.39753049 989.70832071 -494.40531121 1003.96342843 -494.41853916 1018.21855236 C-494.65203383 1119.07572292 -494.65203383 1119.07572292 -493.32600987 1219.92045666 C-493.30633585 1220.81857028 -493.28666183 1221.7166839 -493.26639163 1222.64201308 C-492.42900465 1260.53514891 -490.75785028 1298.42208335 -488.44954502 1336.25395275 C-488.29986324 1338.70719086 -488.1532959 1341.16062275 -488.01106846 1343.61430431 C-486.32771438 1372.06085736 -482.00457209 1400.25156121 -476.21272862 1428.13530041 C-475.92001256 1429.59733028 -475.62823574 1431.05954876 -475.33772862 1432.52201916 C-474.2114226 1438.04209185 -472.86486956 1443.29324939 -471.05110752 1448.62138439 C-469.17669994 1454.24187794 -467.5253227 1459.93493317 -465.81819737 1465.60795666 C-454.23668528 1503.9238843 -437.96044909 1541.11103318 -415.21272862 1574.13530041 C-414.55409824 1575.10233898 -414.55409824 1575.10233898 -413.88216221 1576.08891369 C-404.80729267 1589.37016053 -394.60823907 1601.77916132 -383.63460362 1613.52983166 C-381.56573674 1615.75553199 -379.56413304 1618.01548423 -377.58772862 1620.32280041 C-373.69936621 1624.79488792 -369.66464928 1629.21833558 -365.21272862 1633.13530041 C-364.55272862 1633.13530041 -363.89272862 1633.13530041 -363.21272862 1633.13530041 C-362.87241612 1633.97834728 -362.87241612 1633.97834728 -362.52522862 1634.83842541 C-360.84343227 1637.78156901 -358.74163751 1639.63574772 -356.21272862 1641.88530041 C-355.32585362 1642.68451916 -354.43897862 1643.48373791 -353.52522862 1644.30717541 C-351.44254164 1646.34202032 -351.44254164 1646.34202032 -349.21272862 1646.13530041 C-348.88272862 1647.12530041 -348.55272862 1648.11530041 -348.21272862 1649.13530041 C-344.75821875 1652.78482292 -341.06872895 1655.66378515 -336.21272862 1657.13530041 C-336.21272862 1657.79530041 -336.21272862 1658.45530041 -336.21272862 1659.13530041 C-335.55272862 1659.13530041 -334.89272862 1659.13530041 -334.21272862 1659.13530041 C-334.21272862 1659.79530041 -334.21272862 1660.45530041 -334.21272862 1661.13530041 C-332.56272862 1661.79530041 -330.91272862 1662.45530041 -329.21272862 1663.13530041 C-329.21272862 1663.79530041 -329.21272862 1664.45530041 -329.21272862 1665.13530041 C-327.89272862 1665.46530041 -326.57272862 1665.79530041 -325.21272862 1666.13530041 C-325.21272862 1666.79530041 -325.21272862 1667.45530041 -325.21272862 1668.13530041 C-323.14693847 1669.81604502 -323.14693847 1669.81604502 -320.45491612 1671.54936291 C-319.44259922 1672.22483166 -318.43028233 1672.90030041 -317.38728916 1673.59623791 C-316.29843418 1674.31037853 -315.2095792 1675.02451916 -314.08772862 1675.76030041 C-312.99436192 1676.48217541 -311.90099522 1677.20405041 -310.77449619 1677.94780041 C-298.33522432 1687.34302288 -298.33522432 1687.34302288 -284.21272862 1692.13530041 C-284.21272862 1692.79530041 -284.21272862 1693.45530041 -284.21272862 1694.13530041 C-281.02692715 1695.74285628 -277.83878772 1697.34572214 -274.65022862 1698.94780041 C-273.75497471 1699.39961681 -272.8597208 1699.85143322 -271.93733799 1700.31694103 C-265.06138008 1703.76751332 -258.17195664 1706.81136831 -250.96272862 1709.51030041 C-246.94232098 1711.04014975 -243.02925096 1712.65325664 -239.15022862 1714.51030041 C-230.78352038 1718.40408509 -221.94442687 1721.1825012 -213.21272862 1724.13530041 C-211.99408115 1724.55247326 -211.99408115 1724.55247326 -210.75081455 1724.97807384 C-209.96738682 1725.24394298 -209.18395908 1725.50981212 -208.37679112 1725.78373791 C-207.68279209 1726.02011974 -206.98879307 1726.25650158 -206.27376377 1726.5000465 C-203.36447258 1727.39675056 -200.41064504 1727.98949947 -197.43269932 1728.61161876 C-195.28289551 1729.11874833 -193.2721534 1729.77195341 -191.19319737 1730.51420666 C-185.55831795 1732.42102302 -179.8218503 1733.75509133 -174.02522862 1735.07280041 C-172.8861002 1735.33294933 -171.74697178 1735.59309826 -170.57332432 1735.86113048 C-152.92850917 1739.8325336 -135.14948091 1742.83972093 -117.21272862 1745.13530041 C-116.28605381 1745.25760021 -115.35937901 1745.37990001 -114.40462315 1745.50590587 C-79.81513074 1749.97412688 -44.72093664 1750.95037103 -9.90022862 1752.26030041 C-8.41370289 1752.31808162 -8.41370289 1752.31808162 -6.89714634 1752.37703014 C44.98874225 1754.35842113 96.92662344 1754.3231548 148.84138492 1754.37094287 C152.57100886 1754.37450574 156.30063207 1754.37864261 160.0302554 1754.38278253 C176.69552474 1754.40122455 193.36079438 1754.41692608 210.02607239 1754.42468048 C214.05560292 1754.42658779 218.08513345 1754.4285085 222.11466396 1754.43046642 C223.11516912 1754.43095016 224.11567428 1754.4314339 225.14649778 1754.4319323 C240.16554202 1754.43962852 255.18451709 1754.46150946 270.20353115 1754.49198986 C385.43176086 1754.73643979 385.43176086 1754.73643979 500.62711513 1752.30326916 C502.5451482 1752.24110914 502.5451482 1752.24110914 504.50192941 1752.17769337 C534.98855625 1751.18345225 565.38921776 1749.68149677 595.78727138 1747.13530041 C596.47081463 1747.07849346 597.15435789 1747.02168651 597.85861457 1746.96315814 C640.20057875 1743.43627392 681.60242599 1734.87054899 721.78727138 1721.13530041 C723.32689541 1720.61298839 723.32689541 1720.61298839 724.89762295 1720.08012462 C809.72919068 1691.07553239 883.0629378 1632.06303956 933.78727138 1546.13530041 C934.21862392 1545.36444103 934.64997646 1544.59358166 935.09440029 1543.79936291 C958.35070342 1501.82084423 973.38841749 1455.38329167 981.26969326 1408.14653087 C981.7498864 1405.3528034 982.27954274 1402.57522569 982.83414638 1399.79545666 C985.26368246 1387.35868346 986.66830786 1374.86042803 987.91227138 1362.26030041 C987.99276729 1361.45888622 988.07326321 1360.65747204 988.15619839 1359.83177257 C991.02230586 1330.94610785 992.14745409 1301.92913181 993.16495693 1272.9309547 C993.31465325 1268.66520526 993.47128267 1264.39974685 993.63015324 1260.13433052 C995.42824873 1211.60315046 995.94361553 1163.08862287 995.92257149 1114.52863368 C995.92024278 1109.00248244 995.92001974 1103.47633428 995.92108715 1097.95018268 C995.92124038 1097.14726979 995.92139362 1096.34435689 995.92155149 1095.51711329 C995.92187142 1093.88280308 995.92219564 1092.24849287 995.92252408 1090.61418267 C995.92534674 1075.43605032 995.92214691 1060.25792409 995.91672372 1045.07979275 C995.91229251 1032.28782666 995.91305851 1019.49586983 995.91764248 1006.70390392 C996.00265822 916.09296976 996.00265822 916.09296976 995.3952173 825.48488236 C995.36640122 822.88607852 995.33885047 820.28726358 995.3114146 817.68844486 C994.75316577 766.19719935 993.56210212 714.42767917 988.78727138 663.13530041 C988.62557461 661.27711681 988.62557461 661.27711681 988.46061123 659.38139416 C984.94253895 619.30455238 976.9391332 579.92269194 964.22477138 541.76030041 C963.96882198 540.99070995 963.71287258 540.2211195 963.44916714 539.42820812 C949.46474751 497.61515335 929.22482905 458.68961446 901.78727138 424.13530041 C901.04863857 423.20201916 900.31000576 422.26873791 899.54899013 421.30717541 C894.70241087 415.28123316 889.58927064 409.55981224 884.33024013 403.89701916 C882.32556065 401.71989412 880.38601939 399.51817273 878.47477138 397.26030041 C871.30268622 388.99681098 863.36101205 381.06751826 854.99820888 374.01030041 C853.18513555 372.47271171 851.40886805 370.90908322 849.63883388 369.32280041 C807.76495071 332.02448327 756.98369968 307.71759718 703.78727138 291.13530041 C702.82627529 290.83527111 701.8652792 290.53524181 700.87516201 290.22612072 C670.58929263 280.92533632 639.37207272 275.95996205 607.95646084 272.38273693 C605.94841591 272.15368194 603.9410522 271.91867611 601.93375576 271.68315197 C582.60181335 269.47334144 563.18441683 268.54422328 543.75744808 267.6085136 C541.79623966 267.51375355 539.83511902 267.41718207 537.87400234 267.3205421 C483.70872733 264.69227847 429.49535832 264.98401597 375.28259735 265.00000034 C367.25359519 265.00230506 359.22459516 265.00256168 351.19559276 265.00148464 C350.04024484 265.00133141 348.88489691 265.00117817 347.69453844 265.0010203 C345.34544179 265.00070048 342.99634514 265.00037627 340.6472485 265.00004771 C318.7749721 264.99721654 296.90269993 265.00044287 275.03042423 265.00584807 C256.36831648 265.01031754 237.70621496 265.00953437 219.04410732 265.00492931 C197.22532121 264.99954761 175.40653879 264.99748728 153.58775211 265.00054158 C151.25051988 265.00086003 148.91328764 265.00117441 146.57605541 265.00148464 C145.42690609 265.00163892 144.27775676 265.00179319 143.09378473 265.00195214 C135.09541442 265.0028063 127.0970465 265.00137858 119.09867657 264.99900509 C109.32173944 264.99616676 99.54481032 264.99702881 89.76787408 265.00228583 C84.80447976 265.00486892 79.84109865 265.00602269 74.8777045 265.00263668 C37.71807428 264.97943679 0.59548958 265.70469257 -36.52522862 267.44780041 Z " fill="#C55A88" transform="translate(773.2127286158502,14.864699594676495)"/>
<path d="M0 0 C5.06362322 0.00231963 10.12724343 -0.00125723 15.19086599 -0.00397992 C25.04718789 -0.0083689 34.90350206 -0.00749212 44.75982423 -0.00456728 C52.79187596 -0.00228499 60.82392557 -0.00201278 68.85597754 -0.0030911 C70.01040606 -0.00324433 71.16483459 -0.00339756 72.3542458 -0.00355544 C74.70139727 -0.00387525 77.04854874 -0.00419947 79.3957002 -0.00452803 C101.27957733 -0.0073629 123.16345023 -0.00412773 145.04732667 0.00127234 C163.7075969 0.00573495 182.36786089 0.00496501 201.02813101 0.00035357 C222.83814164 -0.00503393 244.6481486 -0.00708466 266.4581598 -0.00403416 C268.79727817 -0.00371571 271.13639653 -0.00340133 273.47551489 -0.0030911 C274.62558987 -0.00293682 275.77566484 -0.00278255 276.96059058 -0.0026236 C284.95306679 -0.00177061 292.94554058 -0.00321403 300.93801641 -0.00557065 C412.2828081 -0.03550974 412.2828081 -0.03550974 463.44219351 2.44322467 C464.79307176 2.50733781 466.14395276 2.57139304 467.49483633 2.63539386 C490.7619679 3.74686148 513.93170843 5.39536534 537.06719351 8.13072467 C537.75782888 8.21193561 538.44846426 8.29314654 539.16002798 8.37681842 C556.94945619 10.4862662 574.54051807 13.4337368 592.06719351 17.13072467 C592.96276968 17.31715533 593.85834585 17.503586 594.7810607 17.69566607 C609.39597237 20.78887109 623.52058541 25.26133437 637.67803335 29.99742389 C640.81042679 31.04486448 643.94805871 32.07493579 647.08672476 33.10338092 C709.35918706 53.81480753 767.4241398 91.9880746 810.06719351 142.13072467 C810.91410757 143.08849811 811.76102163 144.04627154 812.63359976 145.03306842 C825.81732823 160.0102874 837.71170613 176.07396642 848.06719351 193.13072467 C848.53689566 193.90400104 849.00659781 194.6772774 849.49053335 195.47398639 C870.37733718 230.21563374 885.42685206 267.83880696 895.28325796 307.08775592 C895.84608025 309.27243887 896.43052492 311.45159439 897.02886343 313.62681842 C899.3187141 321.95632042 901.21313015 330.28267831 902.76763296 338.78062701 C903.12607598 340.73599048 903.49599252 342.68923935 903.86602163 344.64244342 C907.22365046 362.56563698 909.5104797 380.59792584 911.12969351 398.75572467 C911.21434866 399.69403125 911.29900381 400.63233783 911.38622427 401.59907794 C913.10560356 420.84875555 914.11838701 440.09586149 914.84502554 459.40562701 C915.02657117 464.18694288 915.2351835 468.9666548 915.45180464 473.74649501 C916.69470372 501.48120013 917.30508299 529.21226553 917.61797476 556.97056842 C917.62842369 557.87631964 917.63887261 558.78207086 917.64963818 559.71526909 C918.35473553 621.21863873 918.21870745 682.72908158 918.1966553 744.2355057 C918.19215386 757.03920481 918.1929898 769.84289484 918.1975646 782.64659381 C918.20297225 797.78674412 918.20499505 812.92688912 918.20195234 828.06704026 C918.201634 829.69322916 918.20131963 831.31941805 918.20100927 832.94560695 C918.200855 833.74431463 918.20070072 834.54302231 918.20054177 835.36593325 C918.1996975 840.85080933 918.20111181 846.33568183 918.20348883 851.82055736 C918.22292373 901.00481956 917.60091516 950.14083309 915.78756094 999.29504275 C915.68962759 1001.95029396 915.59287127 1004.60558659 915.49614859 1007.26088214 C914.4953913 1034.58334079 913.33732023 1061.87907295 911.06719351 1089.13072467 C911.01238821 1089.8054079 910.95758291 1090.48009112 910.90111685 1091.1752193 C909.30791811 1110.71688275 906.05550218 1129.88621052 902.43779898 1149.13466144 C902.06653246 1151.13428502 901.70795827 1153.1358305 901.35234976 1155.13829303 C899.65608506 1164.60311827 897.53607904 1173.90065706 895.06719351 1183.19322467 C894.87599936 1183.91595569 894.6848052 1184.6386867 894.48781729 1185.38331866 C888.08493647 1209.40943217 879.47096553 1232.54652376 869.06719351 1255.13072467 C868.66146109 1256.02436725 868.25572866 1256.91800982 867.83770132 1257.83873248 C856.89848977 1281.87723779 843.31921538 1304.30110117 827.06719351 1325.13072467 C826.43684195 1325.94283404 825.80649038 1326.75494342 825.15703726 1327.59166217 C806.8214328 1350.85943128 786.33926712 1372.74413601 763.06719351 1391.13072467 C762.01179846 1392.00982804 760.95853435 1392.89149389 759.90703726 1393.77525592 C718.80393267 1427.99673971 669.67072974 1448.53369372 619.06719351 1464.13072467 C617.76177603 1464.53847125 617.76177603 1464.53847125 616.42998648 1464.95445514 C601.60304381 1469.54427778 586.31665933 1472.34331495 571.06719351 1475.13072467 C569.82727652 1475.35792193 568.58735952 1475.5851192 567.30986929 1475.81920123 C550.75767891 1478.77954293 534.17984533 1480.77792379 517.44219351 1482.31822467 C516.20334906 1482.4364458 516.20334906 1482.4364458 514.93947744 1482.55705523 C500.8982379 1483.87509627 486.83309674 1484.49130033 472.74688101 1485.08604693 C470.68733717 1485.17366679 468.62779421 1485.26130727 466.56825209 1485.34896731 C462.38470039 1485.52664621 458.20109489 1485.7029964 454.0174613 1485.8787353 C449.51405274 1486.06844863 445.01097321 1486.26462057 440.50801039 1486.46459836 C357.60021364 1490.13645912 274.62181589 1489.52641342 191.65421191 1489.40765625 C176.43200647 1489.38594083 161.20982407 1489.37430257 145.98760366 1489.37095904 C144.98081459 1489.37073628 143.97402552 1489.37051351 142.93672769 1489.37028399 C140.90676503 1489.36984121 138.87680237 1489.36939918 136.8468397 1489.36895792 C135.84420328 1489.36873836 134.84156685 1489.36851879 133.8085475 1489.36829257 C132.80754358 1489.36807658 131.80653966 1489.3678606 130.7752023 1489.36763807 C114.98795573 1489.36390251 99.20071333 1489.35256065 83.41347151 1489.34016217 C77.80309407 1489.33580684 72.19271699 1489.33232935 66.58233856 1489.3295481 C12.04899378 1489.30168226 -42.46058861 1489.06876466 -96.95799875 1486.8510921 C-99.38562347 1486.75256645 -101.81332028 1486.65598511 -104.24103403 1486.55967975 C-137.21543899 1485.245072 -170.2304131 1483.81607712 -202.93280649 1479.13072467 C-204.38578135 1478.92370929 -204.38578135 1478.92370929 -205.86810923 1478.71251178 C-215.12812152 1477.34191184 -224.30922938 1475.60848404 -233.49530649 1473.81822467 C-234.28529032 1473.66487659 -235.07527414 1473.5115285 -235.88919687 1473.35353351 C-251.72105891 1470.27034644 -267.63344701 1467.01363216 -282.93280649 1461.81822467 C-285.7919437 1460.84885965 -288.65435039 1459.89700719 -291.52655649 1458.96666217 C-297.68093506 1456.96705301 -303.70812892 1454.91041338 -309.57343149 1452.15416217 C-312.5779279 1450.85088724 -315.64752026 1449.81762956 -318.74530649 1448.75572467 C-324.47419806 1446.75153763 -329.76453993 1444.32521283 -335.14374399 1441.52916217 C-337.66806929 1440.26346405 -340.17136418 1439.19799258 -342.80780649 1438.19322467 C-349.41074525 1435.6577825 -355.64671025 1432.35529277 -361.93280649 1429.13072467 C-361.93280649 1428.47072467 -361.93280649 1427.81072467 -361.93280649 1427.13072467 C-362.60054087 1427.05338092 -363.26827524 1426.97603717 -363.95624399 1426.89634967 C-367.89199508 1425.88400424 -371.10700932 1423.95721132 -374.55780649 1421.88072467 C-375.28475718 1421.44759967 -376.01170786 1421.01447467 -376.76068735 1420.56822467 C-382.78614644 1416.92673767 -388.66456693 1413.07521061 -394.49530649 1409.13072467 C-395.33464731 1408.56708209 -396.17398813 1408.00343951 -397.03876352 1407.42271686 C-397.80946177 1406.89323443 -398.58016001 1406.36375201 -399.37421274 1405.81822467 C-400.06200815 1405.34771686 -400.74980356 1404.87720904 -401.45844126 1404.39244342 C-401.94498178 1403.97607623 -402.43152231 1403.55970904 -402.93280649 1403.13072467 C-402.93280649 1402.47072467 -402.93280649 1401.81072467 -402.93280649 1401.13072467 C-404.25280649 1400.80072467 -405.57280649 1400.47072467 -406.93280649 1400.13072467 C-406.93280649 1399.47072467 -406.93280649 1398.81072467 -406.93280649 1398.13072467 C-408.58280649 1397.47072467 -410.23280649 1396.81072467 -411.93280649 1396.13072467 C-411.93280649 1395.47072467 -411.93280649 1394.81072467 -411.93280649 1394.13072467 C-412.59280649 1394.13072467 -413.25280649 1394.13072467 -413.93280649 1394.13072467 C-413.93280649 1393.47072467 -413.93280649 1392.81072467 -413.93280649 1392.13072467 C-414.59280649 1391.94509967 -415.25280649 1391.75947467 -415.93280649 1391.56822467 C-420.20185918 1389.52263692 -423.67444355 1386.55887823 -426.93280649 1383.13072467 C-426.93280649 1382.47072467 -426.93280649 1381.81072467 -426.93280649 1381.13072467 C-427.48452524 1380.89353717 -428.03624399 1380.65634967 -428.60468149 1380.41197467 C-431.5005536 1378.81827324 -433.72792686 1376.84155194 -436.18280649 1374.63072467 C-437.07483774 1373.83666217 -437.96686899 1373.04259967 -438.88593149 1372.22447467 C-440.93280649 1370.13072467 -440.93280649 1370.13072467 -440.93280649 1368.13072467 C-441.46261118 1367.92705279 -441.99241587 1367.72338092 -442.53827524 1367.51353717 C-445.97295233 1365.53005317 -448.48590275 1362.82951317 -451.24530649 1360.00572467 C-451.82852671 1359.41460895 -452.41174692 1358.82349322 -453.01264048 1358.2144649 C-457.15731515 1353.98760285 -461.11221068 1349.65256908 -464.93280649 1345.13072467 C-465.8194804 1344.11782526 -466.7076395 1343.10622501 -467.59686899 1342.09556842 C-479.15041863 1328.90020858 -489.4915756 1314.90673271 -498.93280649 1300.13072467 C-499.96921274 1298.52004107 -499.96921274 1298.52004107 -501.02655649 1296.87681842 C-516.91504724 1271.29516261 -529.39649674 1243.66515152 -538.93280649 1215.13072467 C-539.26139658 1214.17456256 -539.26139658 1214.17456256 -539.59662485 1213.19908404 C-542.12786858 1205.76182975 -544.25683952 1198.21404435 -546.41522837 1190.66197467 C-546.85898813 1189.12283404 -546.85898813 1189.12283404 -547.31171274 1187.55259967 C-547.57540659 1186.63059772 -547.83910044 1185.70859576 -548.11078501 1184.75865436 C-548.8952619 1182.12128716 -548.8952619 1182.12128716 -549.96454477 1179.6026485 C-550.93880848 1177.1154019 -551.52695653 1174.77574064 -552.04608774 1172.15806842 C-552.23952768 1171.19135211 -552.43296762 1170.2246358 -552.63226938 1169.22862506 C-552.83457163 1168.18569293 -553.03687387 1167.1427608 -553.24530649 1166.06822467 C-553.46114389 1164.96406207 -553.6769813 1163.85989947 -553.89935923 1162.7222774 C-554.58407486 1159.19305314 -555.25861498 1155.66197274 -555.93280649 1152.13072467 C-556.14872446 1151.02116412 -556.36464243 1149.91160357 -556.58710337 1148.76841998 C-561.9589545 1121.03562622 -565.10879174 1093.12878205 -566.71503305 1064.93443561 C-566.89955054 1061.71158533 -567.09668905 1058.48981121 -567.29872751 1055.26802325 C-568.58829098 1034.47698757 -569.30148465 1013.66545261 -569.93182993 992.84569812 C-569.99283105 990.83722895 -570.05495805 988.82879408 -570.11713266 986.8203609 C-571.71653771 934.52228917 -572.09608958 882.23714061 -572.10006356 829.91934419 C-572.100568 824.63657912 -572.10288324 819.35381572 -572.10556078 814.07105136 C-572.11430779 796.43978091 -572.11898931 778.80851639 -572.11823031 761.17724375 C-572.11819035 760.23860144 -572.11815039 759.29995913 -572.11810923 758.33287311 C-572.11806835 757.39300943 -572.11802746 756.45314576 -572.11798535 755.48480137 C-572.11757997 740.29727083 -572.12713805 725.1097652 -572.14124759 709.92224185 C-572.15581385 694.11125575 -572.16250699 678.30028163 -572.16165382 662.48928869 C-572.16132882 653.69952306 -572.16381169 644.90978382 -572.17483187 636.12002444 C-572.22517048 594.01176052 -571.67759488 551.97614935 -570.27541965 509.89017737 C-569.95024046 500.03979459 -569.71633144 490.19001378 -569.53872252 480.33599675 C-567.84160751 394.1327924 -558.49801041 309.12385596 -487.93280649 172.13072467 C-487.45875376 171.47120807 -486.98470102 170.81169147 -486.49628305 170.13218951 C-479.1626344 159.99392239 -471.29446402 150.43515588 -462.93280649 141.13072467 C-462.43281137 140.57288287 -461.93281626 140.01504107 -461.41766977 139.44029498 C-451.20611508 128.09412309 -440.61226978 116.97727948 -428.93280649 107.13072467 C-427.97890024 106.28767779 -427.02499399 105.44463092 -426.04218149 104.57603717 C-411.06384528 91.38569083 -394.99390801 79.48884892 -377.93280649 69.13072467 C-377.15953012 68.66102252 -376.38625376 68.19132037 -375.58954477 67.70738482 C-365.05048042 61.37126128 -354.25205288 55.67210964 -343.18280649 50.31822467 C-342.11949106 49.80340533 -341.05617563 49.288586 -339.96063852 48.75816607 C-325.59450874 41.92477274 -310.90381224 36.18584037 -295.80780649 31.19322467 C-294.65443293 30.8101163 -294.65443293 30.8101163 -293.47775888 30.41926837 C-269.0698629 22.34551403 -244.33140936 16.20960557 -218.93280649 12.13072467 C-218.2869459 12.02608905 -217.6410853 11.92145343 -216.97565317 11.81364703 C-183.71322263 6.44107149 -150.46029089 4.18941402 -116.82752848 2.60393786 C-114.80722922 2.50864541 -112.78697866 2.41232218 -110.76672983 2.31596637 C-73.85648786 0.58051237 -36.94774138 -0.02520563 0 0 Z M-169.63202524 140.16197467 C-170.53532068 140.24314532 -171.43861612 140.32431598 -172.36928415 140.40794635 C-173.20066401 140.48726398 -174.03204386 140.5665816 -174.88861704 140.64830279 C-175.6230755 140.71730792 -176.35753397 140.78631305 -177.11424875 140.85740924 C-179.02720628 141.04904368 -179.02720628 141.04904368 -180.93280649 142.13072467 C-182.31524018 142.36010519 -183.70500406 142.54621408 -185.09686899 142.70884967 C-217.76065056 146.72351205 -248.6955969 155.09660995 -278.93280649 168.13072467 C-279.73927622 168.47603229 -280.54574594 168.8213399 -281.37665415 169.17711139 C-296.95129618 175.92780305 -311.50901799 184.74506487 -324.93280649 195.13072467 C-325.74620493 195.75205279 -326.55960337 196.37338092 -327.39765024 197.01353717 C-344.79742438 210.59250782 -361.6846229 226.59856751 -374.70917368 244.45396686 C-375.9570821 246.1639898 -377.22880915 247.85437616 -378.50311899 249.54478717 C-384.78248883 257.98336215 -390.0087545 266.84659904 -394.93280649 276.13072467 C-395.43892466 277.06924273 -395.43892466 277.06924273 -395.95526743 278.02672076 C-402.35668871 289.95834551 -407.22516231 302.4509591 -411.93280649 315.13072467 C-412.31348276 316.140544 -412.31348276 316.140544 -412.70184946 317.17076373 C-421.1762435 339.87292439 -425.63895813 364.20717556 -428.93280649 388.13072467 C-429.02390696 388.78595111 -429.11500742 389.44117755 -429.2088685 390.11625934 C-432.19782353 411.85453744 -433.4935973 433.6977388 -434.52468729 455.60386539 C-434.61658031 457.55174001 -434.71059225 459.49951432 -434.8046937 461.44728351 C-437.44646643 517.32663834 -437.08510693 573.29788729 -437.06810653 629.22293418 C-437.06579742 637.02678351 -437.06554703 644.83063066 -437.06662226 652.63448024 C-437.06677549 653.75935242 -437.06692872 654.8842246 -437.0670866 656.04318382 C-437.06740642 658.33052146 -437.06773064 660.6178591 -437.06805919 662.90519673 C-437.07088604 684.16937021 -437.06767035 705.43353931 -437.06225882 726.69771207 C-437.05778409 744.84164487 -437.05857769 762.98557128 -437.06317759 781.12950397 C-437.06855728 802.35830169 -437.0706212 823.58709564 -437.06756532 844.81589395 C-437.06724687 847.08866449 -437.06693249 849.36143504 -437.06662226 851.63420558 C-437.06646798 852.7516019 -437.06631371 853.86899822 -437.06615476 855.02025504 C-437.06530043 862.79918976 -437.06672858 870.57812204 -437.06910181 878.35705638 C-437.07193766 887.8579865 -437.07108284 897.35890838 -437.06582107 906.85983758 C-437.06323564 911.68315866 -437.0620886 916.50646612 -437.06547022 921.32978702 C-437.08584277 953.04521107 -436.78010686 984.77358272 -434.93280649 1016.44322467 C-434.74877621 1019.71779986 -434.56849287 1022.99257086 -434.38983774 1026.26744342 C-434.34704187 1027.04543292 -434.30424601 1027.82342242 -434.26015329 1028.62498736 C-433.97129327 1034.01607601 -433.80815748 1039.40249026 -433.69183969 1044.80015826 C-432.9437891 1075.70766847 -428.83431085 1107.00616987 -421.93280649 1137.13072467 C-421.57533335 1138.69355182 -421.57533335 1138.69355182 -421.21063852 1140.28795123 C-410.85322814 1184.51842991 -391.90596124 1225.00599104 -361.17890024 1258.66197467 C-359.6757805 1260.31409932 -358.18878623 1261.98103354 -356.71796274 1263.66197467 C-351.48331178 1269.62340494 -345.93621004 1274.95029852 -339.93280649 1280.13072467 C-338.96729868 1280.98408404 -338.00179087 1281.83744342 -337.00702524 1282.71666217 C-316.20567858 1300.91825185 -290.52856278 1317.45699637 -263.79608774 1325.21666217 C-261.2446718 1326.03116603 -258.83359438 1326.97234455 -256.35858774 1327.99009967 C-224.1620144 1340.99502512 -189.25062303 1345.10646979 -154.93280649 1348.13072467 C-154.14081858 1348.20120013 -153.34883066 1348.2716756 -152.53284311 1348.34428668 C-110.71169665 1352.03479461 -68.6991595 1353.00103789 -26.73700571 1353.67051959 C-24.76498639 1353.7022173 -24.76498639 1353.7022173 -22.75312829 1353.73455536 C14.28436209 1354.31907973 51.32485426 1354.33366691 88.36613005 1354.36636713 C92.25776066 1354.36993189 96.14939057 1354.37406792 100.04102059 1354.37820679 C117.40603413 1354.39661926 134.77104796 1354.41233335 152.13606977 1354.42010474 C156.32600165 1354.42201213 160.51593353 1354.42393286 164.70586538 1354.42589068 C165.74623304 1354.42637442 166.7866007 1354.42685816 167.85849465 1354.42735656 C183.55667298 1354.4350912 199.25478598 1354.45706155 214.9529357 1354.48741412 C327.00525222 1354.97369669 327.00525222 1354.97369669 439.01250601 1352.29869342 C440.56393812 1352.23653341 440.56393812 1352.23653341 442.1467123 1352.17311764 C462.12626461 1351.36379088 482.06810595 1350.24865319 501.99663687 1348.59825397 C502.73496795 1348.53721496 503.47329903 1348.47617595 504.23400378 1348.41328728 C515.56517842 1347.46255703 526.79537795 1346.12843165 538.0010314 1344.18834186 C540.56282175 1343.74568047 543.12783477 1343.32754836 545.69414663 1342.91197467 C563.56233568 1339.9604039 581.04471237 1335.91394992 598.12969351 1329.88072467 C598.80897909 1329.64395007 599.48826468 1329.40717547 600.18813467 1329.16322589 C611.78547474 1325.1132726 623.06100344 1320.59959501 634.06719351 1315.13072467 C634.863673 1314.74062213 635.66015249 1314.35051959 636.48076773 1313.94859576 C697.13983271 1284.02281425 738.14834424 1229.60507549 760.06865835 1166.78184772 C765.58211079 1150.44335241 769.23415919 1133.90023239 772.25469351 1116.94322467 C772.38143454 1116.23614367 772.50817556 1115.52906268 772.63875723 1114.80055499 C775.76495119 1097.22830928 777.44835881 1079.68648683 778.56719351 1061.88072467 C778.66190939 1060.40205417 778.66190939 1060.40205417 778.75853872 1058.89351153 C779.71454462 1043.91673459 780.52156533 1028.93541642 781.19219351 1013.94322467 C781.24983877 1012.672914 781.24983877 1012.672914 781.30864859 1011.37694049 C782.70040404 980.2898539 783.22219889 949.23020133 783.22723627 918.11538827 C783.22912787 913.05844913 783.23669479 908.00151737 783.24337149 902.9445827 C783.25680062 891.93723512 783.26295706 880.92989125 783.26738214 869.92253685 C783.27017484 862.99734319 783.27441747 856.07215086 783.27888632 849.14695811 C783.29106607 829.82981875 783.30136322 810.51268044 783.30476141 791.19553733 C783.30509076 789.35012159 783.30509076 789.35012159 783.30542676 787.46742472 C783.30564504 786.23478906 783.30586332 785.00215341 783.30608821 783.73216516 C783.30653162 781.23586794 783.30697818 778.73957072 783.30742788 776.2432735 C783.30764931 775.005117 783.30787074 773.76696051 783.30809888 772.49128412 C783.31202184 752.56220633 783.32940443 732.63316565 783.35278741 712.70410211 C783.37681138 692.05500044 783.38897731 671.40591711 783.39012933 650.75680131 C783.39102977 639.23988684 783.39644328 627.72302107 783.41494894 616.20612025 C783.48316606 571.85410458 783.31162743 527.54648068 781.7341857 483.21837115 C781.70470124 482.36956097 781.67521679 481.52075079 781.64483887 480.64621909 C780.9971275 462.01878931 780.05215568 443.43771129 778.58410025 424.85571551 C778.49312909 423.70069106 778.49312909 423.70069106 778.40032014 422.52233278 C776.66014658 400.70433854 774.75657636 378.63342949 769.5881896 357.32652545 C769.04016047 355.01679065 768.54495573 352.69962811 768.05547476 350.37681842 C763.12019908 327.56482793 755.48783822 305.02023751 745.06719351 284.13072467 C744.65968863 283.31007525 744.25218374 282.48942584 743.83233023 281.64390826 C738.84889703 271.69813375 733.58284194 262.1652431 727.06719351 253.13072467 C726.38270132 252.17295123 725.69820913 251.21517779 724.99297476 250.22838092 C710.91857007 230.9992571 694.21176374 212.39805446 675.06719351 198.13072467 C673.95866137 197.27063913 672.85062205 196.40991819 671.74297476 195.54869342 C638.62560882 170.16274665 595.14563004 152.36253099 553.77031851 146.58775592 C551.06719351 146.13072467 551.06719351 146.13072467 547.43023062 145.17833209 C543.16514955 144.10294116 538.91618318 143.45719648 534.55547476 142.91197467 C533.75865286 142.80915683 532.96183096 142.70633899 532.14086294 142.60040545 C529.55464344 142.27005958 526.96742758 141.9489792 524.37969351 141.63072467 C523.4830599 141.51989551 522.5864263 141.40906634 521.66262197 141.29487872 C505.8181867 139.35037358 490.01704021 137.88200267 474.06719351 137.13072467 C473.21703665 137.09032062 472.36687979 137.04991656 471.4909606 137.00828815 C464.43383687 136.67582598 457.3758364 136.36657102 450.31719351 136.06822467 C449.36805075 136.02775012 448.41890799 135.98727557 447.44100332 135.94557452 C412.7071379 134.48970897 377.97468681 133.97659377 343.21344125 133.98534095 C337.99759556 133.98554997 332.78175493 133.97997989 327.56591177 133.97528338 C317.40597373 133.96708158 307.24604149 133.96423337 297.08610041 133.96367101 C288.80144074 133.96319077 280.51678293 133.9611112 272.23212385 133.95797038 C248.58566551 133.94919221 224.93921166 133.94454651 201.29275168 133.94530085 C200.0258541 133.94534081 198.75895653 133.94538077 197.45366812 133.94542193 C196.18516903 133.94546281 194.91666994 133.9455037 193.60973149 133.94554581 C173.09765858 133.94595142 152.58560411 133.93639583 132.07353652 133.92228357 C110.85710435 133.90780545 89.64068109 133.9010196 68.42424387 133.90187734 C56.57514768 133.90220542 44.72607101 133.89957592 32.87697935 133.88869929 C-34.71469274 133.82967573 -102.25708136 133.96087802 -169.63202524 140.16197467 Z " fill="#FEFEFE" transform="translate(850.9328064918518,279.8692753314972)"/>
<path d="M0 0 C1.23824524 -0.00626404 2.47649048 -0.01252808 3.7522583 -0.01898193 C25.91869175 -0.08986457 48.0916722 1.24344447 69.80664062 5.95996094 C72.45347957 6.5202658 75.10904044 7.02698113 77.765625 7.5390625 C141.82853027 20.34870332 202.16346012 51.3454374 251.0625 94.4375 C252.14930054 95.39293701 252.14930054 95.39293701 253.25805664 96.36767578 C259.41209173 101.83725077 265.32964889 107.51838058 271.14916992 113.33886719 C272.62205972 114.8095641 274.10280265 116.27203534 275.58398438 117.734375 C281.85318862 123.96713872 287.55750448 130.51604342 293.0625 137.4375 C293.92585829 138.46507521 294.79424922 139.48848942 295.671875 140.50390625 C312.36676969 159.97112834 326.07697325 181.81725529 338.0625 204.4375 C338.71750488 205.66364014 338.71750488 205.66364014 339.38574219 206.91455078 C347.53138992 222.27633929 354.03797064 238.13814196 360.0625 254.4375 C360.40265137 255.34790039 360.74280273 256.25830078 361.09326172 257.19628906 C368.9736396 278.54292691 374.76998838 301.56875884 377.41870117 324.1796875 C377.82313947 327.59730415 378.28857695 330.9957867 378.81933594 334.39599609 C381.22827352 350.26069517 381.57703974 365.91160025 381.5 381.9375 C381.49699338 383.27234846 381.49425936 384.60719756 381.49179077 385.94204712 C381.44159954 405.4248948 380.71096338 424.26669976 377.0625 443.4375 C376.6843748 445.59626297 376.30677025 447.7551172 375.9296875 449.9140625 C364.11278429 514.93189739 335.95168719 575.92177696 293.59179688 626.59960938 C292.18622006 628.28881472 290.80199082 629.99311765 289.421875 631.703125 C282.75791489 639.83932666 275.41046988 647.30049403 268 654.75 C267.49302582 655.26224121 266.98605164 655.77448242 266.4637146 656.30224609 C259.66557006 663.15494068 252.61442743 669.40835457 245.0625 675.4375 C243.94892081 676.38397457 242.8408753 677.33706042 241.7421875 678.30078125 C233.29416938 685.67808956 224.34888335 692.15749975 215.0625 698.4375 C214.37671875 698.9015625 213.6909375 699.365625 212.984375 699.84375 C176.98396069 724.02723442 138.12170963 741.03822237 96.40625 752.51733398 C94.3252947 753.08999173 92.24667379 753.67129209 90.171875 754.26586914 C83.16158258 756.2536827 76.10446961 757.69691462 68.9375 759 C67.75043457 759.21688477 66.56336914 759.43376953 65.34033203 759.65722656 C-30.47722784 776.83219513 -133.35630614 755.47649991 -213.82421875 700.6171875 C-214.85160156 699.89789062 -215.87898437 699.17859375 -216.9375 698.4375 C-217.60990723 697.96731445 -218.28231445 697.49712891 -218.97509766 697.01269531 C-228.40799707 690.38841023 -237.4809898 683.54756298 -246.15234375 675.95166016 C-247.51448271 674.79630105 -248.90224675 673.67108445 -250.30078125 672.56005859 C-257.4485641 666.86902497 -263.95041133 660.7340927 -270.38134766 654.25439453 C-272.06064428 652.56436758 -273.75038969 650.88532236 -275.44140625 649.20703125 C-282.0659909 642.59049915 -288.10824238 635.77171645 -293.9375 628.4375 C-294.88372465 627.32370844 -295.83682755 626.215671 -296.80078125 625.1171875 C-303.62746381 617.2997105 -309.66349646 609.06937367 -315.52050781 600.50585938 C-316.82268536 598.60509297 -318.13995531 596.71584103 -319.4609375 594.828125 C-344.22309968 559.04171253 -360.97892774 518.37635713 -371.9375 476.4375 C-372.18725586 475.49471191 -372.43701172 474.55192383 -372.69433594 473.58056641 C-376.41744183 459.37751125 -379.01426694 444.99122588 -380.9375 430.4375 C-381.07090286 429.45966049 -381.07090286 429.45966049 -381.20700073 428.46206665 C-382.9687007 415.22760414 -383.21736812 402.11514211 -383.14331055 388.77612305 C-383.12500572 385.37606276 -383.12280218 381.97627651 -383.12304688 378.57617188 C-383.09605149 360.57777531 -382.5070003 342.97495689 -379.6875 325.1875 C-379.57734558 324.47860626 -379.46719116 323.76971252 -379.35369873 323.03933716 C-377.42965511 310.70100654 -375.11455203 298.51924715 -371.9375 286.4375 C-371.69837891 285.51839844 -371.45925781 284.59929687 -371.21289062 283.65234375 C-363.87675315 255.92966485 -352.97507341 229.89382332 -339.9375 204.4375 C-339.4528125 203.4902002 -338.968125 202.54290039 -338.46875 201.56689453 C-325.20933673 175.94741029 -308.16047187 151.92359228 -288.9375 130.4375 C-288.11636719 129.50550781 -287.29523438 128.57351563 -286.44921875 127.61328125 C-274.93473449 114.77364639 -262.85569617 101.80251776 -249.20703125 91.21484375 C-247.00305174 89.4888357 -244.9824674 87.65995985 -242.9375 85.75 C-223.95759357 68.78565885 -201.38443939 55.26751666 -178.9375 43.4375 C-178.12442383 43.00373047 -177.31134766 42.56996094 -176.47363281 42.12304688 C-161.10395322 33.97201497 -145.2188883 27.52082333 -128.9375 21.4375 C-127.5138916 20.90044434 -127.5138916 20.90044434 -126.06152344 20.35253906 C-106.01109171 12.89871439 -84.97256768 8.12696046 -63.9375 4.4375 C-62.73303223 4.22432129 -61.52856445 4.01114258 -60.28759766 3.79150391 C-40.25764123 0.43498895 -20.27996612 0.04802438 0 0 Z " fill="#FEFEFE" transform="translate(1024.9375,641.5625)"/>
<path d="M0 0 C0.75032501 0.00059418 1.50065002 0.00118835 2.27371216 0.00180054 C17.00447144 0.04642146 31.54509081 0.456371 46 3.5625 C47.08152344 3.78905273 48.16304687 4.01560547 49.27734375 4.24902344 C52.33481834 4.89882844 55.38690471 5.56871637 58.4375 6.25 C59.1579248 6.40839355 59.87834961 6.56678711 60.62060547 6.72998047 C102.36484804 16.1308578 141.40159045 38.13982426 171.9375 67.84716797 C174.00124446 69.77722586 176.23053761 71.48744301 178.4375 73.25 C179.5564587 74.42541992 180.64183146 75.63392875 181.6875 76.875 C184.26672857 79.90351355 186.91453374 82.83857692 189.625 85.75 C234.65623388 135.9624926 252.48979655 201.49326955 249.58587646 267.71221924 C248.54771411 285.46859632 245.05842148 303.39112009 239.4375 320.25 C239.05489014 321.43045898 239.05489014 321.43045898 238.66455078 322.63476562 C226.55146672 359.7921759 206.95210074 395.10045993 178.4375 422.25 C177.65375 423.03375 176.87 423.8175 176.0625 424.625 C175.19625 425.49125 174.33 426.3575 173.4375 427.25 C172.83808594 427.88421875 172.23867187 428.5184375 171.62109375 429.171875 C165.09764815 435.94760856 157.94844816 441.62814616 150.4375 447.25 C149.798125 447.7337207 149.15875 448.21744141 148.5 448.71582031 C123.78484718 467.28896343 95.97153443 479.59407845 66.4375 488.25 C65.1081543 488.64457397 65.1081543 488.64457397 63.75195312 489.04711914 C32.65602082 497.9418562 -1.65780729 499.06817856 -33.5625 494.25 C-34.87686035 494.0646167 -34.87686035 494.0646167 -36.21777344 493.87548828 C-73.60742755 488.50715124 -109.84634176 474.34895547 -140.5625 452.25 C-141.21557129 451.78480957 -141.86864258 451.31961914 -142.54150391 450.84033203 C-152.18797984 443.93152551 -161.06555571 436.52254081 -169.5625 428.25 C-170.57062744 427.28054443 -170.57062744 427.28054443 -171.59912109 426.29150391 C-181.06261266 417.16988605 -189.88127102 407.92828254 -197.5625 397.25 C-198.01286621 396.62802734 -198.46323242 396.00605469 -198.92724609 395.36523438 C-229.91450484 352.25817746 -246.7867238 302.28770309 -246.75 249.125 C-246.74972809 248.45190796 -246.74945618 247.77881592 -246.74917603 247.08532715 C-246.72814313 235.68987 -246.10342478 224.5378855 -244.5625 213.25 C-244.47129883 212.49992676 -244.38009766 211.74985352 -244.28613281 210.97705078 C-239.74803652 173.70893021 -224.52276224 136.62468434 -202.5625 106.25 C-201.82515625 105.22003906 -201.0878125 104.19007813 -200.328125 103.12890625 C-195.14446054 96.06110843 -189.57371055 89.35164422 -183.84082031 82.72802734 C-182.6770038 81.38239228 -181.52162454 80.02947166 -180.3671875 78.67578125 C-176.72804685 74.47293057 -172.97035159 70.68271922 -168.71875 67.1015625 C-167.2052705 65.80194424 -165.72854132 64.45888166 -164.28125 63.0859375 C-151.5018542 50.97706555 -136.95180217 40.76191132 -121.5625 32.25 C-120.41539551 31.60683838 -120.41539551 31.60683838 -119.24511719 30.95068359 C-101.96969776 21.33009739 -83.72028888 13.3159742 -64.5625 8.25 C-63.84545898 8.0545459 -63.12841797 7.8590918 -62.38964844 7.65771484 C-41.74269232 2.09439042 -21.33160995 -0.01847466 0 0 Z " fill="#EF4C5C" transform="translate(1022.5625,775.75)"/>
<path d="M0 0 C18.10908747 15.17026004 30.89615543 35.86853848 33.35400391 59.68164062 C34.96868447 85.36127183 28.70840618 109.43771442 11.53833008 129.14794922 C-4.67157571 147.18716012 -27.10111198 158.47522765 -51.38427734 160.06445312 C-76.13627704 160.99633494 -99.18923682 152.01187222 -117.60693359 135.56054688 C-131.31124834 122.84366092 -138.60369333 107.31638435 -143.64599609 89.68164062 C-143.91412109 88.76769531 -144.18224609 87.85375 -144.45849609 86.91210938 C-147.29473833 75.35048302 -146.22138813 62.18068405 -143.64599609 50.68164062 C-143.47455078 49.82957031 -143.30310547 48.9775 -143.12646484 48.09960938 C-139.75131255 33.57556692 -132.31387913 20.85662317 -122.64599609 9.68164062 C-121.80488281 8.68970703 -121.80488281 8.68970703 -120.94677734 7.67773438 C-89.77562308 -26.16298978 -35.11199283 -28.12292514 0 0 Z " fill="#FEFEFE" transform="translate(1477.64599609375,556.318359375)"/>
</svg>
