<?xml version="1.0" encoding="UTF-8"?>
<svg version="1.1" xmlns="http://www.w3.org/2000/svg" width="1237" height="1205">
<path d="M0 0 C1.7282939 -0.0184966 1.7282939 -0.0184966 3.49150282 -0.03736687 C7.33792183 -0.06987404 11.18245333 -0.05256211 15.02894592 -0.03515625 C17.79238602 -0.04408671 20.55573317 -0.06339395 23.31912231 -0.08206177 C30.03710284 -0.1208228 36.75456798 -0.12161936 43.4726271 -0.10822332 C48.93481162 -0.09786578 54.3968454 -0.1004782 59.85902596 -0.11224365 C60.63757119 -0.11389373 61.41611642 -0.11554381 62.21825393 -0.11724389 C63.80005685 -0.1206267 65.38185973 -0.12402761 66.96366257 -0.12744641 C81.78403334 -0.15772605 96.60411399 -0.14361164 111.42447186 -0.11527562 C124.97125197 -0.09064727 138.51732556 -0.11821711 152.06400674 -0.17097998 C165.98842826 -0.2248063 179.91252262 -0.245334 193.83704478 -0.22914505 C195.41320926 -0.22741857 196.98937381 -0.22574372 198.56553841 -0.22412109 C199.72866403 -0.22292334 199.72866403 -0.22292334 200.91528715 -0.22170138 C206.3675643 -0.21824193 211.81952237 -0.23635263 217.27172661 -0.26318359 C223.92135614 -0.29547508 230.57007415 -0.29588627 237.21967619 -0.25576103 C240.61018368 -0.23614101 243.9977542 -0.23560081 247.3883934 -0.26471329 C270.29127459 -0.44602929 270.29127459 -0.44602929 276.7718811 5.31713867 C277.98977634 6.80695232 279.16879231 8.33077436 280.27919006 9.90234375 C282.07660791 11.39980138 283.88559627 12.88375797 285.71669006 14.33984375 C290.49203408 18.2017605 295.01586691 22.27908599 299.53309631 26.4375 C302.19794173 28.82941672 304.92750832 31.09489259 307.71669006 33.33984375 C312.25235449 36.9980539 316.53620176 40.8497734 320.79847717 44.81616211 C324.03112981 47.80661375 327.34615773 50.64013382 330.77919006 53.40234375 C334.75548432 56.60166097 338.54587304 59.9281932 342.27919006 63.40234375 C346.88920645 67.69192135 351.65702242 71.70645272 356.56434631 75.65625 C360.34486293 78.78401554 363.92399881 82.11508258 367.53309631 85.4375 C370.19794173 87.82941672 372.92750832 90.09489259 375.71669006 92.33984375 C380.25235449 95.9980539 384.53620176 99.8497734 388.79847717 103.81616211 C392.03112981 106.80661375 395.34615773 109.64013382 398.77919006 112.40234375 C402.75548432 115.60166097 406.54587304 118.9281932 410.27919006 122.40234375 C414.88920645 126.69192135 419.65702242 130.70645272 424.56434631 134.65625 C428.34486293 137.78401554 431.92399881 141.11508258 435.53309631 144.4375 C438.19794173 146.82941672 440.92750832 149.09489259 443.71669006 151.33984375 C448.25235449 154.9980539 452.53620176 158.8497734 456.79847717 162.81616211 C460.03112981 165.80661375 463.34615773 168.64013382 466.77919006 171.40234375 C470.75548432 174.60166097 474.54587304 177.9281932 478.27919006 181.40234375 C482.88920645 185.69192135 487.65702242 189.70645272 492.56434631 193.65625 C496.34486293 196.78401554 499.92399881 200.11508258 503.53309631 203.4375 C506.19794173 205.82941672 508.92750832 208.09489259 511.71669006 210.33984375 C516.25235449 213.9980539 520.53620176 217.8497734 524.79847717 221.81616211 C528.03112981 224.80661375 531.34615773 227.64013382 534.77919006 230.40234375 C538.75548432 233.60166097 542.54587304 236.9281932 546.27919006 240.40234375 C550.88920645 244.69192135 555.65702242 248.70645272 560.56434631 252.65625 C564.34486293 255.78401554 567.92399881 259.11508258 571.53309631 262.4375 C574.19794173 264.82941672 576.92750832 267.09489259 579.71669006 269.33984375 C584.25235449 272.9980539 588.53620176 276.8497734 592.79847717 280.81616211 C596.03112981 283.80661375 599.34615773 286.64013382 602.77919006 289.40234375 C606.75548432 292.60166097 610.54587304 295.9281932 614.27919006 299.40234375 C618.87773703 303.68124916 623.6313551 307.68822277 628.52919006 311.625 C632.50779132 314.91977917 636.28182573 318.41698925 640.06434631 321.93359375 C642.11598127 323.92906163 642.11598127 323.92906163 644.27919006 324.90234375 C644.27919006 366.48234375 644.27919006 408.06234375 644.27919006 450.90234375 C647.57919006 451.56234375 650.87919006 452.22234375 654.27919006 452.90234375 C670.23176509 457.71494057 683.90430068 465.7630424 696.27919006 476.90234375 C697.10805725 477.63710938 697.93692444 478.371875 698.79090881 479.12890625 C721.46776002 500.41737882 730.26428709 528.6787992 732.27919006 558.90234375 C655.05919006 558.90234375 577.83919006 558.90234375 498.27919006 558.90234375 C498.46669006 464.96484375 498.46669006 464.96484375 498.61195374 435.31274414 C498.60214274 426.53513109 498.60214274 426.53513109 498.57772827 417.7575531 C498.56725066 413.84989646 498.58759146 409.9437091 498.62667847 406.03623962 C498.67557126 401.04712477 498.6715185 396.06065334 498.62960684 391.07150352 C498.62317765 389.24359495 498.6351371 387.41550414 498.66787183 385.58787739 C499.03414035 375.64475944 499.03414035 375.64475944 494.91654396 366.92983818 C492.14237069 364.64608087 489.33034731 362.79078954 486.27919006 360.90234375 C484.58261807 359.43625328 482.91116664 357.94001414 481.27919006 356.40234375 C477.86179634 353.28775707 474.37396657 350.31047755 470.77919006 347.40234375 C466.31642793 343.79201933 462.05199473 340.01806446 457.81044006 336.15234375 C455.19074197 333.82372322 452.50403697 331.60671428 449.77919006 329.40234375 C446.18441356 326.49420995 442.69658378 323.51693043 439.27919006 320.40234375 C435.9592952 317.37951954 432.58154895 314.47722214 429.09169006 311.65234375 C422.65207013 306.4371586 416.42463603 300.98902623 410.17567444 295.54882812 C407.20063818 292.96596966 404.20974946 290.40177461 401.21669006 287.83984375 C400.64329895 287.34895264 400.06990784 286.85806152 399.47914124 286.35229492 C398.32388488 285.36349172 397.16853031 284.37480326 396.01307678 283.38623047 C393.1002496 280.89338851 390.18984946 278.39771609 387.27919006 275.90234375 C386.11253488 274.90233035 384.94586822 273.90233034 383.77919006 272.90234375 C334.77919006 230.90234375 334.77919006 230.90234375 333.02894592 229.40209961 C331.86313902 228.40285979 330.69728621 227.40367352 329.53138733 226.40454102 C326.60118608 223.89334914 323.67180715 221.38120982 320.74403381 218.8671875 C315.1049735 214.0265782 309.45705582 209.19740742 303.77919006 204.40234375 C297.50750057 199.10578485 291.27327935 193.76629952 285.04530334 188.41845703 C282.12476731 185.9113339 279.20186695 183.40697047 276.27919006 180.90234375 C275.11251191 179.90235716 273.94584524 178.90235715 272.77919006 177.90234375 C271.91294006 177.15984375 271.91294006 177.15984375 271.02919006 176.40234375 C252.86382548 160.83203125 234.6984609 145.26171875 216.53309631 129.69140625 C216.02004629 129.26681594 215.50699627 128.84222563 214.97839928 128.40476894 C213.27919006 126.90234375 213.27919006 126.90234375 211.947855 125.34755802 C208.22371556 121.33011552 205.10761154 120.44619509 199.67845154 120.10679626 C196.96609102 120.05589585 194.26575495 120.0370941 191.55409241 120.04663086 C190.05690244 120.0302976 188.55973766 120.01149925 187.06260681 119.99043274 C183.00838286 119.94183914 178.9549463 119.93175326 174.90046263 119.93173289 C171.50630141 119.92899464 168.11231293 119.90936963 164.71820986 119.89043909 C156.70181162 119.84681915 148.6858239 119.83655835 140.66932678 119.84545898 C132.4258029 119.85388823 124.18434821 119.79947605 115.9412998 119.71491426 C108.84366593 119.644744 101.74669948 119.61755385 94.64872324 119.6233483 C90.41842409 119.62616773 86.18985393 119.61251214 81.95989609 119.55592155 C77.97459268 119.50419184 73.9927426 119.50653943 70.00735855 119.54839897 C68.55502042 119.55488914 67.10245074 119.54306252 65.65046692 119.51033401 C55.98885186 119.30728383 50.49823041 121.21041457 43.58948934 127.66772264 C42.14676742 129.0731754 40.71285005 130.48764837 39.27919006 131.90234375 C37.48392459 133.40238113 35.67425167 134.88560573 33.84169006 136.33984375 C29.59526624 139.79508526 25.42622712 143.32932209 21.27919006 146.90234375 C16.26322603 151.22401917 11.18743899 155.45713416 6.04872131 159.6328125 C0.7347734 163.98740169 -4.4860776 168.4531281 -9.72080994 172.90234375 C-15.82969029 178.09453397 -21.93591634 183.28357956 -28.15830994 188.33984375 C-32.40473376 191.79508526 -36.57377288 195.32932209 -40.72080994 198.90234375 C-45.73677397 203.22401917 -50.81256101 207.45713416 -55.95127869 211.6328125 C-61.2652266 215.98740169 -66.4860776 220.4531281 -71.72080994 224.90234375 C-77.82969029 230.09453397 -83.93591634 235.28357956 -90.15830994 240.33984375 C-94.40473376 243.79508526 -98.57377288 247.32932209 -102.72080994 250.90234375 C-107.73677397 255.22401917 -112.81256101 259.45713416 -117.95127869 263.6328125 C-123.2652266 267.98740169 -128.4860776 272.4531281 -133.72080994 276.90234375 C-139.82969029 282.09453397 -145.93591634 287.28357956 -152.15830994 292.33984375 C-156.40473376 295.79508526 -160.57377288 299.32932209 -164.72080994 302.90234375 C-169.73677397 307.22401917 -174.81256101 311.45713416 -179.95127869 315.6328125 C-185.2652266 319.98740169 -190.4860776 324.4531281 -195.72080994 328.90234375 C-201.82969029 334.09453397 -207.93591634 339.28357956 -214.15830994 344.33984375 C-218.4047525 347.79510051 -222.57337901 351.32975978 -226.72080994 354.90234375 C-231.09228395 358.661285 -235.47388077 362.40522559 -239.90830994 366.08984375 C-240.76811462 366.80527344 -241.62791931 367.52070313 -242.51377869 368.2578125 C-244.72080994 369.90234375 -244.72080994 369.90234375 -247.72080994 370.90234375 C-247.72080994 432.94234375 -247.72080994 494.98234375 -247.72080994 558.90234375 C-324.61080994 558.90234375 -401.50080994 558.90234375 -480.72080994 558.90234375 C-480.72080994 528.61124019 -469.90161992 501.6476987 -448.70909119 479.80859375 C-434.84350044 466.06700796 -413.00465958 450.90234375 -392.72080994 450.90234375 C-392.73094966 450.26219141 -392.74108938 449.62203907 -392.75153637 448.96248817 C-392.99494149 433.35370919 -393.17671861 417.74559423 -393.29074383 402.13538551 C-393.34735852 394.5861438 -393.42447481 387.03817222 -393.55064392 379.48974609 C-393.66062003 372.90694879 -393.73132737 366.32507153 -393.75578338 359.74138105 C-393.77007132 356.25787147 -393.80339885 352.7769927 -393.88384056 349.2943306 C-394.39174192 326.42534127 -394.39174192 326.42534127 -390.38331604 321.0692749 C-387.60548492 318.50247562 -385.01241009 316.73633512 -381.72080994 314.90234375 C-379.94767499 313.49347941 -378.19429402 312.05903021 -376.47080994 310.58984375 C-375.11149353 309.4915625 -375.11149353 309.4915625 -373.72471619 308.37109375 C-370.23364815 305.50197151 -366.81702762 302.55589914 -363.40830994 299.58984375 C-362.77473572 299.03868896 -362.1411615 298.48753418 -361.48838806 297.91967773 C-360.20232539 296.80056216 -358.91635546 295.68133999 -357.63047791 294.56201172 C-350.58808603 288.44155915 -343.53078192 282.34204038 -336.28330994 276.46484375 C-329.93804113 271.31047583 -323.79571545 265.9287161 -317.63047791 260.56201172 C-310.58808603 254.44155915 -303.53078192 248.34204038 -296.28330994 242.46484375 C-289.93478755 237.30783289 -283.78987777 231.92290015 -277.62168884 226.55322266 C-269.67714065 219.65352642 -261.66075728 212.83703102 -253.61924744 206.05078125 C-249.59177744 202.64893766 -245.59171775 199.2161638 -241.59580994 195.77734375 C-237.53456184 192.28414893 -233.44562215 188.83785824 -229.28330994 185.46484375 C-222.93804113 180.31047583 -216.79571545 174.9287161 -210.63047791 169.56201172 C-203.48689752 163.35361752 -196.32435122 157.17410403 -188.97080994 151.21484375 C-184.58929198 147.65966471 -180.40370312 143.93464838 -176.23252869 140.13671875 C-172.83623487 137.11544338 -169.30488014 134.27658442 -165.77159119 131.41796875 C-162.20024495 128.47309426 -158.70866506 125.44517399 -155.22080994 122.40234375 C-150.93874702 118.66819207 -146.63749159 114.97775271 -142.22080994 111.40234375 C-135.89207249 106.27372244 -129.77375159 100.90959704 -123.63047791 95.56201172 C-116.48689752 89.35361752 -109.32435122 83.17410403 -101.97080994 77.21484375 C-97.58929198 73.65966471 -93.40370312 69.93464838 -89.23252869 66.13671875 C-85.83623487 63.11544338 -82.30488014 60.27658442 -78.77159119 57.41796875 C-75.20024495 54.47309426 -71.70866506 51.44517399 -68.22080994 48.40234375 C-63.93874702 44.66819207 -59.63749159 40.97775271 -55.22080994 37.40234375 C-50.87496154 33.88059697 -46.62875579 30.25974992 -42.40830994 26.58984375 C-41.77586365 26.03989746 -41.14341736 25.48995117 -40.49180603 24.92333984 C-39.20750062 23.80597131 -37.92332132 22.68845781 -36.63926697 21.57080078 C-33.54782314 18.88221245 -30.44983023 16.20139943 -27.34580994 13.52734375 C-26.81173523 13.06416748 -26.27766052 12.60099121 -25.72740173 12.1237793 C-24.68630389 11.22824043 -23.63645484 10.34275011 -22.57710987 9.46887207 C-21.29775766 8.38922894 -20.05003653 7.27135158 -18.83071512 6.12434387 C-12.68221936 0.70196062 -8.0454461 -0.10773632 0 0 Z " fill="#31CACB" transform="translate(492.72080993652344,-0.90234375)"/>
<path d="M0 0 C76.89 0 153.78 0 233 0 C233.33 26.07 233.66 52.14 234 79 C236.56694443 107.23638875 241.90783253 131.61959636 258 155 C258.91845703 156.35544922 258.91845703 156.35544922 259.85546875 157.73828125 C270.84136963 173.39035859 283.98175302 187.1926908 299 199 C299.96292969 199.77988281 300.92585938 200.55976562 301.91796875 201.36328125 C373.0134055 257.86117585 472.2092975 278.21057903 561 283 C562.02609375 283.05639648 563.0521875 283.11279297 564.109375 283.17089844 C647.5062512 287.51020634 732.40365389 279.55134846 853 236 C853.91088379 235.58041016 854.82176758 235.16082031 855.76025391 234.72851562 C874.1862809 226.14283732 892.15388014 215.77671396 908 203 C909.24330078 202.0409375 909.24330078 202.0409375 910.51171875 201.0625 C917.3457321 195.74119604 923.71666848 189.95057581 930 184 C930.94230469 183.11183594 931.88460937 182.22367188 932.85546875 181.30859375 C959.32107106 155.664209 974.36096713 122.39032871 978 86 C978.33 57.62 978.66 29.24 979 0 C1056.22 0 1133.44 0 1213 0 C1210.09714126 30.48001682 1202.69234592 54.55945281 1182 77 C1181.41863281 77.66257812 1180.83726563 78.32515625 1180.23828125 79.0078125 C1164.01301439 96.58177913 1137.51056502 108.4516888 1113.86187744 110.15390015 C1108.760886 110.35451871 1103.66514414 110.27725776 1098.5625 110.1875 C1097.04102915 110.17239734 1095.51954349 110.15871899 1093.99804688 110.14648438 C1090.33171438 110.11398617 1086.66595833 110.06252619 1083 110 C1082.95681641 110.73573242 1082.91363281 111.47146484 1082.86914062 112.22949219 C1082.36800546 119.44997633 1081.29278685 126.24269671 1079.5 133.25 C1079.23864258 134.27577148 1078.97728516 135.30154297 1078.70800781 136.35839844 C1069.99087835 169.27082855 1053.93808841 198.35494611 1033 225 C1031.84564453 226.47533203 1031.84564453 226.47533203 1030.66796875 227.98046875 C1018.31694174 243.40256194 1004.25772579 258.43113572 989 271 C987.90171875 271.93199219 987.90171875 271.93199219 986.78125 272.8828125 C971.36361186 285.77842959 955.03596989 297.35390792 938 308 C937.35820801 308.40379883 936.71641602 308.80759766 936.05517578 309.22363281 C867.14797952 352.37235153 786.83468172 376.91275159 436.15234375 378.18579102 C347.87758358 357.61953123 262.09177607 320.35562936 173 234 C172.16597656 233.01644531 171.33195313 232.03289062 170.47265625 231.01953125 C142.50303439 197.49162738 118.60581435 154.3960759 116 110 C114.77667969 110.04640625 113.55335937 110.0928125 112.29296875 110.140625 C84.42627238 110.87153645 59.21469851 102.31849393 38 84 C37.26523437 83.40960937 36.53046875 82.81921875 35.7734375 82.2109375 C15.62876428 65.48302864 2.6424825 38.83760662 0 13 C0 8.71 0 4.42 0 0 Z " fill="#FDDB00" transform="translate(12,584)"/>
<path d="M0 0 C22.16281168 -0.6518474 41.81880203 8.35742818 57.9375 23.125 C80.42452203 45.03630009 90.44597615 75.05823209 91.1875 106 C90.88346696 139.2071643 79.04855962 167.57743351 55.859375 191.24609375 C40.44240198 205.89221812 19.80758593 212.7186057 -1.1953125 212.375 C-25.45608315 210.80662695 -44.09486662 198.98123547 -60.3125 181.75 C-79.73548295 159.06974662 -87.96937724 127.54539172 -86.0625 98.125 C-83.7459149 68.8053486 -72.68233818 39.79625592 -50.0625 20.125 C-35.46419183 7.97172867 -18.93967104 1.14785885 0 0 Z " fill="#31CACB" transform="translate(800.0625,477.875)"/>
<path d="M0 0 C22.27703752 -0.65520699 41.68794002 8.41193136 57.9375 23.125 C80.28184549 44.86544426 90.59737345 74.97178449 91.125 105.75 C90.81475993 137.29107336 79.87784054 166.36468808 58.1875 189.375 C42.10289744 204.90409038 21.15437732 212.53684787 -1.01953125 212.33984375 C-25.1982491 211.40159994 -44.27664556 198.78809534 -60.3125 181.75 C-79.73548295 159.06974662 -87.96937724 127.54539172 -86.0625 98.125 C-83.7459149 68.8053486 -72.68233818 39.79625592 -50.0625 20.125 C-35.46419183 7.97172867 -18.93967104 1.14785885 0 0 Z " fill="#31CACB" transform="translate(440.0625,477.875)"/>
<path d="M0 0 C13.86 0 27.72 0 42 0 C47.2622967 9.93989377 52.37991369 19.67045934 57 29.875 C62.28533287 41.40869531 67.75532894 52.84487567 73.3125 64.25 C73.88907349 65.43357086 73.88907349 65.43357086 74.47729492 66.64105225 C76.6481895 71.0956711 78.82256905 75.54857274 81 80 C81.33 80 81.66 80 82 80 C86.62 53.6 91.24 27.2 96 0 C110.19 0 124.38 0 139 0 C137.7224236 9.58182299 136.3764263 19.05542748 134.67749023 28.55712891 C134.45447235 29.81925201 134.23145447 31.08137512 134.00167847 32.38174438 C133.39922906 35.79068441 132.79290876 39.19892491 132.18577456 42.60703325 C131.54739172 46.19436075 130.91259426 49.78232279 130.27735901 53.37020874 C129.2127946 59.38015358 128.14593098 65.38968628 127.07739258 71.39892578 C125.57149769 79.86779804 124.06993196 88.33743378 122.56915367 96.80721402 C121.39982331 103.40548203 120.22927085 110.00353332 119.05859375 116.6015625 C118.93362479 117.30600007 118.80865583 118.01043763 118.67989993 118.73622179 C117.8518883 123.40324991 117.02276984 128.07008007 116.19311523 132.73681641 C115.98478561 133.91087036 115.77645599 135.08492432 115.56181335 136.29455566 C115.36980347 137.37359161 115.17779358 138.45262756 114.97996521 139.56436157 C114.81387473 140.49893503 114.64778425 141.43350849 114.47666073 142.39640236 C114.01170278 144.93607756 113.50634953 147.46825235 113 150 C98.81 150 84.62 150 70 150 C67.36 144.72 64.72 139.44 62 134 C60.93136719 131.87433594 59.86273437 129.74867188 58.76171875 127.55859375 C50.37392994 110.87008197 42.22908127 94.07871441 34.33544922 77.15112305 C34.01346054 76.46087791 33.69147186 75.77063278 33.35972595 75.05947113 C32.5730454 73.37302984 31.78650796 71.68652179 31 70 C30.82682755 70.97274872 30.65365509 71.94549744 30.47523499 72.94772339 C28.84529418 82.10112448 27.21209962 91.25393976 25.57569218 100.40618706 C24.73444316 105.1118082 23.89435428 109.8176304 23.05688477 114.52392578 C22.24910678 119.06312037 21.4383232 123.60176858 20.62542534 128.14004898 C20.3153446 129.87425624 20.00635966 131.60865978 19.69847298 133.3432579 C19.26808168 135.76696025 18.83384988 138.18994444 18.39868164 140.61279297 C18.27136658 141.33496002 18.14405151 142.05712708 18.01287842 142.80117798 C17.11405216 147.77189568 17.11405216 147.77189568 16 150 C2.14 150 -11.72 150 -26 150 C-24.87498256 136.49979072 -24.87498256 136.49979072 -23.9753418 131.45201111 C-23.7734726 130.30393982 -23.57160339 129.15586853 -23.36361694 127.9730072 C-23.14436554 126.75851395 -22.92511414 125.54402069 -22.69921875 124.29272461 C-22.46377939 122.96587208 -22.2288184 121.63893459 -21.99429321 120.31192017 C-21.36293042 116.74759127 -20.72480817 113.18450431 -20.08523941 109.62163997 C-19.41469236 105.88013863 -18.75009453 102.13758027 -18.0847168 98.39515686 C-16.96871886 92.12320403 -15.84855755 85.8520066 -14.72558594 79.58129883 C-13.42750742 72.33264205 -12.1348521 65.08303513 -10.8453207 57.83285326 C-9.4694399 50.09731688 -8.09011082 42.3623986 -6.70950699 34.62770391 C-6.31252758 32.40249836 -5.91614195 30.1771877 -5.51986694 27.95185661 C-4.78294538 23.81497996 -4.04210472 19.67881471 -3.30078125 15.54272461 C-3.08152985 14.31001328 -2.86227844 13.07730194 -2.63638306 11.80723572 C-2.43451385 10.68454285 -2.23264465 9.56184998 -2.0246582 8.40513611 C-1.76251274 6.93935828 -1.76251274 6.93935828 -1.49507141 5.44396877 C-1 3 -1 3 0 0 Z " fill="#FDDB01" transform="translate(640,1053)"/>
<path d="M0 0 C9.5024375 -0.0466802 19.00483453 -0.08204819 28.50736237 -0.10362434 C32.92145384 -0.1139884 37.33546592 -0.1280098 41.74951172 -0.15087891 C46.02245343 -0.17287423 50.29531957 -0.18462382 54.5683136 -0.18975449 C56.1850961 -0.19340302 57.80187524 -0.20052482 59.41862488 -0.21146011 C89.01267879 -0.40336355 89.01267879 -0.40336355 100 6 C101.5778125 6.8971875 101.5778125 6.8971875 103.1875 7.8125 C109.98458409 13.09912096 113.51653203 18.442474 115 27 C116.40117883 39.62790797 112.95148989 50.67337955 105.140625 60.625 C99.95768764 66.37541226 93.95897443 69.76904759 87 73 C87.56847656 73.3403125 88.13695312 73.680625 88.72265625 74.03125 C96.49257886 78.9085303 103.0628072 84.39565444 105.5625 93.53515625 C107.87292589 106.55193068 104.60576578 119.64635438 97.09375 130.46875 C87.74634958 141.76933857 74.43566381 148.187819 60 150 C53.41284427 150.35879509 46.80490118 150.23327332 40.2109375 150.1953125 C38.29709013 150.1915767 36.38324084 150.18873241 34.46939087 150.18673706 C29.46187954 150.17914527 24.45448648 150.1595356 19.44702148 150.1373291 C14.32537434 150.11677413 9.20370786 150.10771481 4.08203125 150.09765625 C-5.94536411 150.07628505 -15.97267217 150.04220361 -26 150 C-25.44098903 141.31009014 -24.2454685 132.85782321 -22.69921875 124.29272461 C-22.46377939 122.96587208 -22.2288184 121.63893459 -21.99429321 120.31192017 C-21.36293042 116.74759127 -20.72480817 113.18450431 -20.08523941 109.62163997 C-19.41469236 105.88013863 -18.75009453 102.13758027 -18.0847168 98.39515686 C-16.96871886 92.12320403 -15.84855755 85.8520066 -14.72558594 79.58129883 C-13.42750742 72.33264205 -12.1348521 65.08303513 -10.8453207 57.83285326 C-9.4694399 50.09731688 -8.09011082 42.3623986 -6.70950699 34.62770391 C-6.31252758 32.40249836 -5.91614195 30.1771877 -5.51986694 27.95185661 C-4.78294538 23.81497996 -4.04210472 19.67881471 -3.30078125 15.54272461 C-3.08152985 14.31001328 -2.86227844 13.07730194 -2.63638306 11.80723572 C-2.43451385 10.68454285 -2.23264465 9.56184998 -2.0246582 8.40513611 C-1.76251274 6.93935828 -1.76251274 6.93935828 -1.49507141 5.44396877 C-1 3 -1 3 0 0 Z M37 34 C35.25361601 39.59602175 34.23841889 45.14466405 33.375 50.9375 C33.2409375 51.81212891 33.106875 52.68675781 32.96875 53.58789062 C32.64181424 55.72464934 32.32034321 57.86224299 32 60 C35.83318619 60.08789644 39.66610928 60.14069087 43.5 60.1875 C45.11648438 60.22520508 45.11648438 60.22520508 46.765625 60.26367188 C54.690098 60.33615181 60.74529892 59.83920733 66.9375 54.4375 C69.87996997 50.4341395 70.39788405 45.86392946 70 41 C68.1705293 37.3410586 66.86101523 36.32702571 63.05859375 34.8828125 C57.96368612 33.52292856 52.79537207 33.78648037 47.5625 33.875 C46.54478516 33.88402344 45.52707031 33.89304687 44.47851562 33.90234375 C41.98542844 33.92575302 39.49284141 33.958543 37 34 Z M27 90 C25.25361601 95.59602175 24.23841889 101.14466405 23.375 106.9375 C23.2409375 107.81212891 23.106875 108.68675781 22.96875 109.58789062 C22.64181424 111.72464934 22.32034321 113.86224299 22 116 C25.98340305 116.09973852 29.96631108 116.17187198 33.95068359 116.21972656 C35.96347627 116.24946045 37.97592134 116.30031729 39.98828125 116.3515625 C47.47184256 116.42677417 52.72963217 116.25380536 59 112 C62.62619295 107.80271811 63.70586515 103.60622986 63.4609375 98.0859375 C62.69753278 94.63120766 60.75845417 93.05280311 58 91 C54.64264863 89.88088288 52.11794614 89.88634414 48.58203125 89.90234375 C47.32841797 89.90556641 46.07480469 89.90878906 44.78320312 89.91210938 C42.81770508 89.92467773 42.81770508 89.92467773 40.8125 89.9375 C39.47721519 89.94251683 38.14192859 89.94707941 36.80664062 89.95117188 C33.53771527 89.96297305 30.26888009 89.97943703 27 90 Z " fill="#FCDC01" transform="translate(332,1053)"/>
<path d="M0 0 C12.31297283 10.8658306 17.1067985 27.50982167 18.23828125 43.33203125 C18.78454125 66.64870807 12.36855171 90.11790012 -3 108 C-3.46921875 108.60070313 -3.9384375 109.20140625 -4.421875 109.8203125 C-17.54735678 126.26403405 -38.44911706 134.77693912 -58.8125 137.25 C-79.57179945 139.45240227 -97.70619404 135.71978805 -115.125 123.875 C-128.50882664 111.73257177 -133.94117834 95.17828378 -135.25 77.65234375 C-135.71380256 54.25930217 -129.36788257 30.98528349 -114 13 C-113.236875 11.989375 -112.47375 10.97875 -111.6875 9.9375 C-84.38550058 -19.9042203 -31.4412857 -26.50051223 0 0 Z M-81.3125 36.25 C-89.76598464 46.47598948 -93.71438334 59.1049104 -93.2890625 72.3671875 C-92.54022281 79.18770036 -90.60051163 85.80967919 -86 91 C-76.43335221 97.78768833 -68.55202534 98.80029091 -57 98 C-46.42751994 95.8935541 -38.11879977 89.58766647 -32.125 80.75 C-25.5654017 69.62653025 -22.12243833 56.5235357 -24.6484375 43.7109375 C-26.561253 36.59918757 -28.75358932 31.1979926 -35 27 C-37.60802215 25.67119784 -40.17467985 24.74981957 -43 24 C-43.845625 23.773125 -44.69125 23.54625 -45.5625 23.3125 C-59.17392881 21.56744502 -71.93882142 26.33317369 -81.3125 36.25 Z " fill="#FCDB01" transform="translate(283,1067)"/>
<path d="M0 0 C12.25567227 10.81526457 17.01828068 27.33421135 18.23828125 43.07421875 C18.84460364 66.46549847 12.40807082 90.07191759 -3 108 C-3.46921875 108.60070313 -3.9384375 109.20140625 -4.421875 109.8203125 C-17.54735678 126.26403405 -38.44911706 134.77693912 -58.8125 137.25 C-79.57179945 139.45240227 -97.70619404 135.71978805 -115.125 123.875 C-128.15496933 112.05360754 -134.0232493 95.68977147 -135.25 78.49609375 C-135.68237346 54.7425767 -129.64946031 31.31481852 -114 13 C-113.236875 11.989375 -112.47375 10.97875 -111.6875 9.9375 C-84.38550058 -19.9042203 -31.4412857 -26.50051223 0 0 Z M-81.44140625 36.1328125 C-90.50644669 46.99268551 -94.06287934 61.01174873 -93 75 C-91.65317043 81.90250155 -89.60574729 88.44166511 -83.66015625 92.66015625 C-74.24533185 98.50813088 -64.85003262 99.56402934 -53.921875 97.38671875 C-43.50046309 94.00720374 -35.98559427 87.29662095 -30.46875 77.94140625 C-24.48541753 65.9588282 -22.05743112 53.34416637 -25.5625 40.3125 C-27.79529139 33.66113196 -30.7210172 29.18016614 -37.0546875 25.953125 C-39.02132058 25.16647177 -40.95400505 24.54299229 -43 24 C-43.845625 23.773125 -44.69125 23.54625 -45.5625 23.3125 C-58.97788402 21.59257897 -72.24043098 26.23060817 -81.44140625 36.1328125 Z " fill="#FCDB01" transform="translate(591,1067)"/>
<path d="M0 0 C8.72013313 -0.04672181 17.44022196 -0.08206867 26.1604538 -0.10362434 C30.2113442 -0.1139796 34.26214781 -0.12798406 38.31298828 -0.15087891 C42.23580251 -0.17290671 46.15853425 -0.18463035 50.08140564 -0.18975449 C51.56421708 -0.19339738 53.04702496 -0.20050735 54.52980042 -0.21146011 C71.54883951 -0.33196066 89.39246931 0.03443457 103.25390625 11.2734375 C110.14957543 18.09197392 114.33398895 26.84443205 114.41748047 36.54443359 C114.40346191 37.29289551 114.38944336 38.04135742 114.375 38.8125 C114.36484863 39.60221191 114.35469727 40.39192383 114.34423828 41.20556641 C113.96607256 55.52016516 108.40492128 68.37612675 98.484375 78.74609375 C91.59611781 84.99534595 83.72558286 88.95267063 75 92 C75.62087876 95.58026805 76.58148919 98.74649629 77.94946289 102.10986328 C78.3498024 103.10084015 78.75014191 104.09181702 79.16261292 105.11282349 C79.59492722 106.17129486 80.02724152 107.22976624 80.47265625 108.3203125 C81.38087784 110.56900296 82.28908039 112.81770111 83.19726562 115.06640625 C84.63340748 118.60686918 86.07128814 122.14661981 87.51000977 125.68603516 C88.89765911 129.10408448 90.2791352 132.5245809 91.66015625 135.9453125 C92.09449478 137.00783234 92.52883331 138.07035217 92.97633362 139.16506958 C93.37352097 140.14974213 93.77070831 141.13441467 94.17993164 142.14892578 C94.53221329 143.01542755 94.88449493 143.88192932 95.24745178 144.77468872 C96 147 96 147 96 150 C80.49 150 64.98 150 49 150 C46.793125 144.01875 44.58625 138.0375 42.3125 131.875 C41.62712158 130.01858887 40.94174316 128.16217773 40.2355957 126.24951172 C38.76762362 122.27100119 37.30551132 118.290365 35.84674072 114.30847168 C35.29684057 112.8092773 34.74545268 111.31062747 34.19232178 109.81262207 C33.47124922 107.8585068 32.75621998 105.90229343 32.04296875 103.9453125 C31.64489014 102.86008301 31.24681152 101.77485352 30.83666992 100.65673828 C30 98 30 98 30 95 C28.68 95 27.36 95 26 95 C25.84543335 96.15375122 25.84543335 96.15375122 25.68774414 97.33081055 C24.31259923 107.29032463 22.64831696 117.18879078 20.91333008 127.09106445 C20.43054759 129.85226323 19.95443732 132.61456452 19.47851562 135.37695312 C19.17227617 137.13288251 18.86565047 138.88874459 18.55859375 140.64453125 C18.41691269 141.47040237 18.27523163 142.2962735 18.1292572 143.14717102 C17.11449007 148.88550993 17.11449007 148.88550993 16 150 C12.89748799 150.08874135 9.8173188 150.11518455 6.71484375 150.09765625 C5.78402481 150.0962413 4.85320587 150.09482635 3.8941803 150.09336853 C0.90858809 150.08775172 -2.07693029 150.0751964 -5.0625 150.0625 C-7.08137913 150.05748716 -9.10025943 150.05292388 -11.11914062 150.04882812 C-16.07945572 150.03777683 -21.03971532 150.02050095 -26 150 C-25.40679979 141.70028124 -24.17434705 133.60687573 -22.69921875 125.42211914 C-22.46385021 124.09702416 -22.22888683 122.77185715 -21.99429321 121.44662476 C-21.36213337 117.88231522 -20.72427508 114.31904779 -20.08523941 110.75596547 C-19.4152153 107.01483324 -18.75028464 103.27279562 -18.0847168 99.53086853 C-16.96809945 93.25724747 -15.84803721 86.9842497 -14.72558594 80.71166992 C-13.28536833 72.66322857 -11.85076534 64.61379711 -10.41795349 56.56403446 C-9.18357244 49.6292683 -7.94677192 42.694934 -6.70950699 35.76068187 C-6.3127474 33.53654313 -5.91629237 31.31235025 -5.51986694 29.08815193 C-4.89745411 25.59698409 -4.27353588 22.10608841 -3.64844894 18.61539841 C-3.31018527 16.72468266 -2.97326493 14.83372673 -2.63638306 12.94276428 C-2.43451385 11.81725159 -2.23264465 10.69173889 -2.0246582 9.53211975 C-1.76251274 8.06577638 -1.76251274 8.06577638 -1.49507141 6.56980991 C-1.06817942 4.35390481 -0.57490031 2.18145475 0 0 Z M36 36 C34.35 45.9 32.7 55.8 31 66 C34.980625 66.061875 38.96125 66.12375 43.0625 66.1875 C44.30394775 66.21481201 45.54539551 66.24212402 46.82446289 66.27026367 C54.62176455 66.32882372 59.65202293 65.75278115 65.8125 60.6875 C69.6636891 55.9560391 70.51179713 51.16532526 70.390625 45.1875 C69.70612463 41.35429795 67.81952396 39.62281299 65 37 C61.76248322 35.92082774 59.42248229 35.88574399 56.01953125 35.90234375 C54.97128174 35.90484131 53.92303223 35.90733887 52.84301758 35.90991211 C51.51294678 35.91901611 50.18287598 35.92812012 48.8125 35.9375 C44.584375 35.958125 40.35625 35.97875 36 36 Z " fill="#FCDB01" transform="translate(26,1053)"/>
<path d="M0 0 C16.17 0 32.34 0 49 0 C52.0619479 16.16117342 55.12244166 32.32262001 58.18038559 48.48455143 C59.60078146 55.99142189 61.02179307 63.49817474 62.44433594 71.00463867 C63.68646559 77.55910846 64.92735682 84.11381138 66.1668551 90.66877931 C66.82116163 94.12879348 67.47602386 97.58870005 68.13237762 101.04832649 C71.22355749 117.3442714 74.2011493 133.65111172 77 150 C62.15 150 47.3 150 32 150 C30 141 30 141 28 126 C10.84 126.33 -6.32 126.66 -24 127 C-27.63 134.26 -31.26 141.52 -35 149 C-36 150 -36 150 -37.79066467 150.12025452 C-38.57009933 150.11803391 -39.349534 150.11581329 -40.15258789 150.11352539 C-41.03342545 150.11344986 -41.914263 150.11337433 -42.8217926 150.11329651 C-43.77907761 150.10813522 -44.73636261 150.10297394 -45.72265625 150.09765625 C-46.69786728 150.0962413 -47.67307831 150.09482635 -48.67784119 150.09336853 C-51.80609143 150.08775133 -54.93427123 150.07519593 -58.0625 150.0625 C-60.17773334 150.05748722 -62.29296781 150.05292393 -64.40820312 150.04882812 C-69.60549296 150.03777631 -74.80274145 150.02102146 -80 150 C-78.61886516 145.45200319 -76.75825628 141.35636923 -74.5078125 137.1875 C-74.16598434 136.54559723 -73.82415619 135.90369446 -73.4719696 135.24234009 C-72.36092287 133.15905892 -71.24313458 131.07948429 -70.125 129 C-69.34824989 127.5475245 -68.5718039 126.09488632 -67.7956543 124.64208984 C-62.56614929 114.86548268 -57.27669336 105.12198469 -51.94921875 95.3984375 C-48.6461392 89.36420153 -45.38396971 83.30814541 -42.125 77.25 C-41.54024902 76.16299805 -40.95549805 75.07599609 -40.35302734 73.95605469 C-39.1640535 71.74520955 -37.9752523 69.53427156 -36.78662109 67.32324219 C-32.10532533 58.61569942 -27.41957901 49.91055547 -22.72900391 41.20800781 C-21.56943105 39.05652696 -20.41025598 36.90483168 -19.25146484 34.75292969 C-17.54449649 31.58428285 -15.83506643 28.41697573 -14.125 25.25 C-13.62605225 24.32300293 -13.12710449 23.39600586 -12.61303711 22.44091797 C-8.52743331 14.88426929 -4.2660045 7.46550787 0 0 Z M15 49 C12.18543534 54.46116951 9.37383318 59.92384999 6.56494141 65.38793945 C5.60937056 67.24577785 4.65299764 69.10320392 3.69580078 70.96020508 C2.31851495 73.63254004 0.94413929 76.30635422 -0.4296875 78.98046875 C-0.85684052 79.80773972 -1.28399353 80.63501068 -1.72409058 81.48735046 C-2.12435455 82.26778214 -2.52461853 83.04821381 -2.93701172 83.85229492 C-3.28786835 84.53402267 -3.63872498 85.21575043 -4.00021362 85.9181366 C-5.11003589 88.22912865 -6.04787789 90.61969472 -7 93 C2.9 93 12.8 93 23 93 C22.01793782 85.33056199 21.02433304 77.66378851 20 70 C19.86658203 68.99807617 19.73316406 67.99615234 19.59570312 66.96386719 C19.22038869 64.18261917 18.83149239 61.40365626 18.4375 58.625 C18.32301514 57.7700293 18.20853027 56.91505859 18.09057617 56.03417969 C17.79658492 54.01145317 17.40783566 52.0028788 17 50 C16.34 49.67 15.68 49.34 15 49 Z " fill="#FCDB01" transform="translate(1160,1053)"/>
<path d="M0 0 C6.02273518 5.4125021 9.71417848 13.60671392 11.6484375 21.34375 C11.6484375 25.63375 11.6484375 29.92375 11.6484375 34.34375 C-3.5315625 34.34375 -18.7115625 34.34375 -34.3515625 34.34375 C-34.8465625 30.38375 -34.8465625 30.38375 -35.3515625 26.34375 C-37.16380642 23.62639098 -37.16380642 23.62639098 -40.3515625 22.34375 C-45.43896602 21.70165053 -49.87919811 21.62486769 -54.3515625 24.34375 C-56.45985528 26.95401725 -56.37191268 28.7575369 -56.5390625 32.15625 C-55.74064035 36.99685818 -52.96402461 38.69352851 -49.17993164 41.49926758 C-43.32678001 45.31632071 -36.9571674 48.16670631 -30.64990234 51.14331055 C-17.31015247 57.47279434 -3.72470722 64.96273695 2.5859375 79.09375 C6.07471619 90.3076815 5.37684378 102.74689797 0.5859375 113.40625 C-6.48091905 126.40348031 -17.58340645 133.776429 -31.3515625 138.34375 C-51.35898803 143.98773659 -75.48666971 142.69126626 -94.0390625 132.9296875 C-102.6931929 127.46238214 -109.48287529 120.74375133 -112.03515625 110.63671875 C-113.25650375 104.47944274 -114.37359644 98.40985182 -112.3515625 92.34375 C-97.8315625 92.34375 -83.3115625 92.34375 -68.3515625 92.34375 C-67.3615625 95.64375 -66.3715625 98.94375 -65.3515625 102.34375 C-61.71938277 105.97592973 -59.48129199 106.51200674 -54.5390625 106.65625 C-49.51434568 106.61951961 -47.11508744 105.62477174 -43.3515625 102.34375 C-41.90008347 99.44079195 -41.97917225 97.57113221 -42.3515625 94.34375 C-45.70792836 89.56689971 -49.03461481 87.02789419 -54.3515625 84.59375 C-55.03508789 84.26286377 -55.71861328 83.93197754 -56.42285156 83.59106445 C-60.46367532 81.64663157 -64.54740035 79.80944212 -68.6484375 77.99609375 C-81.838471 72.08470679 -95.17813808 65.35830118 -101.3515625 51.34375 C-105.59041172 39.63645215 -104.04155981 26.71234203 -99.09765625 15.5 C-92.14224281 1.70288561 -81.37624032 -4.46050647 -67.375 -9.7890625 C-45.11913533 -16.8861339 -19.05948023 -13.42395285 0 0 Z " fill="#FCDB01" transform="translate(1008.3515625,1063.65625)"/>
<path d="M0 0 C1.34111343 0.00539291 1.34111343 0.00539291 2.70932007 0.01089478 C3.64580887 0.01074875 4.58229767 0.01060272 5.54716492 0.01045227 C8.65845007 0.01115179 11.76967617 0.01894602 14.88095093 0.02676392 C17.0318651 0.02862796 19.18277971 0.03005192 21.33369446 0.03105164 C27.00711225 0.03487792 32.68050463 0.04470914 38.35391235 0.05575562 C44.13831234 0.06596736 49.92271641 0.07054875 55.7071228 0.07559204 C67.06585796 0.08633131 78.42457421 0.10340906 89.78329468 0.12442017 C89.46739589 2.34876457 89.15096815 4.57303386 88.83432007 6.79727173 C88.65816666 8.0359198 88.48201324 9.27456787 88.30052185 10.55075073 C87.65646764 15.00070419 86.95869634 19.4392017 86.22079468 23.87442017 C86.03226929 25.04231079 86.03226929 25.04231079 85.8399353 26.23379517 C84.90295783 31.88509387 84.90295783 31.88509387 83.78329468 34.12442017 C65.96329468 34.12442017 48.14329468 34.12442017 29.78329468 34.12442017 C29.12329468 39.40442017 28.46329468 44.68442017 27.78329468 50.12442017 C27.12329468 52.76442017 26.46329468 55.40442017 25.78329468 58.12442017 C41.29329468 58.12442017 56.80329468 58.12442017 72.78329468 58.12442017 C71.78329468 70.12442017 71.78329468 70.12442017 67.78329468 90.12442017 C51.94329468 90.12442017 36.10329468 90.12442017 19.78329468 90.12442017 C19.45329468 93.42442017 19.12329468 96.72442017 18.78329468 100.12442017 C17.79329468 105.40442017 16.80329468 110.68442017 15.78329468 116.12442017 C33.27329468 116.12442017 50.76329468 116.12442017 68.78329468 116.12442017 C67.78329468 128.12442017 67.78329468 128.12442017 63.78329468 150.12442017 C31.77329468 150.12442017 -0.23670532 150.12442017 -33.21670532 150.12442017 C-31.87899846 140.7604721 -30.46025714 131.46366113 -28.80239868 122.15835571 C-28.56708806 120.82791409 -28.33197136 119.49743815 -28.09703064 118.16693115 C-27.46711273 114.60335708 -26.83423892 111.04031447 -26.20055079 107.47740912 C-25.67027015 104.49456636 -25.14136345 101.51148058 -24.61240774 98.52840263 C-23.36610384 91.50019944 -22.11725355 84.472452 -20.86685181 77.44497681 C-19.57690798 70.19496286 -18.29169667 62.94412071 -17.00867742 55.69287843 C-15.90405135 49.45093551 -14.79637081 43.20953988 -13.68624407 36.96857291 C-13.02435006 33.24726256 -12.36367146 29.52574652 -11.706007 25.80368614 C-10.97566261 21.67110878 -10.23896636 17.53968905 -9.50161743 13.40835571 C-9.28393707 12.17159592 -9.06625671 10.93483612 -8.84197998 9.66059875 C-8.54134392 7.98501892 -8.54134392 7.98501892 -8.2346344 6.27558899 C-7.97443717 4.81094223 -7.97443717 4.81094223 -7.70898342 3.31670666 C-6.71367287 -1.11575922 -4.04991329 0.00688054 0 0 Z " fill="#FDDC00" transform="translate(808.2167053222656,1052.8755798339844)"/>
<path d="M0 0 C13.86 0 27.72 0 42 0 C40.87497876 12.37523363 40.87497876 12.37523363 39.9753418 17.46569824 C39.67253799 19.19836441 39.67253799 19.19836441 39.36361694 20.96603394 C39.14436554 22.19347321 38.92511414 23.42091248 38.69921875 24.68554688 C38.46385929 26.02211867 38.22889562 27.3587602 37.99429321 28.69546509 C37.36210304 32.29068622 36.7242785 35.88488596 36.08523941 39.47889519 C35.4153728 43.25122426 34.75037327 47.02441154 34.0847168 50.79748535 C32.96811979 57.12238014 31.84800702 63.44664412 30.72558594 69.77050781 C29.42804737 77.081161 28.13532684 84.39265313 26.8453207 91.70463896 C25.46937364 99.50347207 24.08995574 107.30168834 22.70950699 115.09972572 C22.31248053 117.34386005 21.91610253 119.58810811 21.51986694 121.8323822 C20.8982137 125.35240819 20.2742378 128.87201479 19.64844894 132.39130783 C19.30958806 134.3000034 18.97295574 136.20909419 18.63638306 138.11819458 C18.43451385 139.25074677 18.23264465 140.38329895 18.0246582 141.5501709 C17.76251274 143.02895847 17.76251274 143.02895847 17.49507141 144.53762054 C17 147 17 147 16 150 C1.81 150 -12.38 150 -27 150 C-21.28944769 116.53286892 -15.45630255 83.08828727 -9.52905273 49.65887451 C-8.79950289 45.54424563 -8.07138726 41.42936698 -7.34448242 37.31427002 C-6.47807304 32.41037185 -5.60847427 27.50704984 -4.73637581 22.60416031 C-4.41129439 20.77387082 -4.087261 18.94339486 -3.76431084 17.11272812 C-3.32032872 14.59740779 -2.87247418 12.08280772 -2.42358398 9.56835938 C-2.22809464 8.45329986 -2.22809464 8.45329986 -2.02865601 7.31571388 C-1.11418373 2.22836747 -1.11418373 2.22836747 0 0 Z " fill="#FCDB01" transform="translate(1051,1053)"/>
<path d="M0 0 C0.33 0 0.66 0 1 0 C2.86996186 8.73254034 3.39744258 16.96163868 4 26 C-73.22 26 -150.44 26 -230 26 C-230 25.67 -230 25.34 -230 25 C-153.77 25 -77.54 25 1 25 C0.67 22.36 0.34 19.72 0 17 C-0.06892086 15.50123065 -0.1093774 14.00030739 -0.09765625 12.5 C-0.09443359 11.75878906 -0.09121094 11.01757812 -0.08789062 10.25390625 C-0.07951172 9.51011719 -0.07113281 8.76632812 -0.0625 8 C-0.05798828 7.22527344 -0.05347656 6.45054687 -0.04882812 5.65234375 C-0.03719758 3.76819476 -0.01926906 1.88408635 0 0 Z " fill="#4BC0BF" transform="translate(1221,532)"/>
<path d="M0 0 C0.66 0 1.32 0 2 0 C3.30475618 2.60951236 3.11301572 4.52701285 3.09765625 7.4453125 C3.09443359 8.52167969 3.09121094 9.59804687 3.08789062 10.70703125 C3.07951172 11.83496094 3.07113281 12.96289062 3.0625 14.125 C3.05798828 15.26066406 3.05347656 16.39632813 3.04882812 17.56640625 C3.03701615 20.37765638 3.02054507 23.1888023 3 26 C2.67 26 2.34 26 2 26 C0.20637535 17.25607982 -0.23737365 8.91469911 0 0 Z " fill="#EFE018" transform="translate(456,1135)"/>
<path d="M0 0 C9.24 0 18.48 0 28 0 C28 0.66 28 1.32 28 2 C22.37051798 2.72315481 17.60835683 3.00950423 12 2 C7.99865863 1.90718538 4.00174062 1.94172222 0 2 C0 1.34 0 0.68 0 0 Z " fill="#F7EE0A" transform="translate(849,1169)"/>
<path d="M0 0 C2 2 2 2 2.3125 4.9375 C2 8 2 8 0.6875 9.8125 C-1 11 -1 11 -4 12 C-4.33 12.66 -4.66 13.32 -5 14 C-5.66 14 -6.32 14 -7 14 C-5.53967505 8.68972746 -3.01679014 4.53669968 0 0 Z " fill="#3EC3C9" transform="translate(374,516)"/>
<path d="M0 0 C0 3 0 3 -2.3359375 5.69921875 C-3.34119508 6.70314662 -4.35458968 7.6989775 -5.375 8.6875 C-5.88289063 9.19861328 -6.39078125 9.70972656 -6.9140625 10.23632812 C-10.73300859 14 -10.73300859 14 -13 14 C-13 14.66 -13 15.32 -13 16 C-13.99 15.67 -14.98 15.34 -16 15 C-11.30217584 9.06590633 -6.01350104 4.57548992 0 0 Z " fill="#36C8BE" transform="translate(308,147)"/>
<path d="M0 0 C-3.56337552 2.37558368 -5.39255156 2.28535316 -9.625 2.4375 C-15.37417844 2.77113108 -20.81927154 3.31322023 -26 6 C-26.33 6.66 -26.66 7.32 -27 8 C-27.66 8 -28.32 8 -29 8 C-29.33 6.68 -29.66 5.36 -30 4 C-19.79609384 1.25478667 -10.55041118 -0.16746684 0 0 Z " fill="#34C6BF" transform="translate(447,478)"/>
<path d="M0 0 C0.33 0 0.66 0 1 0 C2.85479354 8.66170574 3.54736337 17.17358581 4 26 C3.01 26 2.02 26 1 26 C-0.25981943 17.3387414 -0.09020653 8.72998757 0 0 Z " fill="#44BBB5" transform="translate(1221,532)"/>
<path d="M0 0 C1.98 0 3.96 0 6 0 C5.88541307 1.43836751 5.75790884 2.87570966 5.625 4.3125 C5.55539062 5.11300781 5.48578125 5.91351562 5.4140625 6.73828125 C5 9 5 9 3 12 C3 10.02 3 8.04 3 6 C2.01 6 1.02 6 0 6 C0 4.02 0 2.04 0 0 Z " fill="#49C0C2" transform="translate(522,608)"/>
<path d="M0 0 C0.33 1.32 0.66 2.64 1 4 C-0.3303125 4.556875 -0.3303125 4.556875 -1.6875 5.125 C-4.67425997 6.81561885 -5.58944544 7.53610522 -7.5 10.125 C-10 13 -10 13 -13.3125 13.875 C-14.6428125 13.936875 -14.6428125 13.936875 -16 14 C-12.56846086 10.46808678 -9.02624938 7.2862495 -5.1875 4.1875 C-4.21167969 3.39730469 -3.23585937 2.60710937 -2.23046875 1.79296875 C-1.49441406 1.20128906 -0.75835937 0.60960937 0 0 Z " fill="#37C4BB" transform="translate(134,295)"/>
<path d="M0 0 C0.6796875 1.78515625 0.6796875 1.78515625 1 4 C-0.1796875 5.74609375 -0.1796875 5.74609375 -1.875 7.4375 C-4.46664848 10.22112244 -5.76214928 12.07546312 -6 16 C-8.49064888 16.68707555 -10.37886292 17 -13 17 C-12.64172119 16.5560791 -12.28344238 16.1121582 -11.91430664 15.65478516 C-10.29513011 13.64638603 -8.67878604 11.63572588 -7.0625 9.625 C-6.49853516 8.92632813 -5.93457031 8.22765625 -5.35351562 7.5078125 C-4.81533203 6.8375 -4.27714844 6.1671875 -3.72265625 5.4765625 C-2.97640991 4.549646 -2.97640991 4.549646 -2.21508789 3.60400391 C-0.92494979 2.00290821 -0.92494979 2.00290821 0 0 Z " fill="#E5D50D" transform="translate(964,742)"/>
<path d="M0 0 C0.66 1.32 1.32 2.64 2 4 C1.01 4.33 0.02 4.66 -1 5 C-1.69437747 6.99054876 -2.35610218 8.99255385 -3 11 C-4.28072371 13.0340906 -5.60287726 15.04402816 -7 17 C-7.66 16.67 -8.32 16.34 -9 16 C-6.03 10.72 -3.06 5.44 0 0 Z " fill="#EED311" transform="translate(1154,1064)"/>
<path d="M0 0 C-3.75 2 -3.75 2 -6 2 C-6 2.66 -6 3.32 -6 4 C-6.495 3.835 -6.99 3.67 -7.5 3.5 C-11.03444089 2.79311182 -14.39690701 2.93994845 -18 3 C-17.67 2.34 -17.34 1.68 -17 1 C-11.48971479 -0.27809679 -5.6232203 -0.10224037 0 0 Z " fill="#F4E811" transform="translate(706,864)"/>
<path d="M0 0 C0 3 0 3 -1.375 4.6875 C-3 6 -3 6 -5 6 C-5.2475 6.598125 -5.495 7.19625 -5.75 7.8125 C-7.19482573 10.34094503 -8.48280545 11.55070617 -11 13 C-11.99 12.67 -12.98 12.34 -14 12 C-9.38 8.04 -4.76 4.08 0 0 Z " fill="#37C6BE" transform="translate(398,70)"/>
<path d="M0 0 C0.33 0 0.66 0 1 0 C1.27573092 2.10094974 1.51978976 4.20607635 1.75 6.3125 C1.88921875 7.48425781 2.0284375 8.65601563 2.171875 9.86328125 C2 13 2 13 0.015625 14.91796875 C-0.64953125 15.27503906 -1.3146875 15.63210938 -2 16 C-1.50130596 10.63108121 -0.97772468 5.30764827 0 0 Z " fill="#EDDC12" transform="translate(634,1084)"/>
<path d="M0 0 C0.66 0 1.32 0 2 0 C2.33 0.99 2.66 1.98 3 3 C1.81755753 4.53397943 0.62687758 6.06670203 -0.67578125 7.5 C-2.21271929 9.17302042 -2.21271929 9.17302042 -4 12 C-5 9 -5 9 -4.00390625 6.73828125 C-3.52824219 5.93777344 -3.05257812 5.13726563 -2.5625 4.3125 C-2.08941406 3.50425781 -1.61632812 2.69601562 -1.12890625 1.86328125 C-0.75636719 1.24839844 -0.38382813 0.63351562 0 0 Z " fill="#EAD60C" transform="translate(162,1089)"/>
<path d="M0 0 C-0.61875 0.2475 -1.2375 0.495 -1.875 0.75 C-4.46275992 2.27221172 -5.05592658 3.16777975 -6 6 C-6.16724737 9.16695956 -6.16724737 9.16695956 -6 12 C-6.66 12 -7.32 12 -8 12 C-9.40457737 9.19084526 -9.24895157 7.11189466 -9 4 C-6.68028992 -0.08710824 -4.70028426 -1.56676142 0 0 Z " fill="#EDDB08" transform="translate(958,1086)"/>
<path d="M0 0 C0.66 0.66 1.32 1.32 2 2 C1.360625 2.598125 0.72125 3.19625 0.0625 3.8125 C-2.20310389 5.90810337 -2.20310389 5.90810337 -3 9 C-5.47739354 9.90837763 -7.33579484 10 -10 10 C-6.7 6.7 -3.4 3.4 0 0 Z " fill="#EEDD06" transform="translate(945,765)"/>
<path d="M0 0 C0.33 0.99 0.66 1.98 1 3 C0.38125 3.0825 -0.2375 3.165 -0.875 3.25 C-3.16150356 3.78035516 -3.16150356 3.78035516 -3.9375 5.875 C-5.35844081 8.71688163 -7.24119033 9.54799491 -10 11 C-10 10.01 -10 9.02 -10 8 C-7.8125 5.95703125 -7.8125 5.95703125 -5 3.8125 C-4.071875 3.09707031 -3.14375 2.38164062 -2.1875 1.64453125 C-1.1046875 0.83048828 -1.1046875 0.83048828 0 0 Z " fill="#36BDBB" transform="translate(322,135)"/>
<path d="M0 0 C5.91492272 0.45224761 11.35199888 1.1582605 17 3 C17 3.66 17 4.32 17 5 C13.25220959 5.20821058 11.2990429 4.64952145 8 3 C6.783125 2.835 5.56625 2.67 4.3125 2.5 C3.219375 2.335 2.12625 2.17 1 2 C0.67 1.34 0.34 0.68 0 0 Z " fill="#3CBFBB" transform="translate(811,479)"/>
<path d="M0 0 C-5.50243899 3.66829266 -11.60543766 3.12789125 -18 3 C-18 2.67 -18 2.34 -18 2 C-11.92972642 -0.1583195 -6.40629424 -0.20852314 0 0 Z " fill="#F4E816" transform="translate(700,973)"/>
<path d="M0 0 C0.33 0 0.66 0 1 0 C1.43905768 6.1468075 0.90138655 11.001738 -3 16 C-5.75 17 -5.75 17 -8 17 C-7.38511719 16.41605469 -7.38511719 16.41605469 -6.7578125 15.8203125 C-2.06975447 10.95280727 -0.77528727 6.64340991 0 0 Z " fill="#F4DD21" transform="translate(402,1094)"/>
<path d="M0 0 C1.32 0.33 2.64 0.66 4 1 C4 2.32 4 3.64 4 5 C2.741875 4.87625 1.48375 4.7525 0.1875 4.625 C-0.87404297 4.52058594 -0.87404297 4.52058594 -1.95703125 4.4140625 C-4 4 -4 4 -7 2 C-4.69 2.33 -2.38 2.66 0 3 C0 2.01 0 1.02 0 0 Z " fill="#4BBAC2" transform="translate(784,683)"/>
<path d="M0 0 C1.3805087 3.76668598 0.59568159 6.44789173 -0.4375 10.25 C-0.72496094 11.32765625 -1.01242187 12.4053125 -1.30859375 13.515625 C-1.53675781 14.33546875 -1.76492188 15.1553125 -2 16 C-2.33 16 -2.66 16 -3 16 C-4.125 9.25 -4.125 9.25 -3 7 C-2.34 7 -1.68 7 -1 7 C-0.67 4.69 -0.34 2.38 0 0 Z " fill="#3EBFBC" transform="translate(888,604)"/>
<path d="M0 0 C0.66 0.33 1.32 0.66 2 1 C1.01 2.485 1.01 2.485 0 4 C-0.66 4 -1.32 4 -2 4 C-2 4.99 -2 5.98 -2 7 C-2.7425 7.28875 -3.485 7.5775 -4.25 7.875 C-6.56739797 8.82302644 -8.77917115 9.84845911 -11 11 C-7.81316569 6.66590534 -4.13621084 3.3810038 0 0 Z " fill="#35BCBA" transform="translate(339,120)"/>
<path d="M0 0 C3.80635497 3.20760251 7.54563567 6.40746109 11 10 C7.625 9.25 7.625 9.25 4 8 C2.875 6 2.875 6 2 4 C-0.53770003 2.71745356 -0.53770003 2.71745356 -3 2 C-2.01 1.34 -1.02 0.68 0 0 Z " fill="#34BEB5" transform="translate(879,101)"/>
<path d="M0 0 C0.66 0 1.32 0 2 0 C2 0.66 2 1.32 2 2 C1.01 2.495 1.01 2.495 0 3 C-0.33 3.99 -0.66 4.98 -1 6 C-1.66 6 -2.32 6 -3 6 C-3.33 6.99 -3.66 7.98 -4 9 C-4.66 9 -5.32 9 -6 9 C-6 9.66 -6 10.32 -6 11 C-6.66 10.67 -7.32 10.34 -8 10 C-7.04367001 8.70684939 -6.08486149 7.41553147 -5.125 6.125 C-4.59132813 5.40570312 -4.05765625 4.68640625 -3.5078125 3.9453125 C-2 2 -2 2 0 0 Z " fill="#F3E013" transform="translate(479,1078)"/>
<path d="M0 0 C3.0390625 -0.29296875 3.0390625 -0.29296875 6.625 -0.1875 C7.81351563 -0.16042969 9.00203125 -0.13335938 10.2265625 -0.10546875 C11.14179687 -0.07066406 12.05703125 -0.03585937 13 0 C13 0.33 13 0.66 13 1 C11.43883181 1.33951619 9.87598662 1.67132544 8.3125 2 C7.00732422 2.2784375 7.00732422 2.2784375 5.67578125 2.5625 C3.06287036 2.98972047 0.64186962 3.07616201 -2 3 C-1.34 2.01 -0.68 1.02 0 0 Z " fill="#F2E417" transform="translate(744,965)"/>
<path d="M0 0 C0.99 0.33 1.98 0.66 3 1 C2.67 2.32 2.34 3.64 2 5 C-0.97 5.66 -3.94 6.32 -7 7 C-4.66666667 4.66666667 -2.33333333 2.33333333 0 0 Z " fill="#E7D30F" transform="translate(932,777)"/>
<path d="M0 0 C2.96052484 3.36423277 3.92289822 6.69159287 5 11 C4.34 11 3.68 11 3 11 C3 10.01 3 9.02 3 8 C1.68 7.67 0.36 7.34 -1 7 C-0.67 4.69 -0.34 2.38 0 0 Z " fill="#3BC5BE" transform="translate(877,528)"/>
<path d="M0 0 C2.9375 0.25 2.9375 0.25 6 1 C6.78375 1.185625 7.5675 1.37125 8.375 1.5625 C8.91125 1.706875 9.4475 1.85125 10 2 C9.67 2.66 9.34 3.32 9 4 C5.04 3.67 1.08 3.34 -3 3 C-2.01 2.01 -1.02 1.02 0 0 Z " fill="#42C4BE" transform="translate(690,116)"/>
<path d="M0 0 C4.18333056 0.22410699 6.49223439 0.6614896 10 3 C5.71 3 1.42 3 -3 3 C-2.01 2.01 -1.02 1.02 0 0 Z " fill="#42C4BE" transform="translate(674,116)"/>
<path d="M0 0 C4.18333056 0.22410699 6.49223439 0.6614896 10 3 C5.71 3 1.42 3 -3 3 C-2.01 2.01 -1.02 1.02 0 0 Z " fill="#42C4BE" transform="translate(658,116)"/>
<path d="M0 0 C4.18333056 0.22410699 6.49223439 0.6614896 10 3 C5.71 3 1.42 3 -3 3 C-2.01 2.01 -1.02 1.02 0 0 Z " fill="#42C4BE" transform="translate(642,116)"/>
<path d="M0 0 C4.18333056 0.22410699 6.49223439 0.6614896 10 3 C5.71 3 1.42 3 -3 3 C-2.01 2.01 -1.02 1.02 0 0 Z " fill="#42C4BE" transform="translate(626,116)"/>
<path d="M0 0 C4.18333056 0.22410699 6.49223439 0.6614896 10 3 C5.71 3 1.42 3 -3 3 C-2.01 2.01 -1.02 1.02 0 0 Z " fill="#42C4BE" transform="translate(610,116)"/>
<path d="M0 0 C4.18333056 0.22410699 6.49223439 0.6614896 10 3 C5.71 3 1.42 3 -3 3 C-2.01 2.01 -1.02 1.02 0 0 Z " fill="#42C4BE" transform="translate(594,116)"/>
<path d="M0 0 C4.18333056 0.22410699 6.49223439 0.6614896 10 3 C5.71 3 1.42 3 -3 3 C-2.01 2.01 -1.02 1.02 0 0 Z " fill="#42C4BE" transform="translate(578,116)"/>
<path d="M0 0 C4.18333056 0.22410699 6.49223439 0.6614896 10 3 C5.71 3 1.42 3 -3 3 C-2.01 2.01 -1.02 1.02 0 0 Z " fill="#42C4BE" transform="translate(562,116)"/>
<path d="M0 0 C0.99 0.33 1.98 0.66 3 1 C1.54712339 2.33927721 0.08752741 3.67126847 -1.375 5 C-2.18710937 5.7425 -2.99921875 6.485 -3.8359375 7.25 C-6 9 -6 9 -8 9 C-8 8.34 -8 7.68 -8 7 C-6.68 6.67 -5.36 6.34 -4 6 C-4 5.01 -4 4.02 -4 3 C-2.68 2.67 -1.36 2.34 0 2 C0 1.34 0 0.68 0 0 Z " fill="#EEDB12" transform="translate(1000,1185)"/>
<path d="M0 0 C0.33 0 0.66 0 1 0 C0.50130596 5.36891879 -0.02227532 10.69235173 -1 16 C-1.33 16 -1.66 16 -2 16 C-2.33 12.37 -2.66 8.74 -3 5 C-2.34 4.67 -1.68 4.34 -1 4 C-0.34786708 1.97536745 -0.34786708 1.97536745 0 0 Z " fill="#F5E21B" transform="translate(767,1114)"/>
<path d="M0 0 C0 3.62875867 -1.22793994 5.01739353 -3.5546875 7.703125 C-5.55721506 9.49998757 -7.35337395 9.84876423 -10 10 C-6.66666667 6.66666667 -3.33333333 3.33333333 0 0 Z " fill="#34BCB5" transform="translate(145,285)"/>
<path d="M0 0 C0 0.99 0 1.98 0 3 C-3.63 3 -7.26 3 -11 3 C-11 2.34 -11 1.68 -11 1 C-7.26513121 0.4254048 -3.78706732 0 0 0 Z " fill="#F5EC0E" transform="translate(892,1084)"/>
<path d="M0 0 C0.33 0 0.66 0 1 0 C1.33 2.64 1.66 5.28 2 8 C1.34 8 0.68 8 0 8 C0.061875 9.423125 0.061875 9.423125 0.125 10.875 C0 14 0 14 -2 16 C-1.85764543 14.27054347 -1.71095618 12.54144346 -1.5625 10.8125 C-1.48128906 9.84957031 -1.40007812 8.88664062 -1.31640625 7.89453125 C-1.02333849 5.21350398 -0.57296246 2.6337014 0 0 Z " fill="#F4DE16" transform="translate(330,1062)"/>
<path d="M0 0 C1.89213369 2.38573379 3.02391783 4.07175348 4 7 C2.35 7.33 0.7 7.66 -1 8 C-1.125 2.25 -1.125 2.25 0 0 Z " fill="#FBD517" transform="translate(601,1082)"/>
<path d="M0 0 C1.32 0 2.64 0 4 0 C2.8141763 3.37503669 1.72426311 5.64722731 -1 8 C-0.67 5.36 -0.34 2.72 0 0 Z " fill="#30C1B4" transform="translate(508,648)"/>
<path d="M0 0 C0 0.66 0 1.32 0 2 C-1.7015625 2.433125 -1.7015625 2.433125 -3.4375 2.875 C-4.613125 3.24625 -5.78875 3.6175 -7 4 C-7.33 4.66 -7.66 5.32 -8 6 C-8.66 6 -9.32 6 -10 6 C-10.33 4.68 -10.66 3.36 -11 2 C-7.12315913 0.80712589 -4.08378077 0 0 0 Z " fill="#3DB8B9" transform="translate(428,480)"/>
<path d="M0 0 C0.763125 0.309375 1.52625 0.61875 2.3125 0.9375 C4.18789677 1.67893593 6.08684652 2.36228217 8 3 C8 3.99 8 4.98 8 6 C8.66 6 9.32 6 10 6 C10.33 6.99 10.66 7.98 11 9 C8.03469503 7.64199529 5.70868729 6.07571737 3.25 3.9375 C2.63640625 3.41027344 2.0228125 2.88304687 1.390625 2.33984375 C0.93171875 1.89769531 0.4728125 1.45554687 0 1 C0 0.67 0 0.34 0 0 Z " fill="#3AC2BB" transform="translate(916,305)"/>
<path d="M0 0 C1.31611677 0.95336021 2.62778961 1.91285774 3.9375 2.875 C4.66839844 3.40867187 5.39929687 3.94234375 6.15234375 4.4921875 C8 6 8 6 9 8 C6.0280615 6.87548273 3.66559313 5.77706209 1 4 C0.67 4.66 0.34 5.32 0 6 C-0.38218767 4.34385343 -0.71395102 2.67542976 -1 1 C-0.67 0.67 -0.34 0.34 0 0 Z " fill="#31C6B8" transform="translate(1115,306)"/>
<path d="M0 0 C0.33 0.99 0.66 1.98 1 3 C-1.64 4.98 -4.28 6.96 -7 9 C-7.66 8.67 -8.32 8.34 -9 8 C-6.03 5.36 -3.06 2.72 0 0 Z " fill="#37BDB8" transform="translate(189,248)"/>
<path d="M0 0 C0.91004613 3.07140568 1.33694826 5.79899154 1 9 C0.01 9.66 -0.98 10.32 -2 11 C-1.85957123 9.35369672 -1.71250671 7.70795821 -1.5625 6.0625 C-1.48128906 5.14597656 -1.40007813 4.22945312 -1.31640625 3.28515625 C-1 1 -1 1 0 0 Z " fill="#F8E81B" transform="translate(802,1053)"/>
<path d="M0 0 C0.66 0.33 1.32 0.66 2 1 C0.35 4.63 -1.3 8.26 -3 12 C-3.33 12 -3.66 12 -4 12 C-4 10.02 -4 8.04 -4 6 C-3.01 5.67 -2.02 5.34 -1 5 C-0.67 3.35 -0.34 1.7 0 0 Z " fill="#3BC5BA" transform="translate(521,628)"/>
<path d="M0 0 C2 3 2 3 2 6 C-0.31 6.66 -2.62 7.32 -5 8 C-3.35 5.36 -1.7 2.72 0 0 Z " fill="#E3CF10" transform="translate(252,1144)"/>
<path d="M0 0 C0.92039063 0.28810547 0.92039063 0.28810547 1.859375 0.58203125 C0.56920086 1.56316368 -0.72281606 2.54187324 -2.015625 3.51953125 C-2.73492187 4.06480469 -3.45421875 4.61007812 -4.1953125 5.171875 C-6.140625 6.58203125 -6.140625 6.58203125 -8.140625 7.58203125 C-8.140625 6.59203125 -8.140625 5.60203125 -8.140625 4.58203125 C-7.480625 4.58203125 -6.820625 4.58203125 -6.140625 4.58203125 C-6.140625 3.92203125 -6.140625 3.26203125 -6.140625 2.58203125 C-2.87983363 -0.56230328 -2.87983363 -0.56230328 0 0 Z " fill="#EFDE08" transform="translate(210.140625,1095.41796875)"/>
<path d="M0 0 C2.31 0 4.62 0 7 0 C7 0.66 7 1.32 7 2 C7.99 2.33 8.98 2.66 10 3 C3.375 3.125 3.375 3.125 0 2 C0 1.34 0 0.68 0 0 Z " fill="#F4EC17" transform="translate(529,973)"/>
<path d="M0 0 C0.66 0 1.32 0 2 0 C2 1.32 2 2.64 2 4 C0.741875 3.87625 -0.51625 3.7525 -1.8125 3.625 C-2.87404297 3.52058594 -2.87404297 3.52058594 -3.95703125 3.4140625 C-6 3 -6 3 -9 1 C-6.03 1.33 -3.06 1.66 0 2 C0 1.34 0 0.68 0 0 Z " fill="#4BBDBD" transform="translate(426,684)"/>
<path d="M0 0 C0.33 0 0.66 0 1 0 C1.33 2.97 1.66 5.94 2 9 C0.68 9 -0.64 9 -2 9 C-1.34 6.03 -0.68 3.06 0 0 Z " fill="#4DBDBD" transform="translate(722,539)"/>
<path d="M0 0 C0.66 0.33 1.32 0.66 2 1 C-2.43076923 6.78461538 -2.43076923 6.78461538 -5.3125 7.875 C-5.869375 7.91625 -6.42625 7.9575 -7 8 C-7 7.34 -7 6.68 -7 6 C-5.46875 4.4921875 -5.46875 4.4921875 -3.5 2.875 C-2.8503125 2.33617187 -2.200625 1.79734375 -1.53125 1.2421875 C-1.0259375 0.83226562 -0.520625 0.42234375 0 0 Z " fill="#33BCB5" transform="translate(232,211)"/>
<path d="M0 0 C2.97 0.495 2.97 0.495 6 1 C6 1.66 6 2.32 6 3 C6.66 3 7.32 3 8 3 C8.33 4.32 8.66 5.64 9 7 C5.18315774 5.44499019 2.80804268 2.96404505 0 0 Z " fill="#3FC4B9" transform="translate(710,129)"/>
<path d="M0 0 C1.65 0 3.3 0 5 0 C3.63016497 3.16115776 3.0109362 3.9927092 0 6 C0 4.02 0 2.04 0 0 Z " fill="#ECE011" transform="translate(586,1170)"/>
<path d="M0 0 C1.45945288 0.08708669 2.91765868 0.19526907 4.375 0.3125 C5.59316406 0.39951172 5.59316406 0.39951172 6.8359375 0.48828125 C9 1 9 1 11 4 C9.35232753 3.71890887 7.70686855 3.42481474 6.0625 3.125 C4.68771484 2.88136719 4.68771484 2.88136719 3.28515625 2.6328125 C2.53105469 2.42398438 1.77695312 2.21515625 1 2 C0.67 1.34 0.34 0.68 0 0 Z " fill="#EDE50C" transform="translate(434,957)"/>
<path d="M0 0 C0.99 0 1.98 0 3 0 C3 2.97 3 5.94 3 9 C0.23776722 6.23776722 0.42143709 3.79293383 0 0 Z " fill="#43BEC0" transform="translate(360,620)"/>
<path d="M0 0 C2 3 2 3 1.625 6.1875 C1.41875 7.115625 1.2125 8.04375 1 9 C0.67 8.34 0.34 7.68 0 7 C-0.66 7 -1.32 7 -2 7 C-1.34 4.69 -0.68 2.38 0 0 Z " fill="#3CC4C0" transform="translate(525,548)"/>
<path d="M0 0 C0.33 0.99 0.66 1.98 1 3 C-2.25179812 5.21713508 -5.4213696 7.34832443 -9 9 C-6.21000549 5.51250686 -3.74764169 2.49842779 0 0 Z " fill="#3DC0BC" transform="translate(754,495)"/>
<path d="M0 0 C0.33 0.66 0.66 1.32 1 2 C-2 4 -2 4 -5 4 C-5.33 4.99 -5.66 5.98 -6 7 C-6.99 6.67 -7.98 6.34 -9 6 C-6.45543849 3.03134491 -3.51005335 1.6380249 0 0 Z " fill="#38BAB4" transform="translate(412,484)"/>
<path d="M0 0 C1.32 0.33 2.64 0.66 4 1 C1.36 2.98 -1.28 4.96 -4 7 C-2.73033708 1.92134831 -2.73033708 1.92134831 0 0 Z " fill="#37C5BC" transform="translate(523,134)"/>
<path d="M0 0 C1.65 0 3.3 0 5 0 C3.02 2.31 1.04 4.62 -1 7 C-1.66 6.67 -2.32 6.34 -3 6 C-2.01 4.02 -1.02 2.04 0 0 Z " fill="#F6DC11" transform="translate(1092,1178)"/>
<path d="M0 0 C2.31 0.33 4.62 0.66 7 1 C6.67 2.65 6.34 4.3 6 6 C3.97945196 4.35830472 1.97956942 2.69088222 0 1 C0 0.67 0 0.34 0 0 Z " fill="#EBDF0D" transform="translate(911,1121)"/>
<path d="M0 0 C2.88437779 1.29299694 4.87219421 2.65941363 7 5 C3.28400809 5.20086443 2.22791555 5.1519437 -1 3 C-0.67 2.01 -0.34 1.02 0 0 Z " fill="#F3DA1A" transform="translate(583,1062)"/>
<path d="M0 0 C0.598125 0.309375 1.19625 0.61875 1.8125 0.9375 C4.08956772 2.10209704 4.08956772 2.10209704 7 3 C7 3.66 7 4.32 7 5 C6.01 5 5.02 5 4 5 C3.67 5.66 3.34 6.32 3 7 C2.01 4.69 1.02 2.38 0 0 Z " fill="#40C0C4" transform="translate(367,639)"/>
<path d="M0 0 C0.66 0 1.32 0 2 0 C1.44894091 3.9492568 0.61064629 7.34920174 -1 11 C-1.66 9.68 -2.32 8.36 -3 7 C-2.34 7 -1.68 7 -1 7 C-1.020625 6.030625 -1.04125 5.06125 -1.0625 4.0625 C-1 1 -1 1 0 0 Z " fill="#2EAEA8" transform="translate(883,621)"/>
<path d="M0 0 C0 0.99 0 1.98 0 3 C-0.66 3.66 -1.32 4.32 -2 5 C-2.99 6.485 -2.99 6.485 -4 8 C-4.99 7.67 -5.98 7.34 -7 7 C-4.78071806 4.09197539 -3.07030857 2.04687238 0 0 Z " fill="#3AC2BC" transform="translate(281,170)"/>
<path d="M0 0 C1.9375 0.5 1.9375 0.5 4 2 C4.68790422 4.69658452 4.81946464 7.2017019 5 10 C2.35534962 6.8745041 1.15585285 3.91211733 0 0 Z " fill="#F3DB18" transform="translate(684,1148)"/>
<path d="M0 0 C0.66 0 1.32 0 2 0 C2.33 1.98 2.66 3.96 3 6 C2.01 6.33 1.02 6.66 0 7 C0 4.69 0 2.38 0 0 Z " fill="#FAEE21" transform="translate(96,1097)"/>
<path d="M0 0 C0.33 0 0.66 0 1 0 C1.33 3.3 1.66 6.6 2 10 C1.01 10.495 1.01 10.495 0 11 C-1.28571429 3.57142857 -1.28571429 3.57142857 0 0 Z " fill="#F5E50E" transform="translate(26,1053)"/>
<path d="M0 0 C0.33 1.65 0.66 3.3 1 5 C-0.98 4.34 -2.96 3.68 -5 3 C-2.25 0 -2.25 0 0 0 Z " fill="#3DC2BB" transform="translate(767,676)"/>
<path d="M0 0 C0.78375 0.04125 1.5675 0.0825 2.375 0.125 C0.725 1.775 -0.925 3.425 -2.625 5.125 C-3.285 4.135 -3.945 3.145 -4.625 2.125 C-2.625 0.125 -2.625 0.125 0 0 Z " fill="#36CBBA" transform="translate(302.625,319.875)"/>
<path d="M0 0 C0.66 0.33 1.32 0.66 2 1 C2 2.65 2 4.3 2 6 C0.68 6 -0.64 6 -2 6 C-1.34 4.02 -0.68 2.04 0 0 Z " fill="#F6E111" transform="translate(1082,1197)"/>
<path d="M0 0 C1.485 0.99 1.485 0.99 3 2 C2.67 3.32 2.34 4.64 2 6 C1.01 6 0.02 6 -1 6 C-0.67 4.02 -0.34 2.04 0 0 Z " fill="#F1DC11" transform="translate(595,1073)"/>
<path d="M0 0 C0 0.99 0 1.98 0 3 C-1.75 4.75 -1.75 4.75 -4 6 C-5.32 5.67 -6.64 5.34 -8 5 C-4.04 2.525 -4.04 2.525 0 0 Z " fill="#F7DD1E" transform="translate(500,1061)"/>
<path d="M0 0 C0.66 0.33 1.32 0.66 2 1 C2 1.99 2 2.98 2 4 C-0.31 3.67 -2.62 3.34 -5 3 C-3 1 -3 1 0 0 Z " fill="#F9DA17" transform="translate(847,828)"/>
<path d="M0 0 C0.33 1.32 0.66 2.64 1 4 C-1.4375 6.75 -1.4375 6.75 -4 9 C-4.66 8.67 -5.32 8.34 -6 8 C-4.02 5.36 -2.04 2.72 0 0 Z " fill="#E3C908" transform="translate(964,742)"/>
<path d="M0 0 C1.5625 1.25 1.5625 1.25 3 3 C2.6875 5.1875 2.6875 5.1875 2 7 C1.01 6.67 0.02 6.34 -1 6 C-0.67 4.02 -0.34 2.04 0 0 Z " fill="#F2DC13" transform="translate(267,736)"/>
<path d="M0 0 C0.99 0.33 1.98 0.66 3 1 C2.67 2.98 2.34 4.96 2 7 C1.34 6.67 0.68 6.34 0 6 C0 4.02 0 2.04 0 0 Z " fill="#F1E716" transform="translate(128,694)"/>
<path d="M0 0 C0.66 0.33 1.32 0.66 2 1 C-1.465 3.97 -1.465 3.97 -5 7 C-3.92643531 2.70574125 -3.4915227 2.25259529 0 0 Z " fill="#37CBC0" transform="translate(860,662)"/>
<path d="M0 0 C0.33 1.32 0.66 2.64 1 4 C0.34 4 -0.32 4 -1 4 C-1 5.32 -1 6.64 -1 8 C-1.66 8 -2.32 8 -3 8 C-2.25 2.25 -2.25 2.25 0 0 Z " fill="#24D0CC" transform="translate(727,534)"/>
<path d="M0 0 C2.2477975 2.05233685 3.0022242 3.00667261 4 6 C2.35 5.67 0.7 5.34 -1 5 C-0.67 3.35 -0.34 1.7 0 0 Z " fill="#47BFC4" transform="translate(1213,511)"/>
<path d="M0 0 C0.763125 0.0825 1.52625 0.165 2.3125 0.25 C2.3125 0.91 2.3125 1.57 2.3125 2.25 C-0.3275 2.91 -2.9675 3.57 -5.6875 4.25 C-3.34903846 0.31153846 -3.34903846 0.31153846 0 0 Z " fill="#42BFC3" transform="translate(259.6875,189.75)"/>
</svg>
