<?xml version="1.0" standalone="no"?>
<!DOCTYPE svg PUBLIC "-//W3C//DTD SVG 20010904//EN"
 "http://www.w3.org/TR/2001/REC-SVG-20010904/DTD/svg10.dtd">
<svg version="1.0" xmlns="http://www.w3.org/2000/svg"
 width="1920.000000pt" height="1080.000000pt" viewBox="0 0 1920.000000 1080.000000"
 preserveAspectRatio="xMidYMid meet">

<g transform="translate(0.000000,1080.000000) scale(0.100000,-0.100000)"
fill="#000000" stroke="none">
<path d="M0 9523 l1 -1278 1031 -760 c566 -418 1092 -806 1168 -863 l139 -102
-1169 -1583 -1169 -1582 -1 -1677 0 -1678 9600 0 9600 0 0 5400 0 5400 -9600
0 -9600 0 0 -1277z m18380 500 c0 -150 13 -321 24 -318 61 18 66 17 66 -19 0
-31 -2 -34 -40 -40 l-40 -6 0 -64 c0 -67 -6 -76 -51 -76 -17 0 -19 7 -19 58 0
32 -2 61 -5 63 -2 3 -62 -5 -132 -17 -167 -30 -163 -30 -163 5 0 20 40 94 126
233 70 111 133 211 141 220 8 9 29 19 47 21 17 2 34 5 39 5 4 1 7 -28 7 -65z
m-16605 -234 c110 -94 203 -176 207 -183 4 -6 8 -35 8 -63 0 -49 2 -53 24 -53
40 0 76 -39 79 -85 l2 -40 -125 0 -125 0 -3 97 -3 98 -167 140 -167 140 -77 0
-78 0 -127 -107 c-71 -58 -147 -124 -170 -147 l-43 -40 0 -93 0 -93 -120 0
-120 0 0 43 c0 49 19 73 66 86 27 7 29 11 32 64 l3 56 132 114 c73 62 165 141
206 175 l74 62 146 0 146 -1 200 -170z m15744 -156 l1 -203 23 0 c24 0 129 17
160 26 16 5 18 1 15 -27 l-3 -34 -130 -21 c-71 -12 -131 -21 -132 -20 -1 1 -5
128 -9 283 l-7 282 34 3 c33 3 34 2 41 -42 3 -25 7 -136 7 -247z m-209 224 l0
-33 -112 -18 -113 -19 4 -91 c1 -50 4 -92 5 -93 1 -2 40 4 87 12 110 20 109
20 109 -14 0 -31 10 -28 -132 -52 l-68 -11 0 -94 c0 -109 -10 -102 120 -79
111 20 110 20 110 -14 l0 -28 -132 -22 c-73 -13 -140 -25 -149 -27 -14 -4 -17
19 -22 183 -4 104 -7 231 -7 284 l0 96 148 25 c81 14 148 26 150 27 1 0 2 -14
2 -32z m-414 -54 c-3 -10 -48 -144 -99 -298 l-94 -279 -38 -8 c-21 -5 -42 -5
-46 -1 -11 13 -222 513 -218 517 2 3 20 7 39 11 l35 6 90 -221 c49 -121 92
-220 95 -220 3 0 25 62 48 138 124 396 112 368 170 371 18 1 22 -3 18 -16z
m-586 -116 l0 -34 -86 -13 c-149 -22 -137 -12 -135 -115 1 -49 3 -91 5 -92 1
-2 40 4 87 12 110 20 109 20 109 -14 0 -31 10 -28 -132 -52 l-68 -11 0 -94 c0
-109 -10 -102 120 -79 112 20 110 20 110 -15 0 -17 -5 -30 -12 -30 -7 0 -73
-11 -146 -24 -73 -13 -134 -20 -137 -17 -2 4 -7 131 -11 282 l-7 276 149 25
c82 14 150 26 152 27 1 0 2 -14 2 -32z m-591 -364 l1 -203 23 0 c24 0 129 17
160 26 13 4 17 -1 17 -25 0 -17 -1 -31 -2 -31 -2 -1 -61 -11 -131 -24 -70 -13
-129 -20 -131 -17 -2 3 -7 131 -10 283 l-7 277 33 3 c32 3 33 2 40 -42 3 -25
7 -136 7 -247z m-14430 86 c31 -29 43 -67 36 -110 -16 -97 -127 -122 -170 -39
-28 53 -11 134 32 159 30 17 78 12 102 -10z m382 11 c25 -14 49 -62 49 -100 0
-93 -93 -145 -153 -85 -32 33 -40 66 -27 115 19 69 76 99 131 70z m7811 -192
c3 -62 1 -117 -4 -123 -4 -5 -77 -21 -161 -35 l-152 -26 0 -120 c0 -65 4 -290
8 -500 l9 -381 -150 -24 -149 -25 -6 130 c-4 72 -10 296 -13 499 -4 202 -10
367 -13 367 -3 0 -71 -11 -151 -25 -80 -14 -150 -25 -157 -25 -11 0 -31 225
-20 236 5 6 896 161 933 163 21 1 22 -4 26 -111z m-8472 30 c5 -63 8 -70 49
-112 175 -179 557 -181 733 -5 46 46 47 49 50 116 l3 68 119 3 c67 1 124 -2
129 -7 14 -14 -1 -79 -24 -102 -12 -12 -33 -19 -58 -19 -36 0 -42 -4 -70 -51
-123 -198 -402 -309 -645 -255 -154 35 -315 142 -381 255 -28 46 -33 51 -67
51 -24 0 -45 7 -57 19 -21 21 -37 83 -26 101 4 7 47 10 123 8 l117 -3 5 -67z
m7030 -208 c154 -51 268 -165 321 -320 27 -81 37 -251 19 -343 -54 -280 -282
-516 -562 -582 -80 -19 -237 -19 -307 0 -122 32 -236 113 -301 215 -100 155
-115 383 -40 582 48 128 176 281 304 363 66 42 191 91 269 105 81 14 223 5
297 -20z m-1278 -215 c206 -71 224 -374 30 -519 l-53 -40 43 -11 c204 -51 251
-332 87 -510 -47 -51 -102 -87 -180 -116 -50 -19 -687 -134 -696 -125 -4 4
-14 333 -29 948 l-6 287 23 6 c21 5 508 87 584 99 48 7 148 -3 197 -19z m9883
-969 c124 -579 173 -821 165 -826 -23 -14 -411 -73 -419 -64 -5 5 -18 63 -30
129 -12 66 -24 127 -27 136 -4 13 -44 9 -322 -39 -174 -29 -317 -54 -318 -55
-31 -73 -148 -327 -151 -327 -2 0 -96 -16 -209 -36 -114 -19 -208 -34 -209
-32 -2 2 192 420 432 928 l435 925 236 41 c131 22 238 40 239 39 1 0 81 -369
178 -819z m-11293 750 c105 -23 175 -61 254 -140 112 -112 154 -222 154 -402
0 -125 -24 -225 -80 -332 -129 -249 -377 -402 -649 -402 -165 0 -276 44 -382
149 -194 194 -212 531 -40 793 165 252 474 391 743 334z m-1232 -252 c111 -50
169 -141 177 -278 10 -170 -74 -313 -242 -411 -16 -10 -3 -33 122 -220 76
-116 142 -215 146 -221 4 -8 -48 -20 -163 -39 -94 -15 -172 -26 -174 -24 -9
11 -256 405 -259 412 -1 5 -19 6 -40 2 l-37 -7 7 -234 c3 -129 4 -234 2 -234
-3 0 -69 -11 -148 -25 -79 -14 -146 -24 -148 -21 -4 3 -14 337 -29 953 l-6
282 23 6 c13 3 141 26 284 50 306 53 384 54 485 9z m10770 -31 c124 -58 188
-152 197 -292 18 -253 -132 -515 -374 -655 l-81 -48 28 -61 c15 -34 67 -147
115 -252 48 -104 100 -217 115 -251 l28 -61 -217 -37 c-119 -20 -223 -36 -233
-36 -11 0 -38 51 -93 183 -43 100 -100 234 -127 298 l-49 116 -46 -8 c-26 -5
-49 -11 -51 -14 -3 -3 -27 -150 -54 -327 -26 -177 -51 -325 -55 -328 -10 -9
-393 -74 -398 -68 -6 6 250 1736 257 1744 3 3 174 34 379 70 334 57 386 64
484 61 99 -3 117 -6 175 -34z m-1398 -325 c-14 -90 -25 -164 -26 -165 -1 -1
-141 -25 -311 -54 -171 -29 -312 -54 -313 -55 -7 -5 -54 -355 -49 -360 3 -4
126 15 273 40 147 25 269 44 271 42 5 -5 -40 -300 -47 -309 -4 -4 -128 -28
-276 -53 -148 -25 -271 -47 -272 -49 -5 -5 -63 -387 -60 -390 2 -2 143 21 313
50 171 29 310 52 311 52 0 -1 -11 -77 -24 -168 l-25 -166 -476 -81 c-261 -44
-476 -80 -477 -79 -1 1 38 83 87 181 49 99 89 185 89 192 0 17 -18 21 -117 29
l-81 7 5 31 c2 18 46 314 97 660 51 345 95 630 98 633 7 6 963 171 1004 173
l30 1 -24 -162z m-1318 -218 c-14 -90 -26 -165 -27 -166 -1 -1 -102 -19 -224
-40 -173 -29 -224 -41 -227 -53 -2 -9 -33 -210 -68 -448 -71 -491 -51 -435
-168 -454 -53 -8 -180 -36 -265 -58 -22 -5 -40 -9 -41 -8 -1 1 28 205 65 452
57 387 65 450 51 453 -8 1 -107 -13 -219 -33 -113 -19 -207 -33 -209 -31 -2 3
7 78 20 167 l24 163 654 111 c360 62 656 112 657 111 1 -1 -10 -75 -23 -166z
m-1779 -205 c153 -52 225 -168 225 -359 0 -180 -67 -347 -191 -480 -160 -171
-297 -237 -609 -291 -85 -14 -158 -29 -162 -33 -7 -8 -58 -338 -58 -376 0 -16
13 -32 43 -51 23 -16 77 -54 119 -85 52 -39 90 -59 119 -64 34 -5 53 -18 103
-70 36 -37 73 -66 91 -70 17 -4 37 -13 45 -20 8 -8 26 -16 40 -19 34 -8 120
-64 120 -78 0 -8 -4 -8 -15 1 -14 12 -27 10 -87 -15 -11 -4 -16 -1 -15 11 2
13 -23 30 -89 63 -56 28 -113 66 -146 97 -52 50 -62 55 -121 68 -15 4 -49 28
-75 54 -26 26 -63 57 -82 70 -19 12 -71 46 -115 74 -44 29 -99 67 -123 85 -51
39 -71 41 -99 11 -33 -37 -37 -56 -43 -213 l-5 -150 -53 -8 c-30 -5 -55 -7
-58 -5 -5 6 251 1737 258 1744 4 3 561 101 733 128 57 8 200 -2 250 -19z
m-1349 -192 c-3 -16 -60 -395 -126 -843 -66 -448 -123 -829 -126 -846 -5 -25
-12 -32 -47 -41 -59 -17 -357 -66 -362 -61 -6 5 250 1736 257 1744 5 4 360 70
396 73 10 1 12 -7 8 -26z m-906 -983 c-71 -480 -131 -874 -132 -875 -2 -1 -94
-18 -206 -37 l-203 -34 5 31 c20 114 146 980 144 990 -2 7 -119 -228 -261
-523 -142 -296 -262 -543 -266 -551 -6 -9 -69 -24 -172 -41 -90 -15 -164 -27
-165 -26 -1 0 -47 204 -103 451 -114 501 -122 534 -127 520 -2 -5 -38 -239
-79 -519 -41 -280 -78 -513 -82 -516 -10 -9 -393 -74 -398 -68 -6 5 250 1736
257 1743 6 7 478 88 483 83 1 -1 69 -255 150 -563 80 -308 147 -561 148 -562
1 -1 149 290 329 645 l327 647 238 41 c131 22 239 40 240 39 2 -1 -55 -394
-127 -875z m-2475 -414 c124 -579 173 -821 165 -826 -23 -14 -411 -73 -419
-64 -5 5 -18 63 -30 129 -12 66 -24 127 -27 136 -4 13 -44 9 -322 -39 -174
-29 -317 -54 -318 -55 -38 -89 -149 -327 -152 -327 -3 0 -97 -16 -210 -36
-112 -19 -206 -34 -207 -32 -2 2 192 419 431 928 l435 925 237 41 c130 22 238
40 239 39 1 0 81 -369 178 -819z m-1520 572 c-3 -13 -61 -405 -131 -873 -69
-467 -128 -853 -132 -856 -9 -8 -394 -71 -399 -65 -3 2 19 162 47 356 29 193
50 354 47 357 -4 3 -149 -19 -324 -49 l-317 -54 -53 -359 c-29 -197 -56 -361
-60 -365 -10 -9 -393 -74 -398 -68 -6 5 250 1736 257 1743 5 6 401 75 405 72
1 -2 -21 -154 -49 -340 -28 -186 -49 -340 -46 -342 7 -8 628 101 637 111 5 5
30 158 56 339 26 182 51 334 55 338 5 6 353 73 398 76 8 1 11 -7 7 -21z m5232
-529 c27 -10 137 -81 179 -117 20 -16 20 -21 10 -72 l-11 -54 -109 -19 c-60
-10 -111 -15 -115 -11 -8 8 -8 245 1 267 9 20 9 20 45 6z m2693 -224 c0 -8 10
-21 23 -30 24 -15 186 -48 287 -59 66 -6 193 -36 274 -65 33 -12 66 -21 75
-21 9 0 39 -11 66 -25 28 -13 56 -25 63 -25 32 0 152 -75 185 -114 l36 -43
-37 -16 c-20 -9 -109 -45 -197 -80 -88 -36 -189 -78 -225 -95 -36 -16 -144
-60 -240 -97 -96 -36 -209 -79 -250 -95 -41 -16 -100 -36 -130 -45 -80 -23
-150 -56 -150 -72 0 -7 -8 -13 -19 -13 -10 0 -29 -8 -42 -19 -13 -10 -38 -25
-56 -34 -21 -11 -34 -27 -38 -47 -12 -53 -102 -113 -170 -113 -46 0 -139 48
-202 103 -38 33 -42 43 -73 165 -17 72 -46 177 -62 235 -23 81 -29 117 -25
158 17 163 141 246 345 228 115 -9 224 -69 273 -150 l18 -29 53 84 c30 46 88
139 129 206 72 118 89 139 89 108z m-2349 -98 c85 -24 162 -64 187 -95 15 -19
16 -79 2 -84 -10 -3 122 -98 135 -98 11 0 89 -64 145 -119 58 -56 48 -50 -90
54 -47 35 -104 73 -127 84 -23 11 -55 31 -70 45 -15 14 -32 26 -36 26 -5 0
-37 13 -71 29 -91 44 -209 81 -258 82 -50 1 -81 11 -76 24 6 18 -42 16 -119
-5 -158 -43 -302 -149 -405 -298 -34 -50 -90 -161 -107 -214 -15 -44 -29 -47
-68 -14 -27 23 -27 26 -15 58 8 18 22 55 32 82 25 65 81 143 164 233 43 46 66
79 62 88 -3 10 1 15 11 15 14 0 12 5 -8 28 -13 15 -33 37 -43 49 l-18 21 59
-5 c82 -7 240 11 261 30 25 22 38 23 211 16 123 -6 174 -12 242 -32z m109 2
c0 -5 -7 -9 -15 -9 -8 0 -15 7 -15 15 0 9 6 12 15 9 8 -4 15 -10 15 -15z
m-1063 -141 c-3 -7 -5 -2 -5 12 0 14 2 19 5 13 2 -7 2 -19 0 -25z m1549 -36
c-4 -3 -14 2 -24 12 -16 18 -16 18 6 6 13 -6 21 -14 18 -18z m-121 -42 c3 -6
-1 -7 -9 -4 -18 7 -21 14 -7 14 6 0 13 -4 16 -10z m-88 -76 c-8 -8 -67 50 -67
68 0 7 17 -4 37 -24 20 -21 34 -40 30 -44z m166 39 c60 -37 163 -139 206 -203
53 -79 91 -171 107 -258 20 -113 16 -128 -10 -37 -30 103 -106 275 -121 275
-7 0 24 -73 36 -84 5 -6 9 -16 9 -24 0 -9 -8 -5 -20 11 -11 14 -20 29 -20 34
0 23 -123 185 -197 260 -58 58 -55 67 10 26z m324 -203 c46 -61 86 -130 80
-136 -2 -3 -29 29 -60 69 -31 41 -84 107 -117 148 -33 40 -60 77 -60 81 0 14
114 -104 157 -162z m-403 108 c16 -31 16 -31 -4 -13 -11 10 -20 24 -20 32 0
21 7 15 24 -19z m7935 -102 c38 -40 5 -62 -44 -30 -87 57 -217 -104 -144 -177
31 -31 84 -20 127 26 38 42 41 57 7 50 -14 -3 -36 -7 -50 -10 -20 -4 -25 -1
-25 14 0 15 10 20 53 25 28 4 62 10 75 13 45 11 21 -66 -40 -124 -38 -37 -76
-53 -121 -53 -123 0 -119 190 6 265 57 34 125 34 156 1z m-7981 -8 c20 -20 14
-40 -9 -36 -28 4 -47 48 -21 48 10 0 23 -5 30 -12z m7649 -44 c23 -23 25 -31
21 -88 -5 -75 -36 -124 -98 -156 -93 -47 -170 -10 -170 82 0 105 78 187 178
188 33 0 49 -6 69 -26z m-367 -56 c0 -21 -11 -99 -26 -187 l-5 -34 46 6 c40 6
46 5 43 -10 -2 -12 -21 -20 -68 -29 -36 -6 -66 -11 -68 -10 -1 2 7 61 18 132
11 71 20 135 20 142 0 6 9 12 20 12 14 0 20 -7 20 -22z m-7054 -24 c10 -15 26
-34 35 -43 24 -23 116 -163 131 -197 6 -16 17 -36 23 -44 16 -21 72 -168 84
-221 6 -24 10 -64 10 -89 -1 -38 -3 -33 -14 34 -16 92 -43 171 -92 271 -38 75
-149 242 -191 288 -14 15 -21 27 -15 27 5 0 19 -12 29 -26z m6873 -96 c12 -62
25 -123 28 -135 4 -19 1 -23 -20 -23 -19 0 -26 6 -29 23 -2 17 -9 21 -28 20
-73 -7 -89 -14 -109 -48 -17 -30 -51 -49 -51 -28 0 3 30 71 67 149 60 130 74
149 108 153 6 0 21 -50 34 -111z m-7256 77 c-3 -9 -8 -14 -10 -11 -3 3 -2 9 2
15 9 16 15 13 8 -4z m137 5 c0 -5 -4 -10 -10 -10 -5 0 -10 5 -10 10 0 6 5 10
10 10 6 0 10 -4 10 -10z m6856 -149 c-19 -130 -22 -140 -43 -144 -20 -4 -29 7
-71 84 -26 49 -50 89 -53 89 -4 0 -12 -43 -20 -96 -10 -75 -17 -97 -32 -105
-10 -6 -21 -9 -23 -6 -2 2 5 62 16 133 11 71 20 135 20 142 0 6 11 12 24 12
21 0 33 -14 71 -85 26 -47 50 -83 55 -80 4 2 13 47 20 100 12 87 14 95 34 95
l22 0 -20 -139z m-6466 108 c0 -6 -4 -7 -10 -4 -5 3 -10 11 -10 16 0 6 5 7 10
4 6 -3 10 -11 10 -16z m-391 -23 c7 -8 14 -23 16 -35 4 -20 3 -20 -20 -5 -25
16 -38 38 -28 48 10 10 20 7 32 -8z m-49 -7 c0 -5 -7 -9 -16 -9 -8 0 -12 -4
-9 -10 3 -6 -1 -7 -9 -4 -25 10 -18 32 9 32 14 0 25 -4 25 -9z m6569 -111 c12
-62 25 -123 28 -135 4 -19 1 -23 -20 -23 -19 0 -26 6 -29 23 -2 17 -9 21 -28
20 -73 -7 -89 -14 -109 -48 -17 -30 -51 -49 -51 -28 0 3 30 71 67 149 60 130
74 149 108 153 6 0 21 -50 34 -111z m-6309 42 c0 -13 -1 -13 -10 0 -5 8 -10
22 -10 30 0 13 1 13 10 0 5 -8 10 -22 10 -30z m5948 -2 c-3 -7 -21 -17 -41
-22 -41 -10 -40 -9 -58 -150 -11 -84 -16 -99 -33 -106 -12 -4 -22 -5 -23 -1
-2 3 5 59 15 124 l18 118 -38 -6 c-24 -4 -38 -3 -38 4 0 16 21 25 85 37 85 16
118 17 113 2z m-5994 -47 c3 -4 3 -11 0 -14 -8 -8 -34 3 -34 14 0 11 27 12 34
0z m5703 -27 c23 -23 25 -31 21 -88 -5 -75 -36 -124 -98 -156 -93 -47 -170
-10 -170 82 0 105 78 187 178 188 33 0 49 -6 69 -26z m-5646 -21 l24 -27 -24
15 c-14 9 -27 21 -29 27 -6 19 3 14 29 -15z m5337 -52 c2 -23 -3 -43 -17 -62
-18 -24 -18 -29 -6 -39 32 -27 10 -96 -38 -122 -21 -11 -149 -39 -155 -34 -1
2 7 61 18 132 11 71 20 134 20 141 0 14 43 21 120 19 l55 -1 3 -34z m-291 -27
c23 -23 25 -31 21 -88 -5 -75 -36 -124 -98 -156 -93 -47 -170 -10 -170 82 0
105 78 187 178 188 33 0 49 -6 69 -26z m-319 -46 c7 -7 12 -27 12 -46 0 -26
-9 -43 -36 -70 l-36 -36 21 -43 c27 -56 26 -63 -4 -63 -20 0 -28 9 -46 50 -12
28 -28 50 -35 50 -17 0 -34 -40 -34 -80 0 -19 -7 -33 -21 -40 -11 -7 -23 -10
-25 -7 -2 2 5 62 16 133 11 71 20 134 20 141 0 21 149 30 168 11z m-3088 -8
c0 -5 -4 -10 -10 -10 -5 0 -10 5 -10 10 0 6 5 10 10 10 6 0 10 -4 10 -10z
m-4579 -153 c13 -13 56 -61 94 -107 70 -83 618 -714 806 -927 98 -110 125
-149 72 -102 l-28 24 24 -27 c14 -16 27 -26 30 -23 6 7 71 -56 71 -69 0 -5
-15 3 -32 20 l-33 29 29 -32 c16 -18 32 -30 36 -28 4 2 17 -7 30 -20 13 -13
26 -22 31 -20 8 6 66 -58 130 -143 24 -31 68 -86 99 -122 31 -36 80 -95 109
-132 29 -38 57 -68 62 -68 5 0 23 -13 40 -29 29 -28 29 -30 10 -36 -12 -3 -26
-3 -33 1 -7 4 -9 3 -5 -2 4 -4 -18 -16 -50 -26 -32 -10 -110 -36 -173 -58
-158 -56 -200 -69 -200 -62 0 4 -4 1 -9 -6 -5 -8 -20 -15 -34 -15 -14 -1 -23
-6 -19 -11 3 -5 -5 -7 -16 -4 -12 4 -20 3 -18 -1 4 -7 -72 -39 -106 -45 -7 -1
-31 -10 -52 -19 -21 -10 -60 -24 -85 -33 -25 -8 -102 -36 -171 -61 -207 -76
-314 -112 -355 -119 -5 -1 -14 -3 -20 -4 -5 -1 -13 -2 -17 -1 -5 0 -8 -3 -8
-9 0 -15 -140 -75 -255 -110 -184 -55 -191 -58 -255 -86 -3 -1 -16 -5 -29 -9
-13 -5 -67 -24 -120 -42 -53 -19 -123 -43 -156 -53 -52 -15 -224 -79 -307
-113 -16 -7 -28 -15 -28 -20 0 -4 -6 -7 -12 -5 -7 1 -40 -8 -73 -21 -33 -13
-69 -25 -80 -27 -11 -2 -31 -9 -45 -15 -14 -6 -34 -15 -45 -19 -11 -4 -33 -13
-48 -19 -16 -6 -45 -14 -65 -17 -41 -6 -55 -10 -192 -55 -52 -18 -122 -45
-154 -61 -33 -15 -66 -28 -73 -28 -8 0 -49 -16 -91 -36 -129 -60 -170 -75
-178 -62 -5 8 -9 6 -14 -6 -6 -19 -19 -24 -265 -107 -82 -28 -155 -55 -162
-61 -13 -10 -83 0 -83 13 0 16 34 28 52 18 12 -7 24 -6 36 1 15 9 14 10 -5 5
-13 -4 -23 -2 -23 3 0 9 172 82 255 108 61 19 580 208 1110 405 115 42 441
157 572 201 30 10 31 12 17 33 -10 16 -22 21 -37 18 -22 -4 -22 -4 -2 12 20
17 20 17 -2 10 -13 -3 -23 -2 -23 4 0 5 -7 17 -17 26 -12 12 -13 19 -4 24 6 4
9 15 6 23 -7 17 20 78 33 78 39 0 86 -26 114 -63 19 -24 40 -41 49 -39 8 1 24
-7 34 -19 19 -21 19 -21 0 -36 -24 -19 -39 -23 140 44 66 24 176 65 245 90 69
24 168 61 220 80 159 59 715 263 980 359 52 19 128 48 167 64 40 17 82 30 93
30 11 0 20 2 20 4 0 10 -153 151 -162 148 -5 -1 -7 2 -3 7 5 9 -93 124 -368
431 -52 58 -101 104 -108 102 -15 -3 -171 -63 -178 -68 -2 -2 61 -79 139 -171
79 -92 162 -190 186 -218 23 -27 74 -83 113 -124 39 -41 71 -76 71 -78 0 -2
-6 -3 -14 -3 -7 0 -246 -83 -531 -185 -421 -151 -520 -183 -532 -173 -25 20
-191 232 -324 413 -69 94 -151 205 -183 248 -39 53 -61 76 -68 69 -7 -7 -3
-21 12 -44 l22 -33 -26 28 c-32 34 -32 38 -3 64 21 19 222 93 253 93 8 0 31
34 52 77 l37 77 275 92 c277 92 458 156 486 172 11 6 1 24 -51 85 l-66 76 -52
-20 c-98 -40 -131 -49 -137 -42 -4 5 -26 29 -50 56 -24 26 -40 51 -36 55 4 4
29 -17 54 -45 l47 -52 74 29 c40 16 75 31 78 34 3 3 -41 58 -98 122 -57 64
-117 132 -132 150 -27 32 -30 33 -55 20 -15 -7 -70 -28 -122 -46 -52 -18 -103
-40 -112 -48 -22 -19 -53 -11 -53 13 0 16 7 20 35 21 34 1 237 68 253 83 4 4
2 13 -6 19 -11 10 -29 7 -80 -13 -37 -13 -114 -40 -171 -59 -102 -33 -105 -33
-177 -21 -62 11 -78 18 -99 44 -21 25 -34 31 -64 31 -20 0 -46 -5 -57 -11 -26
-14 -61 -2 -57 19 3 15 15 16 83 13 75 -3 82 -5 106 -35 23 -26 38 -33 95 -42
l69 -11 162 55 c90 31 163 58 163 61 0 3 -17 25 -38 49 l-37 43 -170 -56 -170
-56 -77 12 c-70 10 -80 14 -104 46 -24 32 -28 34 -70 27 -43 -6 -62 7 -28 20
42 16 83 6 111 -28 23 -28 38 -35 93 -45 65 -11 66 -11 228 41 89 28 162 55
162 60 0 4 -28 40 -62 80 -34 40 -63 75 -65 77 -2 3 -61 -14 -131 -37 -141
-46 -508 -156 -977 -293 -170 -49 -314 -91 -320 -93 -5 -1 0 -5 11 -8 11 -3
71 10 134 28 l115 34 23 -28 c12 -15 35 -46 50 -70 15 -23 35 -45 45 -48 23
-7 18 -38 -6 -42 -24 -5 -50 17 -38 32 6 7 -5 32 -35 72 l-44 62 -105 -31
c-58 -17 -105 -36 -105 -42 0 -15 -68 -36 -76 -24 -3 5 -12 9 -20 9 -11 0 -13
-6 -9 -19 4 -14 0 -21 -15 -26 -20 -6 -20 -8 -5 -31 14 -22 14 -27 0 -54 -18
-34 -16 -38 43 -128 19 -29 32 -55 29 -59 -8 -8 -4 -13 -61 72 -50 76 -54 90
-31 121 12 18 12 24 -1 42 -20 29 -39 28 -70 -3 -17 -17 -23 -32 -19 -44 7
-22 -17 -35 -46 -26 -25 8 -24 32 1 40 11 4 28 18 37 32 9 14 28 29 41 34 14
5 22 12 19 15 -9 9 -144 -35 -157 -51 -16 -19 -21 -19 -46 0 -16 13 -17 16 -4
25 8 5 26 10 38 10 39 0 164 42 155 51 -7 7 -409 -105 -423 -118 -2 -2 0 -7 6
-11 23 -16 43 -59 32 -70 -8 -8 -2 -25 21 -61 18 -28 31 -56 29 -63 -5 -13 -8
-9 -61 79 -19 30 -31 40 -44 37 -14 -4 -23 4 -36 30 -16 35 -31 43 -53 28 -19
-11 56 -133 77 -127 10 4 23 -4 34 -21 16 -25 16 -27 -2 -42 -23 -22 -59 -17
-78 11 -19 27 -19 37 0 37 10 0 2 20 -27 68 l-41 68 -126 -38 c-69 -21 -162
-48 -206 -58 -44 -11 -156 -43 -250 -71 -93 -27 -183 -53 -200 -56 -48 -9
-493 -141 -515 -153 -11 -6 -20 -13 -20 -15 0 -2 73 -156 161 -342 89 -186
175 -366 191 -400 17 -35 33 -63 36 -63 7 0 166 42 170 45 1 1 -72 151 -163
334 -91 183 -165 336 -165 341 0 6 4 10 8 10 7 0 342 -677 342 -691 0 -4 -12
-10 -27 -13 -16 -4 -58 -16 -95 -27 l-68 -20 25 -50 c14 -27 30 -47 34 -44 5
2 64 21 132 40 68 20 131 42 139 50 22 20 49 19 57 -1 8 -22 -24 -47 -45 -35
-9 5 -50 -3 -106 -20 -50 -15 -110 -33 -133 -39 -44 -11 -48 -16 -35 -38 7
-10 59 3 228 54 120 37 229 69 241 71 18 4 27 -6 60 -69 l38 -73 70 -3 70 -3
33 64 c32 62 134 175 197 218 63 43 188 100 269 123 241 70 483 51 701 -54
121 -59 196 -117 258 -199 71 -95 91 -156 91 -276 0 -82 -4 -109 -22 -149 -25
-56 -27 -67 -9 -62 6 1 9 1 5 -1 -4 -3 -11 -5 -15 -6 -4 -1 -28 -29 -53 -62
-85 -112 -243 -214 -415 -268 -232 -73 -517 -61 -723 30 -243 107 -385 340
-340 555 l14 67 -70 3 -71 3 -35 67 c-19 36 -38 69 -42 73 -3 3 -104 -24 -224
-60 -121 -37 -226 -69 -235 -71 -17 -5 -32 22 -201 376 -39 80 -121 251 -184
380 -63 130 -114 240 -114 245 0 4 -7 17 -16 27 -17 18 -12 25 28 32 7 1 52
14 100 29 47 15 94 24 104 20 10 -4 15 -2 11 4 -10 16 112 46 129 32 12 -10
13 -8 7 6 -5 14 -3 17 10 12 9 -3 17 -3 17 2 0 7 41 20 85 26 6 1 17 5 25 8
49 21 543 157 550 152 6 -4 10 -2 10 3 0 13 157 55 172 46 6 -4 8 -3 5 3 -3 5
125 47 301 97 401 115 987 286 1332 387 464 137 605 178 611 179 3 0 17 -10
30 -23z m2754 -27 c-7 -11 -50 -35 -92 -51 -28 -10 -28 -10 -8 8 15 14 69 41
103 52 2 1 0 -4 -3 -9z m136 -100 c22 -12 26 -50 4 -50 -8 0 -21 14 -30 30
-16 32 -9 38 26 20z m5284 -107 c15 -38 63 -228 58 -235 -8 -14 -32 -8 -41 10
-5 9 -15 42 -22 72 -7 30 -15 59 -18 64 -3 5 -16 -29 -29 -75 -33 -116 -121
-292 -187 -376 -143 -179 -341 -277 -458 -225 -47 20 -92 77 -86 109 6 31 27
25 52 -16 32 -50 52 -61 114 -61 97 0 248 101 351 233 23 31 62 94 86 141 44
85 113 282 102 292 -3 3 -35 -18 -71 -46 -63 -50 -96 -59 -96 -27 0 20 187
157 215 157 12 0 26 -8 30 -17z m-5694 -13 c5 0 9 -7 9 -15 0 -18 -5 -18 -31
-5 -23 13 -26 35 -3 26 9 -3 20 -6 25 -6z m1053 -61 c41 -19 66 -107 41 -146
-9 -14 -15 -26 -13 -29 2 -2 38 -19 80 -38 86 -39 78 -23 98 -185 5 -46 10
-88 10 -93 0 -5 4 -7 8 -4 18 11 257 68 342 82 88 14 267 59 365 91 61 20 184
85 288 151 l48 30 -87 7 c-111 10 -202 -5 -312 -51 -46 -19 -86 -33 -88 -31
-5 5 121 58 196 82 65 22 224 24 380 7 167 -19 223 -21 613 -22 l367 0 0 -31
c0 -19 -10 -43 -26 -62 -29 -34 -186 -162 -231 -188 -15 -10 -57 -34 -93 -55
-177 -105 -344 -171 -580 -228 -215 -52 -288 -60 -560 -60 -140 -1 -289 1
-330 4 l-75 5 -1 -81 c-2 -106 -9 -144 -46 -223 -42 -89 -183 -230 -285 -284
-271 -143 -593 -175 -871 -86 -147 46 -208 82 -306 176 -68 66 -106 135 -106
190 0 20 -6 44 -14 52 -8 9 -20 56 -26 105 -11 77 -10 99 5 163 18 75 88 199
106 187 6 -3 8 29 6 75 -3 59 0 84 9 92 10 8 12 26 8 64 l-6 52 60 62 c33 33
65 61 71 61 6 0 16 -12 23 -27 13 -33 11 -158 -3 -184 -20 -38 29 -77 59 -47
17 17 15 31 -4 24 -13 -5 -15 8 -12 108 l3 114 -34 42 c-23 28 -30 45 -23 52
16 16 27 3 82 -99 46 -86 50 -98 36 -109 -37 -27 3 -76 44 -54 20 11 28 50 10
50 -5 0 -10 8 -10 18 0 9 -23 63 -52 119 -50 97 -59 145 -17 95 10 -13 26 -25
36 -26 9 -2 20 -9 24 -17 25 -51 60 -131 75 -172 14 -40 15 -50 4 -57 -8 -5
-11 -18 -7 -39 6 -28 2 -36 -33 -67 -31 -28 -40 -44 -40 -69 0 -47 23 -63 59
-42 19 11 39 14 64 10 21 -3 43 -1 50 5 18 15 57 -12 57 -38 0 -10 5 -22 11
-25 19 -12 60 5 69 30 5 14 25 33 45 42 33 16 36 16 49 -2 14 -19 9 -39 -25
-107 -11 -21 4 -32 32 -23 15 5 19 13 15 28 -6 26 18 62 42 63 47 3 52 5 52
24 0 11 -5 20 -12 20 -7 0 -8 3 -3 9 6 5 52 13 103 18 51 6 95 12 97 14 2 3 8
41 12 87 8 76 8 82 -9 82 -10 0 -18 5 -18 10 0 6 -9 1 -20 -10 -11 -11 -24
-20 -30 -20 -5 0 -10 9 -10 20 0 11 -4 20 -10 20 -14 0 -12 20 4 53 14 26 14
27 -8 27 -19 0 -24 7 -29 37 -6 36 -3 41 56 101 80 82 103 93 151 71z m-626
-61 c22 -43 16 -83 -11 -72 -23 8 -57 90 -44 103 20 20 35 12 55 -31z m-38
-104 c41 -79 51 -108 41 -112 -11 -4 -11 -6 0 -13 11 -6 9 -12 -5 -28 -27 -29
-32 -27 -49 23 -13 39 -13 45 0 59 19 18 8 40 -16 32 -24 -7 -79 129 -60 151
17 21 27 8 89 -112z m64 110 c5 -14 4 -15 -9 -4 -17 14 -19 20 -6 20 5 0 12
-7 15 -16z m366 -12 c0 -9 -22 -59 -40 -93 -5 -10 -5 -20 1 -26 19 -19 13 -60
-15 -96 -16 -20 -32 -37 -37 -37 -5 0 -15 -12 -24 -27 l-16 -28 6 35 c7 39 13
60 48 170 18 55 28 74 40 72 11 -2 14 3 10 18 -4 14 0 20 11 20 9 0 16 -4 16
-8z m15 -144 c4 -10 3 -18 -2 -18 -16 0 -31 37 -25 66 l6 29 7 -30 c3 -16 10
-38 14 -47z m-333 22 c-1 -18 -9 -41 -16 -52 -14 -19 -15 -19 -35 20 -21 42
-27 67 -13 59 4 -3 16 -1 27 4 31 12 40 5 37 -31z m88 -52 c5 -13 9 -17 9 -9
1 8 3 12 6 9 3 -3 3 -12 -1 -21 -8 -23 -44 -4 -44 23 0 27 19 25 30 -2z m280
-9 c0 -6 -4 -7 -10 -4 -5 3 -10 11 -10 16 0 6 5 7 10 4 6 -3 10 -11 10 -16z
m-3395 -39 c10 -11 16 -22 14 -24 -2 -2 -44 -16 -92 -31 -85 -26 -89 -26 -102
-8 -8 10 -15 20 -15 23 0 4 143 53 171 59 3 0 14 -8 24 -19z m3319 -37 c-7
-21 -14 -47 -14 -58 -1 -18 -2 -18 -11 3 -9 23 -1 48 24 80 15 19 16 15 1 -25z
m-2883 5 c25 -28 24 -33 -11 -48 -28 -12 -33 -10 -55 10 -14 13 -25 27 -25 30
0 6 33 19 69 29 2 1 12 -9 22 -21z m-598 -77 c-4 -6 -53 41 -53 50 0 4 13 -4
28 -19 15 -15 26 -29 25 -31z m-37 -38 c85 -106 97 -123 93 -128 -2 -2 -20 -6
-40 -10 -36 -7 -38 -5 -90 60 -30 36 -55 62 -57 56 -2 -5 20 -40 49 -78 29
-37 44 -60 32 -50 -12 10 -34 36 -48 58 -29 41 -45 43 -45 5 0 -12 -2 -25 -5
-28 -3 -3 -41 7 -83 23 -42 16 -79 29 -81 29 -3 0 6 -11 19 -25 12 -13 26 -23
29 -20 4 2 13 -1 21 -7 12 -8 12 -9 -2 -4 -25 8 -23 0 13 -46 17 -21 30 -40
28 -42 -2 -2 -20 -8 -39 -15 -32 -11 -36 -10 -54 15 -10 14 -48 62 -83 105
-34 44 -63 81 -63 83 0 2 19 9 43 15 37 11 50 9 114 -13 l73 -25 10 42 c6 23
12 46 14 51 2 8 56 33 77 35 3 1 37 -38 75 -86z m154 77 c-8 -5 -22 -9 -30 -9
-10 0 -8 3 5 9 27 12 43 12 25 0z m120 -37 c0 -7 -8 -13 -17 -13 -9 0 -47 -10
-84 -22 -67 -21 -69 -21 -89 -3 -11 10 -18 21 -15 23 3 3 42 17 88 32 73 24
84 25 100 12 9 -8 17 -21 17 -29z m-1001 -2 c8 -5 12 -18 8 -30 -5 -19 -2 -21
16 -15 16 4 19 3 12 -5 -9 -9 -234 -83 -340 -111 -40 -11 -129 -38 -183 -56
-51 -17 -52 -17 -52 -4 0 6 8 10 17 10 13 0 14 3 6 11 -9 9 -16 8 -28 -4 -9
-9 -15 -20 -15 -24 1 -4 -40 -20 -90 -36 l-92 -28 -24 28 c-13 15 -24 33 -24
39 0 15 45 27 70 19 11 -3 20 0 24 10 3 8 16 15 29 15 13 0 38 7 56 16 22 11
35 13 44 5 9 -7 16 -5 25 10 14 22 51 25 72 7 12 -11 12 -10 2 4 -16 20 2 29
35 17 17 -6 21 -5 16 6 -10 28 18 15 35 -15 9 -16 21 -30 25 -30 9 0 -9 36
-23 45 -17 10 -11 22 12 28 13 4 26 1 30 -6 6 -9 8 -9 8 0 0 7 9 17 21 23 17
9 23 8 34 -7 13 -17 14 -17 8 5 -8 32 15 28 35 -8 18 -32 39 -42 22 -11 -28
53 14 71 62 26 31 -29 40 -31 32 -10 -7 17 11 21 21 5 3 -5 11 -10 17 -10 7 0
0 13 -15 28 -30 32 -34 42 -13 42 8 0 23 -13 33 -30 9 -16 21 -30 26 -30 5 0
-2 14 -14 31 -18 26 -19 33 -8 40 18 11 50 11 68 0z m1072 -53 c21 -27 24 -41
7 -35 -7 2 -51 -9 -97 -25 l-85 -28 -20 22 c-16 18 -18 23 -6 27 15 5 172 58
178 60 2 1 12 -9 23 -21z m-151 2 c-8 -5 -22 -9 -30 -9 -10 0 -8 3 5 9 27 12
43 12 25 0z m2824 -22 c-11 -14 -7 -12 13 5 28 26 65 34 64 15 -1 -5 -1 -16
-1 -26 0 -11 -17 -28 -41 -41 -42 -24 -58 -19 -59 17 0 17 31 64 38 57 3 -3
-3 -15 -14 -27z m-3408 -35 c15 -20 23 -33 16 -29 -13 8 -56 66 -49 66 3 0 17
-17 33 -37z m8 -78 c43 -58 77 -107 75 -109 -2 -2 -22 -6 -44 -10 l-40 -6 -75
102 c-41 55 -76 105 -78 109 -3 7 25 15 63 17 14 1 42 -28 99 -103z m3834 93
c-7 -19 -38 -22 -38 -4 0 10 9 16 21 16 12 0 19 -5 17 -12z m-5855 -25 c-21
-8 -15 -23 10 -24 l22 0 -22 -11 c-17 -8 -27 -8 -39 3 -14 12 -14 14 2 26 10
7 23 13 28 12 6 0 5 -3 -1 -6z m2548 -20 c13 -16 12 -17 -3 -4 -17 13 -22 21
-14 21 2 0 10 -8 17 -17z m-680 -10 c13 -16 12 -17 -3 -4 -10 7 -18 15 -18 17
0 8 8 3 21 -13z m784 7 c-11 -5 -27 -9 -35 -9 -9 0 -8 4 5 9 11 5 27 9 35 9 9
0 8 -4 -5 -9z m-2595 -14 c0 -8 -9 -18 -21 -21 -20 -7 -20 -7 -2 -22 17 -14
17 -14 0 -9 -10 3 -23 6 -28 6 -20 0 -8 29 14 32 12 2 21 9 20 16 -2 6 2 12 7
12 6 0 10 -6 10 -14z m1775 -17 c16 -20 24 -38 20 -48 -4 -9 -9 -20 -11 -26
-4 -10 119 -65 144 -65 30 0 8 -16 -35 -27 -45 -10 -53 -9 -138 27 -85 36
-118 43 -85 17 18 -15 73 -87 69 -91 -2 -1 -21 -7 -42 -13 l-38 -11 -47 66
c-26 36 -62 85 -80 110 -18 24 -32 45 -30 46 18 13 155 45 195 45 46 1 54 -2
78 -30z m985 5 c0 -2 -9 0 -20 6 -11 6 -20 13 -20 16 0 2 9 0 20 -6 11 -6 20
-13 20 -16z m-725 -45 c26 -33 46 -62 44 -63 -2 -2 -25 25 -52 60 -26 35 -45
64 -43 64 3 0 26 -27 51 -61z m680 51 c4 -6 27 -21 53 -34 26 -14 56 -31 66
-39 18 -13 17 -14 -10 -11 -16 2 -36 4 -44 5 -35 5 -60 -2 -60 -16 0 -8 5 -15
10 -15 6 0 10 5 10 12 0 6 3 9 6 5 12 -12 -12 -32 -41 -35 -16 -1 -37 -3 -45
-4 -8 -1 -26 2 -40 7 -20 6 -23 5 -15 -7 6 -7 2 -5 -7 5 -10 10 -22 17 -28 15
-6 -2 1 -15 15 -30 l24 -27 -25 3 c-28 3 -110 89 -100 105 3 5 29 14 56 21 45
11 53 10 71 -6 11 -10 17 -24 15 -31 -5 -12 29 -33 53 -33 5 0 2 23 -5 52 -11
41 -11 54 -1 60 17 11 35 10 42 -2z m-853 -52 c12 -17 17 -28 10 -25 -6 4 -21
22 -34 39 -12 17 -17 28 -10 25 6 -4 21 -22 34 -39z m948 16 c0 -2 -9 0 -20 6
-11 6 -20 13 -20 16 0 2 9 0 20 -6 11 -6 20 -13 20 -16z m-147 -34 c3 -13 0
-20 -9 -20 -8 0 -11 6 -8 15 4 8 0 23 -7 33 -13 15 -12 16 2 4 9 -7 19 -22 22
-32z m188 13 c13 -17 13 -17 -6 -3 -11 8 -22 16 -24 17 -2 2 0 3 6 3 6 0 17
-8 24 -17z m-3176 -23 c15 -16 15 -22 5 -35 -16 -20 -74 -19 -91 1 -11 14 -10
19 10 35 30 24 53 24 76 -1z m1133 -1 c12 -5 22 -13 22 -19 0 -22 -32 -58 -61
-70 -35 -15 -129 -7 -140 12 -10 16 22 69 53 86 23 12 79 8 126 -9z m676 5
c14 -5 17 -4 12 4 -12 19 -1 14 20 -10 10 -12 13 -18 5 -13 -9 5 -12 3 -9 -6
3 -8 10 -14 16 -14 6 0 34 -33 62 -72 28 -40 49 -73 46 -73 -2 0 -27 32 -55
72 -43 61 -51 68 -51 46 0 -30 -34 -61 -86 -78 -19 -6 -34 -14 -34 -17 0 -4
12 -21 26 -40 14 -19 24 -36 23 -38 -2 -1 -22 -6 -44 -9 l-40 -7 -76 109 -76
110 81 26 c79 25 135 29 180 10z m983 -11 c3 -7 -10 -15 -31 -19 -20 -3 -36
-11 -36 -16 0 -6 8 -7 18 -3 41 16 69 17 75 2 4 -11 -4 -17 -29 -21 -33 -7
-41 -15 -27 -29 3 -4 11 -3 17 2 22 17 73 23 79 8 4 -10 -10 -19 -47 -30 -29
-10 -55 -17 -57 -17 -8 0 -82 101 -77 105 9 10 83 34 97 32 8 -1 16 -7 18 -14z
m-2892 -23 c20 -22 10 -44 -24 -53 -22 -6 -59 58 -38 67 25 10 44 5 62 -14z
m2335 -11 c15 -28 5 -23 -15 7 -9 15 -12 23 -6 20 6 -4 16 -16 21 -27z m-2405
-17 c13 -34 -60 -57 -85 -27 -14 17 -6 34 23 44 28 10 54 3 62 -17z m2842 10
c10 -17 8 -18 -13 -14 -32 6 -30 -3 11 -53 34 -42 34 -42 11 -42 -16 0 -33 12
-53 38 -34 46 -56 51 -48 12 5 -26 5 -26 -5 -5 -5 12 -16 25 -25 28 -27 11
-16 21 38 37 68 20 70 20 84 -1z m1843 -6 c0 -2 -8 -10 -17 -17 -16 -13 -17
-12 -4 4 13 16 21 21 21 13z m-4786 -31 c21 -31 20 -35 -3 -35 -11 0 -23 -5
-26 -10 -5 -8 -11 -7 -21 1 -8 6 -14 8 -14 3 0 -4 -5 -3 -12 4 -8 8 -15 9 -25
0 -7 -6 -17 -8 -21 -4 -4 4 2 14 12 22 15 11 22 11 35 1 12 -10 14 -9 8 6 -9
25 -1 37 27 37 14 0 30 -10 40 -25z m1854 -32 c47 -71 54 -83 49 -83 -2 0 -25
32 -51 70 -25 39 -44 70 -41 70 2 0 22 -26 43 -57z m-1954 32 c-23 -17 -64
-20 -64 -4 0 6 6 9 13 6 6 -2 21 -1 32 4 32 12 40 10 19 -6z m3077 -37 c16
-30 3 -20 -27 20 -23 30 -24 33 -5 17 13 -11 27 -28 32 -37z m-1215 23 c49
-22 95 -79 96 -118 1 -45 -20 -73 -75 -99 -83 -38 -169 -29 -229 24 -24 21
-23 29 8 36 15 4 24 9 22 12 -3 2 -17 0 -31 -5 -22 -9 -28 -7 -37 9 -19 35
-12 75 19 104 57 55 153 70 227 37z m1045 9 c29 -16 24 -50 -10 -63 -28 -10
-28 -12 -14 -34 14 -21 14 -23 -5 -23 -20 0 -92 76 -92 97 0 10 51 30 83 32
10 1 27 -4 38 -9z m-441 -10 c8 -5 11 -10 5 -10 -5 0 -17 5 -25 10 -8 5 -10
10 -5 10 6 0 17 -5 25 -10z m334 -71 c47 -60 47 -60 20 -57 -36 4 -105 95 -83
109 8 5 14 9 15 9 0 0 22 -27 48 -61z m-3360 39 c-4 -7 -30 -48 -57 -91 l-50
-79 67 -67 68 -68 -39 -6 c-36 -6 -41 -4 -95 50 l-58 57 0 -71 c0 -70 0 -71
-29 -75 l-29 -4 -7 120 c-10 173 -6 198 27 207 l27 7 3 -71 3 -72 52 80 c51
77 69 93 106 94 12 1 16 -3 11 -11z m3303 -58 c42 -59 42 -60 19 -60 -15 0
-27 7 -31 19 -3 11 -12 25 -20 31 -13 11 -13 8 -3 -21 6 -19 15 -37 20 -40 5
-3 -5 -6 -22 -7 -22 0 -35 6 -46 23 -8 13 -22 26 -30 29 -9 3 -3 -10 14 -31
28 -36 29 -38 8 -39 -15 -1 -32 14 -58 52 -21 29 -38 55 -38 57 0 3 10 7 22
10 14 4 32 -3 56 -23 47 -38 57 -28 12 11 -21 19 -26 26 -12 19 18 -9 22 -8
22 4 0 12 12 20 40 25 3 0 24 -26 47 -59z m1549 18 l29 -33 -32 29 c-18 17
-33 31 -33 33 0 8 8 1 36 -29z m-3996 -258 c77 -154 142 -280 145 -280 3 0 1
9 -5 21 -14 24 -15 23 30 38 30 10 37 9 47 -6 19 -26 16 -32 -22 -39 -19 -3
-35 -10 -35 -14 0 -4 28 -15 63 -25 34 -9 68 -19 75 -21 18 -5 15 -34 -4 -41
-18 -7 -47 7 -47 22 0 6 -26 20 -59 31 -33 12 -61 24 -63 25 -5 6 -285 560
-285 564 0 3 4 5 10 5 5 0 73 -126 150 -280z m4735 228 c49 -52 49 -52 5 -10
-25 23 -50 42 -54 42 -5 0 -23 -10 -40 -23 -33 -25 -64 -44 -56 -34 4 4 93 76
95 77 1 0 23 -24 50 -52z m-4779 -260 l149 -301 85 -32 c125 -47 131 -49 124
-32 -4 11 5 17 33 22 24 4 39 3 41 -4 2 -6 8 -11 13 -11 4 0 6 7 3 15 -3 8 0
17 7 19 8 2 47 15 88 27 52 17 76 20 78 12 3 -8 22 -5 65 9 l61 21 67 -22 c37
-12 75 -19 84 -15 16 6 46 -11 46 -27 0 -5 -9 -13 -21 -20 -17 -9 -25 -7 -42
9 -12 11 -47 28 -77 37 l-55 17 -195 -61 -195 -62 -114 43 -114 42 -148 302
c-82 167 -149 305 -149 308 0 30 38 -38 166 -296z m2662 267 c-3 -3 -9 2 -12
12 -6 14 -5 15 5 6 7 -7 10 -15 7 -18z m-1381 -9 c24 -21 26 -26 15 -50 -11
-24 -10 -26 16 -28 15 0 32 -1 39 -1 7 0 11 -4 10 -10 -1 -6 3 -11 8 -12 13 0
71 -45 59 -45 -4 0 -18 10 -31 22 l-23 22 6 -31 c8 -41 -22 -63 -135 -101 -88
-30 -89 -30 -105 -10 -10 11 -16 21 -14 23 2 1 37 13 78 27 59 19 75 29 75 44
0 27 -41 29 -119 6 -64 -19 -65 -19 -82 -1 -10 11 -15 21 -13 23 2 2 37 13 77
25 48 14 72 27 72 37 0 25 -30 28 -102 9 -64 -16 -71 -17 -86 -2 -9 9 -14 18
-11 21 2 2 40 15 84 29 103 33 146 34 182 3z m1033 -14 c3 -2 -2 -3 -10 -1
-26 4 -92 -13 -83 -22 5 -5 23 -4 41 3 27 11 34 10 49 -5 16 -16 16 -17 -10
-17 -15 0 -27 -5 -27 -11 0 -7 12 -9 34 -5 22 4 37 2 44 -7 8 -10 -3 -17 -53
-31 -59 -17 -92 -15 -80 4 3 4 -2 11 -11 14 -8 3 -13 10 -10 14 3 5 -4 16 -15
25 -29 25 -24 33 34 54 47 18 54 18 72 4 11 -9 22 -17 25 -19z m-3453 -26 c34
-31 37 -39 41 -98 5 -84 -19 -136 -81 -173 -57 -33 -132 -35 -172 -3 -68 54
-72 178 -7 252 26 29 92 56 140 56 34 0 49 -6 79 -34z m5228 14 c10 -11 16
-20 13 -20 -3 0 -13 9 -23 20 -10 11 -16 20 -13 20 3 0 13 -9 23 -20z m-1940
-2 c-3 -7 13 -37 35 -65 39 -52 39 -53 15 -53 -14 0 -29 8 -35 20 -6 11 -17
20 -25 20 -17 0 -20 -16 -5 -25 6 -3 10 -12 10 -18 0 -7 -9 -1 -20 13 -10 14
-21 22 -24 19 -4 -3 3 -17 14 -31 l19 -25 -24 0 c-31 0 -105 104 -80 113 9 4
22 -3 33 -16 16 -19 22 -21 40 -11 18 10 20 15 12 32 -10 18 -1 27 37 38 1 1
0 -5 -2 -11z m-802 -18 c3 -11 1 -18 -4 -14 -5 3 -9 12 -9 20 0 20 7 17 13 -6z
m-1670 -260 c11 -25 21 -49 22 -55 2 -9 73 -161 136 -290 10 -22 42 -92 70
-155 101 -227 148 -327 217 -465 38 -77 76 -156 85 -175 8 -19 35 -79 61 -132
25 -54 43 -98 40 -98 -3 0 -30 53 -61 118 -30 64 -101 214 -158 332 -106 222
-200 424 -287 615 -27 61 -63 137 -79 170 -49 102 -179 394 -178 402 0 7 81
-157 132 -267z m1505 243 c-10 -2 -26 -2 -35 0 -10 3 -2 5 17 5 19 0 27 -2 18
-5z m2957 -23 c10 -11 16 -20 13 -20 -3 0 -13 9 -23 20 -10 11 -16 20 -13 20
3 0 13 -9 23 -20z m735 -5 c13 -14 21 -25 18 -25 -2 0 -15 11 -28 25 -13 14
-21 25 -18 25 2 0 15 -11 28 -25z m-6363 -19 c34 -31 37 -39 41 -98 5 -84 -19
-136 -81 -173 -57 -33 -132 -35 -172 -3 -68 54 -72 178 -7 252 26 29 92 56
140 56 34 0 49 -6 79 -34z m1188 -316 c193 -427 258 -567 370 -795 51 -104
116 -244 145 -310 29 -66 99 -216 156 -333 56 -117 105 -223 109 -235 9 -36
-180 353 -260 533 -40 91 -119 262 -177 380 -58 118 -136 281 -174 363 -45 97
-71 142 -75 130 -5 -15 -6 -15 -12 0 -3 8 -1 18 6 20 8 3 1 27 -23 76 -32 66
-36 71 -49 54 -12 -15 -13 -16 -8 -1 3 9 3 18 -2 20 -4 2 -20 33 -36 71 -26
63 -54 93 -40 45 5 -21 5 -21 -5 -5 -7 10 -9 21 -7 24 3 3 -5 16 -17 30 -33
35 -85 234 -72 270 9 23 -3 48 171 -337z m1288 320 c46 -31 82 -98 73 -134
-15 -62 -116 -112 -207 -104 -46 5 -129 47 -129 67 0 4 15 13 33 19 l32 12
-36 -5 c-40 -6 -49 4 -49 54 0 39 26 70 84 98 66 31 147 28 199 -7z m3948 -37
c13 -16 12 -17 -3 -4 -10 7 -18 15 -18 17 0 8 8 3 21 -13z m-6757 -25 c21 -30
20 -68 -3 -97 -19 -24 -19 -25 5 -44 47 -36 22 -119 -43 -146 -15 -6 -58 -17
-95 -24 l-66 -14 -7 121 c-4 67 -5 139 -3 161 3 39 4 40 53 52 86 19 142 16
159 -9z m3043 16 c-3 -3 -12 -4 -19 -1 -8 3 -5 6 6 6 11 1 17 -2 13 -5z m-149
-29 c-3 -3 -9 2 -12 12 -6 14 -5 15 5 6 7 -7 10 -15 7 -18z m475 18 c-13 -2
-35 -2 -50 0 -16 2 -5 4 22 4 28 0 40 -2 28 -4z m-939 -23 c14 -5 33 -21 42
-36 17 -25 17 -28 1 -56 l-17 -29 75 -35 c41 -19 75 -38 75 -42 0 -4 -21 -12
-46 -18 -45 -11 -50 -9 -133 32 -94 48 -112 53 -89 27 14 -16 58 -97 58 -106
0 -3 -12 -7 -27 -10 -16 -3 -35 -8 -44 -12 -11 -4 -27 17 -64 87 -26 51 -57
105 -67 120 l-19 28 27 10 c39 15 166 49 186 49 9 1 28 -3 42 -9z m4446 -36
c0 -2 -9 0 -20 6 -11 6 -20 13 -20 16 0 2 9 0 20 -6 11 -6 20 -13 20 -16z m35
-22 c-3 -3 -11 0 -18 7 -9 10 -8 11 6 5 10 -3 15 -9 12 -12z m-7435 -16 c0
-22 -6 -26 -61 -37 l-60 -12 3 -41 c2 -25 8 -40 15 -39 87 17 93 17 93 -10 0
-23 -5 -26 -50 -32 l-50 -7 0 -45 0 -45 38 7 c20 3 47 9 60 12 18 4 22 1 22
-21 0 -28 3 -26 -111 -50 l-66 -13 -7 90 c-3 50 -6 122 -6 162 l0 72 78 15
c104 21 102 21 102 -6z m7535 -16 c13 -6 15 -9 5 -9 -8 0 -22 4 -30 9 -18 12
-2 12 25 0z m147 -29 l53 -7 -49 -9 c-29 -4 -51 -4 -55 2 -3 5 -22 14 -41 21
l-35 11 37 -6 c21 -3 61 -8 90 -12z m-2692 -21 c12 -16 19 -30 16 -30 -2 0
-14 14 -26 30 -12 17 -19 30 -16 30 2 0 14 -13 26 -30z m1430 21 c-8 -5 -26
-11 -40 -15 -21 -5 -20 -3 5 9 32 15 60 20 35 6z m-3335 -21 c10 -11 16 -20
13 -20 -3 0 -13 9 -23 20 -10 11 -16 20 -13 20 3 0 13 -9 23 -20z m-2845 -14
c0 -27 -3 -29 -105 -50 -53 -11 -72 -12 -77 -3 -18 28 -1 41 72 58 106 23 110
23 110 -5z m9291 -98 c-21 -19 -42 -28 -64 -28 l-32 0 60 54 c59 54 60 54 63
28 3 -20 -4 -34 -27 -54z m-6541 17 c0 -3 -22 6 -50 20 -27 14 -50 28 -50 30
0 3 23 -6 50 -20 28 -14 50 -28 50 -30z m2041 38 c13 -16 12 -17 -3 -4 -10 7
-18 15 -18 17 0 8 8 3 21 -13z m30 -40 c13 -16 12 -17 -3 -4 -10 7 -18 15 -18
17 0 8 8 3 21 -13z m39 -53 c12 -16 19 -30 16 -30 -2 0 -14 14 -26 30 -12 17
-19 30 -16 30 2 0 14 -13 26 -30z m1490 -40 c-8 -5 -22 -9 -30 -9 -10 0 -8 3
5 9 27 12 43 12 25 0z m-4231 -32 c6 -17 10 -32 9 -33 -2 -1 -20 -6 -41 -12
-36 -11 -38 -10 -53 19 -17 34 -17 33 16 47 43 17 57 13 69 -21z m2842 -65
c13 -16 12 -17 -3 -4 -10 7 -18 15 -18 17 0 8 8 3 21 -13z m-4466 -53 c3 -6
-7 -22 -24 -36 -56 -47 -39 -107 54 -193 94 -85 256 -150 417 -166 l63 -7 -50
45 c-48 44 -56 65 -18 53 10 -3 45 -30 77 -60 71 -66 69 -72 -38 -110 -84 -30
-96 -31 -96 -13 0 7 26 22 58 32 l57 18 -103 19 c-126 22 -208 49 -287 93 -87
48 -150 108 -180 170 -32 65 -28 103 17 140 32 27 43 30 53 15z m4535 -42 c0
-4 -5 -8 -12 -8 -6 0 -8 3 -5 7 4 3 -1 16 -10 27 -18 21 -18 21 5 2 12 -11 22
-23 22 -28z m1110 28 c0 -6 -93 -37 -97 -32 -2 2 15 11 39 19 47 17 58 19 58
13z m610 -41 c14 -17 17 -6 -77 -292 -37 -111 -73 -205 -79 -207 -8 -3 -11 1
-8 9 4 9 -31 2 -112 -24 l-118 -37 -13 -39 c-10 -32 -24 -47 -67 -72 -29 -18
-59 -39 -66 -48 -15 -18 -30 -20 -30 -2 0 6 30 29 66 50 43 25 68 47 75 65 16
47 25 57 66 71 22 8 44 23 49 34 5 11 17 22 26 23 45 6 147 47 152 61 9 23 3
25 -42 9 -22 -8 -42 -12 -45 -10 -2 3 17 73 44 157 26 83 46 153 44 156 -8 7
-9 3 -50 -134 -36 -117 -44 -135 -85 -179 -43 -45 -48 -48 -70 -36 l-23 12 39
34 c21 19 31 31 22 28 -30 -10 -20 16 12 34 37 21 63 88 39 103 -11 7 -12 12
-1 26 19 28 33 65 29 77 -4 12 -57 -93 -57 -112 0 -7 -5 -12 -11 -12 -7 0 -9
10 -4 28 8 30 13 82 8 82 -10 0 -150 -42 -223 -68 -82 -28 -85 -30 -96 -68 -9
-32 -9 -42 4 -56 8 -10 11 -18 6 -18 -5 0 -3 -4 5 -9 8 -5 24 -6 35 -1 12 4
50 16 84 26 67 19 82 35 82 90 0 14 7 27 15 31 21 7 30 -3 17 -19 -5 -7 -15
-32 -21 -55 -11 -39 -15 -43 -64 -59 -47 -14 -52 -19 -53 -45 -1 -16 -3 -31
-5 -32 -12 -7 -194 -65 -197 -63 -10 11 21 55 43 60 15 4 25 9 22 12 -3 3 -26
-3 -50 -14 -25 -11 -48 -18 -51 -15 -10 11 16 33 38 33 11 0 28 5 36 10 12 8
9 10 -12 10 -16 0 -28 5 -28 10 0 17 29 23 46 9 12 -10 18 -9 32 5 16 16 16
18 0 27 -14 7 -15 15 -6 45 5 20 8 38 5 40 -2 2 -132 -40 -288 -95 -274 -95
-340 -119 -681 -249 -86 -33 -181 -63 -210 -67 -89 -11 -211 -62 -155 -66 71
-4 77 -3 83 14 6 20 24 22 43 5 8 -8 11 -8 8 -2 -4 7 0 17 8 24 13 10 15 9 15
-11 1 -21 2 -22 13 -8 11 15 49 39 61 39 14 0 4 -18 -16 -29 -23 -11 -23 -11
2 -6 l25 6 -24 -21 c-14 -12 -32 -19 -41 -17 -8 2 -22 -3 -30 -11 -12 -13 -14
-13 -20 4 -7 18 -8 17 -14 -3 -4 -13 -14 -23 -22 -23 -8 0 -12 5 -9 10 11 18
-4 10 -30 -16 -16 -16 -32 -23 -42 -20 -9 4 -24 -1 -33 -9 -10 -9 -29 -17 -43
-19 -14 -1 -32 -7 -39 -13 -35 -27 -65 -22 -52 10 8 21 55 41 64 27 5 -7 9 -3
13 10 5 20 3 22 -26 17 -35 -5 -404 -132 -647 -222 -370 -137 -1216 -465
-1253 -486 -21 -12 -40 -2 -33 17 3 8 0 11 -10 7 -7 -3 -14 -9 -14 -15 0 -5
-7 -2 -16 7 -13 13 -14 21 -6 38 6 12 11 17 11 11 1 -15 74 -2 116 20 17 9 36
16 43 16 6 0 12 4 12 8 0 4 12 9 27 10 15 1 38 12 53 25 14 13 35 22 48 21 13
-1 26 4 28 11 3 7 14 10 26 7 14 -3 19 -1 15 5 -5 7 0 9 12 6 10 -3 22 0 25 6
4 6 16 11 27 11 11 0 17 4 14 10 -3 5 0 7 9 4 8 -3 25 1 38 9 13 8 39 18 58
22 19 4 58 18 85 30 28 12 73 30 100 40 28 10 64 23 80 30 66 27 112 44 150
56 22 7 55 20 73 31 18 10 41 18 52 18 10 0 22 5 25 10 4 6 12 10 18 9 7 -1
23 3 37 8 53 23 85 36 90 38 3 1 23 9 44 18 22 10 51 20 65 24 14 3 34 12 43
21 10 8 26 12 37 9 15 -3 18 -1 14 11 -4 10 1 8 15 -6 25 -25 27 -32 10 -32
-21 0 -218 -74 -218 -82 0 -4 12 -3 28 3 15 6 106 40 202 75 96 35 166 64 155
64 -11 1 1 8 28 15 26 7 55 16 65 21 9 4 22 8 27 9 23 3 51 19 70 40 11 11 16
15 11 8 -14 -21 -2 -25 29 -9 15 8 57 18 92 22 44 4 63 10 60 19 -3 6 -2 17 3
24 8 14 124 56 182 65 27 5 36 11 31 21 -3 8 0 15 6 15 6 0 10 -6 9 -12 -4
-17 46 -11 86 10 17 9 36 16 41 17 6 1 24 7 40 15 17 7 35 14 40 15 6 0 17 4
25 8 8 3 28 11 45 17 17 7 25 14 18 18 -6 4 9 8 34 9 25 1 49 6 52 11 3 4 14
11 24 15 10 4 15 11 12 17 -3 6 4 14 17 19 l23 10 -25 1 c-23 1 -23 2 -5 10
11 5 33 9 48 9 16 1 43 7 60 15 46 20 190 71 202 71 6 0 12 2 15 5 3 3 70 27
150 53 80 27 154 52 165 56 119 48 184 71 198 71 9 0 17 4 17 8 0 5 6 9 13 10
24 2 47 8 53 15 4 4 20 7 36 7 15 0 37 9 48 20 21 21 35 27 25 11 -3 -5 12 -1
32 9 21 10 58 24 83 31 25 7 50 16 55 20 6 3 22 5 38 3 15 -1 27 1 27 6 0 8
20 16 46 19 6 0 17 -6 24 -14z m-4830 -28 c0 -5 -4 -5 -10 -2 -5 3 -10 14 -10
23 0 15 2 15 10 2 5 -8 10 -19 10 -23z m4109 29 c-7 -7 -114 -46 -124 -45 -5
0 17 11 50 24 57 23 84 30 74 21z m-1279 -86 c-8 -5 -19 -10 -25 -10 -5 0 -3
5 5 10 8 5 20 10 25 10 6 0 3 -5 -5 -10z m-2276 -26 c9 -23 -2 -34 -27 -30
-12 2 -28 -1 -34 -6 -7 -6 -20 -8 -28 -4 -8 3 -15 0 -15 -6 0 -7 -5 -6 -15 2
-13 11 -14 10 -10 -3 6 -15 -1 -18 -75 -32 -13 -3 -28 1 -32 8 -12 19 -9 26
10 25 23 -2 132 33 132 42 0 4 11 6 24 5 13 -2 29 1 37 6 20 12 26 11 33 -7z
m2206 1 c-46 -18 -64 -17 -25 0 17 8 37 14 45 14 8 0 -1 -7 -20 -14z m-2243
-54 c12 10 16 10 24 -2 14 -22 12 -24 -42 -38 -28 -7 -64 -20 -80 -28 -25 -12
-32 -13 -46 -1 -14 11 -16 11 -9 -1 6 -9 5 -12 -4 -9 -26 8 -21 26 9 33 17 4
31 11 31 15 0 5 7 7 15 4 8 -4 22 -1 30 6 8 7 15 9 15 6 0 -4 8 0 17 10 12 11
18 13 21 5 3 -9 8 -9 19 0z m-288 -71 c11 -24 11 -24 -3 -6 -9 11 -16 24 -16
30 0 12 5 7 19 -24z m342 -2 c-4 -12 -18 -22 -32 -24 -40 -6 -53 -9 -67 -18
-9 -5 -20 -2 -30 7 -13 14 -13 17 -1 21 72 26 104 34 111 30 4 -3 8 0 8 6 0 6
4 9 10 5 5 -3 6 -15 1 -27z m-150 -34 c9 -11 6 -16 -12 -23 -18 -7 -27 -5 -36
7 -7 9 -13 19 -13 23 0 12 49 7 61 -7z m-97 -150 c3 -8 2 -12 -4 -9 -6 3 -10
10 -10 16 0 14 7 11 14 -7z m4170 -44 c-14 -14 -204 -80 -228 -79 -11 1 -48
-8 -80 -20 -74 -26 -78 -26 -74 2 2 18 19 28 97 55 52 18 96 30 98 28 3 -2 0
-14 -7 -25 -12 -24 1 -28 22 -8 7 8 40 23 73 35 64 22 116 29 99 12z m-4135
-65 c0 -5 -6 1 -14 15 -8 14 -14 30 -14 35 0 6 6 -1 14 -15 8 -14 14 -29 14
-35z m3701 43 c0 -7 -13 -62 -28 -122 -27 -108 -28 -108 -65 -121 -43 -15 -43
-16 -22 74 9 35 14 65 13 67 -2 1 -27 -26 -56 -62 l-54 -64 -38 30 c-21 17
-41 27 -43 23 -3 -5 -10 -40 -17 -79 -11 -70 -12 -72 -51 -87 -26 -10 -39 -12
-39 -4 0 6 10 61 22 123 l22 112 37 11 c50 15 53 15 89 -16 l32 -27 57 64 c33
37 72 69 92 76 44 16 49 16 49 2z m186 -83 c-23 -17 -17 -19 18 -5 22 8 26 7
26 -8 0 -29 -12 -37 -100 -66 -47 -16 -91 -31 -98 -34 -8 -3 -11 4 -9 19 3 18
17 29 58 45 35 13 53 26 51 35 -2 8 0 11 3 7 4 -4 17 -1 29 7 27 19 47 19 22
0z m-159 -17 c-3 -8 -6 -5 -6 6 -1 11 2 17 5 13 3 -3 4 -12 1 -19z m-3682 -19
c10 -30 0 -33 -13 -4 -6 14 -7 25 -2 25 5 0 12 -9 15 -21z m3220 -81 c-7 -35
-18 -89 -25 -121 -10 -52 -15 -59 -47 -72 -20 -9 -38 -14 -40 -11 -2 2 6 56
18 119 l22 116 36 15 c20 8 39 15 42 15 4 1 1 -27 -6 -61z m42 0 c-3 -8 -6 -5
-6 6 -1 11 2 17 5 13 3 -3 4 -12 1 -19z m-204 -33 c20 -20 11 -51 -27 -88
l-31 -32 33 -29 c27 -24 35 -27 43 -15 5 9 9 9 9 2 0 -6 -7 -19 -16 -28 -15
-14 -18 -14 -33 0 -20 17 -41 20 -41 5 0 -5 8 -10 18 -10 16 -1 15 -2 -2 -15
-17 -13 -23 -11 -66 25 -26 22 -51 40 -54 40 -17 0 -2 -32 29 -59 20 -17 32
-31 27 -31 -5 0 -19 11 -32 25 l-24 26 -11 -42 c-9 -36 -15 -44 -47 -55 -33
-11 -38 -11 -38 3 0 32 32 218 39 226 10 10 172 67 193 67 9 0 23 -7 31 -15z
m194 -17 c-3 -7 -5 -2 -5 12 0 14 2 19 5 13 2 -7 2 -19 0 -25z m784 12 c-13
-11 -31 -20 -40 -20 -14 0 -14 2 -1 10 8 5 11 10 5 11 -11 1 33 17 50 18 6 0
-1 -9 -14 -19z m-924 -22 c-3 -7 -5 -2 -5 12 0 14 2 19 5 13 2 -7 2 -19 0 -25z
m390 10 c-3 -8 -6 -5 -6 6 -1 11 2 17 5 13 3 -3 4 -12 1 -19z m444 -22 c-12
-15 -60 -30 -68 -22 -6 6 48 35 66 36 10 0 11 -3 2 -14z m-704 -28 c-3 -7 -5
-2 -5 12 0 14 2 19 5 13 2 -7 2 -19 0 -25z m-140 0 c-3 -8 -6 -5 -6 6 -1 11 2
17 5 13 3 -3 4 -12 1 -19z m-917 2 c-8 -5 -19 -10 -25 -10 -5 0 -3 5 5 10 8 5
20 10 25 10 6 0 3 -5 -5 -10z m-70 -24 c0 -2 -7 -7 -16 -10 -8 -3 -12 -2 -9 4
6 10 25 14 25 6z m1112 -38 c-6 -6 -7 0 -4 19 5 21 7 23 10 9 2 -10 0 -22 -6
-28z m-464 20 c41 -41 -22 -128 -118 -164 -30 -12 -56 -26 -56 -33 -1 -6 -2
-24 -3 -40 -1 -24 -7 -31 -37 -41 -19 -7 -38 -10 -41 -7 -3 3 1 56 8 118 l14
112 95 33 c105 37 121 39 138 22z m-469 -11 c-8 -7 -18 -20 -22 -29 -9 -24
-27 -23 -27 2 0 20 24 39 50 39 13 0 13 -1 -1 -12z m798 -9 c-3 -8 -6 -5 -6 6
-1 11 2 17 5 13 3 -3 4 -12 1 -19z m-1077 -7 c0 -5 -7 -12 -16 -15 -14 -5 -15
-4 -4 9 14 17 20 19 20 6z m188 -28 c2 -11 -4 -23 -12 -26 -11 -4 -16 -1 -17
11 0 12 -3 10 -10 -6 -5 -13 -14 -22 -21 -20 -6 2 -21 -6 -34 -19 -30 -30 -54
-30 -54 1 0 27 14 42 52 51 15 4 32 13 37 19 17 20 56 12 59 -11z m-2051 11
c-3 -3 -12 -4 -19 -1 -8 3 -5 6 6 6 11 1 17 -2 13 -5z m1790 -20 c-16 -9 -31
-13 -34 -10 -3 3 5 10 18 15 37 15 47 12 16 -5z m1608 -14 c-3 -5 -12 -10 -18
-10 -7 0 -6 4 3 10 19 12 23 12 15 0z m-1521 -51 c-10 -11 -27 -19 -38 -17
-12 2 -30 -5 -40 -14 -25 -23 -56 -23 -56 0 0 12 -8 8 -30 -18 l-29 -35 -1 28
c0 21 7 30 26 38 15 5 29 7 32 4 3 -3 13 2 23 11 10 9 26 14 36 12 10 -2 24 3
31 12 11 12 14 12 19 2 4 -10 10 -7 21 10 15 21 17 21 20 5 2 -10 -4 -27 -14
-38z m402 -14 c21 -21 24 -31 19 -58 -11 -51 -31 -82 -78 -123 -86 -76 -201
-95 -241 -41 -12 17 -17 31 -11 35 6 4 11 19 12 35 4 58 78 128 166 158 72 25
103 24 133 -6z m-2165 -344 c31 -71 14 -58 -21 15 -17 37 -56 118 -86 180 -30
61 -54 117 -54 125 1 13 117 -218 161 -320z m1214 319 c-3 -5 -12 -10 -18 -10
-7 0 -6 4 3 10 19 12 23 12 15 0z m345 -21 c0 -24 -20 -35 -31 -18 -7 11 -9
11 -9 -2 0 -23 -30 -34 -31 -11 0 13 -3 11 -9 -5 -11 -27 -25 -30 -34 -7 -8
21 12 57 29 50 7 -2 18 1 24 8 16 19 61 8 61 -15z m-1620 -54 c0 -5 -5 -3 -10
5 -5 8 -10 20 -10 25 0 6 5 3 10 -5 5 -8 10 -19 10 -25z m1460 -4 c0 -25 -20
-38 -31 -20 -7 11 -9 10 -9 -4 0 -12 -6 -17 -17 -15 -10 2 -26 -5 -36 -15 -11
-11 -27 -17 -38 -14 -10 3 -23 -1 -30 -9 -19 -23 -29 -16 -26 18 2 32 27 53
27 24 0 -9 5 -16 10 -16 6 0 10 4 10 10 0 5 11 17 25 26 20 13 28 14 40 4 12
-10 15 -10 15 3 0 16 14 25 43 26 10 1 17 -6 17 -18z m408 -28 c2 -14 -6 -32
-22 -48 -22 -22 -23 -25 -7 -25 10 0 24 -7 31 -15 31 -37 -33 -99 -146 -142
-124 -47 -124 -47 -124 -24 0 15 17 26 85 52 91 34 116 52 97 71 -8 8 -32 4
-88 -16 -62 -22 -78 -25 -85 -14 -12 19 5 30 89 62 68 26 94 47 78 64 -6 5
-69 -13 -149 -44 -15 -6 -18 -3 -15 17 2 19 18 29 88 56 102 39 163 41 168 6z
m-607 -44 c-4 -28 -25 -45 -29 -24 -5 22 -22 18 -22 -4 0 -22 -58 -47 -73 -32
-13 13 36 61 61 61 11 0 25 7 32 15 18 22 36 13 31 -16z m-1211 -34 c0 -5 -5
-3 -10 5 -5 8 -10 20 -10 25 0 6 5 3 10 -5 5 -8 10 -19 10 -25z m2680 20 c0
-6 -73 -25 -78 -20 -3 3 6 9 19 14 26 10 59 14 59 6z m-1620 -36 l-25 -20 25
6 c23 7 24 6 9 -10 -9 -9 -30 -18 -45 -18 -16 -1 -38 -10 -48 -19 -23 -21 -42
-23 -49 -5 -4 7 -6 6 -6 -4 -1 -18 -52 -44 -72 -37 -7 2 -21 -4 -31 -14 -21
-21 -58 -24 -58 -5 0 21 36 49 57 45 10 -1 36 11 57 27 29 22 41 26 44 16 4
-11 6 -11 14 0 7 11 11 11 15 2 7 -19 20 -16 26 7 5 20 27 28 27 10 0 -5 11 2
25 15 13 14 32 25 42 25 15 0 14 -4 -7 -21z m432 -26 c39 -35 9 -138 -54 -187
-88 -66 -214 -90 -249 -47 -33 40 -8 125 52 175 90 76 203 102 251 59z m1097
13 c-19 -18 -124 -56 -152 -55 -21 0 -21 1 3 12 97 43 121 53 141 54 19 2 20
0 8 -11z m-460 -37 c19 -34 20 -43 10 -50 -18 -11 -29 -11 -29 0 0 5 -9 7 -20
4 -11 -3 -20 0 -20 6 0 6 5 11 10 11 6 0 10 8 10 17 0 23 -59 -33 -66 -64 -5
-20 -24 -33 -24 -17 0 15 63 115 78 124 25 14 25 14 51 -31z m-139 -28 c0 -10
-7 -24 -16 -32 -14 -11 -14 -13 0 -21 9 -5 16 -13 16 -17 0 -17 -33 -21 -54
-8 -28 18 -46 11 -46 -18 0 -20 -26 -42 -37 -31 -3 2 -1 28 4 57 8 52 9 53 58
70 65 23 75 23 75 0z m8416 -40 c48 -22 83 -66 91 -117 5 -33 2 -39 -46 -81
-28 -24 -51 -48 -51 -52 0 -5 23 -18 50 -29 l50 -21 -1 -183 0 -183 -35 95
c-18 52 -52 140 -73 195 -22 55 -43 108 -46 117 -5 13 -2 15 16 11 19 -5 21
-3 16 18 -4 13 -17 63 -29 112 -13 48 -25 87 -28 87 -4 0 -79 -154 -98 -202
-2 -4 10 -8 26 -8 28 0 30 -2 46 -80 18 -83 35 -232 36 -311 l0 -47 -44 5
c-25 3 -114 -2 -198 -11 -84 -10 -175 -16 -203 -14 l-50 3 2 63 c2 83 26 150
78 220 52 72 143 134 231 158 35 9 64 18 64 20 0 2 -30 45 -67 95 l-68 92 -8
-109 c-5 -60 -10 -111 -12 -113 -2 -2 -43 24 -91 58 -47 34 -88 60 -90 58 -3
-3 7 -52 22 -111 15 -59 25 -108 23 -110 -2 -2 -51 6 -109 19 -58 13 -106 22
-107 21 -1 -1 29 -41 67 -89 39 -47 70 -88 70 -90 0 -3 -39 -8 -87 -12 -140
-11 -141 -13 -40 -80 48 -32 87 -61 87 -64 0 -3 -39 -28 -85 -56 -47 -27 -85
-53 -85 -56 0 -3 48 -14 108 -24 59 -10 109 -20 111 -22 3 -2 -15 -24 -39 -48
-52 -53 -83 -57 -150 -22 -30 16 -51 37 -67 67 -23 43 -23 48 -23 380 0 332 0
337 23 380 16 30 37 51 67 67 43 23 48 23 374 23 301 0 335 -2 372 -19z
m-10557 -31 c0 -10 -3 -8 -9 5 -12 27 -12 43 0 25 5 -8 9 -22 9 -30z m1991 31
c0 -5 -20 -17 -45 -27 -25 -9 -45 -21 -45 -25 0 -12 11 -11 40 6 30 17 40 18
40 5 0 -6 -21 -20 -46 -30 -26 -12 -43 -24 -39 -30 4 -7 11 -7 18 -2 7 5 27
14 45 20 26 9 33 9 30 0 -3 -9 -109 -58 -125 -58 -2 0 -3 24 -3 53 l0 52 58
22 c67 25 72 26 72 14z m-1133 -19 c-10 -10 -17 -23 -17 -29 0 -6 -7 -13 -15
-17 -9 -3 -15 0 -15 9 0 8 -1 18 -1 23 -2 7 40 32 55 32 5 0 2 -8 -7 -18z
m11025 -9 c36 -32 11 -83 -41 -83 -34 0 -51 17 -51 52 0 44 56 64 92 31z
m1970 0 c36 -32 11 -83 -41 -83 -34 0 -51 17 -51 52 0 44 56 64 92 31z
m-12584 -5 c19 -19 14 -45 -17 -81 l-29 -33 50 -28 c27 -16 46 -31 41 -35 -4
-4 -27 -13 -50 -19 -39 -12 -45 -10 -93 18 -28 16 -55 30 -60 30 -5 0 -10 -25
-12 -57 -3 -55 -3 -56 -42 -70 -22 -7 -40 -12 -42 -11 -1 2 -4 53 -6 114 l-3
112 95 35 c100 38 148 45 168 25z m-477 -11 c-1 -4 -1 -13 -1 -20 0 -18 -50
-41 -62 -29 -5 5 -6 16 -3 24 10 25 68 47 66 25z m1059 -7 c0 -6 -11 -15 -25
-20 -21 -8 -25 -16 -25 -49 0 -30 -5 -43 -20 -51 -19 -10 -20 -8 -20 37 0 36
-3 44 -12 35 -14 -14 -38 -16 -38 -3 0 5 28 20 63 34 73 29 77 30 77 17z
m10219 -75 c-2 -47 -3 -85 -2 -85 1 0 19 11 39 25 66 45 157 26 201 -42 15
-22 19 -53 21 -165 l4 -138 -46 0 -46 0 0 119 c0 103 -3 122 -20 144 -36 45
-102 44 -137 -2 -8 -11 -12 -58 -13 -138 l0 -123 -45 0 -45 0 0 245 0 245 46
0 46 0 -3 -85z m1339 0 c-2 -47 -1 -85 0 -85 2 0 18 10 34 22 17 12 52 23 79
26 120 11 205 -112 170 -246 -31 -115 -159 -167 -250 -103 -36 26 -40 26 -34
1 5 -18 0 -20 -41 -20 l-46 0 0 245 0 245 46 0 45 0 -3 -85z m-12696 44 c-5
-37 -20 -46 -37 -23 -8 10 -15 16 -15 12 0 -19 -2 -24 -12 -35 -14 -17 -25
-16 -32 2 -8 22 15 56 35 50 9 -3 22 2 29 10 18 22 36 13 32 -16z m10168 -189
l0 -200 75 0 75 0 0 -30 0 -30 -120 0 -120 0 0 230 0 230 45 0 45 0 0 -200z
m766 153 l-1 -48 43 -3 c41 -3 42 -4 42 -38 0 -34 0 -34 -45 -34 l-45 0 0 -91
c0 -109 8 -129 55 -129 33 0 35 -2 35 -35 l0 -35 -50 0 c-60 0 -94 15 -109 47
-6 13 -11 73 -11 133 l0 110 -25 0 c-22 0 -25 4 -25 34 0 28 4 35 23 38 19 3
22 10 25 51 l3 47 43 0 42 0 0 -47z m864 -48 l0 -95 100 0 100 0 0 95 0 95 45
0 45 0 0 -230 0 -230 -45 0 -45 0 0 100 0 100 -100 0 -100 0 0 -100 0 -100
-45 0 -45 0 0 230 0 230 45 0 45 0 0 -95z m-12333 23 c-3 -7 -5 -2 -5 12 0 14
2 19 5 13 2 -7 2 -19 0 -25z m427 24 c10 -16 -25 -52 -50 -52 -30 0 -32 24 -2
44 25 18 44 20 52 8z m1094 -14 c-2 -14 -18 -31 -41 -44 -22 -12 -44 -32 -50
-44 -22 -44 -37 -36 -37 20 0 50 1 51 43 70 59 27 89 26 85 -2z m-1451 6 c-3
-3 -12 -4 -19 -1 -8 3 -5 6 6 6 11 1 17 -2 13 -5z m-140 -161 c-5 -4 -67 136
-67 151 0 6 16 -25 35 -68 19 -44 33 -81 32 -83z m411 124 c2 -10 -11 -23 -37
-37 l-41 -20 0 34 c0 30 4 35 28 39 38 5 47 3 50 -16z m1020 -98 c-24 -16 -28
-9 -28 41 0 36 5 52 18 59 15 9 17 4 20 -41 2 -34 -1 -54 -10 -59z m9776 76
c44 -30 46 -30 46 -5 0 17 7 20 45 20 l45 0 0 -180 0 -180 -45 0 c-42 0 -45 2
-45 27 l0 26 -22 -21 c-51 -47 -121 -54 -182 -19 -126 71 -110 299 24 350 38
14 98 6 134 -18z m1833 6 c26 -12 52 -35 70 -62 24 -36 28 -53 28 -108 0 -113
-60 -178 -173 -188 -130 -10 -220 93 -197 227 20 119 154 184 272 131z
m-12339 0 c-1 -5 -32 -29 -68 -54 -61 -41 -65 -47 -70 -88 l-5 -44 -147 -59
c-81 -33 -146 -62 -143 -64 6 -6 142 46 170 65 23 16 35 17 35 3 0 -6 -8 -13
-17 -17 -10 -3 -55 -20 -100 -37 -71 -27 -83 -34 -83 -55 0 -14 5 -21 13 -18
6 3 31 13 55 22 24 10 45 15 48 13 2 -3 7 -50 9 -104 4 -66 2 -92 -4 -79 -5
11 -10 45 -10 75 -1 30 -4 65 -7 76 l-6 22 -49 -22 c-48 -20 -49 -22 -44 -56
13 -100 16 -150 9 -150 -5 0 -22 111 -37 248 -16 136 -31 263 -34 282 -3 23
-2 32 5 25 5 -5 17 -68 26 -139 9 -71 17 -131 19 -132 2 -2 66 23 142 55 l140
58 -3 36 c-3 33 0 39 44 69 27 18 57 43 69 55 20 22 50 32 43 14z m11082 -171
l0 -180 -45 0 -45 0 0 180 0 180 45 0 45 0 0 -180z m1970 0 l0 -180 -45 0 -45
0 0 180 0 180 45 0 45 0 0 -180z m-12377 123 c-3 -27 -12 -55 -19 -63 -12 -12
-14 -10 -15 20 l-1 35 -15 -35 c-24 -56 -46 -64 -61 -22 l-10 27 -1 -32 c-1
-18 -3 -33 -5 -33 -2 0 -11 -3 -20 -6 -26 -10 -23 92 3 106 29 15 37 13 51
-17 l13 -28 11 34 c12 33 40 61 62 61 8 0 10 -15 7 -47z m-1203 5 c0 -25 -3
-29 -10 -18 -13 20 -13 50 0 50 6 0 10 -15 10 -32z m34 -61 c3 -16 1 -25 -5
-22 -11 8 -11 -2 2 -105 5 -47 15 -87 21 -91 7 -4 7 -9 0 -13 -6 -3 -7 -16 -4
-29 6 -22 6 -22 13 3 7 24 7 24 8 -5 1 -16 6 -67 13 -113 10 -71 10 -85 -3
-93 -22 -14 -24 -12 -27 44 -1 28 -4 67 -5 85 -2 17 1 32 5 32 5 0 2 10 -6 23
-25 38 -45 340 -21 316 2 -3 6 -17 9 -32z m610 -13 c-27 -26 -65 -53 -84 -61
-19 -9 -37 -18 -40 -22 -3 -4 -27 -15 -55 -25 -92 -33 -133 -57 -168 -95 -34
-37 -34 -38 -30 -122 2 -58 0 -77 -6 -63 -5 12 -11 49 -12 83 -2 60 -1 63 44
115 38 45 59 59 119 82 149 57 195 82 218 119 13 22 29 35 42 35 17 0 12 -9
-28 -46z m376 40 c0 -3 -20 -14 -45 -25 -52 -23 -62 -45 -10 -23 40 16 45 17
45 6 0 -5 -18 -16 -40 -25 -22 -8 -40 -20 -40 -26 0 -14 0 -14 45 5 20 8 40
13 43 10 8 -9 3 -12 -65 -39 l-63 -26 0 53 0 53 53 21 c55 21 77 26 77 16z
m-1176 -60 c3 -8 2 -12 -4 -9 -6 3 -10 10 -10 16 0 14 7 11 14 -7z m1016 -44
c0 -48 -1 -49 -37 -59 -20 -6 -39 -8 -42 -4 -3 3 -1 7 4 10 6 2 17 8 25 13 23
15 5 22 -24 9 -33 -15 -39 -65 -6 -56 11 3 23 1 26 -4 8 -14 -25 -23 -40 -10
-7 6 -21 9 -30 5 -20 -8 -21 -34 -2 -34 8 0 18 -5 22 -11 9 -15 -38 0 -48 15
-4 6 -8 23 -8 39 0 19 -5 27 -17 27 -13 0 -14 -3 -5 -12 14 -14 16 -52 2 -43
-5 3 -20 -1 -34 -10 -13 -9 -28 -15 -32 -13 -5 1 -37 -8 -72 -21 -63 -24 -63
-24 -60 -59 1 -20 -2 -37 -7 -39 -6 -2 -10 16 -10 39 l0 41 103 41 c56 22 102
44 102 49 0 5 -9 5 -20 2 -11 -3 -20 -4 -20 -1 0 11 40 46 53 46 7 0 18 -5 25
-12 9 -9 12 -5 12 20 0 21 6 35 20 42 17 9 20 8 20 -10 0 -23 0 -23 34 -10 15
5 26 17 26 28 0 22 8 32 27 32 9 0 13 -15 13 -50z m-941 -145 c17 -43 29 -80
27 -82 -4 -4 -66 152 -66 165 0 14 11 -9 39 -83z m451 36 c0 -5 -13 -21 -30
-34 -16 -14 -30 -29 -30 -33 0 -3 7 -1 15 6 12 10 19 10 28 1 8 -8 4 -14 -21
-23 -28 -11 -32 -17 -32 -51 0 -34 2 -38 20 -32 28 9 27 -21 -1 -35 -11 -7
-22 -10 -24 -8 -1 2 -6 32 -9 68 -7 60 -5 68 15 85 12 11 25 30 30 43 8 21 39
32 39 13z m-183 -135 c-8 -19 -45 -27 -51 -10 -3 8 6 20 22 28 27 14 38 7 29
-18z m190 -38 c-3 -7 -5 -2 -5 12 0 14 2 19 5 13 2 -7 2 -19 0 -25z m11003
-35 l1 -48 22 28 c22 26 47 36 47 19 0 -5 -9 -17 -20 -27 -25 -23 -25 -33 2
-62 18 -19 19 -23 5 -23 -9 0 -22 9 -29 20 -7 11 -16 20 -20 20 -5 0 -8 -9 -8
-20 0 -11 -4 -20 -10 -20 -6 0 -10 33 -10 80 0 47 4 80 10 80 6 0 10 -21 10
-47z m440 -31 l0 -79 -47 1 c-41 1 -49 5 -61 28 -24 51 33 112 73 78 13 -11
15 -8 15 19 0 17 5 31 10 31 6 0 10 -33 10 -78z m620 47 c0 -16 5 -18 25 -13
33 8 65 -20 65 -57 0 -41 -23 -58 -75 -57 l-45 1 0 72 c0 39 3 75 6 78 11 11
24 -3 24 -24z m130 16 c0 -8 -4 -15 -9 -15 -13 0 -22 16 -14 24 11 11 23 6 23
-9z m350 -63 l0 -78 -45 -2 c-38 -1 -47 2 -61 23 -33 50 15 112 65 86 19 -11
21 -9 21 19 0 16 5 30 10 30 6 0 10 -33 10 -78z m520 63 c0 -8 -4 -15 -9 -15
-13 0 -22 16 -14 24 11 11 23 6 23 -9z m-2856 -5 c18 -6 26 -17 26 -33 0 -31
-18 -47 -52 -47 -24 0 -28 -4 -28 -30 0 -16 -4 -30 -10 -30 -6 0 -10 32 -10
75 0 73 1 75 24 75 14 0 36 -4 50 -10z m601 -4 c12 -9 16 -20 12 -36 -3 -13
-2 -32 4 -42 18 -33 -6 -58 -56 -58 l-45 0 0 68 c0 38 3 72 7 75 11 12 58 8
78 -7z m987 -18 c3 -29 7 -33 35 -36 29 -3 32 -1 35 30 6 60 23 34 26 -39 2
-60 0 -73 -13 -73 -10 0 -15 10 -15 30 0 28 -3 30 -35 30 -32 0 -35 -2 -35
-30 0 -16 -4 -30 -10 -30 -6 0 -10 32 -10 75 0 74 16 105 22 43z m488 -43 c0
-43 -4 -75 -10 -75 -6 0 -10 32 -10 75 0 43 4 75 10 75 6 0 10 -32 10 -75z
m-1644 56 c-3 -5 4 -12 17 -15 21 -7 21 -8 3 -15 -22 -9 -29 -71 -9 -78 20 -8
15 -23 -7 -23 -20 0 -24 11 -33 80 -5 43 0 60 19 60 9 0 13 -4 10 -9z m609 -1
c-3 -5 1 -10 9 -10 20 0 21 -16 1 -24 -9 -3 -15 -18 -15 -36 0 -18 6 -33 15
-36 22 -9 18 -24 -5 -24 -20 0 -24 11 -33 80 -5 43 0 60 19 60 9 0 12 -4 9
-10z m-973 -65 c2 -30 8 -41 22 -43 24 -5 36 14 36 61 0 20 5 37 10 37 6 0 10
-26 10 -59 l0 -59 -44 2 c-25 1 -48 5 -52 9 -9 9 -14 88 -7 100 10 16 22 -8
25 -48z m174 38 c20 -21 1 -32 -22 -12 -11 9 -18 9 -27 0 -8 -8 -4 -14 21 -23
36 -14 48 -34 31 -54 -12 -15 -37 -18 -63 -8 -28 11 -17 26 14 19 37 -8 41 11
5 25 -31 12 -41 35 -25 55 17 20 45 19 66 -2z m142 -46 l3 -54 -45 -1 c-52 -1
-76 16 -76 55 0 42 26 63 74 59 l41 -4 3 -55z m327 53 c5 -8 11 -8 19 -1 20
16 26 3 26 -54 l0 -52 -50 -2 c-53 -1 -70 14 -70 60 0 42 57 79 75 49z m277
-10 c4 -8 7 -34 7 -56 l1 -41 -45 -1 c-51 -1 -75 16 -75 55 0 40 27 64 69 61
20 -2 39 -10 43 -18z m343 10 c5 -8 11 -8 19 -1 20 16 26 3 26 -54 l0 -52 -50
-2 c-53 -1 -70 14 -70 60 0 42 57 79 75 49z m153 -4 c14 -9 17 -106 2 -106 -5
0 -10 17 -10 39 0 46 -22 70 -45 51 -9 -7 -15 -29 -15 -51 0 -22 -4 -39 -10
-39 -6 0 -10 26 -10 59 l0 59 38 -2 c20 -1 43 -5 50 -10z m312 -6 c24 -24 25
-48 4 -78 -29 -42 -104 -18 -104 35 0 28 33 63 60 63 11 0 29 -9 40 -20z m190
-40 c0 -33 -4 -60 -10 -60 -6 0 -10 27 -10 60 0 33 4 60 10 60 6 0 10 -27 10
-60z m210 40 c13 -20 13 -100 0 -100 -5 0 -10 15 -10 33 0 41 -21 73 -44 64
-11 -5 -16 -19 -16 -52 0 -33 -4 -45 -15 -45 -11 0 -15 13 -15 53 0 30 2 56 4
58 12 11 88 2 96 -11z m248 4 c26 -18 30 -65 6 -88 -18 -19 -65 -21 -82 -4
-17 17 -15 68 5 90 20 22 42 23 71 2z m130 2 c14 -9 17 -106 2 -106 -5 0 -10
17 -10 39 0 46 -22 70 -45 51 -9 -7 -15 -29 -15 -51 0 -22 -4 -39 -10 -39 -6
0 -10 26 -10 59 l0 59 38 -2 c20 -1 43 -5 50 -10z m122 -6 c34 -34 26 -50 -26
-50 -32 0 -44 -4 -41 -12 2 -8 19 -13 41 -12 37 1 48 -9 20 -20 -64 -25 -113
45 -67 96 21 24 48 23 73 -2z m106 6 c25 -19 12 -31 -15 -14 -15 9 -23 10 -32
1 -9 -9 -3 -15 25 -27 30 -12 37 -20 34 -38 -4 -29 -58 -38 -78 -13 -12 15
-10 16 23 10 45 -9 50 8 7 24 -38 13 -50 39 -25 57 24 18 36 18 61 0z m54 -46
c0 -33 -4 -60 -10 -60 -6 0 -10 27 -10 60 0 33 4 60 10 60 6 0 10 -27 10 -60z
m95 50 c5 -8 11 -8 19 -1 19 16 21 8 18 -52 l-4 -54 -40 -1 c-50 -2 -68 11
-68 51 0 49 55 90 75 57z m-3700 -103 c50 -14 126 -32 170 -41 109 -20 235
-68 235 -88 0 -5 -102 -7 -227 -6 l-228 3 -31 60 c-17 33 -34 73 -38 88 -6 25
-4 27 11 19 10 -5 59 -21 108 -35z"/>
<path d="M18210 9833 c-52 -86 -97 -161 -99 -166 -4 -10 15 -8 146 14 l63 11
-6 147 c-3 80 -7 147 -8 148 -1 1 -44 -68 -96 -154z"/>
<path d="M7740 8790 c-71 -15 -166 -67 -206 -113 -105 -120 -131 -326 -59
-472 56 -116 187 -163 336 -119 111 32 184 98 236 211 35 75 44 220 19 306
-42 144 -172 219 -326 187z"/>
<path d="M6455 8589 c-27 -4 -80 -13 -117 -19 l-68 -12 0 -116 c0 -65 4 -122
8 -129 5 -8 34 -6 112 8 58 10 119 24 137 30 90 29 124 169 53 219 -34 24 -65
29 -125 19z"/>
<path d="M6465 8110 c-22 -4 -73 -13 -114 -20 l-74 -12 5 -129 c3 -71 7 -132
11 -135 10 -10 249 37 289 57 49 25 70 58 76 119 9 101 -62 146 -193 120z"/>
<path d="M16003 7831 c-83 -185 -150 -337 -148 -339 3 -3 418 67 421 71 3 5
-112 596 -116 600 -3 3 -73 -147 -157 -332z"/>
<path d="M5100 8337 c-74 -17 -155 -63 -197 -112 -105 -119 -130 -324 -58
-471 56 -115 187 -161 336 -118 111 32 184 98 236 211 35 75 44 220 19 306
-43 149 -175 221 -336 184z"/>
<path d="M3750 8119 c-25 -4 -60 -11 -78 -14 l-33 -6 3 -144 c2 -79 6 -147 10
-151 4 -4 55 1 112 11 159 27 214 68 224 164 6 65 -3 97 -35 127 -22 21 -35
24 -92 23 -36 -1 -86 -5 -111 -10z"/>
<path d="M14343 7986 c-67 -11 -125 -25 -130 -29 -8 -8 -74 -429 -68 -435 7
-8 302 51 344 69 61 26 124 90 152 154 29 65 32 169 6 209 -40 60 -106 67
-304 32z"/>
<path d="M9908 7237 c-70 -12 -130 -25 -133 -29 -9 -9 -71 -436 -64 -442 5 -6
144 15 234 36 152 34 243 136 253 284 10 158 -55 192 -290 151z"/>
<path d="M5023 5962 c-83 -185 -150 -338 -148 -340 3 -3 419 67 421 71 3 6
-112 607 -116 607 -3 0 -73 -152 -157 -338z"/>
<path d="M11481 4954 c0 -11 3 -14 6 -6 3 7 2 16 -1 19 -3 4 -6 -2 -5 -13z"/>
<path d="M9053 5660 c-14 -6 -21 -15 -17 -24 5 -13 10 -12 35 6 16 12 29 23
29 25 0 6 -25 2 -47 -7z"/>
<path d="M9675 5625 c55 -19 101 -32 104 -30 6 6 -86 44 -133 55 -82 19 -69 8
29 -25z"/>
<path d="M17680 5193 c-53 -19 -97 -99 -85 -153 16 -73 118 -61 163 19 50 88
6 164 -78 134z"/>
<path d="M17157 5018 c-15 -34 -25 -63 -23 -66 3 -2 22 -1 42 2 l36 7 -6 52
c-4 29 -10 55 -14 59 -4 3 -19 -21 -35 -54z"/>
<path d="M16557 4918 c-15 -34 -25 -63 -23 -66 3 -2 22 -1 42 2 l36 7 -6 52
c-4 29 -10 55 -14 59 -4 3 -19 -21 -35 -54z"/>
<path d="M15880 4883 c-53 -19 -97 -99 -85 -153 16 -73 118 -61 163 19 50 88
6 164 -78 134z"/>
<path d="M15574 4833 c-20 -4 -34 -36 -34 -78 0 -19 81 -1 97 21 18 24 16 51
-3 58 -16 6 -24 6 -60 -1z"/>
<path d="M15558 4713 c-16 -2 -28 -10 -28 -17 0 -8 -3 -28 -6 -45 -6 -28 -4
-31 19 -31 64 0 116 50 87 85 -12 15 -20 16 -72 8z"/>
<path d="M15280 4783 c-53 -19 -97 -99 -85 -153 16 -73 118 -61 163 19 50 88
6 164 -78 134z"/>
<path d="M14973 4733 c-17 -3 -23 -14 -29 -49 -3 -25 -4 -47 -1 -50 12 -12 72
14 91 39 33 44 4 73 -61 60z"/>
<path d="M5891 4126 c-14 -8 -19 -16 -13 -20 6 -3 14 -1 17 5 4 6 17 14 29 19
12 5 15 9 6 9 -8 0 -26 -6 -39 -13z"/>
<path d="M5820 4100 c0 -5 9 -10 21 -10 11 0 17 5 14 10 -3 6 -13 10 -21 10
-8 0 -14 -4 -14 -10z"/>
<path d="M5850 4070 c-12 -8 -10 -10 8 -10 13 0 20 4 17 10 -7 12 -6 12 -25 0z"/>
<path d="M5630 4020 c0 -5 5 -10 11 -10 5 0 7 5 4 10 -3 6 -8 10 -11 10 -2 0
-4 -4 -4 -10z"/>
<path d="M5728 3953 c7 -3 16 -2 19 1 4 3 -2 6 -13 5 -11 0 -14 -3 -6 -6z"/>
<path d="M7955 3694 c-77 -29 -252 -90 -388 -135 -227 -76 -250 -85 -263 -112
-9 -16 -13 -35 -10 -43 3 -8 2 -13 -3 -10 -4 3 -13 -6 -20 -21 -9 -20 -9 -24
2 -20 7 2 103 35 213 71 l201 66 15 38 c14 36 19 39 129 76 63 22 156 56 207
76 86 33 92 37 75 51 -16 14 -30 11 -158 -37z"/>
<path d="M8091 3679 c-24 -11 -114 -44 -200 -75 -86 -30 -159 -61 -163 -67
-21 -33 1 -31 122 11 l129 44 28 -33 c15 -19 39 -46 53 -62 l25 -28 93 38 c50
20 92 40 92 44 0 4 -30 39 -67 77 l-68 71 -44 -20z m-38 -122 c-2 -4 3 -20 13
-35 l17 -27 -22 20 c-35 30 -43 51 -21 51 10 0 16 -4 13 -9z"/>
<path d="M8300 3546 c0 -2 8 -10 18 -17 15 -13 16 -12 3 4 -13 16 -21 21 -21
13z"/>
<path d="M7730 3380 c0 -5 9 -10 21 -10 11 0 17 5 14 10 -3 6 -13 10 -21 10
-8 0 -14 -4 -14 -10z"/>
<path d="M7496 3351 c-4 -6 -3 -18 3 -25 9 -11 6 -15 -13 -20 -31 -8 -38 -28
-20 -55 16 -22 68 -29 79 -11 3 6 15 10 26 10 24 0 17 15 -34 74 -23 27 -36
36 -41 27z m42 -84 c3 -14 -1 -18 -20 -15 -12 2 -24 11 -26 21 -3 14 1 18 20
15 12 -2 24 -11 26 -21z"/>
<path d="M7592 3338 c-36 -36 26 -83 82 -62 28 11 17 24 -14 18 -37 -8 -39 3
-4 16 22 9 24 13 14 25 -15 18 -61 20 -78 3z m48 -12 c0 -2 -7 -6 -15 -10 -8
-3 -15 -1 -15 4 0 6 7 10 15 10 8 0 15 -2 15 -4z"/>
<path d="M7770 3330 c0 -5 9 -10 20 -10 11 0 20 5 20 10 0 6 -9 10 -20 10 -11
0 -20 -4 -20 -10z"/>
<path d="M8505 3310 c10 -11 20 -20 23 -20 3 0 -3 9 -13 20 -10 11 -20 20 -23
20 -3 0 3 -9 13 -20z"/>
<path d="M7370 3300 c0 -5 7 -10 15 -10 8 0 15 5 15 10 0 6 -7 10 -15 10 -8 0
-15 -4 -15 -10z"/>
<path d="M8543 3291 c0 -11 4 -18 9 -15 8 5 54 -54 51 -66 -1 -5 4 -14 12 -20
8 -7 15 -9 15 -4 0 4 12 -3 27 -17 15 -13 -2 11 -37 54 -72 89 -79 95 -77 68z"/>
<path d="M7390 3273 c0 -18 52 -72 65 -67 12 5 9 13 -11 40 -23 30 -54 46 -54
27z"/>
<path d="M8085 3260 c3 -5 8 -10 11 -10 2 0 4 5 4 10 0 6 -5 10 -11 10 -5 0
-7 -4 -4 -10z"/>
<path d="M7314 3246 c-24 -19 -11 -33 36 -39 31 -3 32 -5 13 -12 -13 -4 -23
-11 -23 -16 0 -12 14 -11 45 3 36 16 28 42 -14 46 -30 3 -32 4 -14 17 17 14
17 14 -3 15 -11 0 -29 -6 -40 -14z"/>
<path d="M7215 3217 c-16 -6 -32 -12 -34 -13 -10 -7 52 -72 64 -67 12 4 12 9
-1 28 -26 40 -6 50 30 16 29 -28 46 -32 46 -11 0 13 -49 60 -62 59 -7 -1 -26
-6 -43 -12z"/>
<path d="M7100 3212 c0 -5 16 -30 35 -55 23 -30 40 -44 50 -41 12 5 8 16 -19
53 -32 42 -66 65 -66 43z"/>
<path d="M7855 3200 c-3 -6 1 -7 9 -4 18 7 21 14 7 14 -6 0 -13 -4 -16 -10z"/>
<path d="M7800 3186 c0 -2 8 -10 18 -17 15 -13 16 -12 3 4 -13 16 -21 21 -21
13z"/>
<path d="M7746 3158 c3 -5 10 -6 15 -3 13 9 11 12 -6 12 -8 0 -12 -4 -9 -9z"/>
<path d="M8695 3098 c27 -32 51 -58 53 -58 7 0 -55 74 -79 95 -13 11 -1 -6 26
-37z"/>
<path d="M7564 3119 c-3 -6 -2 -15 3 -20 5 -5 9 -1 9 11 0 23 -2 24 -12 9z"/>
<path d="M7966 3092 c-3 -5 1 -9 9 -9 8 0 12 4 9 9 -3 4 -7 8 -9 8 -2 0 -6 -4
-9 -8z"/>
<path d="M7485 3080 c-3 -6 1 -7 9 -4 18 7 21 14 7 14 -6 0 -13 -4 -16 -10z"/>
<path d="M7846 3065 c-3 -8 0 -17 6 -21 6 -4 8 -3 4 4 -3 5 -1 12 6 14 8 3 9
6 1 11 -6 4 -13 0 -17 -8z"/>
<path d="M7417 3049 c4 -13 8 -18 11 -10 2 7 -1 18 -6 23 -8 8 -9 4 -5 -13z"/>
<path d="M7820 3054 c0 -13 18 -39 24 -34 2 3 -2 14 -10 24 -8 11 -14 16 -14
10z"/>
<path d="M7341 3031 c-8 -5 -9 -11 -3 -15 5 -3 12 1 16 9 6 17 6 18 -13 6z"/>
<path d="M7291 3027 c2 -1 13 -9 24 -17 19 -14 19 -14 6 3 -7 9 -18 17 -24 17
-6 0 -8 -1 -6 -3z"/>
<path d="M7740 3021 c0 -6 4 -13 10 -16 6 -3 7 1 4 9 -7 18 -14 21 -14 7z"/>
<path d="M7705 3009 c-4 -6 -4 -13 -1 -16 3 -4 6 -1 6 7 0 10 3 10 15 0 13
-11 14 -10 9 4 -7 18 -20 21 -29 5z"/>
<path d="M7670 3000 c0 -5 5 -10 11 -10 5 0 7 5 4 10 -3 6 -8 10 -11 10 -2 0
-4 -4 -4 -10z"/>
<path d="M7630 2996 c0 -2 7 -9 15 -16 9 -7 15 -8 15 -2 0 5 -7 12 -15 16 -8
3 -15 4 -15 2z"/>
<path d="M8046 2987 c-16 -12 -16 -14 -2 -14 9 0 16 5 16 10 0 5 8 3 18 -4 15
-13 16 -12 3 4 -16 20 -13 20 -35 4z"/>
<path d="M7585 2972 c-15 -11 -16 -29 0 -29 7 0 11 6 8 14 -7 19 7 16 24 -4
13 -16 13 -16 3 5 -11 23 -19 26 -35 14z"/>
<path d="M8005 2960 c3 -5 8 -10 11 -10 2 0 4 5 4 10 0 6 -5 10 -11 10 -5 0
-7 -4 -4 -10z"/>
<path d="M7945 2950 c-3 -6 1 -7 9 -4 18 7 21 14 7 14 -6 0 -13 -4 -16 -10z"/>
<path d="M7501 2940 c-10 -6 -10 -9 -1 -15 6 -4 16 -3 22 3 6 6 18 8 27 5 9
-4 13 -3 10 1 -10 11 -45 15 -58 6z"/>
<path d="M7890 2936 c0 -2 7 -9 15 -16 13 -11 14 -10 9 4 -5 14 -24 23 -24 12z"/>
<path d="M7435 2921 c-3 -5 0 -13 6 -17 8 -5 9 -3 4 6 -6 10 -4 12 9 7 10 -4
15 -3 11 3 -8 13 -22 13 -30 1z"/>
<path d="M7396 2905 c10 -8 24 -14 29 -14 6 0 1 6 -9 14 -11 8 -24 15 -30 15
-5 0 -1 -7 10 -15z"/>
<path d="M7856 2903 c-6 -14 -5 -15 5 -6 7 7 10 15 7 18 -3 3 -9 -2 -12 -12z"/>
<path d="M7810 2902 c0 -5 7 -15 15 -22 8 -7 15 -9 15 -6 0 4 -7 14 -15 22 -8
9 -15 11 -15 6z"/>
<path d="M7380 2890 c0 -5 5 -10 10 -10 6 0 10 5 10 10 0 6 -4 10 -10 10 -5 0
-10 -4 -10 -10z"/>
<path d="M7775 2880 c3 -5 14 -10 23 -10 15 0 15 2 2 10 -20 13 -33 13 -25 0z"/>
<path d="M7670 2872 c0 -5 9 -17 21 -28 21 -19 21 -19 8 9 -12 26 -29 37 -29
19z"/>
<path d="M7735 2870 c3 -5 10 -10 16 -10 5 0 9 5 9 10 0 6 -7 10 -16 10 -8 0
-12 -4 -9 -10z"/>
<path d="M5645 2840 c-16 -7 -17 -9 -3 -9 9 -1 20 4 23 9 7 11 7 11 -20 0z"/>
<path d="M5693 2843 c9 -2 25 -2 35 0 9 3 1 5 -18 5 -19 0 -27 -2 -17 -5z"/>
<path d="M7624 2833 c10 -11 37 -12 30 -2 -3 5 -12 9 -21 9 -9 0 -13 -3 -9 -7z"/>
<path d="M8068 2828 c5 -5 16 -8 23 -6 8 3 3 7 -10 11 -17 4 -21 3 -13 -5z"/>
<path d="M7580 2821 c0 -6 4 -13 10 -16 6 -3 7 1 4 9 -7 18 -14 21 -14 7z"/>
<path d="M8034 2821 c9 -14 -20 -21 -35 -8 -11 10 -11 9 0 -5 10 -14 17 -15
36 -6 23 10 25 28 4 28 -6 0 -8 -4 -5 -9z"/>
<path d="M7465 2800 c-3 -6 1 -7 9 -4 18 7 21 14 7 14 -6 0 -13 -4 -16 -10z"/>
<path d="M7546 2797 c3 -10 9 -15 12 -12 3 3 0 11 -7 18 -10 9 -11 8 -5 -6z"/>
<path d="M7504 2782 c3 -6 -2 -13 -11 -15 -16 -4 -16 -5 -1 -6 21 -1 32 15 17
25 -7 4 -9 3 -5 -4z"/>
<path d="M5765 2765 c-92 -24 -220 -78 -259 -108 -39 -31 -75 -95 -76 -134 0
-16 -7 -23 -27 -25 -18 -2 -27 -10 -29 -25 -2 -12 -5 -28 -6 -34 -3 -13 55
-32 80 -26 13 3 10 7 -11 15 -16 7 -25 16 -22 22 3 5 2 10 -3 10 -6 0 -12 7
-16 15 -4 11 1 15 17 14 18 0 31 -19 70 -97 27 -53 41 -88 33 -78 -8 10 -17
24 -19 29 -4 14 -67 -30 -67 -47 0 -17 43 -56 61 -56 8 0 24 7 36 15 21 15 23
14 39 -12 10 -15 33 -44 51 -64 31 -33 33 -38 18 -52 -14 -15 -17 -14 -38 6
-13 12 -23 32 -21 45 1 23 1 23 -27 -4 -16 -15 -29 -31 -29 -35 0 -8 67 -49
81 -49 5 0 21 11 35 25 22 22 28 24 47 13 114 -64 293 -59 420 9 66 37 126
105 134 155 3 22 12 46 20 54 8 8 10 14 4 14 -6 0 -11 8 -11 18 0 9 -10 33
-21 52 -12 19 -35 59 -51 88 -16 29 -37 63 -48 75 -26 27 -25 35 8 71 l27 31
-31 -28 -31 -28 -17 26 c-39 59 -157 116 -238 114 -18 0 -55 -7 -83 -14z
m-196 -602 c-3 -21 2 -33 16 -33 8 0 15 -4 15 -9 0 -18 -15 -18 -43 -1 -26 16
-27 19 -12 34 18 17 26 20 24 9z"/>
<path d="M7856 2765 c10 -8 24 -14 29 -14 6 0 1 6 -9 14 -11 8 -24 15 -30 15
-5 0 -1 -7 10 -15z"/>
<path d="M7790 2756 c0 -2 8 -10 18 -17 15 -13 16 -12 3 4 -13 16 -21 21 -21
13z"/>
<path d="M7840 2750 c0 -5 5 -10 10 -10 6 0 10 5 10 10 0 6 -4 10 -10 10 -5 0
-10 -4 -10 -10z"/>
<path d="M5620 2740 c0 -5 5 -10 11 -10 5 0 7 5 4 10 -3 6 -8 10 -11 10 -2 0
-4 -4 -4 -10z"/>
<path d="M5590 2730 c0 -5 5 -10 10 -10 6 0 10 5 10 10 0 6 -4 10 -10 10 -5 0
-10 -4 -10 -10z"/>
<path d="M5547 2715 c-8 -8 -17 -11 -21 -8 -3 4 -6 1 -6 -5 0 -7 -3 -11 -7
-10 -21 5 -53 -15 -53 -34 0 -17 3 -18 15 -8 8 7 12 17 9 22 -3 5 0 8 7 7 16
-3 74 26 84 41 9 15 -12 12 -28 -5z"/>
<path d="M6058 2723 c6 -2 18 -2 25 0 6 3 1 5 -13 5 -14 0 -19 -2 -12 -5z"/>
<path d="M7705 2711 c-6 -11 9 -23 19 -14 9 9 7 23 -3 23 -6 0 -12 -4 -16 -9z"/>
<path d="M4655 2700 c4 -6 11 -8 16 -5 14 9 11 15 -7 15 -8 0 -12 -5 -9 -10z"/>
<path d="M7637 2697 c-3 -8 -1 -20 5 -28 8 -11 9 -11 5 3 -3 9 -1 18 6 21 8 2
8 5 0 10 -6 4 -13 1 -16 -6z"/>
<path d="M7673 2697 c4 -10 2 -17 -5 -17 -6 0 -9 -3 -5 -6 3 -3 12 -2 20 3 13
7 13 10 -1 23 -14 13 -15 12 -9 -3z"/>
<path d="M7557 2683 c-4 -3 1 -12 11 -19 25 -20 34 -17 20 6 -13 21 -21 24
-31 13z"/>
<path d="M7605 2670 c3 -5 8 -10 11 -10 2 0 4 5 4 10 0 6 -5 10 -11 10 -5 0
-7 -4 -4 -10z"/>
<path d="M6220 2510 c-21 -7 -21 -8 -5 -9 11 0 27 4 35 9 18 11 5 11 -30 0z"/>
<path d="M6280 2426 c0 -2 13 -6 29 -8 17 -2 28 -1 25 4 -5 8 -54 12 -54 4z"/>
<path d="M7520 2310 c0 -5 5 -10 10 -10 6 0 10 5 10 10 0 6 -4 10 -10 10 -5 0
-10 -4 -10 -10z"/>
<path d="M6850 2280 c-16 -29 -6 -50 19 -43 12 3 21 1 21 -4 0 -6 9 -20 20
-33 22 -25 26 -40 10 -40 -14 0 -12 -11 4 -33 13 -17 16 -17 62 2 28 11 40 20
29 20 -23 1 -55 43 -36 49 16 5 -39 80 -64 88 -11 3 -28 8 -37 10 -10 3 -21
-3 -28 -16z"/>
<path d="M5616 2147 c3 -10 9 -15 12 -12 3 3 0 11 -7 18 -10 9 -11 8 -5 -6z"/>
<path d="M5760 1659 c0 -5 5 -7 10 -4 6 3 10 8 10 11 0 2 -4 4 -10 4 -5 0 -10
-5 -10 -11z"/>
<path d="M5060 1410 c-8 -5 -10 -10 -5 -10 6 0 17 5 25 10 8 5 11 10 5 10 -5
0 -17 -5 -25 -10z"/>
<path d="M5010 1390 c-8 -5 -10 -10 -5 -10 6 0 17 5 25 10 8 5 11 10 5 10 -5
0 -17 -5 -25 -10z"/>
<path d="M10869 4161 c-14 -16 -14 -20 11 -44 23 -24 29 -25 45 -13 18 13 18
14 -4 45 -25 35 -30 36 -52 12z"/>
<path d="M12453 4123 c-27 -5 -26 -5 -12 -36 22 -49 117 -79 182 -58 l35 12
-13 42 -12 42 -79 1 c-43 1 -89 0 -101 -3z"/>
<path d="M12250 4105 c-8 -9 -8 -15 -2 -15 12 0 26 19 19 26 -2 2 -10 -2 -17
-11z"/>
<path d="M12674 4109 c-8 -14 11 -33 25 -25 16 10 13 36 -3 36 -8 0 -18 -5
-22 -11z"/>
<path d="M10811 4083 c-9 -10 -11 -21 -5 -30 12 -20 27 -18 42 6 12 17 11 21
-5 29 -13 7 -22 6 -32 -5z"/>
<path d="M10876 4045 c-9 -26 -7 -32 5 -12 6 10 9 21 6 23 -2 3 -7 -2 -11 -11z"/>
<path d="M10903 4028 c1 -16 5 -28 9 -28 10 0 9 9 -2 35 -8 17 -8 16 -7 -7z"/>
<path d="M11171 3714 c0 -11 3 -14 6 -6 3 7 2 16 -1 19 -3 4 -6 -2 -5 -13z"/>
<path d="M6395 3870 c3 -5 11 -10 16 -10 6 0 7 5 4 10 -3 6 -11 10 -16 10 -6
0 -7 -4 -4 -10z"/>
<path d="M6266 3801 c-4 -5 -2 -12 3 -15 5 -4 12 -2 15 3 4 5 2 12 -3 15 -5 4
-12 2 -15 -3z"/>
<path d="M6138 3753 c7 -3 16 -2 19 1 4 3 -2 6 -13 5 -11 0 -14 -3 -6 -6z"/>
<path d="M5926 3731 c-4 -5 -2 -12 3 -15 5 -4 12 -2 15 3 4 5 2 12 -3 15 -5 4
-12 2 -15 -3z"/>
<path d="M6015 3730 c3 -5 14 -10 23 -10 15 0 15 2 2 10 -20 13 -33 13 -25 0z"/>
<path d="M5976 3715 c-3 -8 -1 -15 4 -15 13 0 22 18 11 24 -5 3 -11 -1 -15 -9z"/>
<path d="M5820 3695 c10 -12 10 -18 0 -30 -14 -16 -3 -20 18 -6 17 10 17 18
-2 36 -19 20 -32 19 -16 0z"/>
<path d="M5770 3680 c0 -5 7 -10 15 -10 8 0 15 5 15 10 0 6 -7 10 -15 10 -8 0
-15 -4 -15 -10z"/>
<path d="M5730 3660 c0 -5 5 -10 11 -10 5 0 7 5 4 10 -3 6 -8 10 -11 10 -2 0
-4 -4 -4 -10z"/>
<path d="M5768 3643 c7 -3 16 -2 19 1 4 3 -2 6 -13 5 -11 0 -14 -3 -6 -6z"/>
<path d="M5700 3630 c0 -5 7 -10 16 -10 8 0 12 5 9 10 -3 6 -10 10 -16 10 -5
0 -9 -4 -9 -10z"/>
<path d="M6448 3693 c-16 -4 -16 -7 4 -33 20 -28 22 -28 49 -14 32 16 35 24
17 42 -12 12 -37 14 -70 5z m56 -22 c3 -4 -6 -6 -19 -3 -14 2 -25 6 -25 8 0 8
39 4 44 -5z"/>
<path d="M7530 3686 c0 -9 5 -16 10 -16 6 0 10 4 10 9 0 6 -4 13 -10 16 -5 3
-10 -1 -10 -9z"/>
<path d="M7366 3661 c-11 -4 -15 -10 -10 -14 14 -8 54 3 54 14 0 11 -17 11
-44 0z"/>
<path d="M4460 3646 c0 -8 4 -17 9 -20 5 -4 7 3 4 14 -6 23 -13 26 -13 6z"/>
<path d="M5500 3619 c-20 -36 -5 -52 42 -46 82 11 88 67 7 67 -29 0 -41 -5
-49 -21z m100 -9 c0 -5 -5 -12 -11 -16 -14 -8 -33 11 -25 25 7 11 36 4 36 -9z
m-65 -11 c10 -15 -1 -23 -20 -15 -9 3 -13 10 -10 16 8 13 22 13 30 -1z"/>
<path d="M6163 3603 c-10 -3 -9 -8 2 -19 8 -8 19 -22 24 -31 7 -14 13 -15 40
-3 33 13 39 28 19 48 -12 12 -62 15 -85 5z m72 -23 c3 -6 -1 -7 -9 -4 -18 7
-21 14 -7 14 6 0 13 -4 16 -10z"/>
<path d="M5836 3494 c-25 -24 -19 -62 13 -95 54 -54 161 -28 145 35 -5 19 0
26 23 35 l28 11 -32 -6 c-24 -4 -40 0 -59 15 -32 25 -96 28 -118 5z m115 -33
c16 -16 29 -35 29 -43 -1 -7 -8 0 -16 15 -9 16 -30 35 -47 42 -20 9 -25 14
-14 15 10 0 32 -13 48 -29z"/>
<path d="M6960 3528 c0 -12 17 -18 34 -12 25 10 19 24 -9 22 -14 -1 -25 -6
-25 -10z"/>
<path d="M4685 2870 c4 -6 11 -8 16 -5 14 9 11 15 -7 15 -8 0 -12 -5 -9 -10z"/>
<path d="M4905 2870 c-3 -5 -1 -10 4 -10 6 0 11 5 11 10 0 6 -2 10 -4 10 -3 0
-8 -4 -11 -10z"/>
<path d="M5270 2870 c0 -5 4 -10 9 -10 6 0 13 5 16 10 3 6 -1 10 -9 10 -9 0
-16 -4 -16 -10z"/>
<path d="M6626 3366 c3 -9 11 -16 16 -16 13 0 5 23 -10 28 -7 2 -10 -2 -6 -12z"/>
<path d="M3092 3367 c-72 -41 -77 -170 -7 -197 60 -23 135 41 135 115 0 79
-61 118 -128 82z"/>
<path d="M2742 3297 c-72 -41 -77 -170 -7 -197 60 -23 135 41 135 115 0 79
-61 118 -128 82z"/>
<path d="M4030 3075 c0 -5 5 -17 10 -25 5 -8 10 -10 10 -5 0 6 -5 17 -10 25
-5 8 -10 11 -10 5z"/>
<path d="M4071 2985 c0 -5 6 -21 14 -35 8 -14 14 -20 14 -15 0 6 -6 21 -14 35
-8 14 -14 21 -14 15z"/>
<path d="M5190 3290 c-29 -29 -25 -66 9 -101 36 -36 86 -39 125 -8 35 28 33
54 -8 95 -41 41 -93 47 -126 14z m97 -17 c10 -10 14 -15 8 -11 -6 4 -22 12
-36 17 -15 6 -18 10 -8 10 9 1 25 -7 36 -16z"/>
<path d="M5360 3270 c-13 -9 -13 -10 0 -10 8 0 22 5 30 10 13 9 13 10 0 10 -8
0 -22 -5 -30 -10z"/>
<path d="M2423 3243 c-19 -4 -23 -11 -23 -42 0 -21 2 -40 5 -43 14 -13 87 16
97 38 20 43 -11 60 -79 47z"/>
<path d="M2433 3113 c-20 -4 -23 -11 -23 -50 l0 -45 38 7 c61 11 91 52 60 83
-12 12 -32 13 -75 5z"/>
<path d="M4868 3203 c-21 -5 -21 -5 -6 -38 13 -29 34 -32 66 -9 18 12 20 19
12 35 -10 18 -34 22 -72 12z m46 -22 c4 -5 -3 -7 -14 -4 -23 6 -26 13 -6 13 8
0 17 -4 20 -9z"/>
<path d="M8933 2680 c-35 -14 -27 -20 10 -8 17 6 34 13 36 14 8 7 -24 3 -46
-6z"/>
<path d="M8873 2660 c-13 -5 -23 -11 -23 -14 0 -7 40 6 46 15 6 10 6 10 -23
-1z"/>
<path d="M8955 2653 c-22 -9 -41 -17 -42 -17 -6 -4 -93 -289 -89 -293 2 -3 21
1 40 8 36 13 37 16 82 154 25 77 47 146 49 153 2 6 3 12 2 11 -1 0 -20 -7 -42
-16z m-58 -236 c-18 -28 -62 -45 -53 -20 3 8 6 18 6 23 0 9 52 30 59 24 2 -2
-3 -14 -12 -27z"/>
<path d="M8728 2613 c7 -3 16 -2 19 1 4 3 -2 6 -13 5 -11 0 -14 -3 -6 -6z"/>
<path d="M8806 2497 c-29 -95 -46 -133 -67 -153 -16 -15 -29 -32 -29 -38 0 -5
14 3 30 19 23 22 40 59 71 153 22 68 38 129 37 134 -2 6 -21 -46 -42 -115z"/>
<path d="M8695 2600 c3 -5 8 -10 11 -10 2 0 4 5 4 10 0 6 -5 10 -11 10 -5 0
-7 -4 -4 -10z"/>
<path d="M8505 2540 c3 -5 8 -10 11 -10 2 0 4 5 4 10 0 6 -5 10 -11 10 -5 0
-7 -4 -4 -10z"/>
<path d="M8470 2530 c0 -5 5 -10 11 -10 5 0 7 5 4 10 -3 6 -8 10 -11 10 -2 0
-4 -4 -4 -10z"/>
<path d="M8127 2409 c7 -7 15 -10 18 -7 3 3 -2 9 -12 12 -14 6 -15 5 -6 -5z"/>
<path d="M8097 2399 c7 -7 15 -10 18 -7 3 3 -2 9 -12 12 -14 6 -15 5 -6 -5z"/>
<path d="M8048 2393 c-22 -5 -24 -20 -3 -20 8 0 15 5 15 10 0 5 7 6 16 3 8 -3
12 -2 9 4 -6 10 -9 11 -37 3z"/>
<path d="M7990 2370 c-8 -5 -10 -10 -5 -10 6 0 17 5 25 10 8 5 11 10 5 10 -5
0 -17 -5 -25 -10z"/>
<path d="M7925 2340 c3 -5 8 -10 11 -10 2 0 4 5 4 10 0 6 -5 10 -11 10 -5 0
-7 -4 -4 -10z"/>
<path d="M8480 2340 c-8 -5 -10 -10 -5 -10 6 0 17 5 25 10 8 5 11 10 5 10 -5
0 -17 -5 -25 -10z"/>
<path d="M8785 2250 c-13 -6 -15 -9 -5 -9 8 0 22 4 30 9 18 12 2 12 -25 0z"/>
<path d="M8730 2230 c-8 -5 -10 -10 -5 -10 6 0 17 5 25 10 8 5 11 10 5 10 -5
0 -17 -5 -25 -10z"/>
<path d="M7025 1960 c-18 -8 -17 -9 7 -9 15 -1 30 4 33 9 7 12 -12 12 -40 0z"/>
<path d="M6150 1690 c-18 -12 -2 -12 25 0 13 6 15 9 5 9 -8 0 -22 -4 -30 -9z"/>
<path d="M5865 1586 c-234 -89 -759 -297 -775 -308 -34 -22 37 4 320 117 162
64 360 142 440 172 187 71 188 72 170 72 -8 0 -78 -24 -155 -53z"/>
<path d="M7514 1942 c-13 -8 -25 -62 -14 -62 13 0 73 45 78 58 4 13 -45 17
-64 4z m33 -18 c-3 -3 -12 -4 -19 -1 -8 3 -5 6 6 6 11 1 17 -2 13 -5z"/>
<path d="M7219 1833 c-11 -2 -18 -17 -21 -39 -2 -18 -2 -34 -1 -34 2 0 21 9
42 20 72 36 58 74 -20 53z"/>
<path d="M6885 1709 c-86 -49 -113 -149 -40 -149 31 0 85 39 106 76 30 55 -13
102 -66 73z"/>
<path d="M6750 1590 c-8 -5 -10 -10 -5 -10 6 0 17 5 25 10 8 5 11 10 5 10 -5
0 -17 -5 -25 -10z"/>
<path d="M5720 1449 c0 -5 5 -7 10 -4 6 3 10 8 10 11 0 2 -4 4 -10 4 -5 0 -10
-5 -10 -11z"/>
<path d="M6149 1421 c-62 -62 -51 -118 21 -108 43 5 100 48 100 74 0 7 17 22
38 33 20 12 28 18 17 14 -48 -16 -52 -15 -58 5 -4 17 -13 21 -42 21 -30 0 -45
-8 -76 -39z"/>
<path d="M6050 1330 c-8 -5 -10 -10 -5 -10 6 0 17 5 25 10 8 5 11 10 5 10 -5
0 -17 -5 -25 -10z"/>
<path d="M6768 1429 c-31 -17 -19 -30 12 -14 17 9 30 18 30 20 0 8 -24 5 -42
-6z"/>
<path d="M14889 991 c-33 -33 -39 -45 -39 -82 0 -117 122 -177 209 -103 91 77
34 224 -87 224 -38 0 -50 -6 -83 -39z"/>
<path d="M5828 1318 c-22 -7 -28 -16 -28 -38 0 -28 1 -28 29 -19 35 12 65 44
56 58 -7 13 -21 13 -57 -1z"/>
<path d="M18139 1141 c-25 -25 -29 -37 -29 -81 0 -44 4 -56 29 -81 88 -87 214
28 156 141 -31 59 -107 69 -156 21z"/>
<path d="M6333 1269 c-13 -5 -23 -13 -23 -19 0 -13 10 -12 39 4 28 16 16 27
-16 15z"/>
<path d="M15889 1141 c-23 -23 -29 -38 -29 -71 0 -75 37 -120 100 -120 42 0
67 15 85 50 28 54 11 136 -34 160 -39 20 -91 12 -122 -19z"/>
<path d="M17734 1173 c-12 -2 -32 -15 -45 -29 -20 -21 -24 -36 -24 -86 0 -53
3 -62 28 -84 60 -52 147 -20 162 59 16 85 -45 155 -121 140z"/>
<path d="M16721 706 c-21 -25 -10 -61 18 -61 31 0 50 28 35 53 -15 23 -38 26
-53 8z"/>
<path d="M17431 706 c-21 -25 -10 -61 18 -61 31 0 50 28 35 53 -15 23 -38 26
-53 8z"/>
<path d="M17822 708 c-32 -32 0 -84 37 -61 22 14 25 38 6 57 -20 19 -27 20
-43 4z"/>
<path d="M15510 725 c0 -20 5 -25 25 -25 29 0 45 28 24 41 -27 17 -49 10 -49
-16z"/>
<path d="M16104 735 c-4 -9 -2 -21 4 -27 15 -15 54 1 50 20 -4 23 -46 28 -54
7z"/>
<path d="M16107 683 c-4 -3 -7 -15 -7 -25 0 -23 55 -26 64 -3 8 21 -40 45 -57
28z"/>
<path d="M15860 705 c-24 -29 8 -75 44 -62 30 12 14 77 -20 77 -6 0 -17 -7
-24 -15z"/>
<path d="M16230 705 c-24 -29 8 -75 44 -62 30 12 14 77 -20 77 -6 0 -17 -7
-24 -15z"/>
<path d="M16470 705 c-24 -29 8 -75 44 -62 30 12 14 77 -20 77 -6 0 -17 -7
-24 -15z"/>
<path d="M16850 705 c-24 -29 8 -75 44 -62 30 12 14 77 -20 77 -6 0 -17 -7
-24 -15z"/>
<path d="M17296 704 c-19 -18 -19 -20 -6 -45 21 -38 76 -10 62 31 -11 31 -34
37 -56 14z"/>
<path d="M17951 706 c-21 -25 -10 -61 18 -61 31 0 50 28 35 53 -15 23 -38 26
-53 8z"/>
<path d="M18200 705 c-11 -13 -7 -15 25 -15 32 0 36 2 25 15 -7 8 -18 15 -25
15 -7 0 -18 -7 -25 -15z"/>
<path d="M18472 708 c-25 -25 -6 -68 30 -68 22 0 35 45 18 65 -15 18 -32 19
-48 3z"/>
</g>
</svg>
