<?xml version="1.0" standalone="no"?>
<!DOCTYPE svg PUBLIC "-//W3C//DTD SVG 20010904//EN"
 "http://www.w3.org/TR/2001/REC-SVG-20010904/DTD/svg10.dtd">
<svg version="1.0" xmlns="http://www.w3.org/2000/svg"
 width="1920.000000pt" height="1080.000000pt" viewBox="0 0 1920.000000 1080.000000"
 preserveAspectRatio="xMidYMid meet">

<g transform="translate(0.000000,1080.000000) scale(0.100000,-0.100000)"
fill="#000000" stroke="none">
<path d="M0 9523 l1 -1278 1031 -760 c566 -418 1092 -806 1168 -863 l139 -102
-1169 -1583 -1169 -1582 -1 -1677 0 -1678 9600 0 9600 0 0 5400 0 5400 -9600
0 -9600 0 0 -1277z m18329 543 c84 -44 84 -176 1 -238 l-30 -21 40 -18 c71
-32 92 -125 47 -210 -46 -86 -198 -132 -285 -86 -58 31 -98 127 -53 127 11 0
26 3 35 6 11 4 16 1 16 -11 0 -9 13 -30 29 -46 24 -23 38 -29 74 -29 107 0
176 113 113 187 -22 26 -30 28 -90 27 -65 0 -66 0 -66 27 0 21 6 28 28 34 53
12 109 46 120 71 17 37 15 89 -5 107 -18 16 -46 21 -95 19 -32 -2 -94 -53
-104 -85 -8 -27 -22 -37 -51 -37 -29 0 -29 20 -3 75 33 69 111 113 203 114 26
1 61 -6 76 -13z m-16554 -277 c110 -94 203 -176 207 -183 4 -6 8 -35 8 -63 0
-49 2 -53 24 -53 40 0 76 -39 79 -85 l2 -40 -125 0 -125 0 -3 97 -3 98 -167
140 -167 140 -77 0 -78 0 -127 -107 c-71 -58 -147 -124 -170 -147 l-43 -40 0
-93 0 -93 -120 0 -120 0 0 43 c0 49 19 73 66 86 27 7 29 11 32 64 l3 56 132
114 c73 62 165 141 206 175 l74 62 146 0 146 -1 200 -170z m15744 -156 l1
-203 23 0 c24 0 129 17 160 26 16 5 18 1 15 -27 l-3 -34 -130 -21 c-71 -12
-131 -21 -132 -20 -1 1 -5 128 -9 283 l-7 282 34 3 c33 3 34 2 41 -42 3 -25 7
-136 7 -247z m-209 224 l0 -33 -112 -18 -113 -19 4 -91 c1 -50 4 -92 5 -93 1
-2 40 4 87 12 110 20 109 20 109 -14 0 -31 10 -28 -132 -52 l-68 -11 0 -94 c0
-109 -10 -102 120 -79 111 20 110 20 110 -14 l0 -28 -132 -22 c-73 -13 -140
-25 -149 -27 -14 -4 -17 19 -22 183 -4 104 -7 231 -7 284 l0 96 148 25 c81 14
148 26 150 27 1 0 2 -14 2 -32z m-414 -54 c-3 -10 -48 -144 -99 -298 l-94
-279 -38 -8 c-21 -5 -42 -5 -46 -1 -11 13 -222 513 -218 517 2 3 20 7 39 11
l35 6 90 -221 c49 -121 92 -220 95 -220 3 0 25 62 48 138 124 396 112 368 170
371 18 1 22 -3 18 -16z m-586 -116 l0 -34 -86 -13 c-149 -22 -137 -12 -135
-115 1 -49 3 -91 5 -92 1 -2 40 4 87 12 110 20 109 20 109 -14 0 -31 10 -28
-132 -52 l-68 -11 0 -94 c0 -109 -10 -102 120 -79 112 20 110 20 110 -15 0
-17 -5 -30 -12 -30 -7 0 -73 -11 -146 -24 -73 -13 -134 -20 -137 -17 -2 4 -7
131 -11 282 l-7 276 149 25 c82 14 150 26 152 27 1 0 2 -14 2 -32z m-591 -364
l1 -203 23 0 c24 0 129 17 160 26 13 4 17 -1 17 -25 0 -17 -1 -31 -2 -31 -2
-1 -61 -11 -131 -24 -70 -13 -129 -20 -131 -17 -2 3 -7 131 -10 283 l-7 277
33 3 c32 3 33 2 40 -42 3 -25 7 -136 7 -247z m-14430 86 c31 -29 43 -67 36
-110 -16 -97 -127 -122 -170 -39 -28 53 -11 134 32 159 30 17 78 12 102 -10z
m382 11 c25 -14 49 -62 49 -100 0 -93 -93 -145 -153 -85 -32 33 -40 66 -27
115 19 69 76 99 131 70z m7811 -192 c3 -62 1 -117 -4 -123 -4 -5 -77 -21 -161
-35 l-152 -26 0 -120 c0 -65 4 -290 8 -500 l9 -381 -150 -24 -149 -25 -6 130
c-4 72 -10 296 -13 499 -4 202 -10 367 -13 367 -3 0 -71 -11 -151 -25 -80 -14
-150 -25 -157 -25 -11 0 -31 225 -20 236 5 6 896 161 933 163 21 1 22 -4 26
-111z m-8472 30 c5 -63 8 -70 49 -112 175 -179 557 -181 733 -5 46 46 47 49
50 116 l3 68 119 3 c67 1 124 -2 129 -7 14 -14 -1 -79 -24 -102 -12 -12 -33
-19 -58 -19 -36 0 -42 -4 -70 -51 -123 -198 -402 -309 -645 -255 -154 35 -315
142 -381 255 -28 46 -33 51 -67 51 -24 0 -45 7 -57 19 -21 21 -37 83 -26 101
4 7 47 10 123 8 l117 -3 5 -67z m7030 -208 c154 -51 268 -165 321 -320 27 -81
37 -251 19 -343 -54 -280 -282 -516 -562 -582 -80 -19 -237 -19 -307 0 -122
32 -236 113 -301 215 -100 155 -115 383 -40 582 48 128 176 281 304 363 66 42
191 91 269 105 81 14 223 5 297 -20z m9877 -112 c-3 -13 -15 -96 -28 -185 -20
-147 -24 -162 -43 -166 -12 -3 -122 -22 -246 -43 -124 -20 -229 -41 -234 -45
-5 -4 -61 -362 -125 -796 l-117 -788 -209 -37 c-116 -20 -219 -37 -230 -37
-20 -1 -17 25 96 787 64 433 115 789 113 791 -2 2 -113 -15 -247 -37 -134 -23
-246 -42 -248 -42 -7 0 48 360 56 368 6 7 1401 250 1444 251 19 1 22 -3 18
-21z m-11155 -103 c206 -71 224 -374 30 -519 l-53 -40 43 -11 c204 -51 251
-332 87 -510 -47 -51 -102 -87 -180 -116 -50 -19 -687 -134 -696 -125 -4 4
-14 333 -29 948 l-6 287 23 6 c21 5 508 87 584 99 48 7 148 -3 197 -19z
m-1410 -219 c105 -23 175 -61 254 -140 112 -112 154 -222 154 -402 0 -125 -24
-225 -80 -332 -129 -249 -377 -402 -649 -402 -165 0 -276 44 -382 149 -194
194 -212 531 -40 793 165 252 474 391 743 334z m10423 -75 c132 -47 218 -131
255 -250 19 -61 28 -191 13 -191 -5 0 -113 -18 -241 -40 -128 -22 -234 -40
-237 -40 -3 0 -5 17 -5 38 0 47 -30 96 -71 118 -52 26 -162 15 -230 -23 -77
-43 -114 -99 -114 -171 0 -39 6 -66 19 -85 27 -39 138 -90 326 -148 216 -66
296 -104 369 -174 82 -78 113 -149 119 -275 16 -348 -244 -622 -680 -716 -116
-25 -298 -30 -392 -10 -236 49 -356 189 -356 415 l0 58 239 40 240 39 6 -49
c8 -55 46 -107 95 -127 51 -21 160 -8 234 29 74 36 113 84 122 152 16 118 -61
174 -335 244 -129 32 -264 81 -312 110 -132 84 -189 191 -189 355 1 349 260
618 685 710 125 27 352 23 440 -9z m-11655 -177 c111 -50 169 -141 177 -278
10 -170 -74 -313 -242 -411 -16 -10 -3 -33 122 -220 76 -116 142 -215 146
-221 4 -8 -48 -20 -163 -39 -94 -15 -172 -26 -174 -24 -9 11 -256 405 -259
412 -1 5 -19 6 -40 2 l-37 -7 7 -234 c3 -129 4 -234 2 -234 -3 0 -69 -11 -148
-25 -79 -14 -146 -24 -148 -21 -4 3 -14 337 -29 953 l-6 282 23 6 c13 3 141
26 284 50 306 53 384 54 485 9z m10274 -11 c-2 -10 -44 -292 -94 -628 -104
-709 -120 -777 -227 -957 -65 -109 -168 -225 -264 -298 -106 -80 -277 -163
-405 -196 -132 -35 -329 -44 -424 -20 -143 36 -236 104 -292 213 -89 172 -88
246 26 1023 49 333 90 606 91 608 2 2 97 19 211 38 115 19 218 36 229 39 20 4
17 -21 -68 -583 -96 -639 -104 -732 -70 -797 42 -80 87 -105 192 -105 228 0
407 154 455 390 8 41 52 329 97 640 46 311 84 567 86 569 3 4 415 78 445 80
10 1 15 -5 12 -16z m-2526 -479 c232 -47 395 -199 458 -425 25 -89 25 -330 0
-449 -56 -269 -173 -492 -361 -688 l-90 -94 -70 35 c-127 63 -273 127 -294
127 -9 0 -21 4 -27 9 -5 4 -47 18 -94 31 -94 25 -89 23 -145 35 -22 4 -96 30
-165 57 -69 28 -165 63 -215 79 -49 17 -103 36 -120 44 -16 8 -75 28 -130 46
-55 17 -104 35 -110 39 -5 4 -68 27 -140 50 -157 50 -205 66 -270 90 -27 10
-70 24 -95 30 -25 7 -62 19 -83 26 -77 28 -160 7 -180 -46 -8 -20 -22 -33 -43
-40 -29 -10 -80 -8 -92 4 -2 3 7 29 21 59 23 49 70 101 114 125 17 10 17 11 0
30 -10 10 -41 32 -70 48 -49 27 -59 29 -167 29 -95 0 -128 -4 -189 -24 -166
-54 -317 -193 -402 -366 -58 -119 -77 -195 -85 -330 -20 -340 184 -494 516
-389 230 72 419 297 473 562 9 41 17 76 20 78 4 4 354 -201 374 -220 10 -8 5
-29 -20 -91 -165 -408 -525 -700 -969 -786 -355 -69 -644 46 -776 308 -61 123
-77 207 -77 398 1 219 38 386 126 572 193 407 602 692 1047 731 419 36 692
-173 743 -569 9 -67 16 -92 28 -96 28 -10 142 -53 231 -88 47 -18 86 -32 87
-31 2 1 35 218 74 482 39 263 73 481 75 483 3 4 712 126 776 134 84 10 245 6
316 -9z m-3944 -684 c126 -49 190 -151 190 -305 0 -166 -61 -312 -182 -433
-42 -42 -105 -93 -140 -114 l-64 -36 55 -12 c150 -31 237 -151 237 -329 0
-301 -221 -569 -556 -674 -73 -23 -1031 -194 -1038 -185 -4 4 285 1951 290
1957 2 2 207 39 456 82 423 73 461 78 573 75 96 -2 132 -8 179 -26z m-2102
-356 c283 -102 424 -357 405 -734 -25 -492 -303 -922 -732 -1130 -231 -112
-512 -157 -708 -114 -226 50 -395 215 -459 451 -29 106 -31 376 -5 502 98 462
384 809 802 974 245 96 516 116 697 51z m4243 -154 c-3 -5 -10 -10 -16 -10 -5
0 -9 5 -9 10 0 6 7 10 16 10 8 0 12 -4 9 -10z m-6315 -170 c150 -29 264 -126
304 -260 23 -76 21 -227 -4 -323 -20 -82 -70 -189 -122 -266 -68 -99 -200
-212 -318 -271 -25 -12 -46 -23 -48 -25 -1 -1 70 -159 158 -350 88 -192 158
-350 156 -352 -1 -2 -108 -21 -237 -43 -129 -22 -243 -42 -255 -45 -19 -4 -34
26 -164 333 -78 185 -143 338 -144 338 -6 8 -116 -21 -116 -29 0 -23 -107
-728 -111 -731 -7 -5 -450 -78 -453 -75 -4 5 285 1952 290 1958 2 2 196 37
431 77 434 74 530 84 633 64z m7516 -212 c42 -24 49 -48 29 -88 -18 -35 -33
-35 -104 -2 -43 20 -49 45 -21 90 23 37 34 37 96 0z m364 -12 c75 -27 149 -64
201 -99 21 -14 48 -28 60 -32 39 -13 191 -120 235 -166 50 -52 65 -89 37 -90
-10 0 -58 -1 -108 -2 -104 -2 -116 -14 -70 -69 16 -19 23 -34 16 -36 -13 -4
-286 137 -351 182 l-45 31 34 5 c34 5 57 35 43 57 -6 9 -77 71 -201 175 l-24
20 29 24 c37 30 63 30 144 0z m-865 -171 c94 -54 184 -106 200 -115 17 -9 41
-23 55 -32 14 -9 44 -19 67 -23 22 -3 49 -15 59 -26 9 -10 13 -19 9 -19 -5 0
-157 -25 -338 -56 -181 -31 -330 -54 -332 -52 -2 3 45 336 60 416 6 32 7 33
28 19 12 -8 99 -58 192 -112z m1406 79 c16 -8 38 -12 49 -9 10 3 98 -19 197
-49 165 -51 243 -73 383 -112 30 -9 67 -20 83 -26 15 -6 116 -36 225 -68 190
-55 198 -57 230 -42 30 15 35 14 77 -6 27 -13 49 -32 55 -47 5 -14 13 -25 18
-25 5 0 18 -20 30 -44 14 -28 33 -48 52 -56 29 -12 39 -33 21 -44 -5 -4 -30 3
-56 14 -59 25 -75 25 -75 0 0 -11 -7 -23 -15 -26 -8 -3 -49 -78 -91 -165 -43
-87 -79 -159 -82 -159 -8 0 -111 70 -287 195 -272 194 -809 539 -952 613 -67
34 -89 52 -63 52 6 0 45 -19 86 -41 88 -49 104 -45 62 13 -9 13 -9 20 1 32 16
20 15 20 52 0z m-1038 -541 c-7 -2 -19 -2 -25 0 -7 3 -2 5 12 5 14 0 19 -2 13
-5z m-88 -19 c-123 -36 -233 -86 -410 -188 -356 -203 -687 -406 -1040 -638
-129 -84 -245 -190 -276 -251 l-20 -37 25 -25 c15 -14 20 -26 13 -28 -7 -2 -3
-2 8 0 55 12 98 -9 118 -60 4 -9 8 -8 16 3 9 13 11 12 11 -5 0 -11 14 -43 30
-72 54 -94 326 -303 740 -568 l45 -29 -40 -9 c-63 -15 -119 -10 -171 14 -27
13 -164 99 -304 192 -196 129 -260 167 -279 164 -49 -10 -204 134 -237 219
-21 54 -39 58 -32 7 12 -85 65 -158 178 -245 40 -31 34 -50 -7 -23 -43 28
-156 146 -173 180 -8 17 -20 38 -28 47 -10 12 -13 37 -10 86 7 138 111 287
273 393 216 142 321 209 520 331 372 228 720 429 829 478 73 33 220 79 251 78
11 0 -2 -7 -30 -14z m6895 -386 c0 -21 -11 -99 -26 -187 l-5 -34 46 6 c40 6
46 5 43 -10 -2 -12 -21 -20 -68 -29 -36 -6 -66 -11 -68 -10 -1 2 7 61 18 132
11 71 20 135 20 142 0 6 9 12 20 12 14 0 20 -7 20 -22z m-171 -120 c12 -62 25
-123 28 -135 4 -19 1 -23 -20 -23 -19 0 -26 6 -29 23 -2 17 -9 21 -28 20 -73
-7 -89 -14 -109 -48 -17 -30 -51 -49 -51 -28 0 3 30 71 67 149 60 130 74 149
108 153 6 0 21 -50 34 -111z m-231 60 c-3 -7 -21 -17 -41 -22 -41 -10 -40 -9
-58 -150 -11 -84 -16 -99 -33 -106 -12 -4 -22 -5 -23 -1 -2 3 5 59 15 124 l18
118 -38 -6 c-24 -4 -38 -3 -38 4 0 16 21 25 85 37 85 16 118 17 113 2z m-258
-45 c0 -10 -8 -71 -17 -136 -14 -94 -21 -121 -36 -129 -10 -5 -21 -8 -23 -5
-2 2 5 62 16 133 11 71 20 135 20 142 0 6 9 12 20 12 12 0 20 -7 20 -17z
m-151 -47 c38 -40 5 -62 -44 -30 -87 57 -217 -104 -144 -177 31 -31 84 -20
127 26 38 42 41 57 7 50 -14 -3 -36 -7 -50 -10 -20 -4 -25 -1 -25 14 0 15 10
20 53 25 28 4 62 10 75 13 45 11 21 -66 -40 -124 -38 -37 -76 -53 -121 -53
-123 0 -119 190 6 265 57 34 125 34 156 1z m-4138 -32 c35 -14 79 -32 97 -40
l33 -13 -21 -42 -21 -41 -72 68 c-40 37 -79 74 -87 81 -22 20 0 16 71 -13z
m3839 -1 c0 -10 -8 -71 -17 -136 -14 -94 -21 -121 -36 -129 -10 -5 -21 -8 -23
-5 -2 2 5 62 16 133 11 71 20 135 20 142 0 6 9 12 20 12 12 0 20 -7 20 -17z
m-165 -29 c28 -11 47 -63 41 -108 -14 -90 -75 -148 -182 -170 -38 -8 -70 -13
-71 -12 -2 2 6 61 17 132 11 71 20 134 20 141 0 17 139 31 175 17z m-377 -56
c-3 -7 -21 -17 -41 -22 -41 -10 -40 -9 -58 -150 -11 -84 -16 -99 -33 -106 -12
-4 -22 -5 -23 -1 -2 3 5 59 15 124 l18 118 -38 -6 c-24 -4 -38 -3 -38 4 0 16
21 25 85 37 85 16 118 17 113 2z m-2998 -20 c0 -6 -7 -7 -16 -4 -9 3 -18 6
-20 6 -3 0 -3 4 1 10 7 11 35 2 35 -12z m2707 -54 c23 -23 25 -31 21 -88 -5
-75 -36 -124 -98 -156 -93 -47 -170 -10 -170 82 0 105 78 187 178 188 33 0 49
-6 69 -26z m-2746 -41 l61 -38 -6 -102 -7 -101 56 -32 c30 -17 55 -38 55 -45
0 -8 13 -21 29 -29 38 -20 110 -102 118 -135 3 -14 9 -30 13 -36 28 -37 39
-232 19 -341 -13 -76 -50 -216 -55 -211 -3 2 7 51 20 108 58 246 36 375 -82
495 -53 54 -163 115 -211 118 -40 2 -48 12 -20 26 13 8 42 10 73 7 l51 -6 -50
25 c-29 14 -51 20 -53 14 -4 -12 -32 -14 -32 -2 0 4 5 13 12 20 13 13 -25 69
-72 102 -24 17 -30 29 -30 57 0 20 -6 52 -12 71 -12 31 -11 35 11 53 32 26 42
24 112 -18z m2437 -32 c2 -23 -3 -43 -17 -62 -18 -24 -18 -29 -6 -39 32 -27
10 -96 -38 -122 -21 -11 -149 -39 -155 -34 -1 2 7 61 18 132 11 71 20 134 20
141 0 14 43 21 120 19 l55 -1 3 -34z m-291 -27 c23 -23 25 -31 21 -88 -5 -75
-36 -124 -98 -156 -93 -47 -170 -10 -170 82 0 105 78 187 178 188 33 0 49 -6
69 -26z m-319 -46 c7 -7 12 -27 12 -46 0 -26 -9 -43 -36 -70 l-36 -36 21 -43
c27 -56 26 -63 -4 -63 -20 0 -28 9 -46 50 -12 28 -28 50 -35 50 -17 0 -34 -40
-34 -80 0 -19 -7 -33 -21 -40 -11 -7 -23 -10 -25 -7 -2 2 5 62 16 133 11 71
20 134 20 141 0 21 149 30 168 11z m-1868 -147 c0 -12 -20 -25 -27 -18 -7 7 6
27 18 27 5 0 9 -4 9 -9z m2 -43 c-11 -15 -10 -47 2 -66 12 -19 -1 -27 -19 -12
-15 12 -21 71 -8 83 3 4 13 7 21 7 10 0 12 -4 4 -12z m-172 -72 c0 -3 -4 -8
-10 -11 -5 -3 -10 -1 -10 4 0 6 5 11 10 11 6 0 10 -2 10 -4z m-230 -123 c-40
-38 -85 -77 -99 -87 -14 -11 -51 -43 -81 -71 -56 -52 -357 -294 -442 -356 -26
-19 -119 -86 -205 -150 -87 -63 -196 -142 -243 -175 -47 -32 -98 -69 -115 -81
-78 -58 -193 -99 -325 -118 -57 -8 -38 5 50 35 143 48 318 151 618 366 46 32
94 66 105 74 20 14 333 249 435 327 24 18 50 40 58 48 9 8 31 27 50 41 19 15
34 32 34 38 0 7 15 17 33 24 17 7 66 43 107 82 41 38 79 69 85 70 5 0 -24 -30
-65 -67z m119 -1 c-264 -240 -668 -558 -1058 -831 -257 -180 -318 -213 -466
-252 -78 -21 -125 -24 -125 -9 0 6 15 10 34 10 34 0 162 47 258 96 131 66 681
456 981 696 257 205 394 318 406 332 8 9 16 14 19 12 2 -3 -20 -27 -49 -54z
m271 8 c0 -5 -5 -10 -11 -10 -5 0 -7 5 -4 10 3 6 8 10 11 10 2 0 4 -4 4 -10z
m2385 -17 c15 -38 63 -228 58 -235 -8 -14 -32 -8 -41 10 -5 9 -15 42 -22 72
-7 30 -15 59 -18 64 -3 5 -16 -29 -29 -75 -33 -116 -121 -292 -187 -376 -143
-179 -341 -277 -458 -225 -47 20 -92 77 -86 109 6 31 27 25 52 -16 32 -50 52
-61 114 -61 97 0 248 101 351 233 23 31 62 94 86 141 44 85 113 282 102 292
-3 3 -35 -18 -71 -46 -63 -50 -96 -59 -96 -27 0 20 187 157 215 157 12 0 26
-8 30 -17z m-2325 -93 c0 -5 -4 -10 -10 -10 -5 0 -10 5 -10 10 0 6 5 10 10 10
6 0 10 -4 10 -10z m-5387 -89 c14 -5 71 -61 128 -123 57 -63 183 -199 280
-303 97 -105 196 -213 221 -241 l45 -51 -8 -63 c-4 -35 -5 -70 -2 -79 4 -13 3
-14 -5 -2 -7 10 -10 -21 -10 -103 1 -103 -2 -119 -18 -132 -11 -9 -13 -13 -6
-9 7 4 12 0 12 -9 0 -9 -4 -16 -10 -16 -5 0 -10 -5 -10 -11 0 -5 5 -7 10 -4
13 8 13 -25 0 -45 -8 -12 -10 -12 -10 -1 0 8 -3 12 -6 9 -3 -4 0 -16 6 -28 10
-18 9 -24 -1 -31 -9 -6 -10 -9 -2 -9 16 0 9 -93 -7 -98 -9 -3 -9 -6 1 -12 10
-7 10 -29 2 -112 -6 -57 -14 -152 -17 -213 -3 -60 -9 -111 -15 -113 -5 -2 -7
-10 -4 -17 6 -18 -15 -227 -52 -500 -3 -16 -9 -68 -15 -115 -7 -47 -27 -177
-46 -289 -19 -112 -37 -247 -41 -300 -9 -152 46 -135 -499 -150 -258 -7 -509
-14 -559 -16 -49 -3 -236 -9 -415 -15 -179 -5 -388 -12 -465 -15 -77 -3 -282
-10 -455 -15 -173 -5 -369 -12 -435 -15 -260 -11 -662 -14 -585 -4 135 16 150
17 150 7 0 -6 6 -6 14 1 8 7 66 15 138 18 68 3 125 8 128 11 5 5 -214 0 -765
-15 -143 -4 -314 -8 -380 -8 l-120 0 -7 50 c-3 28 -14 131 -22 230 -18 194
-38 411 -61 650 -8 83 -22 224 -30 315 -17 185 -41 415 -55 535 -5 44 -12 112
-15 150 l-6 70 119 0 c100 0 118 2 115 15 -1 8 -9 82 -17 163 -8 82 -17 151
-20 154 -2 3 -9 3 -13 0 -8 -5 -5 -68 12 -238 l7 -68 -101 -3 c-93 -3 -100 -2
-105 17 -8 31 -30 285 -25 289 7 7 837 23 2079 41 217 4 438 8 490 10 52 2
189 4 303 4 138 1 206 4 202 11 -4 6 -11 8 -16 5 -5 -4 -9 -1 -9 6 0 7 -4 8
-12 2 -21 -16 -68 -15 -68 2 0 8 -10 20 -22 26 -22 12 -22 12 -6 -13 16 -24
16 -25 -5 -24 -17 1 -21 7 -19 25 1 14 -2 21 -10 18 -7 -2 -13 -11 -13 -20 0
-8 -4 -19 -8 -23 -4 -4 -7 -3 -7 3 0 5 -7 10 -15 10 -8 0 -12 -4 -9 -9 3 -5
-13 -7 -35 -6 -25 2 -41 8 -41 16 0 6 -5 12 -11 12 -5 0 -7 5 -4 10 3 6 1 10
-4 10 -6 0 -11 -5 -11 -11 0 -6 -9 -9 -20 -6 -10 3 -25 -1 -31 -9 -10 -12 -15
-12 -35 1 -30 19 -35 19 -28 -2 5 -15 4 -15 -6 1 -10 15 -9 20 1 27 8 5 10 9
4 9 -5 -1 -18 -7 -29 -15 -14 -11 -24 -12 -39 -3 -16 8 -22 8 -25 -1 -5 -15
-45 -14 -60 1 -9 9 -12 9 -12 -3 0 -12 -2 -12 -11 1 -7 10 -12 11 -15 3 -4 -8
-14 -9 -34 -3 -16 4 -31 6 -34 2 -3 -3 -6 1 -6 8 0 10 -3 10 -12 -2 -15 -18
-83 -14 -71 5 3 6 1 7 -5 3 -6 -4 -147 -9 -314 -11 -167 -2 -391 -6 -498 -9
-107 -2 -239 -5 -293 -5 -63 -1 -96 -5 -92 -11 3 -5 1 -10 -4 -10 -6 0 -11 3
-11 8 0 9 -488 8 -497 -1 -3 -4 -12 -2 -19 4 -9 7 -19 7 -35 -2 -17 -9 -24 -9
-27 0 -5 15 -32 14 -32 -1 0 -9 -3 -8 -10 2 -7 12 -12 12 -21 3 -10 -10 -15
-9 -25 5 -13 16 -13 16 -14 0 0 -19 -20 -26 -20 -8 0 12 -83 14 -94 3 -4 -5
-33 -9 -64 -11 -32 -1 -86 -4 -123 -5 -36 -2 -69 -6 -75 -9 -15 -10 -77 1 -85
14 -5 7 -2 19 5 28 25 30 196 346 220 408 28 70 81 170 133 247 18 27 33 55
33 62 0 10 30 13 119 13 66 0 122 4 125 9 3 5 275 12 603 15 1067 12 1874 26
1883 31 3 2 210 6 460 10 250 4 457 9 459 11 8 7 60 4 84 -5z m1642 -101 c3
-5 1 -10 -4 -10 -6 0 -11 5 -11 10 0 6 2 10 4 10 3 0 8 -4 11 -10z m-15 -48
c0 -10 -41 -35 -47 -28 -11 11 7 36 27 36 11 0 20 -3 20 -8z m3991 -379 c-12
-20 -14 -14 -5 12 4 9 9 14 11 11 3 -2 0 -13 -6 -23z m-276 -7 c17 -13 28 -26
25 -29 -3 -3 -20 8 -38 24 -39 35 -29 39 13 5z m62 -150 c19 -37 32 -70 30
-73 -3 -2 -18 24 -34 59 -15 35 -47 88 -71 118 l-43 55 42 -45 c22 -25 57 -76
76 -114z m177 75 c-15 -28 -29 -49 -31 -47 -2 2 8 26 24 54 15 28 30 49 31 47
2 -2 -8 -26 -24 -54z m-221 -75 c56 -82 57 -85 43 -117 -7 -19 -11 -40 -9 -47
3 -8 -1 -10 -11 -6 -17 7 -22 24 -7 24 20 0 -12 95 -77 223 -2 4 -2 7 1 7 2 0
29 -38 60 -84z m-9669 22 c-4 -7 -30 -48 -57 -91 l-50 -79 67 -67 68 -68 -39
-6 c-36 -6 -41 -4 -95 50 l-58 57 0 -71 c0 -70 0 -71 -29 -75 l-29 -4 -7 120
c-10 173 -6 198 27 207 l27 7 3 -71 3 -72 52 80 c51 77 69 93 106 94 12 1 16
-3 11 -11z m8490 -43 c-15 -24 -50 -42 -61 -32 -4 4 62 54 75 56 1 1 -5 -10
-14 -24z m-8817 -69 c34 -31 37 -39 41 -98 5 -84 -19 -136 -81 -173 -57 -33
-132 -35 -172 -3 -68 54 -72 178 -7 252 26 29 92 56 140 56 34 0 49 -6 79 -34z
m10396 -116 c65 -34 116 -65 113 -67 -3 -3 -40 13 -82 36 -67 36 -79 40 -93
28 -29 -25 -51 -27 -86 -8 -23 12 -31 21 -24 28 11 11 -37 36 -62 33 -8 -2
-19 -2 -25 -1 -17 2 -26 48 -14 72 11 20 13 19 83 -19 40 -22 125 -67 190
-102z m-10746 46 c34 -31 37 -39 41 -98 5 -84 -19 -136 -81 -173 -57 -33 -132
-35 -172 -3 -68 54 -72 178 -7 252 26 29 92 56 140 56 34 0 49 -6 79 -34z
m3688 14 c4 -6 -7 -10 -25 -10 -18 0 -29 4 -25 10 3 6 15 10 25 10 10 0 22 -4
25 -10z m6611 -29 c-15 -16 -13 -19 15 -40 35 -26 32 -42 -3 -17 -30 21 -36
20 -41 -6 -2 -13 -5 0 -6 29 -1 42 2 52 17 56 27 6 35 -3 18 -22z m48 -12 c-7
-11 -34 -12 -34 -1 0 14 11 21 26 15 8 -3 11 -9 8 -14z m191 -26 c90 -45 113
-63 80 -63 -8 0 -22 -12 -31 -26 -15 -22 -15 -27 -3 -35 10 -6 5 -9 -17 -9
-17 0 -37 7 -44 15 -11 13 -10 14 6 9 18 -7 18 -7 0 15 -20 22 -20 22 0 15 16
-5 15 -4 -3 10 -13 10 -23 24 -23 33 0 14 -2 14 -19 -1 -11 -10 -17 -24 -14
-32 8 -21 -31 -17 -58 6 -13 10 -19 19 -13 20 5 0 15 -5 21 -11 9 -9 12 -6 10
10 -1 13 -9 27 -19 32 -22 12 -25 54 -3 46 8 -4 17 -2 20 3 8 14 4 15 110 -37z
m-10871 -5 c21 -30 20 -68 -3 -97 -19 -24 -19 -25 5 -44 47 -36 22 -119 -43
-146 -15 -6 -58 -17 -95 -24 l-66 -14 -7 121 c-4 67 -5 139 -3 161 3 39 4 40
53 52 86 19 142 16 159 -9z m10616 -174 c37 0 38 1 22 17 -10 9 -24 18 -32 21
-11 3 -10 6 3 11 9 3 17 2 17 -3 0 -6 9 -10 20 -10 11 0 20 4 20 9 0 5 12 16
26 26 24 16 28 16 43 1 14 -15 13 -18 -14 -40 -22 -17 -34 -21 -42 -14 -9 7
-13 7 -13 0 0 -14 19 -19 47 -14 13 2 23 11 23 18 0 20 27 29 45 14 11 -9 15
-9 15 -1 0 11 18 9 73 -6 17 -4 17 -6 -2 -23 -12 -9 -21 -22 -21 -29 0 -6 -8
-11 -17 -11 -15 0 -16 -2 -3 -10 18 -12 30 -13 29 -2 -3 20 2 32 16 32 18 0
19 -14 4 -42 -9 -16 -8 -19 3 -16 7 3 14 15 16 27 3 15 8 21 19 17 8 -3 22 -6
31 -6 17 0 15 -2 -57 -62 -18 -15 -21 -16 -21 -2 0 8 -5 12 -10 9 -6 -4 -17
-1 -25 5 -10 8 -15 9 -15 2 0 -6 5 -14 10 -17 6 -4 8 -10 5 -15 -3 -4 5 -8 18
-8 12 0 46 -3 75 -7 43 -6 51 -5 47 7 -7 17 9 32 44 43 19 6 23 4 18 -8 -9
-23 4 -29 25 -10 18 16 21 15 64 -5 l46 -23 36 32 c52 46 60 59 68 117 7 56
10 59 39 38 11 -7 103 -57 205 -111 199 -105 225 -122 252 -163 21 -32 23
-100 4 -145 -7 -19 -69 -84 -142 -152 -71 -65 -187 -174 -259 -240 -71 -67
-326 -303 -565 -525 -239 -222 -496 -460 -570 -530 -74 -70 -236 -221 -360
-335 -227 -211 -479 -447 -601 -563 -90 -85 -134 -116 -198 -137 -60 -20 -133
-16 -195 10 -66 28 -432 335 -486 408 -16 22 -29 42 -27 43 1 2 32 -3 67 -11
201 -42 373 -60 445 -45 28 5 32 8 15 9 -61 3 -41 16 29 18 42 2 99 9 126 17
28 8 77 22 110 31 102 28 234 99 336 182 271 219 609 536 817 766 158 173 162
182 178 296 14 101 37 521 53 956 10 261 23 368 29 229 l3 -70 39 0z m30 119
c-1 -10 -50 -46 -50 -37 0 9 33 43 43 43 4 1 7 -2 7 -6z m-11170 -37 c0 -22
-6 -26 -61 -37 l-60 -12 3 -41 c2 -25 8 -40 15 -39 87 17 93 17 93 -10 0 -23
-5 -26 -50 -32 l-50 -7 0 -45 0 -45 38 7 c20 3 47 9 60 12 18 4 22 1 22 -21 0
-28 3 -26 -111 -50 l-66 -13 -7 90 c-3 50 -6 122 -6 162 l0 72 78 15 c104 21
102 21 102 -6z m11280 4 c0 -5 -4 -10 -10 -10 -5 0 -10 5 -10 10 0 6 5 10 10
10 6 0 10 -4 10 -10z m-11040 -84 c0 -27 -3 -29 -105 -50 -53 -11 -72 -12 -77
-3 -18 28 -1 41 72 58 106 23 110 23 110 -5z m11490 -11 c0 -8 -4 -15 -10 -15
-5 0 -7 7 -4 15 4 8 8 15 10 15 2 0 4 -7 4 -15z m2 -52 c-6 -2 -10 -9 -7 -13
3 -5 1 -11 -5 -15 -5 -3 -10 0 -10 8 0 17 10 27 24 26 6 0 5 -3 -2 -6z
m-10997 -263 c3 -6 -7 -22 -24 -36 -56 -47 -39 -107 54 -193 94 -85 256 -150
417 -166 l63 -7 -50 45 c-48 44 -56 65 -18 53 10 -3 45 -30 77 -60 71 -66 69
-72 -38 -110 -84 -30 -96 -31 -96 -13 0 7 26 22 58 32 l57 18 -103 19 c-126
22 -208 49 -287 93 -87 48 -150 108 -180 170 -32 65 -28 103 17 140 32 27 43
30 53 15z m7013 -604 c15 -8 38 -26 52 -41 60 -64 162 -147 185 -149 34 -4 89
-48 108 -87 21 -44 239 -225 281 -233 33 -6 91 -54 121 -100 10 -15 38 -41 62
-57 43 -30 45 -30 71 -13 l27 17 -19 -22 c-16 -17 -17 -25 -8 -44 6 -12 16
-53 22 -92 6 -38 20 -104 31 -147 27 -107 25 -130 -10 -156 l-30 -22 -30 26
c-17 14 -31 36 -31 47 0 12 -10 58 -21 102 -33 125 -33 125 -16 125 8 0 17 9
20 19 3 14 -6 26 -36 45 -37 25 -41 25 -58 10 -16 -14 -18 -14 -29 5 -14 27
-30 27 -30 1 0 -33 -32 -144 -47 -160 -11 -12 -13 -12 -13 5 0 28 -72 153
-114 198 -20 21 -54 46 -75 56 l-40 17 30 18 c16 9 29 23 29 30 0 7 -29 44
-64 81 l-64 68 -48 -42 c-26 -23 -52 -40 -58 -38 -5 2 -19 20 -31 40 -35 63
-88 124 -130 149 -36 22 -42 32 -58 91 -9 36 -20 73 -23 81 -10 25 21 19 39
-6 12 -18 18 -20 27 -11 19 17 -20 88 -48 89 -52 3 -72 69 -30 98 27 19 23 19
56 2z m-53 -126 c3 -5 1 -10 -4 -10 -6 0 -11 5 -11 10 0 6 2 10 4 10 3 0 8 -4
11 -10z m547 -37 c23 -21 23 -30 -2 -28 -26 2 -44 20 -36 34 10 15 16 14 38
-6z m38 -255 c0 -6 -6 -5 -15 2 -8 7 -15 14 -15 16 0 2 7 1 15 -2 8 -4 15 -11
15 -16z m364 -71 c8 -13 7 -20 -4 -27 -17 -11 -15 -12 -24 23 -8 32 9 34 28 4z
m-861 -54 c34 -51 37 -72 5 -35 -17 18 -48 76 -48 88 0 10 4 6 43 -53z m266
-108 c34 -32 48 -53 49 -73 0 -15 10 -52 22 -82 19 -49 20 -53 3 -39 -28 25
-49 42 -163 130 -117 90 -124 97 -93 80 32 -16 62 -14 90 9 14 11 30 20 35 20
5 0 30 -20 57 -45z m5177 -114 c48 -22 83 -66 91 -117 5 -33 2 -39 -46 -81
-28 -24 -51 -48 -51 -52 0 -5 23 -18 50 -29 l50 -21 -1 -183 0 -183 -35 95
c-18 52 -52 140 -73 195 -22 55 -43 108 -46 117 -5 13 -2 15 16 11 19 -5 21
-3 16 18 -4 13 -17 63 -29 112 -13 48 -25 87 -28 87 -4 0 -79 -154 -98 -202
-2 -4 10 -8 26 -8 28 0 30 -2 46 -80 18 -83 35 -232 36 -311 l0 -47 -44 5
c-25 3 -114 -2 -198 -11 -84 -10 -175 -16 -203 -14 l-50 3 2 63 c2 83 26 150
78 220 52 72 143 134 231 158 35 9 64 18 64 20 0 2 -30 45 -67 95 l-68 92 -8
-109 c-5 -60 -10 -111 -12 -113 -2 -2 -43 24 -91 58 -47 34 -88 60 -90 58 -3
-3 7 -52 22 -111 15 -59 25 -108 23 -110 -2 -2 -51 6 -109 19 -58 13 -106 22
-107 21 -1 -1 29 -41 67 -89 39 -47 70 -88 70 -90 0 -3 -39 -8 -87 -12 -140
-11 -141 -13 -40 -80 48 -32 87 -61 87 -64 0 -3 -39 -28 -85 -56 -47 -27 -85
-53 -85 -56 0 -3 48 -14 108 -24 59 -10 109 -20 111 -22 3 -2 -15 -24 -39 -48
-52 -53 -83 -57 -150 -22 -30 16 -51 37 -67 67 -23 43 -23 48 -23 380 0 332 0
337 23 380 16 30 37 51 67 67 43 23 48 23 374 23 301 0 335 -2 372 -19z m1326
-28 c36 -32 11 -83 -41 -83 -34 0 -51 17 -51 52 0 44 56 64 92 31z m1970 0
c36 -32 11 -83 -41 -83 -34 0 -51 17 -51 52 0 44 56 64 92 31z m-8007 -23 c3
-5 2 -10 -4 -10 -5 0 -13 5 -16 10 -3 6 -2 10 4 10 5 0 13 -4 16 -10z m6224
-75 c-2 -47 -3 -85 -2 -85 1 0 19 11 39 25 66 45 157 26 201 -42 15 -22 19
-53 21 -165 l4 -138 -46 0 -46 0 0 119 c0 103 -3 122 -20 144 -36 45 -102 44
-137 -2 -8 -11 -12 -58 -13 -138 l0 -123 -45 0 -45 0 0 245 0 245 46 0 46 0
-3 -85z m1339 0 c-2 -47 -1 -85 0 -85 2 0 18 10 34 22 17 12 52 23 79 26 120
11 205 -112 170 -246 -31 -115 -159 -167 -250 -103 -36 26 -40 26 -34 1 5 -18
0 -20 -41 -20 l-46 0 0 245 0 245 46 0 45 0 -3 -85z m-2528 -145 l0 -200 75 0
75 0 0 -30 0 -30 -120 0 -120 0 0 230 0 230 45 0 45 0 0 -200z m766 153 l-1
-48 43 -3 c41 -3 42 -4 42 -38 0 -34 0 -34 -45 -34 l-45 0 0 -91 c0 -109 8
-129 55 -129 33 0 35 -2 35 -35 l0 -35 -50 0 c-60 0 -94 15 -109 47 -6 13 -11
73 -11 133 l0 110 -25 0 c-22 0 -25 4 -25 34 0 28 4 35 23 38 19 3 22 10 25
51 l3 47 43 0 42 0 0 -47z m864 -48 l0 -95 100 0 100 0 0 95 0 95 45 0 45 0 0
-230 0 -230 -45 0 -45 0 0 100 0 100 -100 0 -100 0 0 -100 0 -100 -45 0 -45 0
0 230 0 230 45 0 45 0 0 -95z m-6449 -28 c-8 -8 -11 -7 -11 4 0 20 13 34 18
19 3 -7 -1 -17 -7 -23z m5253 8 c44 -30 46 -30 46 -5 0 17 7 20 45 20 l45 0 0
-180 0 -180 -45 0 c-42 0 -45 2 -45 27 l0 26 -22 -21 c-51 -47 -121 -54 -182
-19 -126 71 -110 299 24 350 38 14 98 6 134 -18z m1833 6 c26 -12 52 -35 70
-62 24 -36 28 -53 28 -108 0 -113 -60 -178 -173 -188 -130 -10 -220 93 -197
227 20 119 154 184 272 131z m-1257 -171 l0 -180 -45 0 -45 0 0 180 0 180 45
0 45 0 0 -180z m1970 0 l0 -180 -45 0 -45 0 0 180 0 180 45 0 45 0 0 -180z
m-7790 115 c0 -2 -10 -10 -22 -16 -21 -11 -22 -11 -9 4 13 16 31 23 31 12z
m-6000 -256 c0 -5 -57 -9 -127 -9 -150 0 -161 9 -14 12 56 1 104 5 107 9 6 10
34 0 34 -12z m-290 -9 c10 -7 -21 -9 -95 -8 l-110 2 90 6 c50 3 92 7 95 8 3 1
12 -3 20 -8z m-270 -11 c0 -5 -30 -8 -67 -7 -67 1 -67 1 -18 7 28 3 58 7 68 8
9 1 17 -2 17 -8z m12150 -166 l1 -48 22 28 c22 26 47 36 47 19 0 -5 -9 -17
-20 -27 -25 -23 -25 -33 2 -62 18 -19 19 -23 5 -23 -9 0 -22 9 -29 20 -7 11
-16 20 -20 20 -5 0 -8 -9 -8 -20 0 -11 -4 -20 -10 -20 -6 0 -10 33 -10 80 0
47 4 80 10 80 6 0 10 -21 10 -47z m440 -31 l0 -79 -47 1 c-41 1 -49 5 -61 28
-24 51 33 112 73 78 13 -11 15 -8 15 19 0 17 5 31 10 31 6 0 10 -33 10 -78z
m620 47 c0 -16 5 -18 25 -13 33 8 65 -20 65 -57 0 -41 -23 -58 -75 -57 l-45 1
0 72 c0 39 3 75 6 78 11 11 24 -3 24 -24z m130 16 c0 -8 -4 -15 -9 -15 -13 0
-22 16 -14 24 11 11 23 6 23 -9z m350 -63 l0 -78 -45 -2 c-38 -1 -47 2 -61 23
-33 50 15 112 65 86 19 -11 21 -9 21 19 0 16 5 30 10 30 6 0 10 -33 10 -78z
m520 63 c0 -8 -4 -15 -9 -15 -13 0 -22 16 -14 24 11 11 23 6 23 -9z m-2856 -5
c18 -6 26 -17 26 -33 0 -31 -18 -47 -52 -47 -24 0 -28 -4 -28 -30 0 -16 -4
-30 -10 -30 -6 0 -10 32 -10 75 0 73 1 75 24 75 14 0 36 -4 50 -10z m601 -4
c12 -9 16 -20 12 -36 -3 -13 -2 -32 4 -42 18 -33 -6 -58 -56 -58 l-45 0 0 68
c0 38 3 72 7 75 11 12 58 8 78 -7z m987 -18 c3 -29 7 -33 35 -36 29 -3 32 -1
35 30 6 60 23 34 26 -39 2 -60 0 -73 -13 -73 -10 0 -15 10 -15 30 0 28 -3 30
-35 30 -32 0 -35 -2 -35 -30 0 -16 -4 -30 -10 -30 -6 0 -10 32 -10 75 0 74 16
105 22 43z m488 -43 c0 -43 -4 -75 -10 -75 -6 0 -10 32 -10 75 0 43 4 75 10
75 6 0 10 -32 10 -75z m-1644 56 c-3 -5 4 -12 17 -15 21 -7 21 -8 3 -15 -22
-9 -29 -71 -9 -78 20 -8 15 -23 -7 -23 -20 0 -24 11 -33 80 -5 43 0 60 19 60
9 0 13 -4 10 -9z m609 -1 c-3 -5 1 -10 9 -10 20 0 21 -16 1 -24 -9 -3 -15 -18
-15 -36 0 -18 6 -33 15 -36 22 -9 18 -24 -5 -24 -20 0 -24 11 -33 80 -5 43 0
60 19 60 9 0 12 -4 9 -10z m-973 -65 c2 -30 8 -41 22 -43 24 -5 36 14 36 61 0
20 5 37 10 37 6 0 10 -26 10 -59 l0 -59 -44 2 c-25 1 -48 5 -52 9 -9 9 -14 88
-7 100 10 16 22 -8 25 -48z m174 38 c20 -21 1 -32 -22 -12 -11 9 -18 9 -27 0
-8 -8 -4 -14 21 -23 36 -14 48 -34 31 -54 -12 -15 -37 -18 -63 -8 -28 11 -17
26 14 19 37 -8 41 11 5 25 -31 12 -41 35 -25 55 17 20 45 19 66 -2z m142 -46
l3 -54 -45 -1 c-52 -1 -76 16 -76 55 0 42 26 63 74 59 l41 -4 3 -55z m327 53
c5 -8 11 -8 19 -1 20 16 26 3 26 -54 l0 -52 -50 -2 c-53 -1 -70 14 -70 60 0
42 57 79 75 49z m277 -10 c4 -8 7 -34 7 -56 l1 -41 -45 -1 c-51 -1 -75 16 -75
55 0 40 27 64 69 61 20 -2 39 -10 43 -18z m343 10 c5 -8 11 -8 19 -1 20 16 26
3 26 -54 l0 -52 -50 -2 c-53 -1 -70 14 -70 60 0 42 57 79 75 49z m153 -4 c14
-9 17 -106 2 -106 -5 0 -10 17 -10 39 0 46 -22 70 -45 51 -9 -7 -15 -29 -15
-51 0 -22 -4 -39 -10 -39 -6 0 -10 26 -10 59 l0 59 38 -2 c20 -1 43 -5 50 -10z
m312 -6 c24 -24 25 -48 4 -78 -29 -42 -104 -18 -104 35 0 28 33 63 60 63 11 0
29 -9 40 -20z m190 -40 c0 -33 -4 -60 -10 -60 -6 0 -10 27 -10 60 0 33 4 60
10 60 6 0 10 -27 10 -60z m210 40 c13 -20 13 -100 0 -100 -5 0 -10 15 -10 33
0 41 -21 73 -44 64 -11 -5 -16 -19 -16 -52 0 -33 -4 -45 -15 -45 -11 0 -15 13
-15 53 0 30 2 56 4 58 12 11 88 2 96 -11z m248 4 c26 -18 30 -65 6 -88 -18
-19 -65 -21 -82 -4 -17 17 -15 68 5 90 20 22 42 23 71 2z m130 2 c14 -9 17
-106 2 -106 -5 0 -10 17 -10 39 0 46 -22 70 -45 51 -9 -7 -15 -29 -15 -51 0
-22 -4 -39 -10 -39 -6 0 -10 26 -10 59 l0 59 38 -2 c20 -1 43 -5 50 -10z m122
-6 c34 -34 26 -50 -26 -50 -32 0 -44 -4 -41 -12 2 -8 19 -13 41 -12 37 1 48
-9 20 -20 -64 -25 -113 45 -67 96 21 24 48 23 73 -2z m106 6 c25 -19 12 -31
-15 -14 -15 9 -23 10 -32 1 -9 -9 -3 -15 25 -27 30 -12 37 -20 34 -38 -4 -29
-58 -38 -78 -13 -12 15 -10 16 23 10 45 -9 50 8 7 24 -38 13 -50 39 -25 57 24
18 36 18 61 0z m54 -46 c0 -33 -4 -60 -10 -60 -6 0 -10 27 -10 60 0 33 4 60
10 60 6 0 10 -27 10 -60z m95 50 c5 -8 11 -8 19 -1 19 16 21 8 18 -52 l-4 -54
-40 -1 c-50 -2 -68 11 -68 51 0 49 55 90 75 57z m-3700 -103 c50 -14 126 -32
170 -41 109 -20 235 -68 235 -88 0 -5 -102 -7 -227 -6 l-228 3 -31 60 c-17 33
-34 73 -38 88 -6 25 -4 27 11 19 10 -5 59 -21 108 -35z"/>
<path d="M7740 8790 c-71 -15 -166 -67 -206 -113 -105 -120 -131 -326 -59
-472 56 -116 187 -163 336 -119 111 32 184 98 236 211 35 75 44 220 19 306
-42 144 -172 219 -326 187z"/>
<path d="M6455 8589 c-27 -4 -80 -13 -117 -19 l-68 -12 0 -116 c0 -65 4 -122
8 -129 5 -8 34 -6 112 8 58 10 119 24 137 30 90 29 124 169 53 219 -34 24 -65
29 -125 19z"/>
<path d="M6465 8110 c-22 -4 -73 -13 -114 -20 l-74 -12 5 -129 c3 -71 7 -132
11 -135 10 -10 249 37 289 57 49 25 70 58 76 119 9 101 -62 146 -193 120z"/>
<path d="M5100 8337 c-74 -17 -155 -63 -197 -112 -105 -119 -130 -324 -58
-471 56 -115 187 -161 336 -118 111 32 184 98 236 211 35 75 44 220 19 306
-43 149 -175 221 -336 184z"/>
<path d="M3750 8119 c-25 -4 -60 -11 -78 -14 l-33 -6 3 -144 c2 -79 6 -147 10
-151 4 -4 55 1 112 11 159 27 214 68 224 164 6 65 -3 97 -35 127 -22 21 -35
24 -92 23 -36 -1 -86 -5 -111 -10z"/>
<path d="M11303 7446 c-67 -11 -124 -23 -126 -26 -7 -7 -117 -752 -117 -789 0
-24 6 -31 31 -40 18 -6 39 -11 47 -11 9 0 23 -6 31 -14 9 -8 68 -35 131 -61
63 -25 129 -55 146 -66 43 -26 68 -24 118 11 128 87 246 269 285 440 71 304 5
497 -192 564 -65 22 -201 19 -354 -8z"/>
<path d="M7267 6792 c-129 -23 -148 -29 -152 -47 -10 -45 -57 -396 -54 -400 7
-6 328 53 379 70 67 22 142 91 170 157 17 40 21 65 18 115 -3 56 -8 68 -36 96
-30 29 -37 32 -104 33 -42 1 -135 -9 -221 -24z"/>
<path d="M7170 6029 c-90 -17 -165 -31 -165 -32 -4 -7 -66 -439 -63 -441 11
-9 401 69 445 89 173 78 238 342 98 401 -50 20 -128 16 -315 -17z"/>
<path d="M5300 6415 c-193 -48 -357 -186 -451 -380 -58 -119 -77 -195 -85
-330 -20 -340 184 -494 516 -389 287 90 490 396 490 738 0 168 -54 282 -161
341 -48 26 -65 30 -154 32 -61 1 -121 -3 -155 -12z"/>
<path d="M3257 6090 c-93 -16 -170 -30 -171 -32 -6 -7 -73 -483 -69 -488 6 -6
277 40 338 57 113 33 191 110 227 225 45 148 2 246 -117 261 -23 4 -111 -6
-208 -23z"/>
<path d="M12480 5896 c0 -2 55 -41 123 -86 67 -46 176 -122 242 -169 225 -159
243 -170 253 -158 23 28 111 216 104 221 -5 3 -76 23 -158 46 -82 22 -154 42
-160 45 -6 2 -23 -3 -38 -10 -23 -13 -32 -11 -79 10 -28 14 -57 25 -63 25 -6
0 -22 8 -35 19 -13 10 -55 26 -94 35 -38 9 -76 19 -82 21 -7 2 -13 3 -13 1z"/>
<path d="M17677 5108 c-15 -34 -25 -63 -23 -66 3 -2 22 -1 42 2 l36 7 -6 52
c-4 29 -10 55 -14 59 -4 3 -19 -21 -35 -54z"/>
<path d="M16558 5003 c-16 -2 -28 -7 -28 -11 0 -8 -16 -116 -26 -171 l-5 -34
42 6 c62 8 110 59 116 124 7 71 -24 98 -99 86z"/>
<path d="M15880 4883 c-53 -19 -97 -99 -85 -153 16 -73 118 -61 163 19 50 88
6 164 -78 134z"/>
<path d="M15574 4833 c-20 -4 -34 -36 -34 -78 0 -19 81 -1 97 21 18 24 16 51
-3 58 -16 6 -24 6 -60 -1z"/>
<path d="M15558 4713 c-16 -2 -28 -10 -28 -17 0 -8 -3 -28 -6 -45 -6 -28 -4
-31 19 -31 64 0 116 50 87 85 -12 15 -20 16 -72 8z"/>
<path d="M15280 4783 c-53 -19 -97 -99 -85 -153 16 -73 118 -61 163 19 50 88
6 164 -78 134z"/>
<path d="M14973 4733 c-17 -3 -23 -14 -29 -49 -3 -25 -4 -47 -1 -50 12 -12 72
14 91 39 33 44 4 73 -61 60z"/>
<path d="M8113 3473 c9 -2 25 -2 35 0 9 3 1 5 -18 5 -19 0 -27 -2 -17 -5z"/>
<path d="M6615 3460 c-35 -6 -32 -7 25 -8 36 0 103 3 150 7 l85 8 -110 0 c-60
0 -128 -3 -150 -7z"/>
<path d="M6685 3390 c3 -5 8 -10 11 -10 2 0 4 5 4 10 0 6 -5 10 -11 10 -5 0
-7 -4 -4 -10z"/>
<path d="M6834 3377 c-7 -23 3 -35 12 -13 3 9 15 16 25 16 10 0 19 3 19 8 0
16 -50 6 -56 -11z"/>
<path d="M6953 3379 c-1 -10 4 -22 10 -26 7 -5 -2 -10 -23 -14 -29 -5 -26 -7
23 -8 40 -1 57 3 57 12 0 7 -11 13 -27 12 -14 0 -28 6 -30 13 -3 7 1 10 9 7 8
-3 15 0 15 8 0 21 -33 18 -34 -4z"/>
<path d="M7014 3381 c21 -23 26 -26 26 -11 0 5 -10 15 -22 21 -23 12 -23 12
-4 -10z"/>
<path d="M7079 3371 c-9 -9 -24 -21 -35 -28 -17 -10 -17 -11 5 -6 26 7 65 40
53 46 -4 2 -14 -3 -23 -12z"/>
<path d="M7355 3380 c-4 -7 -16 -9 -27 -7 -13 4 -18 1 -15 -7 3 -8 -10 -12
-41 -14 -41 -2 -44 0 -26 13 18 13 18 14 -6 12 -14 0 -28 -6 -32 -12 -5 -7 -8
-6 -8 2 0 6 -8 9 -18 6 -10 -2 -19 -11 -19 -19 0 -12 45 -14 281 -14 305 0
352 4 361 29 5 13 4 14 -6 4 -15 -15 -83 -18 -74 -3 3 6 2 10 -4 10 -5 0 -13
-5 -16 -11 -5 -6 -12 -4 -21 8 -13 17 -14 17 -7 -2 6 -18 5 -18 -10 -6 -15 12
-20 11 -37 -4 -11 -10 -23 -15 -27 -12 -3 4 0 7 7 7 11 0 11 3 2 12 -8 8 -15
8 -26 -1 -8 -7 -20 -10 -26 -6 -6 4 -18 1 -27 -7 -9 -7 -14 -8 -10 -2 4 7 -2
14 -15 18 -14 3 -26 0 -31 -9 -11 -20 -42 -19 -63 3 -17 16 -18 16 -11 0 9
-24 -2 -23 -23 2 -13 14 -20 17 -25 10z"/>
<path d="M7457 3383 c-4 -3 -7 -11 -7 -17 0 -6 5 -5 12 2 6 6 9 14 7 17 -3 3
-9 2 -12 -2z"/>
<path d="M6495 3370 c3 -5 8 -10 11 -10 2 0 4 5 4 10 0 6 -5 10 -11 10 -5 0
-7 -4 -4 -10z"/>
<path d="M6630 3371 c0 -6 4 -13 10 -16 6 -3 7 1 4 9 -7 18 -14 21 -14 7z"/>
<path d="M6800 3359 c0 -5 5 -7 10 -4 6 3 10 8 10 11 0 2 -4 4 -10 4 -5 0 -10
-5 -10 -11z"/>
<path d="M7814 3359 c-3 -5 7 -9 22 -9 15 0 24 3 20 7 -11 11 -35 12 -42 2z"/>
<path d="M7097 3348 c-6 -4 -9 -9 -7 -12 7 -6 60 5 60 13 0 9 -38 9 -53 -1z"/>
<path d="M4107 3273 c-3 -5 -3 -45 0 -89 l6 -79 110 -112 111 -113 102 0 101
0 6 -77 c4 -43 9 -115 13 -160 l7 -83 53 0 c64 0 73 17 12 22 l-43 3 -12 160
c-6 88 -12 170 -12 183 -1 20 -6 22 -50 22 -44 0 -50 -3 -53 -22 -3 -20 -10
-23 -57 -26 l-54 -3 -102 101 -102 102 -6 81 c-6 76 -18 110 -30 90z"/>
<path d="M4173 3225 c6 -55 10 -62 66 -119 36 -36 61 -70 61 -83 0 -29 25 -46
55 -39 45 11 28 76 -20 76 -12 0 -44 24 -77 58 -52 52 -57 61 -60 106 -2 31
-8 51 -17 54 -11 4 -13 -6 -8 -53z m178 -208 c-1 -12 -15 -9 -19 4 -3 6 1 10
8 8 6 -3 11 -8 11 -12z"/>
<path d="M4858 3273 c12 -2 30 -2 40 0 9 3 -1 5 -23 4 -22 0 -30 -2 -17 -4z"/>
<path d="M4145 3260 c3 -5 8 -10 11 -10 2 0 4 5 4 10 0 6 -5 10 -11 10 -5 0
-7 -4 -4 -10z"/>
<path d="M4253 3263 c26 -2 68 -2 95 0 26 2 4 3 -48 3 -52 0 -74 -1 -47 -3z"/>
<path d="M4413 3263 c9 -2 23 -2 30 0 6 3 -1 5 -18 5 -16 0 -22 -2 -12 -5z"/>
<path d="M4478 3263 c12 -2 30 -2 40 0 9 3 -1 5 -23 4 -22 0 -30 -2 -17 -4z"/>
<path d="M3836 3203 c13 -129 24 -216 27 -220 3 -2 9 3 16 11 9 11 8 17 -4 29
-23 24 -19 46 8 39 19 -5 20 -3 10 10 -10 11 -10 17 0 28 6 7 7 10 1 7 -8 -4
-11 16 -10 66 l1 72 50 6 c45 5 42 6 -28 7 l-77 2 6 -57z m21 -75 c-3 -8 -6
-5 -6 6 -1 11 2 17 5 13 3 -3 4 -12 1 -19z"/>
<path d="M4000 3250 c0 -5 -25 -10 -55 -10 -61 0 -64 -5 -49 -79 6 -30 8 -31
59 -31 54 0 61 -7 40 -40 -8 -13 -7 -13 9 -1 12 10 15 22 11 40 -3 14 -9 37
-12 50 -4 17 -2 22 6 17 6 -4 11 -2 11 3 0 6 -5 11 -11 11 -7 0 -9 10 -5 25 4
14 4 25 1 25 -3 0 -5 -4 -5 -10z"/>
<path d="M4213 3211 l2 -36 53 -3 53 -3 -3 38 -3 38 -53 1 -52 2 3 -37z"/>
<path d="M7820 3230 c-12 -12 -18 -25 -15 -30 3 -4 -11 -22 -31 -38 -35 -29
-37 -34 -40 -99 -1 -37 -6 -99 -10 -138 -6 -66 -9 -72 -50 -110 l-44 -41 -10
-109 c-7 -70 -7 -112 -1 -118 11 -11 17 22 26 138 6 80 6 80 50 119 39 33 45
43 45 76 0 58 8 70 46 70 30 0 34 3 34 25 0 18 5 25 20 25 11 0 20 -7 20 -15
0 -11 12 -15 50 -15 36 0 50 4 50 14 0 10 33 14 153 18 83 3 153 4 155 3 2 -2
-2 -57 -9 -122 -8 -77 -17 -121 -26 -126 -18 -11 -16 -54 3 -61 37 -14 71 33
43 61 -10 10 -2 128 17 241 l5 33 -168 -2 c-138 -1 -168 1 -168 12 0 9 -14 15
-42 17 -33 2 -44 -1 -52 -17 -6 -10 -19 -18 -28 -17 -14 2 -17 10 -15 37 4 37
31 62 69 64 42 2 57 47 22 65 -16 9 -25 8 -40 -6 -10 -9 -19 -22 -19 -29 0 -6
-13 -24 -30 -40 -22 -21 -30 -38 -30 -62 0 -28 -3 -33 -25 -33 -23 0 -24 2
-18 53 4 42 11 57 36 79 18 14 35 24 39 22 14 -9 48 16 48 34 0 19 -18 42 -32
42 -4 0 -17 -9 -28 -20z m35 -30 c-5 -8 -11 -8 -17 -2 -6 6 -7 16 -3 22 5 8
11 8 17 2 6 -6 7 -16 3 -22z m55 -45 c0 -8 -4 -15 -9 -15 -13 0 -22 16 -14 24
11 11 23 6 23 -9z m-110 -170 c0 -9 -9 -15 -25 -15 -16 0 -25 6 -25 15 0 9 9
15 25 15 16 0 25 -6 25 -15z m468 -257 c-6 -18 -28 -21 -28 -4 0 9 7 16 16 16
9 0 14 -5 12 -12z"/>
<path d="M4813 3204 l-28 -25 33 22 c17 13 32 24 32 26 0 8 -11 1 -37 -23z"/>
<path d="M4846 3179 c-44 -35 -33 -101 17 -98 7 0 2 4 -10 9 -18 7 -22 16 -20
42 2 26 9 36 37 50 19 10 28 18 19 18 -9 0 -28 -9 -43 -21z"/>
<path d="M5078 3193 c7 -3 16 -2 19 1 4 3 -2 6 -13 5 -11 0 -14 -3 -6 -6z"/>
<path d="M5973 3155 c0 -27 2 -38 4 -22 2 15 2 37 0 50 -2 12 -4 0 -4 -28z"/>
<path d="M4910 3186 c0 -2 8 -10 18 -17 15 -13 16 -12 3 4 -13 16 -21 21 -21
13z"/>
<path d="M7196 3144 c-10 -77 -8 -126 7 -122 8 3 13 32 15 86 3 88 -11 112
-22 36z"/>
<path d="M7290 3176 c0 -8 10 -17 23 -19 l22 -4 -22 -2 c-27 -1 -32 -31 -5
-32 13 0 12 -2 -5 -9 -13 -5 -23 -12 -23 -15 0 -3 10 -10 23 -15 l22 -9 -22 0
c-29 -1 -31 -31 -2 -31 21 0 21 -2 14 -110 -5 -69 -4 -110 2 -110 10 0 23 99
23 178 0 35 3 42 20 42 25 0 27 30 3 31 -14 0 -13 2 5 9 12 5 22 14 22 20 0 5
-10 10 -22 11 l-23 0 23 9 c12 5 22 14 22 19 0 5 -10 12 -22 14 l-23 4 23 2
c12 0 22 8 22 16 0 11 -12 15 -50 15 -37 0 -50 -4 -50 -14z"/>
<path d="M4952 3133 c-1 -19 -9 -36 -19 -42 -10 -6 -13 -10 -8 -11 25 0 36 19
32 51 l-4 34 -1 -32z"/>
<path d="M5078 3153 c6 -2 18 -2 25 0 6 3 1 5 -13 5 -14 0 -19 -2 -12 -5z"/>
<path d="M5182 3140 c0 -14 2 -19 5 -12 2 6 2 18 0 25 -3 6 -5 1 -5 -13z"/>
<path d="M5252 3130 c0 -19 2 -27 5 -17 2 9 2 25 0 35 -3 9 -5 1 -5 -18z"/>
<path d="M5020 3123 c0 -22 2 -25 10 -13 13 20 13 40 0 40 -5 0 -10 -12 -10
-27z"/>
<path d="M4874 3120 c0 -13 4 -16 10 -10 7 7 7 13 0 20 -6 6 -10 3 -10 -10z"/>
<path d="M5125 3131 c-6 -11 13 -26 22 -17 4 3 1 6 -6 6 -7 0 -9 5 -6 10 3 6
4 10 1 10 -3 0 -7 -4 -11 -9z"/>
<path d="M5390 3126 c7 -7 13 -7 20 0 6 6 3 10 -10 10 -13 0 -16 -4 -10 -10z"/>
<path d="M5451 3124 c0 -11 3 -14 6 -6 3 7 2 16 -1 19 -3 4 -6 -2 -5 -13z"/>
<path d="M5278 3123 c6 -2 18 -2 25 0 6 3 1 5 -13 5 -14 0 -19 -2 -12 -5z"/>
<path d="M5080 3107 c0 -8 7 -14 15 -14 11 0 12 4 4 14 -6 7 -13 13 -15 13 -2
0 -4 -6 -4 -13z"/>
<path d="M4195 3081 c-3 -5 -2 -12 3 -15 5 -3 9 1 9 9 0 17 -3 19 -12 6z"/>
<path d="M4974 3068 l-19 -23 23 19 c21 18 27 26 19 26 -2 0 -12 -10 -23 -22z"/>
<path d="M7467 3034 c-14 -14 -6 -20 28 -20 20 0 34 5 32 11 -4 12 -50 19 -60
9z"/>
<path d="M7688 3023 c7 -3 16 -2 19 1 4 3 -2 6 -13 5 -11 0 -14 -3 -6 -6z"/>
<path d="M7356 2993 c-3 -3 -6 -24 -6 -45 l0 -38 66 0 66 0 -6 -52 c-15 -140
-18 -236 -7 -242 16 -10 91 3 91 16 0 5 -17 8 -37 6 -44 -4 -41 -21 -28 175
l7 117 -67 0 -67 0 7 29 c6 28 -5 48 -19 34z"/>
<path d="M6638 2883 c-1 -60 -1 -125 0 -147 5 -75 51 -129 123 -141 28 -5 37
-10 31 -18 -17 -22 -20 -71 -6 -99 13 -24 13 -28 0 -28 -8 0 -17 4 -20 9 -3 5
-15 7 -27 4 -14 -4 -17 -8 -9 -13 7 -4 13 -19 13 -34 0 -15 5 -26 13 -26 10 0
14 -13 14 -45 l0 -45 -107 0 c-60 0 -114 -4 -121 -8 -13 -9 -18 -102 -27 -536
l-5 -249 348 7 c191 3 429 9 530 12 181 6 182 7 188 30 6 23 10 24 98 24 90 0
94 -1 130 -32 l38 -33 -8 -63 -7 -63 -131 3 c-131 3 -131 3 -133 -20 0 -13 -3
-25 -5 -28 -3 -2 -175 -6 -384 -9 -208 -3 -372 -2 -364 1 8 4 21 12 29 18 11
8 13 8 7 -1 -6 -10 24 -13 135 -13 108 0 140 3 131 12 -11 11 -127 13 -145 1
-6 -3 -7 -1 -3 5 4 7 30 12 57 12 43 0 50 3 47 18 -3 13 -13 17 -41 16 -20 -1
-34 2 -31 7 3 5 15 9 28 9 14 0 27 9 34 23 11 22 11 22 6 -3 -5 -24 -4 -25 47
-21 32 2 49 -1 45 -7 -3 -5 -19 -8 -36 -6 -21 3 -33 -1 -37 -12 -9 -25 3 -28
100 -26 64 2 87 -1 77 -8 -12 -8 -11 -10 8 -10 13 0 20 4 17 10 -3 6 -3 10 2
11 64 6 173 7 177 1 2 -4 -23 -7 -56 -7 -33 0 -62 -3 -64 -6 -2 -4 43 -7 101
-7 87 -1 105 2 105 14 0 8 -4 12 -10 9 -13 -8 -13 -2 3 29 8 14 17 23 20 19 4
-3 7 12 7 35 l0 42 -66 0 c-63 0 -65 -1 -58 -22 6 -19 4 -21 -7 -11 -10 8 -20
9 -29 3 -19 -12 -131 -12 -150 0 -10 6 -5 9 18 8 18 -1 35 2 39 5 3 4 -25 6
-63 6 -38 -1 -58 -4 -44 -6 14 -2 32 -14 39 -26 12 -19 12 -20 0 -11 -8 7 -30
11 -49 11 -20 -1 -43 2 -53 6 -9 3 -17 2 -17 -2 0 -11 -27 -8 -40 5 -5 5 6 9
30 8 22 0 45 4 52 8 15 11 -617 3 -645 -8 -13 -5 -17 -18 -17 -55 l0 -48 -72
-3 -73 -3 -5 -52 c-4 -37 -13 -60 -28 -75 -22 -22 -32 -23 -265 -31 -303 -10
-344 -7 -369 23 -10 12 -18 37 -18 55 0 62 -4 65 -95 65 -45 0 -116 -3 -158
-6 -63 -6 -76 -10 -79 -25 -2 -11 -8 -16 -15 -11 -6 4 -16 59 -22 131 -10 121
-10 124 12 142 12 10 35 21 50 24 30 7 48 39 49 88 1 19 6 27 20 27 22 0 22
-6 -3 60 -23 62 -93 160 -113 160 -29 0 -76 -154 -76 -248 0 -26 -5 -54 -10
-62 -6 -10 -10 -11 -10 -2 0 18 -18 14 -22 -5 -3 -10 -8 27 -12 82 -4 55 -14
128 -22 163 -8 35 -14 65 -14 68 0 2 17 4 38 4 48 0 81 32 58 55 -8 8 -17 29
-21 45 -4 19 -16 35 -29 40 -12 4 -28 15 -35 24 -12 14 -10 14 18 0 18 -9 49
-14 77 -12 66 4 67 24 2 21 -39 -2 -48 0 -33 6 16 8 17 10 4 10 -9 1 -19 7
-22 15 -4 10 0 12 15 8 11 -3 24 1 29 9 12 20 11 31 -2 23 -9 -5 -10 3 -5 30
8 42 -13 51 -32 14 -10 -20 -11 -17 -6 17 7 45 7 44 4 65 -1 11 -4 10 -11 -5
-8 -17 -8 -16 -3 5 10 41 6 64 -12 77 -15 11 -8 13 45 13 84 0 147 -17 170
-46 25 -32 34 -106 21 -173 -11 -61 -8 -74 11 -40 21 39 24 149 5 193 -9 22
-15 40 -14 41 2 1 18 7 36 15 74 29 100 70 66 104 -25 25 -30 23 -70 -29 -9
-11 -13 -15 -9 -8 10 20 -22 83 -47 92 -26 10 -58 -3 -58 -23 0 -7 9 -25 20
-39 24 -30 26 -45 4 -26 -20 16 -170 24 -205 11 -16 -6 -42 -37 -68 -80 -34
-57 -43 -81 -48 -137 -4 -47 -12 -74 -25 -87 -22 -22 -11 -53 22 -63 25 -8 94
-141 77 -148 -7 -2 -45 14 -85 36 l-74 40 7 36 c3 20 9 47 12 60 5 22 3 23
-21 17 -15 -4 -26 -2 -26 4 0 5 5 10 11 10 6 0 8 7 5 16 -3 8 -2 12 4 9 15 -9
12 39 -2 54 -11 11 -9 12 8 7 16 -5 23 0 32 18 10 22 8 26 -10 32 -13 4 -24 1
-29 -7 -5 -8 -9 -9 -9 -4 -1 6 -10 -12 -20 -39 -11 -27 -17 -52 -15 -56 3 -4
1 -38 -4 -76 -11 -86 -6 -95 91 -157 100 -65 102 -68 84 -175 -23 -135 -24
-164 -3 -173 9 -5 25 -13 35 -18 14 -7 19 -30 27 -129 l10 -120 -57 -4 c-32
-2 -58 0 -58 5 0 4 11 17 25 29 14 12 25 27 25 34 0 19 -28 36 -49 29 -17 -5
-21 -14 -19 -46 1 -22 -4 -45 -10 -51 -7 -7 -12 -31 -12 -55 l0 -43 -62 0
c-35 0 -127 -3 -205 -7 l-142 -6 -3 44 c-3 43 -4 44 -42 47 l-39 3 6 -44 6
-45 -67 -6 c-37 -3 -134 -7 -217 -8 l-150 -3 -5 45 c-5 41 -7 45 -30 42 -14
-2 -26 -5 -27 -6 -5 -4 11 -156 17 -166 6 -9 72 -10 291 -1 156 6 316 11 355
11 l72 0 7 -75 c9 -99 28 -100 23 -1 l-3 75 60 5 c33 3 184 8 335 11 151 3
545 12 875 20 330 9 760 19 955 23 l355 8 33 -28 c32 -28 34 -28 171 -28 252
0 621 13 621 22 0 5 -161 6 -377 2 -369 -7 -378 -6 -396 13 -17 20 -16 20 375
27 216 4 396 11 400 14 3 4 10 44 14 90 l7 82 -181 0 -181 0 6 63 5 63 -44 36
c-44 36 -46 37 -144 40 -98 3 -99 3 -101 -20 0 -13 -3 -25 -4 -27 -7 -6 -974
-18 -969 -12 3 4 91 7 195 8 300 4 384 11 400 33 12 16 12 21 0 33 -16 16 -85
14 -97 -2 -5 -6 -8 -5 -8 3 0 8 -12 12 -35 10 -19 -1 -37 1 -40 4 -3 3 -20 2
-38 -2 -18 -4 -41 -3 -52 1 -14 5 -7 8 26 8 25 1 51 7 58 14 10 9 12 9 7 0 -5
-9 14 -12 76 -11 67 0 86 4 101 19 10 11 16 19 15 20 -11 4 -198 3 -198 -1 0
-4 -38 -4 -120 3 -18 1 -25 -3 -24 -15 1 -10 -3 -15 -8 -12 -5 3 -7 12 -5 18
4 9 -8 12 -38 11 -23 -1 -47 -5 -52 -8 -6 -4 -19 0 -29 8 -18 14 -18 14 4 15
12 0 22 6 22 13 0 9 2 9 8 0 5 -8 40 -13 107 -13 172 0 190 2 193 27 3 19 -1
22 -27 18 -19 -2 -31 1 -31 8 0 7 -4 6 -10 -3 -7 -10 -12 -12 -17 -4 -8 12
-48 12 -59 1 -11 -11 -64 -8 -64 4 0 6 6 7 13 2 6 -4 4 5 -6 20 -19 30 -14 36
10 11 13 -13 17 -13 24 -2 5 8 3 14 -6 16 -8 2 -17 13 -21 25 -7 22 -7 22 -16
2 l-8 -20 4 20 c2 11 6 27 10 35 3 8 1 22 -4 30 -9 13 -11 13 -20 0 -5 -8 -11
-19 -13 -25 -3 -5 -8 -7 -12 -3 -4 4 0 14 9 23 9 9 16 20 16 24 0 4 16 13 35
21 19 8 35 18 35 22 0 5 -4 7 -9 3 -5 -3 -13 0 -17 6 -5 9 -11 7 -19 -5 -11
-15 -13 -15 -18 5 -3 11 -3 18 0 15 4 -3 13 0 22 8 16 13 61 28 61 19 0 -2 -4
-12 -10 -22 -8 -16 -5 -18 15 -18 14 0 25 5 25 11 0 8 2 8 8 0 8 -13 82 -14
82 -2 0 5 9 4 19 -1 14 -8 22 -7 29 2 15 17 2 33 -28 35 -14 0 -27 7 -29 13
-2 7 -10 -1 -17 -17 -9 -19 -13 -22 -10 -8 2 13 -2 21 -10 21 -8 0 -14 -4 -14
-9 0 -5 -12 -6 -27 -3 -16 4 -41 7 -58 8 -16 1 -36 7 -42 14 -18 16 -16 28 1
14 8 -6 18 -11 22 -10 5 1 14 0 19 -1 30 -6 121 3 127 13 6 9 8 9 8 0 0 -7 5
-13 10 -13 6 0 10 7 10 15 0 20 -42 37 -52 21 -6 -8 -8 -8 -8 1 0 15 -71 5
-82 -11 -6 -8 -8 -8 -8 0 0 15 -28 26 -43 17 -13 -8 -75 -8 -83 0 -3 3 12 5
33 4 21 -1 44 2 50 6 7 5 21 3 31 -2 11 -6 22 -8 24 -5 13 12 105 12 124 -1
18 -11 27 -12 48 -2 14 7 26 14 26 17 -1 18 -31 39 -61 43 -28 3 -26 4 14 5
36 2 47 6 47 18 0 12 -7 15 -25 12 -24 -5 -25 -3 -24 36 1 22 3 33 6 23 6 -25
39 -13 79 28 17 18 41 36 53 40 23 7 55 -11 45 -26 -3 -5 -1 -16 4 -25 8 -14
12 -12 30 11 12 15 26 24 32 20 5 -3 10 1 10 10 0 13 4 14 21 4 15 -8 19 -8
15 0 -5 7 2 11 18 11 14 0 28 -5 31 -10 4 -6 12 -8 18 -4 7 3 5 0 -3 -8 -8 -7
-14 -23 -12 -36 3 -20 6 -21 20 -10 9 7 13 8 9 2 -13 -21 53 -27 121 -10 17 4
25 -1 33 -17 9 -20 9 -20 6 6 -3 15 0 30 4 33 12 7 11 -53 -1 -76 -7 -13 -7
-21 2 -26 6 -4 8 -3 4 4 -3 6 -2 13 4 17 5 3 10 32 9 63 0 31 -3 51 -6 45 -8
-21 -22 -15 -16 7 3 11 9 18 13 15 4 -3 10 1 13 8 3 9 -14 11 -72 10 -42 -1
-229 -3 -416 -4 -187 -1 -345 -6 -351 -10 -7 -6 -7 6 0 41 5 28 15 50 22 50
17 0 24 49 9 58 -8 4 -15 30 -16 59 -5 87 46 120 103 66 37 -35 49 -21 14 16
-20 21 -24 30 -14 34 7 3 -3 3 -22 -1 -61 -12 -137 -7 -165 12 -55 36 -65 68
-65 219 0 166 -19 192 -22 30z m-1527 -537 c-9 -18 -18 -29 -19 -24 -4 8 24
58 32 58 2 0 -4 -15 -13 -34z m2179 -67 c0 -21 -16 -34 -25 -19 -3 5 -1 10 6
10 8 0 9 4 0 13 -8 10 -7 14 4 14 8 0 15 -8 15 -18z m190 -10 c0 -6 -4 -7 -10
-4 -5 3 -10 11 -10 16 0 6 5 7 10 4 6 -3 10 -11 10 -16z m94 -14 c3 -8 1 -15
-4 -15 -6 0 -10 7 -10 15 0 8 2 15 4 15 2 0 6 -7 10 -15z m-2377 -27 c-3 -7
-5 -2 -5 12 0 14 2 19 5 13 2 -7 2 -19 0 -25z m1628 22 c-11 -5 -29 -8 -40 -8
-16 0 -15 2 5 8 34 11 60 11 35 0z m88 -21 c18 -19 24 -69 8 -69 -5 0 -17 3
-26 6 -14 6 -14 8 0 24 21 23 9 50 -22 50 -13 0 -22 4 -18 10 7 12 35 2 58
-21z m50 24 c-7 -2 -21 -2 -30 0 -10 3 -4 5 12 5 17 0 24 -2 18 -5z m63 -4 c4
-8 9 -8 17 0 6 6 15 11 20 11 5 0 1 -7 -7 -16 -10 -10 -14 -25 -11 -42 4 -20
1 -17 -11 11 -9 20 -19 37 -23 37 -5 0 -14 -18 -21 -41 -19 -58 -48 -71 -34
-14 5 20 9 23 15 13 7 -10 9 -10 10 2 1 8 1 19 0 24 -2 9 18 26 31 26 4 0 10
-5 14 -11z m-239 -91 c-2 -13 -4 -3 -4 22 0 25 2 35 4 23 2 -13 2 -33 0 -45z
m55 22 c-2 -22 -8 -40 -13 -40 -5 0 -9 18 -9 40 0 26 5 40 13 40 9 0 11 -12 9
-40z m-285 -301 c-5 -233 -4 -326 4 -335 9 -11 8 -14 -6 -14 -17 0 -18 13 -12
203 4 111 7 262 7 335 0 72 3 132 7 132 3 0 3 -145 0 -321z m463 281 c0 -5 -4
-10 -10 -10 -5 0 -10 5 -10 10 0 6 5 10 10 10 6 0 10 -4 10 -10z m-76 -20 c27
0 47 -2 44 -5 -5 -5 -32 -6 -120 -4 -14 0 -15 3 -5 14 7 8 16 10 22 4 5 -5 31
-9 59 -9z m-235 -84 c13 -16 -10 -41 -31 -33 -8 4 -7 6 5 6 20 1 23 31 2 31
-7 0 -19 -8 -24 -17 -6 -10 -11 -13 -11 -7 0 13 21 34 36 34 6 0 17 -6 23 -14z
m140 -51 c0 -5 -6 -1 -14 9 -8 11 -15 24 -15 30 0 5 7 1 15 -10 8 -10 14 -23
14 -29z m-39 16 c0 -12 -35 -20 -51 -11 -8 6 -3 10 17 13 16 2 30 5 32 6 1 0
2 -3 2 -8z m-73 -7 c-3 -3 -12 -4 -19 -1 -8 3 -5 6 6 6 11 1 17 -2 13 -5z m27
-45 c-3 -5 -10 -7 -15 -3 -5 3 -7 10 -3 15 3 5 10 7 15 3 5 -3 7 -10 3 -15z
m-119 -59 c-3 -5 -14 -10 -23 -10 -15 0 -15 2 -2 10 20 13 33 13 25 0z m82 -9
c-1 -15 -4 -17 -19 -8 -13 8 -14 13 -5 19 19 12 26 9 24 -11z m-88 -25 c9 -11
9 -16 0 -22 -7 -4 -9 -3 -5 4 3 6 -2 15 -11 21 -10 6 -13 11 -7 11 6 0 17 -6
23 -14z m81 -50 c0 -8 -5 -18 -12 -22 -7 -5 -9 -2 -5 9 3 9 1 18 -6 21 -7 2
-4 5 6 5 9 1 17 -5 17 -13z m105 5 c3 -5 1 -12 -5 -16 -5 -3 -10 1 -10 9 0 18
6 21 15 7z m-1425 -126 c4 -5 4 -21 0 -35 -6 -22 -7 -21 -13 15 -4 22 -9 51
-12 65 -4 19 -3 18 6 -5 7 -16 15 -34 19 -40z m1438 52 c8 -10 -2 -13 -46 -15
-31 -1 -63 2 -70 6 -7 5 10 7 43 4 37 -3 55 -1 55 7 0 14 5 14 18 -2z m-154
-13 c9 -3 16 -13 16 -22 0 -13 -3 -12 -15 4 -15 19 -15 19 -30 0 -8 -11 -15
-15 -15 -10 0 9 20 34 26 34 1 0 9 -3 18 -6z m266 -29 c0 -5 -5 -3 -10 5 -5 8
-10 20 -10 25 0 6 5 3 10 -5 5 -8 10 -19 10 -25z m-249 -51 c-5 -16 -10 -21
-10 -12 -1 18 10 51 15 45 2 -1 -1 -16 -5 -33z m59 -30 c0 -8 -19 -13 -24 -6
-3 5 1 9 9 9 8 0 15 -2 15 -3z m60 -8 c-7 -7 -14 -6 -21 1 -9 9 -7 12 9 10 14
-1 18 -5 12 -11z m40 10 c0 -3 -4 -8 -10 -11 -5 -3 -10 -1 -10 4 0 6 5 11 10
11 6 0 10 -2 10 -4z m-1586 -83 c2 -10 7 -62 11 -115 l7 -97 -39 -3 c-33 -3
-38 -6 -35 -25 3 -24 -4 -28 -27 -14 -8 5 -9 11 -3 15 6 3 6 23 2 48 -10 55
-12 165 -5 189 9 26 81 27 89 2z m2275 -91 c6 -12 5 -23 -6 -37 -15 -19 -15
-18 -9 14 5 27 3 32 -10 27 -8 -3 -12 -2 -9 4 9 15 23 12 34 -8z m-559 -2 c0
-8 -88 -5 -96 3 -2 2 18 4 46 4 27 1 50 -3 50 -7z m54 1 c-9 -9 -34 -9 -34 -1
0 5 9 8 20 7 10 -1 17 -3 14 -6z m413 -41 c2 -2 8 2 12 9 6 9 10 5 15 -14 4
-15 5 -30 1 -33 -3 -3 -5 2 -5 10 0 18 -43 33 -49 17 -2 -8 -5 -8 -10 0 -5 7
-18 8 -37 3 -33 -9 -64 -5 -64 9 0 5 3 8 8 8 4 -1 26 -1 50 0 36 1 42 4 42 23
0 22 0 22 17 -2 9 -14 18 -27 20 -30z m-910 8 c-3 -7 -5 -2 -5 12 0 14 2 19 5
13 2 -7 2 -19 0 -25z m140 12 c3 -10 2 -11 -4 -4 -4 6 -15 14 -23 17 -11 5 -9
6 4 4 11 -1 21 -9 23 -17z m126 13 c-7 -2 -19 -2 -25 0 -7 3 -2 5 12 5 14 0
19 -2 13 -5z m65 -24 c-3 -8 -7 -3 -11 10 -4 17 -3 21 5 13 5 -5 8 -16 6 -23z
m-171 -1 c-3 -8 -6 -5 -6 6 -1 11 2 17 5 13 3 -3 4 -12 1 -19z m556 -10 c-2
-5 -24 -8 -49 -8 -25 0 -43 3 -41 8 3 4 25 7 50 7 25 0 43 -3 40 -7z m-2202
-21 c-13 -13 -26 -3 -16 12 3 6 11 8 17 5 6 -4 6 -10 -1 -17z m1689 8 c0 -12
-19 -12 -23 0 -4 9 -1 12 9 8 7 -3 14 -7 14 -8z m22 -7 c-7 -7 -12 -8 -12 -2
0 14 12 26 19 19 2 -3 -1 -11 -7 -17z m208 12 c0 -4 -34 -8 -75 -9 -41 -1 -75
2 -75 7 0 4 34 9 75 9 41 0 75 -3 75 -7z m-163 -6 c-3 -3 -12 -4 -19 -1 -8 3
-5 6 6 6 11 1 17 -2 13 -5z m-110 -26 c-3 -8 -6 -5 -6 6 -1 11 2 17 5 13 3 -3
4 -12 1 -19z m70 -50 c-16 -10 -247 -10 -247 0 0 4 58 7 130 7 71 0 124 -3
117 -7z"/>
<path d="M6906 2191 c-4 -7 -5 -15 -2 -18 9 -9 19 4 14 18 -4 11 -6 11 -12 0z"/>
<path d="M6893 2853 c-5 -76 -8 -140 -7 -141 1 -2 8 7 15 20 7 13 15 73 17
141 6 167 -13 151 -25 -20z"/>
<path d="M6217 2933 c-2 -27 -4 -113 -3 -193 l1 -145 97 2 c72 1 108 7 142 22
55 24 61 35 9 17 -21 -7 -80 -16 -130 -19 l-93 -7 0 185 c0 103 -4 185 -9 185
-5 0 -11 -21 -14 -47z"/>
<path d="M5390 2843 c0 -71 3 -159 7 -197 l6 -68 101 4 c95 4 156 20 156 40 0
5 -10 3 -22 -3 -13 -7 -67 -14 -120 -17 l-98 -5 0 80 c0 126 -12 293 -22 293
-4 0 -8 -57 -8 -127z"/>
<path d="M7064 2934 c-28 -66 2 -116 97 -164 21 -11 45 -30 53 -42 14 -19 16
-20 22 -5 9 23 -8 40 -72 76 -70 40 -88 68 -82 126 3 25 4 45 1 45 -2 0 -11
-16 -19 -36z"/>
<path d="M4357 2943 c-35 -9 -10 -28 41 -31 47 -3 52 -1 52 17 0 18 -6 21 -37
20 -21 -1 -46 -3 -56 -6z"/>
<path d="M7182 2938 c-19 -19 -14 -36 13 -54 31 -20 55 -12 55 18 0 17 3 19
12 10 15 -15 38 -16 38 -1 0 12 -61 39 -88 39 -10 0 -23 -5 -30 -12z"/>
<path d="M4820 2936 c0 -2 8 -10 18 -17 15 -13 16 -12 3 4 -13 16 -21 21 -21
13z"/>
<path d="M7633 2933 c-18 -2 -33 -10 -33 -16 0 -8 17 -11 55 -9 39 3 55 8 55
18 0 14 -11 15 -77 7z"/>
<path d="M3871 2895 c-1 -54 8 -85 26 -85 13 0 13 3 3 15 -10 12 -9 16 2 20
15 6 17 32 4 53 -4 7 -11 10 -16 7 -5 -3 -11 3 -13 12 -3 10 -5 0 -6 -22z"/>
<path d="M5759 2893 c-20 -31 -24 -51 -24 -115 0 -70 2 -79 31 -115 67 -83
182 -110 273 -64 53 27 53 34 0 16 -183 -65 -345 95 -269 264 26 56 19 64 -11
14z"/>
<path d="M4938 2898 c-8 -13 -18 -32 -22 -42 -6 -18 -9 -17 -36 9 -21 20 -30
24 -30 14 0 -9 11 -26 24 -38 18 -17 25 -36 28 -81 8 -110 89 -190 199 -198
64 -5 136 16 161 45 11 14 8 14 -21 -1 -59 -31 -131 -32 -193 -3 -112 51 -156
174 -101 280 18 35 11 46 -9 15z"/>
<path d="M5507 2914 c-11 -12 3 -24 27 -24 27 0 51 -24 40 -41 -4 -7 -2 -10 7
-7 24 8 22 45 -3 62 -23 16 -59 21 -71 10z"/>
<path d="M5934 2912 c-12 -2 -30 -13 -40 -24 -19 -21 -19 -21 3 -9 66 34 143
-13 143 -89 0 -23 -5 -50 -10 -61 -6 -11 -7 -19 -1 -19 18 0 43 72 37 108 -9
60 -72 104 -132 94z"/>
<path d="M8437 2913 c-4 -3 -7 -11 -7 -17 0 -6 5 -5 12 2 6 6 9 14 7 17 -3 3
-9 2 -12 -2z"/>
<path d="M6340 2901 c0 -4 19 -11 42 -14 71 -9 109 -78 78 -137 -8 -16 -8 -18
5 -14 8 3 19 22 25 42 12 44 -11 100 -50 119 -29 14 -100 17 -100 4z"/>
<path d="M4660 2886 c0 -11 9 -16 29 -16 34 0 55 -22 48 -49 -3 -14 -1 -18 9
-14 18 7 18 57 0 72 -8 7 -30 15 -50 18 -29 4 -36 2 -36 -11z"/>
<path d="M5065 2875 c-14 -13 -25 -29 -25 -34 0 -6 11 1 25 14 29 30 59 31
103 5 49 -30 63 -86 38 -155 -7 -17 -5 -17 13 4 15 17 21 37 21 73 0 44 -4 54
-34 84 -44 44 -103 48 -141 9z"/>
<path d="M8382 2855 c0 -16 2 -22 5 -12 2 9 2 23 0 30 -3 6 -5 -1 -5 -18z"/>
<path d="M4672 2830 c0 -19 2 -27 5 -17 2 9 2 25 0 35 -3 9 -5 1 -5 -18z"/>
<path d="M4204 2815 c-5 -12 -33 -15 -164 -15 -88 0 -161 -4 -164 -9 -4 -5 -2
-20 3 -33 7 -16 10 -18 10 -6 1 15 19 17 154 20 111 2 156 0 168 -9 21 -17 33
-16 52 5 15 16 15 20 1 40 -17 25 -52 29 -60 7z m46 -25 c0 -5 -7 -10 -15 -10
-8 0 -15 5 -15 10 0 6 7 10 15 10 8 0 15 -4 15 -10z"/>
<path d="M5033 2785 c0 -22 2 -30 4 -17 2 12 2 30 0 40 -3 9 -5 -1 -4 -23z"/>
<path d="M5353 2780 c0 -25 2 -35 4 -22 2 12 2 32 0 45 -2 12 -4 2 -4 -23z"/>
<path d="M8370 2765 c0 -19 2 -35 4 -35 2 0 6 16 8 35 2 19 0 35 -4 35 -4 0
-8 -16 -8 -35z"/>
<path d="M4829 2773 c-13 -16 -12 -17 4 -4 16 13 21 21 13 21 -2 0 -10 -8 -17
-17z"/>
<path d="M5507 2764 c-12 -12 4 -24 32 -24 33 0 56 -23 47 -46 -4 -10 -1 -14
6 -12 24 8 21 55 -4 72 -23 16 -69 22 -81 10z"/>
<path d="M4790 2752 c0 -5 12 -19 28 -33 l27 -24 -23 26 c-12 14 -19 29 -15
32 3 4 1 7 -5 7 -7 0 -12 -4 -12 -8z"/>
<path d="M4137 2720 c-136 -4 -249 -9 -252 -12 -2 -2 0 -20 5 -39 6 -18 11
-54 12 -79 l1 -45 6 50 c3 28 3 52 -1 53 -5 2 -8 12 -8 23 0 18 9 19 143 19
79 0 198 3 264 6 l120 7 9 -113 9 -113 116 -46 c77 -31 119 -53 125 -66 12
-26 62 -33 71 -9 10 26 -11 49 -45 50 -16 1 -77 20 -135 43 l-106 43 -6 66
c-16 184 -13 172 -48 170 -18 -1 -143 -4 -280 -8z m594 -353 c-13 -13 -26 -3
-16 12 3 6 11 8 17 5 6 -4 6 -10 -1 -17z"/>
<path d="M4670 2718 c0 -7 27 -46 61 -86 l60 -72 54 2 c66 4 67 22 2 26 -45 3
-50 6 -103 73 -55 67 -74 82 -74 57z"/>
<path d="M7050 2670 c0 -46 2 -51 28 -61 42 -16 158 -7 179 14 17 17 17 18
-10 8 -35 -14 -117 -14 -151 -1 -21 8 -26 16 -26 44 0 19 -4 38 -10 41 -6 4
-10 -13 -10 -45z"/>
<path d="M4855 2670 c10 -11 20 -20 23 -20 3 0 -3 9 -13 20 -10 11 -20 20 -23
20 -3 0 3 -9 13 -20z"/>
<path d="M4682 2650 c0 -14 2 -19 5 -12 2 6 2 18 0 25 -3 6 -5 1 -5 -13z"/>
<path d="M8360 2620 c0 -5 7 -7 15 -4 8 4 15 8 15 10 0 2 -7 4 -15 4 -8 0 -15
-4 -15 -10z"/>
<path d="M3993 2589 c-7 -7 -13 -21 -13 -31 0 -15 7 -17 40 -15 36 3 40 1 40
-19 0 -22 15 -24 97 -15 6 0 14 9 16 19 4 16 5 16 6 0 2 -26 41 -24 41 1 0 27
-8 30 -60 22 -61 -10 -110 4 -110 29 0 27 -17 25 -26 -2 l-8 -23 -5 23 c-5 18
-8 21 -18 11z"/>
<path d="M7442 2548 c-1 -9 -9 -15 -19 -13 -10 1 -13 0 -6 -2 6 -2 13 -21 15
-41 3 -33 6 -37 33 -39 19 -1 22 1 8 4 -19 4 -23 12 -26 56 -2 29 -4 45 -5 35z"/>
<path d="M7530 2528 c-6 -69 -5 -73 15 -76 13 -2 16 0 8 5 -6 5 -13 31 -16 58
-3 46 -4 47 -7 13z"/>
<path d="M7580 2523 c-1 -24 -3 -49 -4 -55 -1 -9 16 -13 52 -14 l53 -1 -28 29
c-28 29 -55 40 -32 12 10 -13 10 -17 -2 -25 -24 -15 -28 -10 -32 44 -3 52 -3
52 -7 10z"/>
<path d="M7652 2535 c0 -16 2 -22 5 -12 2 9 2 23 0 30 -3 6 -5 -1 -5 -18z"/>
<path d="M6880 2538 c0 -5 9 -12 21 -15 17 -5 20 -11 15 -39 -4 -18 -2 -35 4
-39 17 -10 11 -25 -10 -25 -27 0 -29 -56 -2 -63 16 -4 16 -5 0 -6 -10 0 -18
-8 -18 -17 0 -10 6 -14 14 -11 8 3 16 1 18 -4 2 -6 18 -2 38 8 35 17 35 17 10
23 -25 6 -25 6 -2 12 30 8 32 58 2 58 -11 0 -20 7 -20 15 0 8 -4 15 -10 15 -5
0 -10 17 -10 38 0 30 -5 39 -25 49 -16 7 -25 7 -25 1z"/>
<path d="M7032 2498 c3 -48 5 -53 28 -55 22 -2 22 -2 5 6 -16 6 -19 16 -16 54
1 30 -2 47 -9 47 -7 0 -10 -18 -8 -52z"/>
<path d="M7140 2512 c0 -42 23 -72 56 -72 16 0 15 2 -6 13 -20 10 -26 21 -28
55 -4 53 -22 56 -22 4z"/>
<path d="M7210 2518 c0 -36 4 -35 14 5 4 16 2 27 -4 27 -5 0 -10 -14 -10 -32z"/>
<path d="M7330 2540 c0 -6 7 -10 15 -10 11 0 15 -11 15 -40 0 -30 4 -40 16
-40 12 0 14 3 6 13 -6 7 -10 26 -9 41 1 21 -4 30 -20 37 -14 5 -23 5 -23 -1z"/>
<path d="M6561 2494 c-11 -43 -9 -64 7 -64 4 0 8 25 9 55 0 30 0 55 -2 55 -1
0 -8 -20 -14 -46z"/>
<path d="M7250 2531 c0 -12 40 -51 52 -51 12 0 10 3 -22 33 -16 16 -30 24 -30
18z"/>
<path d="M7290 2536 c0 -2 7 -6 15 -10 8 -3 15 -1 15 4 0 6 -7 10 -15 10 -8 0
-15 -2 -15 -4z"/>
<path d="M3913 2495 c0 -22 2 -30 4 -17 2 12 2 30 0 40 -3 9 -5 -1 -4 -23z"/>
<path d="M6470 2514 c0 -13 47 -50 54 -43 2 2 -9 16 -25 30 -18 17 -29 22 -29
13z"/>
<path d="M6515 2520 c3 -5 11 -10 16 -10 6 0 7 5 4 10 -3 6 -11 10 -16 10 -6
0 -7 -4 -4 -10z"/>
<path d="M6845 2520 c3 -5 8 -10 11 -10 2 0 4 5 4 10 0 6 -5 10 -11 10 -5 0
-7 -4 -4 -10z"/>
<path d="M7079 2521 c7 -5 17 -15 22 -22 6 -10 9 -8 9 9 0 16 -6 22 -22 22
-17 0 -19 -3 -9 -9z"/>
<path d="M6700 2489 c-7 -11 -10 -23 -7 -25 2 -2 9 7 15 21 14 30 7 33 -8 4z"/>
<path d="M6740 2496 c0 -9 5 -16 10 -16 6 0 10 4 10 9 0 6 -4 13 -10 16 -5 3
-10 -1 -10 -9z"/>
<path d="M7475 2500 c-3 -5 1 -10 10 -10 9 0 13 5 10 10 -3 6 -8 10 -10 10 -2
0 -7 -4 -10 -10z"/>
<path d="M5990 2480 c-203 -5 -242 -12 -269 -44 -16 -19 14 -20 372 -9 217 6
226 7 211 24 -15 17 -42 26 -89 32 -11 1 -112 0 -225 -3z m77 -26 c-3 -3 -12
-4 -19 -1 -8 3 -5 6 6 6 11 1 17 -2 13 -5z"/>
<path d="M6590 2484 c0 -14 27 -50 33 -44 3 3 -3 16 -13 30 -11 14 -20 20 -20
14z"/>
<path d="M6651 2468 c-1 -25 2 -28 32 -27 28 1 29 2 8 8 -13 3 -28 15 -32 26
-6 17 -8 16 -8 -7z"/>
<path d="M6830 2484 c0 -12 38 -50 44 -43 2 2 -7 15 -20 29 -13 13 -24 20 -24
14z"/>
<path d="M4130 2471 c0 -4 -13 -7 -30 -5 -32 4 -43 -6 -34 -30 8 -22 25 -20
18 2 -5 15 -4 15 5 1 8 -13 29 -16 118 -14 100 1 108 2 109 20 1 31 -4 34 -36
25 -18 -5 -30 -5 -30 1 0 5 -9 9 -20 9 -11 0 -20 -4 -20 -8 0 -10 -46 -10 -56
1 -10 10 -24 9 -24 -2z m155 -21 c3 -5 1 -10 -4 -10 -6 0 -11 5 -11 10 0 6 2
10 4 10 3 0 8 -4 11 -10z"/>
<path d="M7250 2465 c0 -8 2 -15 4 -15 2 0 11 -3 20 -6 23 -9 20 9 -4 24 -17
10 -20 10 -20 -3z"/>
<path d="M6472 2455 c2 -14 12 -21 33 -22 18 -1 22 1 10 4 -11 3 -25 13 -33
22 -12 14 -13 14 -10 -4z"/>
<path d="M3923 2400 c0 -25 2 -35 4 -22 2 12 2 32 0 45 -2 12 -4 2 -4 -23z"/>
<path d="M6360 2421 c0 -6 9 -11 20 -11 27 0 25 -16 -2 -25 -42 -12 -713 -19
-734 -7 -18 11 -18 11 3 12 12 0 25 5 28 11 5 7 -3 9 -21 7 -23 -2 -29 -8 -29
-28 0 -20 6 -25 40 -32 43 -9 684 7 723 18 32 9 27 58 -5 62 -13 2 -23 -1 -23
-7z"/>
<path d="M7835 2400 c-225 -4 -448 -8 -495 -9 -82 -2 -87 -3 -124 -36 -22 -19
-36 -38 -33 -41 3 -4 22 7 42 25 l36 31 127 1 c586 7 922 15 925 24 3 13 5 13
-478 5z"/>
<path d="M4070 2370 c0 -27 3 -30 31 -30 24 0 30 3 25 16 -3 9 -6 20 -6 26 0
6 -7 8 -15 4 -8 -3 -15 -1 -15 4 0 6 -4 10 -10 10 -5 0 -10 -13 -10 -30z"/>
<path d="M3933 2305 c0 -27 2 -38 4 -22 2 15 2 37 0 50 -2 12 -4 0 -4 -28z"/>
<path d="M4092 2311 c-8 -4 -12 -19 -10 -32 2 -19 8 -23 28 -21 14 1 40 2 59
2 29 -1 33 2 28 20 -3 11 -1 18 4 14 5 -3 9 -12 9 -20 0 -14 20 -21 20 -6 0 4
3 16 6 28 5 18 1 21 -30 22 -19 1 -38 -3 -41 -8 -3 -5 -13 -6 -21 -3 -10 4
-17 -2 -21 -16 -3 -11 -9 -21 -15 -21 -5 0 -4 8 2 19 17 32 10 40 -18 22z"/>
<path d="M5860 2310 c-168 -4 -306 -7 -307 -8 -2 -1 -3 -18 -3 -37 0 -30 3
-35 24 -35 18 0 26 -6 28 -22 3 -21 8 -23 97 -25 52 -1 100 1 105 5 6 4 73 7
148 7 76 0 138 3 138 7 0 3 28 7 62 7 39 0 64 5 69 13 6 9 9 6 9 -9 0 -23 10
-29 24 -15 4 4 38 8 74 9 37 1 75 2 85 2 10 1 17 9 17 21 0 15 7 20 25 20 22
0 25 4 25 35 l0 35 -157 -2 c-87 -1 -295 -5 -463 -8z"/>
<path d="M5322 2298 c5 -15 58 -24 58 -10 0 11 -24 22 -47 22 -8 0 -13 -6 -11
-12z"/>
<path d="M7217 2273 c-4 -3 -7 -11 -7 -17 0 -6 5 -5 12 2 6 6 9 14 7 17 -3 3
-9 2 -12 -2z"/>
<path d="M5322 2239 c-11 -28 -5 -52 12 -46 15 5 20 47 7 60 -7 7 -13 3 -19
-14z"/>
<path d="M7337 2253 c-29 -3 -42 -11 -57 -35 l-18 -30 -7 31 c-7 33 -25 43
-25 14 0 -15 -1 -15 -18 0 -10 10 -28 17 -40 17 -19 0 -22 -6 -22 -44 0 -50
-8 -78 -20 -71 -5 3 -11 1 -14 -4 -12 -18 15 -23 28 -5 7 9 17 14 23 11 6 -4
8 3 6 17 -4 17 1 27 16 35 12 7 21 10 21 9 0 -2 -4 -19 -10 -38 l-9 -35 23 29
c23 28 24 28 35 9 6 -12 17 -23 26 -27 13 -4 14 -2 5 14 -15 28 -12 32 9 11
22 -22 68 -22 82 0 6 10 9 10 9 2 0 -7 7 -13 15 -13 19 0 19 9 -2 32 -15 17
-15 19 0 36 17 19 23 42 11 42 -4 0 -13 -8 -21 -17 -14 -17 -14 -17 -9 0 3 9
4 16 3 15 -1 -1 -19 -3 -40 -5z m-147 -33 c0 -5 -5 -10 -11 -10 -5 0 -7 5 -4
10 3 6 8 10 11 10 2 0 4 -4 4 -10z m148 -23 c3 -22 -1 -27 -17 -27 -15 0 -21
6 -21 23 0 46 33 49 38 4z"/>
<path d="M8060 2232 l-225 -2 -51 -51 -52 -51 -7 -103 -7 -103 -43 -31 c-24
-17 -50 -31 -59 -31 -9 0 -16 -4 -16 -10 0 -21 38 -9 87 27 49 37 51 40 57 97
3 32 6 80 6 107 0 44 3 50 49 88 l49 41 220 0 c126 0 223 4 227 9 3 5 2 11 -2
13 -5 2 -109 2 -233 0z"/>
<path d="M3943 2195 c0 -22 2 -30 4 -17 2 12 2 30 0 40 -3 9 -5 -1 -4 -23z"/>
<path d="M7500 2199 c0 -6 -6 -9 -14 -6 -7 3 -19 0 -26 -6 -10 -9 -14 -9 -17
1 -6 17 -33 15 -33 -3 0 -20 32 -35 59 -28 17 4 20 2 15 -11 -3 -9 -1 -16 4
-16 6 0 12 -10 14 -22 2 -17 9 -22 23 -20 27 5 29 8 20 29 -7 17 -8 17 -14 -1
-5 -14 -10 -16 -15 -8 -11 18 2 32 29 32 29 0 42 18 20 26 -10 4 -15 14 -12
25 3 11 1 19 -4 19 -5 0 -9 -5 -9 -10 0 -7 -6 -7 -20 0 -15 8 -20 8 -20 -1z"/>
<path d="M7570 2196 c0 -9 5 -16 10 -16 6 0 10 4 10 9 0 6 -4 13 -10 16 -5 3
-10 -1 -10 -9z"/>
<path d="M4464 2160 c-5 -5 -115 -12 -244 -16 -275 -7 -273 -7 -278 -24 -4
-10 30 -12 174 -6 297 10 332 10 348 -3 19 -16 46 -11 59 11 20 31 -32 65 -59
38z m37 -23 c-1 -12 -15 -9 -19 4 -3 6 1 10 8 8 6 -3 11 -8 11 -12z"/>
<path d="M4660 2155 c-6 -8 -9 -18 -6 -24 5 -8 -56 -71 -69 -71 -3 0 -13 5
-23 11 -19 12 -596 -2 -609 -15 -3 -3 -4 -9 0 -12 3 -4 138 -2 299 3 174 6
297 6 303 1 6 -6 -1 -19 -20 -35 -26 -23 -30 -33 -30 -77 l0 -51 -245 -10
c-221 -9 -245 -12 -248 -27 -2 -10 -12 -18 -23 -18 -10 0 -19 -4 -19 -10 0 -5
9 -10 20 -10 15 0 20 -7 20 -25 0 -16 -6 -25 -15 -25 -8 0 -15 -4 -15 -10 0
-5 9 -10 20 -10 12 0 20 -7 20 -16 0 -15 25 -16 273 -10 149 3 266 3 260 0
-13 -6 -18 -98 -8 -126 6 -14 81 -14 333 -2 l122 6 0 57 c0 64 -11 80 -55 82
-26 2 -25 3 10 8 l40 6 -3 70 c-2 38 -5 72 -8 74 -2 2 -74 3 -160 2 -142 -2
-156 -1 -144 14 11 13 10 18 -4 33 -9 10 -16 30 -16 45 0 15 -10 33 -25 45
l-24 19 30 29 c16 16 39 29 51 29 25 0 44 26 35 49 -8 20 -50 21 -67 1z m48
-16 c-2 -6 -8 -10 -13 -10 -5 0 -11 4 -13 10 -2 6 4 11 13 11 9 0 15 -5 13
-11z m-97 -119 c22 -12 25 -50 7 -80 -10 -15 -10 -24 -1 -38 10 -17 7 -19 -35
-18 l-47 1 -3 44 c-3 36 1 48 24 72 32 33 29 32 55 19z m49 -100 c0 -5 -7 -10
-15 -10 -8 0 -15 5 -15 10 0 6 7 10 15 10 8 0 15 -4 15 -10z m-11 -137 c1 -18
-4 -21 -25 -20 -34 3 -53 29 -35 51 7 8 19 12 27 9 9 -3 14 2 15 13 1 24 17
-21 18 -53z m90 40 l20 -28 1 29 c0 38 6 31 13 -16 7 -44 -11 -52 -36 -15
l-16 22 0 -22 c-1 -41 -21 -24 -21 17 0 47 11 50 39 13z m-327 -24 c2 -22 0
-43 -4 -45 -4 -3 -8 1 -8 9 0 8 -3 29 -6 46 -4 18 -2 31 4 31 5 0 12 -18 14
-41z m-304 -8 c4 -36 -9 -51 -44 -51 -18 0 -23 7 -26 41 -4 48 -2 51 37 47 26
-3 30 -7 33 -37z m747 19 c8 -27 -1 -40 -30 -40 -25 0 -38 21 -29 45 9 22 51
19 59 -5z m45 3 c0 9 7 17 15 17 8 0 15 -8 15 -17 0 -15 2 -14 15 3 17 23 20
3 4 -27 -10 -20 -11 -20 -24 -2 -13 17 -14 17 -15 1 0 -27 -19 -22 -30 8 -14
35 -12 42 5 20 13 -17 15 -18 15 -3z m-610 -39 c-11 -28 -12 -28 -26 -10 -12
17 -14 18 -14 3 0 -27 -18 -20 -35 13 -17 33 -10 40 11 13 13 -17 13 -17 14 0
0 9 4 17 9 17 5 0 12 -8 16 -17 6 -16 8 -15 17 7 14 35 21 10 8 -26z m86 20
c4 -14 2 -30 -5 -37 -8 -8 -11 -4 -11 16 0 18 -5 27 -16 27 -11 0 -15 -6 -11
-20 3 -11 2 -22 -3 -25 -7 -4 -20 51 -14 58 2 1 14 3 28 5 20 1 27 -4 32 -24z
m113 12 c17 -20 2 -46 -25 -46 -26 0 -40 20 -30 45 7 19 40 20 55 1z m71 7 c0
-5 3 -18 6 -30 6 -20 3 -23 -25 -23 -37 0 -42 21 -8 39 l22 12 -22 -5 c-13 -2
-23 0 -23 5 0 11 50 12 50 2z m-366 -26 c15 -25 -18 -51 -45 -36 -19 10 -25
39 -12 53 12 12 45 2 57 -17z m588 -64 c-40 -2 -103 -2 -140 0 -37 2 -4 3 73
3 77 0 107 -2 67 -3z m-117 -86 c0 -29 -3 -32 -32 -35 -24 -2 -34 2 -43 18
-15 28 -6 50 20 50 11 0 20 5 20 10 0 7 6 6 18 -1 10 -6 17 -23 17 -42z m280
43 c3 -6 -1 -7 -9 -4 -18 7 -21 14 -7 14 6 0 13 -4 16 -10z m-190 -67 c0 -1
-10 0 -22 3 -13 4 -19 12 -17 19 4 11 9 10 23 -3 10 -9 17 -18 16 -19z m38 20
c-5 -12 -3 -14 8 -8 11 6 11 5 2 -5 -16 -18 -38 -3 -22 16 15 19 20 18 12 -3z
m88 0 c13 -16 12 -17 -3 -4 -10 7 -18 15 -18 17 0 8 8 3 21 -13z m70 -6 c-13
-13 -26 -3 -16 12 3 6 11 8 17 5 6 -4 6 -10 -1 -17z"/>
<path d="M4602 1796 c1 -10 8 -17 13 -17 15 1 12 24 -3 29 -9 3 -13 -2 -10
-12z"/>
<path d="M4056 1812 c-3 -5 -2 -19 1 -31 6 -25 36 -25 41 1 3 18 -33 44 -42
30z"/>
<path d="M4815 1810 c-7 -12 2 -30 16 -30 12 0 12 27 0 35 -5 3 -12 1 -16 -5z"/>
<path d="M4450 1791 c0 -12 6 -21 16 -21 9 0 14 7 12 17 -5 25 -28 28 -28 4z"/>
<path d="M4530 1780 c0 -5 5 -10 10 -10 6 0 10 5 10 10 0 6 -4 10 -10 10 -5 0
-10 -4 -10 -10z"/>
<path d="M4150 1781 c0 -12 6 -21 16 -21 9 0 14 7 12 17 -5 25 -28 28 -28 4z"/>
<path d="M7230 2155 c0 -5 5 -17 10 -25 5 -8 10 -10 10 -5 0 6 -5 17 -10 25
-5 8 -10 11 -10 5z"/>
<path d="M7330 2115 c0 -8 4 -15 10 -15 5 0 7 7 4 15 -4 8 -8 15 -10 15 -2 0
-4 -7 -4 -15z"/>
<path d="M7611 2114 c0 -11 3 -14 6 -6 3 7 2 16 -1 19 -3 4 -6 -2 -5 -13z"/>
<path d="M7136 2083 c-6 -14 -5 -15 5 -6 7 7 10 15 7 18 -3 3 -9 -2 -12 -12z"/>
<path d="M7160 2081 c0 -5 5 -13 10 -16 6 -3 10 -2 10 4 0 5 -4 13 -10 16 -5
3 -10 2 -10 -4z"/>
<path d="M6109 1991 c-35 -35 -35 -40 -8 -75 39 -50 129 -23 129 38 0 28 -42
66 -72 66 -11 0 -33 -13 -49 -29z m86 -26 c0 -22 -31 -33 -47 -17 -17 17 -1
44 24 40 15 -2 23 -10 23 -23z"/>
<path d="M5815 1985 c-14 -13 -25 -33 -25 -44 0 -24 45 -61 75 -61 31 0 75 37
75 64 0 30 -40 66 -74 66 -15 0 -37 -10 -51 -25z m91 -6 c3 -6 -1 -18 -10 -27
-15 -15 -17 -15 -32 0 -9 9 -13 21 -10 27 9 14 43 14 52 0z"/>
<path d="M3961 1974 c0 -11 3 -14 6 -6 3 7 2 16 -1 19 -3 4 -6 -2 -5 -13z"/>
<path d="M6880 1980 c0 -5 7 -10 15 -10 8 0 15 5 15 10 0 6 -7 10 -15 10 -8 0
-15 -4 -15 -10z"/>
<path d="M6918 1941 c-6 -10 -18 -17 -25 -14 -7 3 -14 -2 -14 -11 -1 -9 -2
-22 -3 -28 -1 -7 5 -12 13 -10 23 5 32 -21 16 -45 -14 -21 -14 -21 12 -8 17 9
33 11 48 5 19 -7 22 -6 18 10 -5 19 -4 19 27 4 37 -19 62 -6 41 20 -10 12 -18
13 -32 5 -14 -7 -19 -6 -19 2 0 6 -7 9 -15 5 -24 -9 -75 5 -75 21 0 9 5 11 12
6 18 -10 71 -3 80 11 6 8 8 8 8 -1 0 -9 16 -13 44 -13 26 0 46 5 49 13 4 10 6
10 6 0 1 -7 12 -13 25 -13 18 0 24 5 23 20 -2 25 -12 28 -72 21 -70 -8 -127
-3 -119 12 5 8 3 8 -7 0 -16 -15 -33 -17 -24 -3 3 6 4 10 1 10 -3 0 -11 -9
-18 -19z"/>
<path d="M7172 1926 c2 -22 6 -23 68 -23 50 0 69 4 83 18 9 10 17 20 17 22 0
5 -121 -2 -138 -8 -7 -3 -10 0 -7 5 3 6 -1 10 -9 10 -10 0 -15 -8 -14 -24z"/>
<path d="M6870 1850 c0 -5 7 -10 15 -10 8 0 15 5 15 10 0 6 -7 10 -15 10 -8 0
-15 -4 -15 -10z"/>
<path d="M6920 1811 c0 -5 -3 -16 -6 -24 -4 -11 5 -15 40 -15 25 -1 55 -6 66
-12 16 -8 20 -8 18 2 -2 8 4 12 15 10 15 -3 47 18 47 31 0 11 -135 4 -142 -7
-5 -7 -8 -5 -8 7 0 9 -7 17 -15 17 -8 0 -15 -4 -15 -9z"/>
<path d="M6090 1766 c0 -29 -35 -72 -66 -80 -28 -8 -71 26 -79 64 -5 23 -12
30 -31 30 -28 0 -29 -8 -10 -53 52 -123 205 -103 232 31 6 29 4 32 -20 32 -21
0 -26 -5 -26 -24z"/>
<path d="M7087 1753 c-11 -10 -8 -41 5 -49 6 -4 18 2 26 12 9 11 13 13 10 4
-5 -13 10 -15 104 -12 87 2 112 -1 124 -13 8 -8 13 -19 9 -24 -3 -5 -1 -12 5
-16 5 -3 8 -16 6 -28 -2 -12 2 -28 8 -36 8 -11 8 -13 -1 -7 -8 4 -13 2 -13 -4
0 -7 7 -9 16 -6 9 3 33 6 55 6 28 0 39 4 39 15 0 19 9 19 31 -1 22 -20 32 -5
13 21 -8 10 -14 16 -14 12 0 -4 -11 -2 -24 3 -16 6 -26 5 -30 -1 -2 -5 -3 -4
-2 3 2 7 16 13 33 13 35 -1 37 11 5 43 -13 13 -20 27 -17 32 4 6 1 10 -5 10
-7 0 -9 -7 -6 -17 4 -10 -1 -23 -13 -35 -11 -10 -18 -24 -15 -31 3 -8 -1 -19
-9 -25 -11 -10 -14 -6 -13 21 1 17 4 37 9 44 10 16 -12 28 -26 14 -17 -17 -31
-13 -17 4 9 10 9 15 1 15 -6 0 -11 -5 -11 -12 0 -6 -3 -8 -7 -4 -4 4 -8 16 -8
28 0 16 -7 21 -35 23 -40 4 -52 -1 -68 -30 -11 -20 -11 -20 -12 1 0 19 -6 22
-53 22 -29 0 -62 2 -73 6 -11 3 -23 3 -27 -1z m303 -93 c0 -5 -2 -10 -4 -10
-3 0 -8 5 -11 10 -3 6 -1 10 4 10 6 0 11 -4 11 -10z m10 -40 c0 -5 -2 -10 -4
-10 -3 0 -8 5 -11 10 -3 6 -1 10 4 10 6 0 11 -4 11 -10z"/>
<path d="M4201 1700 c-95 -5 -177 -12 -181 -17 -5 -4 -6 -32 -2 -62 l7 -54
125 2 c69 2 136 4 150 6 14 1 69 3 123 3 l98 2 -3 63 -3 62 -70 1 c-38 1 -148
-2 -244 -6z m-102 -51 c17 -6 31 -15 31 -21 0 -5 -6 -8 -12 -5 -7 2 -23 -4
-34 -15 l-22 -19 -4 35 c-4 40 -4 40 41 25z m92 -18 c-8 -5 -10 -14 -6 -22 6
-11 5 -11 -5 -2 -11 10 -11 15 0 28 7 8 15 13 19 10 3 -3 -1 -10 -8 -14z m257
1 c32 -4 41 -15 22 -27 -5 -3 -10 -2 -10 4 0 6 -7 8 -16 4 -9 -3 -20 0 -24 7
-7 11 -11 11 -24 1 -14 -12 -16 -10 -16 9 0 17 4 20 18 15 9 -5 32 -10 50 -13z
m-88 -12 c0 -4 -8 -10 -17 -14 -10 -3 -24 -9 -31 -12 -7 -3 -10 0 -7 8 4 9 -6
13 -35 14 -22 1 -38 -1 -36 -5 3 -4 -4 -7 -15 -7 -10 0 -19 4 -19 8 0 8 10 10
72 12 20 1 40 4 43 8 8 8 45 -2 45 -12z"/>
<path d="M3992 1670 c0 -14 2 -19 5 -12 2 6 2 18 0 25 -3 6 -5 1 -5 -13z"/>
<path d="M5420 1626 c-5 -15 -7 -33 -3 -39 4 -7 10 3 14 23 9 43 3 52 -11 16z"/>
<path d="M7260 1635 c7 -9 15 -13 17 -11 7 7 -7 26 -19 26 -6 0 -6 -6 2 -15z"/>
<path d="M7282 1618 c-13 -7 -21 -17 -18 -25 3 -7 1 -13 -5 -13 -6 0 -8 -4 -4
-10 7 -11 35 -2 35 12 0 14 27 38 34 31 3 -4 6 -1 6 5 0 15 -17 14 -48 0z"/>
<path d="M4002 1570 c0 -14 2 -19 5 -12 2 6 2 18 0 25 -3 6 -5 1 -5 -13z"/>
<path d="M7215 1570 c3 -5 8 -10 11 -10 2 0 4 5 4 10 0 6 -5 10 -11 10 -5 0
-7 -4 -4 -10z"/>
<path d="M4617 1553 c-11 -10 -8 -63 3 -63 6 0 10 16 10 35 0 36 -2 40 -13 28z"/>
<path d="M4680 1526 c0 -20 5 -36 10 -36 6 0 10 13 10 29 0 17 -4 33 -10 36
-6 4 -10 -8 -10 -29z"/>
<path d="M4780 1550 c-12 -7 -11 -10 5 -16 11 -5 20 -3 23 4 2 7 10 12 19 12
8 0 13 -5 11 -11 -2 -6 -6 -9 -9 -7 -3 2 -13 -3 -22 -10 -14 -12 -19 -12 -32
2 -21 21 -22 20 -22 -8 0 -17 4 -23 13 -19 8 3 14 0 14 -6 0 -14 -27 -15 -35
-1 -4 6 -11 7 -17 4 -6 -4 -6 2 1 15 10 17 9 21 -4 21 -17 0 -20 -27 -5 -50 5
-8 10 -11 10 -7 0 4 9 3 20 -3 23 -12 60 6 61 30 0 12 2 12 6 1 5 -11 7 -11
14 0 6 10 8 5 6 -13 -1 -15 2 -27 7 -27 20 1 23 -25 5 -44 -10 -12 -19 -27
-19 -34 0 -21 8 -15 25 17 16 31 35 40 35 17 0 -7 -9 -18 -20 -25 -11 -7 -20
-18 -20 -25 0 -8 -11 -24 -25 -37 -26 -25 -32 -40 -15 -40 6 0 10 7 10 15 0
14 11 19 37 16 7 -1 10 5 7 13 -3 8 -1 17 5 20 6 4 8 13 4 21 -3 8 -1 15 5 15
16 0 21 -50 7 -76 -8 -17 -15 -20 -22 -13 -12 12 -33 4 -33 -11 0 -9 76 -7 86
2 3 4 12 4 20 1 9 -3 14 2 14 14 0 29 -11 35 -32 16 -17 -15 -18 -15 -13 0 4
9 15 19 26 22 21 7 25 20 9 30 -6 4 -8 16 -4 27 5 18 4 19 -9 7 -10 -9 -12
-18 -6 -26 7 -7 6 -14 -1 -18 -5 -3 -11 0 -12 7 -5 41 -1 64 12 70 8 5 0 5
-19 2 -33 -6 -34 -5 -18 10 18 19 23 31 8 22 -18 -12 -37 5 -39 36 -1 17 -5
35 -8 39 -7 12 -45 11 -64 -1z"/>
<path d="M4862 1528 c2 -23 9 -34 22 -36 19 -4 19 -3 2 13 -10 10 -15 26 -13
36 3 11 1 19 -5 19 -5 0 -8 -15 -6 -32z"/>
<path d="M4930 1531 c0 -17 -5 -31 -12 -31 -6 0 -9 -2 -6 -5 3 -3 13 -3 22 1
17 7 22 49 6 59 -6 4 -10 -7 -10 -24z"/>
<path d="M4290 1530 c0 -5 4 -10 10 -10 5 0 7 -6 4 -14 -5 -14 33 -43 43 -32
10 10 -9 27 -24 21 -13 -4 -14 -3 -4 9 7 8 10 20 6 26 -8 13 -35 13 -35 0z"/>
<path d="M4369 1513 c-1 -17 -3 -21 -6 -10 -2 9 -9 17 -14 17 -13 0 -11 -14 3
-28 21 -21 35 -13 35 18 0 38 -17 40 -18 3z"/>
<path d="M4431 1511 c-1 -27 2 -32 11 -23 8 8 8 17 0 34 -10 22 -11 21 -11
-11z"/>
<path d="M4640 1525 c0 -8 7 -15 15 -15 8 0 15 7 15 15 0 8 -7 15 -15 15 -8 0
-15 -7 -15 -15z"/>
<path d="M4890 1525 c0 -8 7 -15 15 -15 8 0 15 7 15 15 0 8 -7 15 -15 15 -8 0
-15 -7 -15 -15z"/>
<path d="M4110 1500 c0 -16 4 -30 9 -30 4 0 8 13 7 30 -1 39 -16 39 -16 0z"/>
<path d="M4166 1515 c4 -8 8 -15 10 -15 2 0 4 7 4 15 0 8 -4 15 -10 15 -5 0
-7 -7 -4 -15z"/>
<path d="M4200 1513 c0 -11 24 -37 64 -70 11 -10 17 -9 26 2 13 16 36 10 44
-11 4 -11 -1 -13 -19 -10 -14 3 -27 1 -30 -4 -3 -5 -12 -7 -19 -4 -7 3 -16 -2
-19 -10 -6 -16 22 -17 56 -1 11 4 23 3 30 -4 8 -8 4 -11 -15 -11 -33 0 -56
-25 -32 -34 9 -4 19 -4 22 -1 3 3 -1 5 -8 5 -7 0 -10 3 -6 7 9 10 106 12 106
3 0 -4 -8 -14 -17 -22 -38 -32 -59 -35 -27 -4 14 15 14 16 -1 16 -8 0 -18 -7
-21 -15 -4 -8 -14 -15 -23 -15 -9 0 -26 -18 -39 -40 -12 -22 -18 -40 -12 -40
5 0 10 6 10 13 0 8 4 7 11 -3 7 -11 12 -12 15 -3 3 7 12 9 20 6 9 -3 14 1 14
12 0 14 -6 16 -27 10 -22 -5 -25 -4 -16 6 15 15 70 21 78 9 10 -16 25 -12 19
5 -4 10 0 15 11 15 10 0 15 -5 12 -13 -3 -7 1 -21 9 -31 12 -17 14 -17 29 -2
14 14 15 18 2 31 -8 8 -17 11 -21 8 -3 -4 -6 -4 -6 0 0 3 7 13 16 21 24 24 6
39 -18 16 -25 -23 -38 -18 -14 5 17 17 22 36 9 34 -20 -3 -34 2 -28 10 3 5 1
12 -5 16 -5 3 -10 2 -10 -4 0 -6 -6 -8 -14 -5 -8 3 -12 12 -9 20 3 8 -5 23
-17 34 -22 19 -24 19 -42 3 -18 -16 -18 -16 -12 3 6 15 5 17 -7 8 -11 -9 -20
-6 -39 13 -14 13 -19 23 -11 21 7 -2 15 2 17 7 2 6 -5 11 -16 11 -11 0 -20 -6
-20 -13z m240 -223 c0 -5 -4 -10 -10 -10 -5 0 -10 5 -10 10 0 6 5 10 10 10 6
0 10 -4 10 -10z"/>
<path d="M4263 1523 c-15 -5 -18 -33 -4 -33 5 0 11 9 14 20 3 11 4 20 4 19 -1
0 -8 -3 -14 -6z"/>
<path d="M4392 1509 c2 -6 8 -10 13 -10 5 0 11 4 13 10 2 6 -4 11 -13 11 -9 0
-15 -5 -13 -11z"/>
<path d="M4135 1500 c3 -5 10 -10 16 -10 5 0 9 5 9 10 0 6 -7 10 -16 10 -8 0
-12 -4 -9 -10z"/>
<path d="M4170 1479 c0 -5 5 -7 10 -4 6 3 10 8 10 11 0 2 -4 4 -10 4 -5 0 -10
-5 -10 -11z"/>
<path d="M7350 1485 c0 -8 29 -12 39 -5 9 5 4 8 -13 8 -14 0 -26 -2 -26 -3z"/>
<path d="M4420 1454 c0 -8 -4 -13 -9 -9 -11 6 -26 -13 -17 -22 7 -7 46 26 46
39 0 4 -4 8 -10 8 -5 0 -10 -7 -10 -16z"/>
<path d="M4620 1459 c0 -7 3 -9 6 -6 4 3 16 1 27 -4 15 -8 22 -8 28 2 6 10 9
10 9 2 0 -7 7 -10 15 -6 23 8 14 12 -38 19 -33 3 -47 1 -47 -7z"/>
<path d="M4730 1460 c0 -5 5 -10 11 -10 5 0 7 5 4 10 -3 6 -8 10 -11 10 -2 0
-4 -4 -4 -10z"/>
<path d="M4120 1451 c0 -5 11 -8 25 -7 33 1 33 16 0 16 -14 0 -25 -4 -25 -9z"/>
<path d="M4180 1450 c0 -5 12 -13 26 -16 14 -4 22 -9 17 -13 -4 -3 -13 -15
-19 -26 -6 -11 -20 -20 -30 -20 -13 0 -19 -8 -20 -22 -1 -14 5 -23 14 -23 9 0
13 7 9 20 -3 10 -2 18 2 17 15 -5 50 31 57 57 5 21 4 27 -5 22 -6 -4 -11 -2
-11 3 0 6 -9 11 -20 11 -11 0 -20 -4 -20 -10z"/>
<path d="M4366 1444 c-4 -10 -1 -14 6 -12 15 5 23 28 10 28 -5 0 -13 -7 -16
-16z"/>
<path d="M4786 1451 c-4 -6 -12 -9 -17 -6 -5 4 -9 1 -9 -4 0 -6 8 -11 18 -11
14 0 18 -7 16 -31 -1 -18 -8 -36 -16 -40 -7 -5 -8 -9 -2 -9 5 0 19 7 30 15 14
11 16 17 6 23 -10 7 -8 13 8 27 24 22 26 40 3 31 -9 -4 -20 -2 -23 5 -6 8 -9
8 -14 0z"/>
<path d="M4711 1426 c-9 -10 -8 -15 4 -20 8 -3 15 -13 15 -22 0 -13 3 -14 13
-5 8 6 17 8 20 4 16 -15 5 16 -12 35 -22 26 -25 26 -40 8z"/>
<path d="M4123 1405 c0 -28 12 -33 21 -9 9 24 7 34 -8 34 -8 0 -13 -10 -13
-25z"/>
<path d="M4177 1423 c-10 -9 -8 -33 2 -33 5 0 11 9 14 20 5 20 -3 26 -16 13z"/>
<path d="M4427 1417 c-7 -18 9 -44 20 -33 4 5 3 11 -4 13 -7 2 -9 11 -6 19 3
8 3 14 0 14 -3 0 -7 -6 -10 -13z"/>
<path d="M4636 1416 c3 -8 1 -17 -5 -21 -14 -8 -14 -45 -1 -45 6 0 10 7 10 15
0 7 7 18 15 23 18 10 10 42 -11 42 -7 0 -11 -6 -8 -14z"/>
<path d="M4670 1423 c0 -6 8 -17 18 -24 16 -13 16 -13 2 6 -8 11 -16 22 -17
24 -2 2 -3 0 -3 -6z"/>
<path d="M4215 1370 c-4 -7 -2 -17 5 -23 10 -10 12 -8 6 7 -6 17 -5 17 10 5
15 -12 17 -12 13 0 -7 19 -25 25 -34 11z"/>
<path d="M4690 1371 c0 -5 12 -19 26 -30 15 -12 22 -21 15 -21 -6 0 -11 -10
-10 -22 0 -13 3 -17 6 -10 2 6 8 10 12 7 5 -2 7 3 6 13 -3 29 -17 52 -32 52
-8 0 -11 5 -8 10 3 6 1 10 -4 10 -6 0 -11 -4 -11 -9z"/>
<path d="M4021 1354 c0 -11 3 -14 6 -6 3 7 2 16 -1 19 -3 4 -6 -2 -5 -13z"/>
<path d="M4650 1366 c0 -2 7 -7 16 -10 8 -3 12 -2 9 4 -6 10 -25 14 -25 6z"/>
<path d="M7300 1360 c0 -5 5 -10 11 -10 5 0 7 5 4 10 -3 6 -8 10 -11 10 -2 0
-4 -4 -4 -10z"/>
<path d="M4125 1350 c-3 -5 -1 -18 4 -27 9 -16 10 -14 11 10 0 28 -5 34 -15
17z"/>
<path d="M7163 1353 c15 -2 39 -2 55 0 15 2 2 4 -28 4 -30 0 -43 -2 -27 -4z"/>
<path d="M4256 1334 c-4 -10 -1 -14 6 -12 15 5 23 28 10 28 -5 0 -13 -7 -16
-16z"/>
<path d="M4795 1340 c-3 -5 -1 -10 4 -10 6 0 11 5 11 10 0 6 -2 10 -4 10 -3 0
-8 -4 -11 -10z"/>
<path d="M4630 1305 c0 -19 4 -35 10 -35 5 0 7 13 4 29 -5 23 -2 30 12 34 16
4 15 5 -3 6 -20 1 -23 -4 -23 -34z"/>
<path d="M4694 1305 c1 -46 16 -46 16 0 0 19 -4 35 -8 35 -5 0 -8 -16 -8 -35z"/>
<path d="M4190 1321 c0 -5 10 -13 21 -16 16 -5 18 -9 9 -15 -8 -5 -10 -15 -5
-26 8 -18 8 -18 12 -1 3 9 9 17 14 17 15 0 10 22 -8 36 -21 16 -43 18 -43 5z"/>
<path d="M4650 1305 c0 -10 7 -15 18 -13 21 4 19 22 -2 26 -10 2 -16 -3 -16
-13z"/>
<path d="M4771 1306 c-7 -8 -9 -21 -5 -27 5 -9 10 -5 16 11 10 28 5 36 -11 16z"/>
<path d="M4130 1276 c0 -14 4 -27 9 -30 4 -3 8 8 7 24 -1 36 -16 41 -16 6z"/>
<path d="M4192 1275 c0 -16 2 -22 5 -12 2 9 2 23 0 30 -3 6 -5 -1 -5 -18z"/>
<path d="M4157 1284 c-8 -8 1 -24 14 -24 5 0 9 7 9 15 0 15 -12 20 -23 9z"/>
<path d="M4346 1271 c-3 -5 1 -11 9 -15 8 -3 15 -1 15 4 0 13 -18 22 -24 11z"/>
<path d="M4386 1271 c-3 -5 1 -11 9 -15 8 -3 15 -1 15 4 0 13 -18 22 -24 11z"/>
<path d="M6903 1110 c-1 -17 2 -30 7 -30 6 0 10 9 10 21 0 11 4 18 8 15 5 -3
9 1 9 9 0 8 -7 15 -16 15 -11 0 -17 -10 -18 -30z"/>
<path d="M7010 1136 c0 -2 7 -7 16 -10 8 -3 12 -2 9 4 -6 10 -25 14 -25 6z"/>
<path d="M4653 1095 c-3 -9 1 -23 10 -33 8 -9 17 -30 19 -45 1 -15 8 -27 13
-27 6 1 9 12 7 26 -2 14 4 34 14 45 14 15 14 21 4 34 -16 20 -59 19 -67 0z
m47 -15 c0 -5 -4 -10 -9 -10 -6 0 -13 5 -16 10 -3 6 1 10 9 10 9 0 16 -4 16
-10z"/>
<path d="M4320 1061 c0 -6 -5 -10 -11 -8 -6 1 -14 -4 -16 -10 -3 -8 4 -13 15
-13 22 0 37 26 22 35 -6 4 -10 1 -10 -4z"/>
<path d="M4378 1062 c-31 -4 -37 -17 -10 -24 18 -5 195 1 201 7 13 14 -18 19
-83 15 -42 -3 -77 -3 -79 0 -1 3 -14 4 -29 2z"/>
<path d="M4603 1063 c-20 -8 -15 -23 7 -23 11 0 20 7 20 15 0 15 -6 17 -27 8z"/>
<path d="M4148 1053 c-69 -6 -64 -29 5 -27 28 1 62 3 75 3 13 1 22 7 22 17 0
14 -2 15 -17 3 -13 -11 -17 -11 -20 -1 -3 6 -8 11 -11 10 -4 -1 -28 -3 -54 -5z"/>
<path d="M4260 1045 c0 -8 5 -15 10 -15 6 0 10 7 10 15 0 8 -4 15 -10 15 -5 0
-10 -7 -10 -15z"/>
<path d="M6968 1053 c39 -2 105 -2 145 0 39 1 7 3 -73 3 -80 0 -112 -2 -72 -3z"/>
<path d="M6683 1003 c9 -2 23 -2 30 0 6 3 -1 5 -18 5 -16 0 -22 -2 -12 -5z"/>
<path d="M6908 1003 c6 -2 18 -2 25 0 6 3 1 5 -13 5 -14 0 -19 -2 -12 -5z"/>
<path d="M6388 993 c7 -3 16 -2 19 1 4 3 -2 6 -13 5 -11 0 -14 -3 -6 -6z"/>
<path d="M5933 983 c9 -2 23 -2 30 0 6 3 -1 5 -18 5 -16 0 -22 -2 -12 -5z"/>
<path d="M6033 983 c9 -2 23 -2 30 0 6 3 -1 5 -18 5 -16 0 -22 -2 -12 -5z"/>
<path d="M5355 970 l-40 -8 47 1 c26 0 45 4 42 9 -3 4 -6 7 -7 7 -1 -1 -20 -5
-42 -9z"/>
<path d="M5463 973 c26 -2 67 -2 90 0 23 2 2 3 -48 3 -49 0 -68 -1 -42 -3z"/>
<path d="M5688 973 c7 -3 16 -2 19 1 4 3 -2 6 -13 5 -11 0 -14 -3 -6 -6z"/>
<path d="M3092 3367 c-72 -41 -77 -170 -7 -197 60 -23 135 41 135 115 0 79
-61 118 -128 82z"/>
<path d="M2742 3297 c-72 -41 -77 -170 -7 -197 60 -23 135 41 135 115 0 79
-61 118 -128 82z"/>
<path d="M2423 3243 c-19 -4 -23 -11 -23 -42 0 -21 2 -40 5 -43 14 -13 87 16
97 38 20 43 -11 60 -79 47z"/>
<path d="M2433 3113 c-20 -4 -23 -11 -23 -50 l0 -45 38 7 c61 11 91 52 60 83
-12 12 -32 13 -75 5z"/>
<path d="M13328 3113 c6 -3 12 -11 12 -19 0 -18 18 -18 36 1 18 17 19 16 -26
20 -19 1 -29 0 -22 -2z"/>
<path d="M13200 3070 c0 -5 5 -10 11 -10 5 0 7 5 4 10 -3 6 -8 10 -11 10 -2 0
-4 -4 -4 -10z"/>
<path d="M13260 3076 c0 -3 11 -13 25 -22 20 -13 28 -14 40 -4 15 12 12 30 -5
30 -5 0 -7 -7 -4 -15 8 -19 -1 -19 -31 1 -14 9 -25 14 -25 10z"/>
<path d="M13150 3051 c0 -13 77 -54 92 -49 5 2 -13 16 -41 31 -28 16 -51 24
-51 18z"/>
<path d="M13225 3040 c3 -5 12 -7 20 -3 21 7 19 13 -6 13 -11 0 -18 -4 -14
-10z"/>
<path d="M13145 2977 c0 -48 15 -52 51 -13 l22 23 -28 16 c-41 24 -45 22 -45
-26z"/>
<path d="M13525 2950 c-4 -6 -13 -9 -20 -6 -14 5 -29 -20 -17 -28 10 -6 58 31
50 39 -3 3 -9 1 -13 -5z"/>
<path d="M13445 2940 c3 -5 8 -10 11 -10 2 0 4 5 4 10 0 6 -5 10 -11 10 -5 0
-7 -4 -4 -10z"/>
<path d="M13141 2794 c1 -101 2 -106 25 -114 13 -5 24 -14 24 -20 0 -14 -13
-13 -28 2 -8 8 -12 9 -12 1 0 -6 6 -14 13 -17 8 -3 6 -9 -7 -20 -11 -9 -18
-18 -15 -20 2 -3 46 30 96 72 71 59 88 78 73 80 -20 3 -25 13 -14 24 3 3 22
-2 42 -12 31 -16 55 -19 41 -6 -9 9 -228 136 -234 136 -3 0 -5 -48 -4 -106z
m64 -91 c-9 -8 -19 -13 -22 -9 -9 8 18 37 28 30 5 -3 2 -12 -6 -21z"/>
<path d="M13475 2821 c-7 -12 12 -24 25 -16 11 7 4 25 -10 25 -5 0 -11 -4 -15
-9z"/>
<path d="M13228 2243 c7 -3 16 -2 19 1 4 3 -2 6 -13 5 -11 0 -14 -3 -6 -6z"/>
<path d="M11565 430 c-4 -6 5 -10 19 -10 14 0 26 5 26 10 0 6 -9 10 -19 10
-11 0 -23 -4 -26 -10z"/>
<path d="M10040 1956 c0 -2 8 -10 18 -17 15 -13 16 -12 3 4 -13 16 -21 21 -21
13z"/>
<path d="M10380 1300 c0 -5 5 -10 10 -10 6 0 10 5 10 10 0 6 -4 10 -10 10 -5
0 -10 -4 -10 -10z"/>
<path d="M14889 991 c-33 -33 -39 -45 -39 -82 0 -117 122 -177 209 -103 91 77
34 224 -87 224 -38 0 -50 -6 -83 -39z"/>
<path d="M18139 1141 c-25 -25 -29 -37 -29 -81 0 -44 4 -56 29 -81 88 -87 214
28 156 141 -31 59 -107 69 -156 21z"/>
<path d="M15889 1141 c-23 -23 -29 -38 -29 -71 0 -75 37 -120 100 -120 42 0
67 15 85 50 28 54 11 136 -34 160 -39 20 -91 12 -122 -19z"/>
<path d="M17734 1173 c-12 -2 -32 -15 -45 -29 -20 -21 -24 -36 -24 -86 0 -53
3 -62 28 -84 60 -52 147 -20 162 59 16 85 -45 155 -121 140z"/>
<path d="M16721 706 c-21 -25 -10 -61 18 -61 31 0 50 28 35 53 -15 23 -38 26
-53 8z"/>
<path d="M17431 706 c-21 -25 -10 -61 18 -61 31 0 50 28 35 53 -15 23 -38 26
-53 8z"/>
<path d="M17822 708 c-32 -32 0 -84 37 -61 22 14 25 38 6 57 -20 19 -27 20
-43 4z"/>
<path d="M15510 725 c0 -20 5 -25 25 -25 29 0 45 28 24 41 -27 17 -49 10 -49
-16z"/>
<path d="M16104 735 c-4 -9 -2 -21 4 -27 15 -15 54 1 50 20 -4 23 -46 28 -54
7z"/>
<path d="M16107 683 c-4 -3 -7 -15 -7 -25 0 -23 55 -26 64 -3 8 21 -40 45 -57
28z"/>
<path d="M15860 705 c-24 -29 8 -75 44 -62 30 12 14 77 -20 77 -6 0 -17 -7
-24 -15z"/>
<path d="M16230 705 c-24 -29 8 -75 44 -62 30 12 14 77 -20 77 -6 0 -17 -7
-24 -15z"/>
<path d="M16470 705 c-24 -29 8 -75 44 -62 30 12 14 77 -20 77 -6 0 -17 -7
-24 -15z"/>
<path d="M16850 705 c-24 -29 8 -75 44 -62 30 12 14 77 -20 77 -6 0 -17 -7
-24 -15z"/>
<path d="M17296 704 c-19 -18 -19 -20 -6 -45 21 -38 76 -10 62 31 -11 31 -34
37 -56 14z"/>
<path d="M17951 706 c-21 -25 -10 -61 18 -61 31 0 50 28 35 53 -15 23 -38 26
-53 8z"/>
<path d="M18200 705 c-11 -13 -7 -15 25 -15 32 0 36 2 25 15 -7 8 -18 15 -25
15 -7 0 -18 -7 -25 -15z"/>
<path d="M18472 708 c-25 -25 -6 -68 30 -68 22 0 35 45 18 65 -15 18 -32 19
-48 3z"/>
</g>
</svg>
