<?xml version="1.0" standalone="no"?>
<!DOCTYPE svg PUBLIC "-//W3C//DTD SVG 20010904//EN"
 "http://www.w3.org/TR/2001/REC-SVG-20010904/DTD/svg10.dtd">
<svg version="1.0" xmlns="http://www.w3.org/2000/svg"
 width="1920.000000pt" height="1080.000000pt" viewBox="0 0 1920.000000 1080.000000"
 preserveAspectRatio="xMidYMid meet">

<g transform="translate(0.000000,1080.000000) scale(0.100000,-0.100000)"
fill="#000000" stroke="none">
<path d="M0 9523 l1 -1278 1031 -760 c566 -418 1092 -806 1168 -863 l139 -102
-1169 -1583 -1169 -1582 -1 -1677 0 -1678 9600 0 9600 0 0 5400 0 5400 -9600
0 -9600 0 0 -1277z m18400 543 c0 -38 9 -35 -202 -68 l-78 -12 0 -90 0 -89 23
20 c39 37 90 56 147 57 97 1 150 -57 150 -167 0 -138 -78 -224 -214 -234 -72
-6 -108 8 -150 57 -29 36 -34 65 -10 74 31 12 51 6 62 -20 15 -32 73 -57 116
-48 84 15 126 70 126 164 0 44 -4 56 -30 82 -28 28 -36 30 -80 26 -57 -6 -95
-28 -118 -69 -19 -33 -69 -49 -83 -28 -5 8 -9 82 -9 166 l0 151 73 12 c39 7
115 21 167 30 52 10 98 19 103 19 4 1 7 -14 7 -33z m-16625 -277 c110 -94 203
-176 207 -183 4 -6 8 -35 8 -63 0 -49 2 -53 24 -53 40 0 76 -39 79 -85 l2 -40
-125 0 -125 0 -3 97 -3 98 -167 140 -167 140 -77 0 -78 0 -127 -107 c-71 -58
-147 -124 -170 -147 l-43 -40 0 -93 0 -93 -120 0 -120 0 0 43 c0 49 19 73 66
86 27 7 29 11 32 64 l3 56 132 114 c73 62 165 141 206 175 l74 62 146 0 146
-1 200 -170z m15744 -156 l1 -203 23 0 c24 0 129 17 160 26 16 5 18 1 15 -27
l-3 -34 -130 -21 c-71 -12 -131 -21 -132 -20 -1 1 -5 128 -9 283 l-7 282 34 3
c33 3 34 2 41 -42 3 -25 7 -136 7 -247z m-209 224 l0 -33 -112 -18 -113 -19 4
-91 c1 -50 4 -92 5 -93 1 -2 40 4 87 12 110 20 109 20 109 -14 0 -31 10 -28
-132 -52 l-68 -11 0 -94 c0 -109 -10 -102 120 -79 111 20 110 20 110 -14 l0
-28 -132 -22 c-73 -13 -140 -25 -149 -27 -14 -4 -17 19 -22 183 -4 104 -7 231
-7 284 l0 96 148 25 c81 14 148 26 150 27 1 0 2 -14 2 -32z m-414 -54 c-3 -10
-48 -144 -99 -298 l-94 -279 -38 -8 c-21 -5 -42 -5 -46 -1 -11 12 -222 513
-218 518 2 2 20 6 39 10 l35 6 90 -221 c49 -121 92 -220 95 -220 3 0 25 62 48
138 124 396 112 368 170 371 18 1 22 -3 18 -16z m-586 -116 l0 -34 -86 -13
c-149 -22 -137 -12 -135 -115 1 -49 3 -91 5 -92 1 -2 40 4 87 12 110 20 109
20 109 -14 0 -31 10 -28 -132 -52 l-68 -11 0 -94 c0 -109 -10 -102 120 -79
112 20 110 20 110 -15 0 -17 -5 -30 -12 -30 -7 0 -73 -11 -146 -24 -73 -13
-134 -20 -137 -17 -2 4 -7 131 -11 282 l-7 276 149 25 c82 14 150 26 152 27 1
0 2 -14 2 -32z m-591 -364 l1 -203 23 0 c24 0 129 17 160 26 13 4 17 -1 17
-25 0 -17 -1 -31 -2 -31 -2 -1 -61 -11 -131 -24 -70 -13 -129 -20 -131 -17 -2
3 -7 131 -11 283 l-7 277 34 3 c32 3 33 2 40 -42 3 -25 7 -136 7 -247z
m-14430 86 c31 -29 43 -67 36 -110 -16 -97 -127 -122 -170 -39 -28 53 -11 134
32 159 30 17 78 12 102 -10z m382 11 c25 -14 49 -62 49 -100 0 -93 -93 -145
-153 -85 -32 33 -40 66 -27 115 19 69 76 99 131 70z m7811 -192 c3 -62 1 -117
-4 -123 -4 -5 -77 -21 -161 -35 l-152 -26 0 -120 c0 -65 4 -290 8 -500 l9
-381 -150 -24 -149 -25 -6 130 c-4 72 -10 296 -13 499 -4 202 -10 367 -13 367
-3 0 -71 -11 -151 -25 -80 -14 -150 -25 -157 -25 -11 0 -31 225 -20 236 5 6
896 161 933 163 21 1 22 -4 26 -111z m-8472 30 c5 -63 8 -70 49 -112 175 -179
557 -181 733 -5 46 46 47 49 50 116 l3 68 119 3 c67 1 124 -2 129 -7 14 -14
-1 -79 -24 -102 -12 -12 -33 -19 -58 -19 -36 0 -42 -4 -70 -51 -123 -198 -402
-309 -645 -255 -154 35 -315 142 -381 255 -28 46 -33 51 -67 51 -24 0 -45 7
-57 19 -21 21 -37 83 -26 101 4 7 47 10 123 8 l117 -3 5 -67z m7030 -208 c154
-51 268 -165 321 -320 27 -81 37 -251 19 -343 -54 -280 -282 -516 -562 -582
-80 -19 -237 -19 -307 0 -122 32 -236 113 -301 215 -100 155 -115 383 -40 582
48 128 176 281 304 363 66 42 191 91 269 105 81 14 223 5 297 -20z m-1278
-215 c206 -71 224 -374 30 -519 l-53 -40 43 -11 c204 -51 251 -332 87 -510
-47 -51 -102 -87 -180 -116 -50 -19 -687 -134 -696 -125 -4 4 -14 333 -29 948
l-6 287 23 6 c21 5 508 87 584 99 48 7 148 -3 197 -19z m-1410 -219 c105 -23
175 -61 254 -140 112 -112 154 -222 154 -402 0 -125 -24 -225 -80 -332 -129
-249 -377 -402 -649 -402 -165 0 -276 44 -382 149 -194 194 -212 531 -40 793
165 252 474 391 743 334z m10187 -81 c224 -53 346 -249 314 -503 -24 -187
-104 -359 -232 -494 -70 -74 -192 -165 -273 -204 -21 -10 -38 -21 -38 -25 0
-3 76 -172 170 -375 93 -202 168 -370 165 -372 -5 -5 -511 -92 -535 -92 -10 0
-20 6 -23 13 -24 59 -298 701 -300 703 -1 1 -29 -3 -62 -9 l-59 -12 -59 -395
c-32 -217 -59 -396 -60 -397 -7 -6 -481 -83 -485 -78 -9 8 301 2089 311 2096
5 4 28 9 51 13 22 3 223 37 446 75 440 76 546 84 669 56z m-11419 -171 c111
-50 169 -141 177 -278 10 -170 -74 -313 -242 -411 -16 -10 -3 -33 122 -220 76
-116 142 -215 146 -221 4 -8 -48 -20 -163 -39 -94 -15 -172 -26 -174 -24 -9
11 -256 405 -259 412 -1 5 -19 6 -40 2 l-37 -7 7 -234 c3 -129 4 -234 2 -234
-3 0 -69 -11 -148 -25 -79 -14 -146 -24 -148 -21 -4 3 -14 337 -29 953 l-6
282 23 6 c13 3 141 26 284 50 306 53 384 54 485 9z m9840 -56 c-1 -26 -56
-378 -61 -382 -2 -3 -171 -33 -374 -67 -204 -34 -371 -63 -372 -64 -5 -3 -64
-426 -61 -434 2 -4 149 18 328 49 179 31 327 56 329 54 6 -5 -54 -384 -61
-384 -19 0 -651 -110 -655 -114 -8 -8 -74 -458 -68 -464 3 -3 170 22 371 57
202 34 368 60 370 58 5 -5 -52 -387 -59 -393 -8 -9 -1229 -215 -1235 -209 -6
5 298 2085 305 2095 5 5 1178 207 1216 209 16 1 27 -4 27 -11z m-2205 -442
c115 -31 204 -83 285 -165 85 -85 127 -161 161 -288 41 -151 25 -431 -35 -615
-19 -58 -20 -70 -9 -80 8 -6 23 -25 35 -42 15 -22 9 -18 -20 12 -23 25 -46 41
-52 37 -8 -5 -8 -10 0 -20 8 -10 4 -29 -16 -77 -28 -68 -119 -227 -152 -268
l-21 -25 20 92 20 92 -21 21 c-22 22 -21 38 7 94 11 20 17 25 23 16 5 -8 11
-3 20 16 19 43 67 78 106 78 18 0 30 4 28 8 -8 13 -63 9 -93 -7 -39 -20 -71
-60 -105 -133 -32 -67 -52 -81 -42 -29 l6 32 -16 -25 -15 -25 5 27 c3 14 8 34
11 45 4 10 -4 -1 -16 -24 -23 -46 -26 -48 -48 -34 -12 8 -13 14 -3 36 15 32
15 38 1 30 -6 -4 -1 11 10 33 11 22 25 43 31 47 5 3 0 -11 -12 -32 -21 -36
-19 -35 25 14 56 61 136 92 188 74 41 -14 36 -3 -6 15 -46 19 -91 17 -141 -5
-49 -22 -82 -64 -118 -145 l-26 -59 -60 6 -59 7 -5 -33 c-3 -17 -8 -65 -11
-105 -6 -69 -21 -132 -32 -132 -3 0 -90 27 -193 60 -170 55 -187 62 -183 81 5
17 8 18 22 6 9 -8 33 -17 55 -20 21 -3 46 -13 55 -21 9 -8 36 -17 61 -21 44
-6 46 -5 87 44 107 124 169 263 198 440 43 255 -13 421 -169 501 -61 31 -78
35 -168 38 -72 3 -139 -2 -244 -19 -79 -13 -148 -25 -152 -28 -8 -6 -192
-1222 -186 -1230 3 -3 186 26 215 35 14 4 15 -3 11 -48 l-4 -53 28 27 c60 55
155 54 225 -2 24 -19 40 -25 46 -19 12 12 93 -26 93 -43 0 -6 -7 -8 -15 -4
-17 6 -21 -9 -5 -19 6 -4 8 -10 5 -15 -3 -5 5 -16 17 -24 12 -9 17 -16 10 -16
-24 0 -27 -2 -35 -16 -5 -8 -12 -12 -18 -9 -5 4 -9 -14 -9 -40 0 -157 -110
-292 -219 -269 l-36 8 55 6 c66 7 91 20 124 63 59 79 69 152 35 262 -47 154
-178 210 -279 119 -66 -60 -80 -137 -58 -313 l3 -25 -369 -63 c-203 -35 -371
-61 -374 -58 -3 3 64 476 149 1051 143 970 155 1045 174 1050 11 2 202 36 425
74 401 69 406 70 560 66 104 -2 175 -9 215 -20z m-1811 -1252 c-86 -577 -156
-1050 -157 -1051 -7 -6 -481 -83 -485 -78 -6 5 298 2085 306 2095 3 4 484 88
489 85 2 -1 -67 -473 -153 -1051z m-1349 752 c220 -59 384 -222 454 -449 59
-193 45 -499 -35 -744 -65 -201 -176 -385 -327 -540 -122 -126 -236 -208 -392
-284 -210 -101 -398 -144 -610 -137 -109 4 -143 9 -215 33 -167 57 -292 168
-370 330 -64 133 -75 193 -75 405 0 138 5 208 18 273 56 276 190 530 382 723
226 227 494 359 830 408 63 9 282 -3 340 -18z m-1643 -253 c-5 -10 -238 -511
-517 -1113 -280 -602 -509 -1096 -510 -1097 -4 -6 -615 -106 -619 -102 -5 5
-415 1973 -412 1975 5 6 526 90 526 86 0 -18 262 -1460 268 -1476 6 -13 109
212 376 817 l368 836 92 16 c96 17 415 72 429 74 4 1 4 -7 -1 -16z m5189 -410
c13 -16 12 -17 -3 -4 -10 7 -18 15 -18 17 0 8 8 3 21 -13z m-7928 -1041 c114
-532 210 -976 213 -988 5 -19 -7 -22 -243 -62 -136 -23 -255 -42 -263 -42 -12
0 -22 37 -45 160 -16 88 -32 166 -36 172 -7 11 -312 -35 -699 -105 l-65 -12
-88 -196 -89 -196 -249 -43 c-138 -23 -253 -40 -256 -36 -3 3 229 504 516
1114 l522 1109 262 45 c144 25 273 46 287 47 l25 1 208 -968z m8094 666 c-3
-7 -5 -2 -5 12 0 14 2 19 5 13 2 -7 2 -19 0 -25z m-297 -99 c54 -15 54 -15 46
-27 -8 -13 -118 20 -124 37 -3 9 2 11 14 8 11 -3 39 -11 64 -18z m183 -51 c-6
-11 -53 -10 -53 2 0 5 13 8 29 7 16 -1 27 -5 24 -9z m302 -715 c25 -97 50
-182 56 -190 21 -25 2 -44 -38 -39 -21 3 -49 5 -63 5 -40 1 -9 21 41 26 24 2
45 4 45 4 1 1 -7 29 -18 64 -11 34 -37 134 -58 222 -21 88 -39 147 -40 130 -3
-51 -49 184 -54 280 -6 87 -5 83 39 -118 24 -114 65 -287 90 -384z m-605 451
c19 -13 40 -24 47 -24 7 0 13 -6 13 -14 0 -17 38 -43 76 -52 16 -4 34 -11 41
-16 7 -5 17 -7 22 -3 7 3 10 -8 9 -31 -1 -24 4 -41 15 -49 24 -17 21 -30 -8
-31 -14 -1 -25 4 -25 11 0 12 -24 28 -45 30 -5 0 -17 4 -25 9 -12 7 -12 6 -3
-4 6 -7 9 -27 6 -46 -4 -27 -2 -34 10 -34 21 0 38 -58 25 -83 -5 -10 -22 -26
-37 -35 -15 -9 -44 -36 -64 -58 -48 -53 -92 -74 -154 -72 -38 1 -41 2 -13 5
62 6 79 13 115 45 95 82 111 239 38 366 -44 76 -140 119 -213 94 -17 -6 -28
-7 -25 -2 22 35 140 31 195 -6z m456 -72 c-13 -13 -17 9 -10 50 l9 43 3 -44
c2 -23 1 -46 -2 -49z m-692 36 c-16 -18 -32 -37 -36 -42 -5 -6 -8 -7 -8 -3 0
8 60 77 68 77 3 0 -7 -15 -24 -32z m-570 -217 c-3 -3 -15 6 -27 18 l-22 24 27
-19 c14 -10 24 -21 22 -23z m1343 -43 c-3 -7 -5 -2 -5 12 0 14 2 19 5 13 2 -7
2 -19 0 -25z m10 -50 c-3 -7 -5 -2 -5 12 0 14 2 19 5 13 2 -7 2 -19 0 -25z
m10 -50 c-3 -7 -5 -2 -5 12 0 14 2 19 5 13 2 -7 2 -19 0 -25z m21 -83 c0 -16
-2 -15 -8 5 -4 14 -8 34 -8 45 0 16 2 15 8 -5 4 -14 8 -34 8 -45z m-1298 11
c0 -3 -4 -8 -10 -11 -5 -3 -10 -1 -10 4 0 6 5 11 10 11 6 0 10 -2 10 -4z
m1307 -58 c-3 -8 -6 -5 -6 6 -1 11 2 17 5 13 3 -3 4 -12 1 -19z m10 -40 c-3
-8 -6 -5 -6 6 -1 11 2 17 5 13 3 -3 4 -12 1 -19z m-879 -78 c1 0 2 -7 2 -15 0
-12 -12 -9 -55 12 -70 34 -72 49 -2 23 28 -11 53 -20 55 -20z m1071 13 c25
-14 49 -31 53 -37 4 -6 36 -24 72 -41 58 -26 82 -45 58 -45 -16 0 -257 129
-260 139 -6 19 30 12 77 -16z m-29 -78 c33 -17 37 -27 17 -44 -18 -14 -126 28
-120 47 6 17 68 15 103 -3z m-393 -2 c-4 -3 1 -12 10 -18 14 -11 15 -16 4 -28
-10 -13 -8 -16 16 -20 18 -3 11 -5 -19 -6 -47 -1 -47 -1 -38 25 6 14 8 29 5
34 -3 5 1 11 7 13 19 8 22 8 15 0z m53 -8 c-7 -8 -17 -12 -23 -8 -6 4 -3 9 9
14 27 11 28 11 14 -6z m-336 -72 c-5 -2 -38 8 -74 22 -74 29 -80 30 -80 12 0
-12 60 -44 110 -61 11 -3 11 -5 -3 -5 -31 -2 -117 48 -117 68 0 9 2 20 5 23 3
3 42 -8 87 -25 45 -17 77 -32 72 -34z m560 45 c-3 -5 -12 -4 -20 3 -19 16 -18
18 6 12 11 -3 17 -9 14 -15z m-143 -24 c10 -12 5 -14 -27 -14 -29 0 -35 3 -24
10 13 8 12 11 -5 24 -19 15 -18 15 12 5 17 -6 37 -17 44 -25z m-843 -73 c2 -5
-1 -17 -5 -26 -8 -14 -12 -13 -35 5 -15 11 -26 29 -25 39 1 16 4 17 31 6 17
-7 32 -18 34 -24z m594 26 c67 2 67 2 58 -21 -5 -13 -6 -26 -4 -29 3 -3 1 -8
-5 -12 -6 -3 -11 1 -11 11 0 13 -3 14 -15 4 -8 -7 -15 -25 -15 -40 0 -20 -6
-29 -22 -34 -35 -9 -88 -7 -88 3 0 6 -20 13 -45 17 -25 3 -45 9 -45 11 0 3 19
27 41 54 34 41 45 48 63 42 11 -4 51 -7 88 -6z m163 -9 c7 -8 5 -9 -8 -4 -10
3 -32 6 -48 6 -20 0 -28 4 -23 11 8 13 63 4 79 -13z m59 7 c-4 -8 -8 -15 -10
-15 -2 0 -4 7 -4 15 0 8 4 15 10 15 5 0 7 -7 4 -15z m619 -26 l28 -16 -38 -7
c-21 -3 -50 -6 -65 -6 -28 0 -37 13 -17 25 6 4 8 13 5 20 -11 29 19 24 87 -16z
m-1383 -13 c0 -2 -7 -6 -15 -10 -8 -3 -15 -1 -15 4 0 6 7 10 15 10 8 0 15 -2
15 -4z m826 -31 c18 -13 17 -14 -18 -15 -27 0 -38 4 -38 15 0 19 30 19 56 0z
m-206 -9 c0 -3 -4 -8 -10 -11 -5 -3 -10 -1 -10 4 0 6 5 11 10 11 6 0 10 -2 10
-4z m-1248 -381 c66 -69 127 -125 134 -125 19 0 18 -16 -2 -24 -31 -12 -177
112 -234 198 -14 20 -29 43 -35 49 -5 7 -15 22 -22 34 -10 18 -9 22 10 30 19
9 22 7 25 -14 2 -14 51 -73 124 -148z m2123 60 c22 -12 87 -48 145 -80 58 -31
107 -60 110 -62 3 -3 -11 -3 -30 0 l-35 6 32 -27 c17 -15 49 -35 70 -46 21
-10 46 -23 56 -28 16 -8 18 -6 12 12 -4 12 -4 33 0 47 5 20 8 23 20 13 18 -15
20 -61 4 -77 -9 -9 0 -17 34 -33 25 -12 48 -28 51 -35 3 -8 -8 -54 -25 -102
-16 -48 -28 -98 -26 -110 2 -13 0 -23 -5 -23 -5 0 -13 -12 -19 -26 -7 -21 -6
-31 6 -44 8 -9 15 -21 15 -26 0 -5 -4 -3 -8 4 -12 17 -39 5 -46 -21 -4 -15 6
-32 34 -63 21 -23 41 -40 43 -38 2 3 10 -3 18 -13 9 -11 10 -14 2 -9 -7 4 -13
5 -13 1 0 -9 53 -86 56 -82 7 7 52 133 58 164 7 30 5 33 -63 73 -39 23 -75 39
-80 35 -7 -3 -8 0 -5 9 5 13 17 10 73 -21 36 -20 74 -43 83 -51 14 -12 31 -12
100 -4 l83 11 -87 -6 c-84 -5 -86 -4 -81 16 3 12 9 21 14 21 5 0 6 -6 4 -13
-4 -9 7 -11 40 -9 31 3 45 8 45 19 0 8 6 12 13 9 6 -3 20 -9 30 -12 10 -4 21
-20 24 -35 5 -25 10 -29 37 -28 21 1 24 3 11 6 -41 10 -32 18 22 20 31 2 60 8
64 14 4 7 1 29 -6 50 -8 21 -10 39 -4 41 5 2 2 15 -5 30 -9 18 -11 30 -5 34
13 8 11 10 48 -66 29 -60 31 -62 26 -27 -3 21 -11 50 -19 65 -12 22 -12 31 -1
45 12 16 13 16 26 0 12 -14 12 -16 0 -8 -11 6 -13 4 -7 -11 17 -40 25 -77 20
-85 -3 -5 0 -18 7 -30 10 -20 7 -26 -32 -61 -41 -37 -45 -38 -114 -38 -39 0
-76 -5 -82 -11 -8 -8 -20 -7 -44 5 -18 9 -51 16 -74 16 l-41 0 -22 -70 c-26
-84 -27 -91 -6 -83 9 3 14 13 11 24 -3 10 1 26 9 36 7 10 14 30 14 46 0 21 5
27 23 27 39 0 47 -17 31 -63 -14 -40 -13 -67 4 -67 4 0 16 24 26 53 21 59 36
81 36 52 0 -27 -30 -104 -52 -137 -11 -15 -20 -37 -21 -48 -1 -13 -8 -20 -23
-20 -12 0 -29 -3 -38 -6 -14 -5 -14 -9 3 -33 21 -30 91 -167 91 -178 0 -4 -26
37 -58 92 -175 303 -300 451 -484 573 -21 13 -38 27 -38 29 0 12 144 -94 213
-156 22 -20 41 -30 46 -25 9 10 101 302 101 321 0 21 -93 71 -125 66 -28 -4
-118 38 -166 79 -9 7 -22 14 -30 16 -30 7 -138 76 -132 85 3 6 1 7 -5 3 -14
-8 -145 67 -135 77 3 4 1 8 -5 8 -7 1 -17 2 -24 3 -13 1 -24 26 -11 26 20 -1
228 -130 225 -140 -1 -6 2 -9 7 -5 14 8 73 -24 66 -35 -4 -6 1 -7 11 -3 13 5
15 3 9 -7 -5 -9 -4 -11 3 -6 15 9 54 -12 47 -24 -4 -6 1 -7 11 -3 13 5 15 3 9
-7 -5 -9 -4 -11 3 -6 15 9 54 -12 47 -25 -4 -5 -3 -9 2 -10 28 -3 51 -7 68
-14 22 -8 -110 71 -345 208 -85 49 -157 91 -158 92 -2 2 -1 13 3 25 6 20 8 20
73 -16 37 -21 85 -47 107 -59z m4325 73 c0 -21 -11 -99 -26 -187 l-5 -34 46 6
c40 6 46 5 43 -10 -2 -12 -21 -20 -68 -29 -36 -6 -66 -11 -68 -10 -1 2 7 61
18 132 11 71 20 135 20 142 0 6 9 12 20 12 14 0 20 -7 20 -22z m-5360 -13 c0
-8 -5 -24 -12 -34 -9 -15 -15 -17 -29 -8 -13 8 -21 7 -34 -6 -9 -9 -31 -17
-50 -17 -27 0 -33 -4 -38 -26 l-5 -27 60 6 c76 7 63 -8 -14 -17 -66 -7 -66 -7
-47 74 15 65 22 70 100 70 55 0 69 -3 69 -15z m-667 -62 c17 -38 34 -79 37
-93 5 -22 10 -25 45 -22 21 2 49 11 62 19 13 9 26 13 29 11 5 -6 -116 -83
-181 -116 -78 -39 -216 -82 -243 -76 -18 4 -23 3 -14 -4 10 -6 -2 -12 -38 -19
-37 -8 -50 -7 -47 1 2 6 16 10 30 8 15 -2 27 1 27 7 0 6 -8 8 -17 5 -15 -5
-15 -4 -3 4 8 5 32 12 53 16 43 8 45 11 15 37 -26 21 -29 20 82 24 46 2 92 10
118 21 50 22 50 28 -2 139 -26 55 -31 74 -22 88 19 31 36 18 69 -50z m5847
-45 c13 -62 25 -123 28 -135 4 -19 0 -23 -21 -23 -19 0 -26 6 -29 23 -2 17 -9
21 -28 20 -73 -7 -89 -14 -109 -48 -17 -30 -51 -49 -51 -28 0 3 30 71 67 149
61 131 74 149 109 153 6 1 21 -47 34 -111z m-4701 99 c-2 -1 -13 -9 -24 -17
-19 -14 -19 -14 -6 3 7 9 18 17 24 17 6 0 8 -1 6 -3z m4479 -39 c-3 -7 -21
-17 -41 -22 -34 -9 -36 -11 -46 -70 -6 -34 -14 -87 -17 -119 -6 -47 -11 -60
-28 -67 -12 -4 -22 -7 -24 -5 -1 1 6 57 16 124 l19 122 -38 -6 c-24 -4 -39 -3
-39 4 0 16 21 25 85 37 85 16 118 17 113 2z m-4508 -49 c0 -6 -4 -7 -10 -4 -5
3 -10 11 -10 16 0 6 5 7 10 4 6 -3 10 -11 10 -16z m77 -1 c-3 -8 -6 -5 -6 6
-1 11 2 17 5 13 3 -3 4 -12 1 -19z m4163 5 c0 -10 -8 -71 -17 -136 -14 -94
-21 -121 -36 -129 -10 -5 -21 -8 -23 -5 -2 2 5 62 16 133 11 71 20 135 20 142
0 6 9 12 20 12 12 0 20 -7 20 -17z m-141 -47 c38 -40 5 -62 -44 -30 -87 57
-217 -104 -144 -177 31 -31 84 -20 127 26 38 42 41 57 7 50 -14 -3 -36 -7 -50
-10 -20 -4 -25 -1 -25 14 0 15 10 20 53 25 28 4 62 10 75 13 45 11 21 -66 -40
-124 -38 -37 -76 -53 -121 -53 -123 0 -119 190 6 265 57 34 125 34 156 1z
m-309 -33 c0 -10 -8 -71 -17 -136 -14 -94 -21 -121 -36 -129 -10 -5 -21 -8
-23 -5 -2 2 5 62 16 133 11 71 20 135 20 142 0 6 9 12 20 12 12 0 20 -7 20
-17z m-4305 -13 c-3 -5 -40 -10 -81 -10 -48 0 -73 4 -69 10 3 6 40 10 81 10
48 0 73 -4 69 -10z m-184 -43 c-8 -8 -11 -7 -11 4 0 20 13 34 18 19 3 -7 -1
-17 -7 -23z m4324 27 c28 -11 47 -63 41 -108 -14 -90 -75 -148 -182 -170 -38
-8 -70 -13 -71 -12 -2 2 6 61 17 132 11 71 20 134 20 141 0 17 139 31 175 17z
m-4464 -43 c20 -23 33 -29 63 -27 34 1 37 -1 34 -24 -4 -31 -26 -30 -122 10
-65 27 -67 28 -50 7 19 -22 19 -22 -2 -4 -26 21 -33 21 -63 -2 -31 -23 -18
-31 60 -36 55 -4 60 -3 43 10 -11 8 -16 15 -12 15 15 0 138 -43 138 -49 -1
-21 -40 -40 -40 -19 0 6 -3 8 -7 5 -3 -4 -12 1 -20 11 -10 11 -12 12 -8 2 6
-13 5 -13 -7 0 -14 16 -58 15 -58 -2 0 -5 -7 -7 -16 -4 -8 3 -24 1 -34 -4 -15
-8 -21 -6 -29 8 -5 10 -21 24 -35 31 l-25 14 57 34 c31 19 61 39 67 44 17 16
40 10 66 -20z m1244 19 c-3 -5 -11 -10 -16 -10 -6 0 -7 5 -4 10 3 6 11 10 16
10 6 0 7 -4 4 -10z m83 -3 c19 -23 25 -64 9 -70 -9 -3 -21 9 -34 39 -19 41
-19 44 -3 44 10 0 22 -6 28 -13z m2760 -29 c-3 -7 -21 -17 -41 -22 -34 -9 -36
-11 -46 -70 -6 -34 -14 -87 -17 -119 -6 -47 -11 -60 -28 -67 -12 -4 -22 -7
-24 -5 -1 1 6 57 16 124 l19 122 -38 -6 c-24 -4 -39 -3 -39 4 0 16 21 25 85
37 85 16 118 17 113 2z m-2803 -17 c3 -5 1 -12 -4 -15 -5 -3 -11 1 -15 9 -6
16 9 21 19 6z m763 -43 c7 -7 12 -8 12 -3 0 5 12 -2 26 -16 14 -13 27 -23 30
-21 16 9 20 -3 9 -35 -15 -43 -2 -58 21 -25 14 20 54 20 54 0 0 -5 4 -7 9 -4
4 3 29 -8 55 -25 26 -16 52 -26 58 -23 7 4 8 2 4 -4 -9 -15 -179 -16 -205 -2
-16 8 -22 0 -46 -65 -15 -41 -24 -79 -20 -84 3 -7 0 -8 -9 -5 -9 3 -16 7 -16
8 0 1 79 250 80 251 0 0 -20 11 -45 25 -25 14 -45 28 -45 32 0 12 14 10 28 -4z
m1739 -3 c23 -16 44 -72 38 -102 -2 -10 -6 -30 -9 -45 -8 -37 -51 -85 -97
-108 -92 -47 -169 -10 -169 82 0 51 24 111 56 139 55 48 139 63 181 34z
m-1817 -10 c0 -8 -4 -15 -10 -15 -5 0 -10 7 -10 15 0 8 5 15 10 15 6 0 10 -7
10 -15z m-669 -18 c-10 -9 -11 -8 -5 6 3 10 9 15 12 12 3 -3 0 -11 -7 -18z
m-1517 -2 c-4 -8 -7 -15 -9 -15 -2 0 -5 7 -9 15 -3 9 0 15 9 15 9 0 12 -6 9
-15z m2236 -10 c0 -8 -4 -15 -10 -15 -5 0 -10 7 -10 15 0 8 5 15 10 15 6 0 10
-7 10 -15z m-2258 -25 c67 -18 124 -20 148 -5 14 9 50 -4 50 -17 0 -6 -11 -8
-26 -5 -19 3 -24 1 -19 -10 4 -13 -7 -14 -75 -10 -65 3 -78 2 -69 -9 11 -13
55 -31 99 -39 12 -2 32 -11 44 -19 13 -8 28 -11 37 -6 26 15 109 23 109 11 0
-6 -16 -11 -35 -11 -22 0 -38 -6 -41 -15 -4 -8 -10 -12 -15 -9 -5 3 -17 0 -26
-5 -14 -8 -15 -10 -3 -11 13 0 13 -2 1 -9 -10 -6 -28 -3 -55 11 -56 28 -245
151 -246 160 0 6 18 13 42 17 4 0 40 -8 80 -19z m58 10 c-8 -5 -19 -10 -25
-10 -5 0 -3 5 5 10 8 5 20 10 25 10 6 0 3 -5 -5 -10z m176 -11 c19 -11 34 -23
34 -26 0 -4 -62 30 -79 44 -16 12 18 -1 45 -18z m3492 -18 c2 -23 -3 -43 -17
-62 -18 -24 -18 -29 -6 -39 32 -27 10 -96 -38 -122 -21 -11 -149 -39 -155 -34
-1 2 7 61 18 132 11 71 20 134 20 141 0 14 43 21 120 19 l55 -1 3 -34z m-3067
10 c9 -9 -10 -71 -22 -71 -32 0 -89 66 -72 83 6 6 86 -4 94 -12z m1649 4 c0
-8 -4 -15 -10 -15 -5 0 -10 7 -10 15 0 8 5 15 10 15 6 0 10 -7 10 -15z m1117
-30 c23 -16 44 -72 38 -102 -2 -10 -6 -30 -9 -45 -8 -37 -51 -85 -97 -108 -92
-47 -169 -10 -169 82 0 51 24 111 56 139 55 48 139 63 181 34z m-3683 -26 c-3
-5 -9 -7 -14 -4 -5 3 -20 1 -34 -5 -17 -6 -26 -6 -26 1 0 5 10 13 22 18 26 9
60 3 52 -10z m1431 -73 l72 -71 -66 60 c-36 34 -79 71 -96 83 -22 17 -24 20
-6 12 13 -7 56 -44 96 -84z m-4261 -5 c83 -49 185 -103 226 -119 41 -17 109
-46 150 -65 l74 -35 -39 -11 c-161 -45 -228 -61 -231 -58 -4 4 149 48 214 62
l34 7 -54 25 c-29 14 -96 43 -148 65 -52 21 -101 42 -109 45 -8 4 -12 2 -8 -3
3 -5 51 -27 106 -49 83 -32 98 -41 89 -53 -10 -11 -14 -12 -22 0 -6 7 -22 15
-36 17 -14 1 -28 7 -31 12 -3 5 -24 10 -47 12 -23 1 -42 5 -42 10 0 4 -12 8
-27 8 -25 2 -25 2 -5 6 13 3 21 10 19 16 -5 16 -72 21 -108 8 -18 -6 -27 -6
-24 -1 3 6 -1 7 -10 4 -9 -4 -14 -13 -11 -20 3 -8 1 -14 -4 -14 -6 0 -10 7
-10 16 0 14 -3 14 -16 4 -12 -11 -15 -11 -12 1 2 8 8 17 13 21 6 5 5 8 -2 8
-7 0 -17 -9 -23 -20 -6 -11 -16 -20 -23 -20 -9 0 -9 2 0 8 7 4 15 22 19 39 6
30 3 33 -72 78 -44 26 -72 45 -64 42 25 -8 201 -113 196 -118 -2 -2 29 -4 69
-4 73 0 73 0 46 17 -20 13 -35 15 -56 9 -22 -6 -40 -3 -67 11 -45 22 -50 31
-9 15 15 -5 36 -7 46 -3 17 6 17 7 -2 21 -15 11 -29 12 -53 5 -29 -8 -41 -5
-92 24 -58 32 -59 34 -31 39 20 4 43 -3 81 -25 29 -17 55 -28 58 -25 3 3 -20
19 -51 35 -41 23 -66 30 -93 27 -35 -4 -35 -4 -7 4 17 5 34 9 39 10 4 0 76
-39 160 -88z m4676 79 c8 -5 11 -10 5 -10 -5 0 -17 5 -25 10 -8 5 -10 10 -5
10 6 0 17 -5 25 -10z m577 -12 c-3 -8 -6 -5 -6 6 -1 11 2 17 5 13 3 -3 4 -12
1 -19z m-5513 -29 c50 -29 45 -34 -6 -8 -50 25 -55 29 -40 29 6 0 27 -9 46
-21z m5570 6 c-4 -8 -8 -15 -10 -15 -2 0 -4 7 -4 15 0 8 4 15 10 15 5 0 7 -7
4 -15z m894 3 c7 -7 12 -27 12 -46 0 -26 -9 -43 -36 -70 l-36 -36 21 -43 c27
-56 26 -63 -4 -63 -20 0 -28 9 -46 50 -12 28 -28 50 -35 50 -17 0 -34 -40 -34
-80 0 -19 -7 -33 -21 -40 -11 -7 -23 -10 -25 -7 -2 2 5 62 16 133 11 71 20
134 20 141 0 21 149 30 168 11z m-6553 -8 c-11 -5 -27 -9 -35 -9 -9 0 -8 4 5
9 11 5 27 9 35 9 9 0 8 -4 -5 -9z m5135 -10 c22 -11 40 -23 40 -25 0 -5 -79
32 -89 41 -11 10 14 2 49 -16z m567 -22 c-3 -7 -5 -2 -5 12 0 14 2 19 5 13 2
-7 2 -19 0 -25z m-5730 7 c44 -19 49 -19 34 -1 -19 23 65 7 113 -21 35 -21 37
-24 14 -20 -18 3 -25 0 -21 -9 7 -19 32 -25 54 -13 19 10 20 9 9 -12 -9 -17
-9 -23 0 -29 7 -4 -16 -13 -54 -21 -36 -7 -66 -16 -66 -20 0 -4 -16 -10 -35
-13 -19 -4 -35 -11 -35 -16 0 -5 -11 -21 -25 -36 -14 -15 -25 -23 -25 -18 1
15 53 70 73 77 12 4 15 11 10 19 -15 25 -12 44 9 53 12 6 23 17 25 25 4 13 3
13 -9 0 -15 -18 -38 -24 -38 -11 0 11 -26 9 -37 -3 -4 -4 -3 -7 2 -6 22 5 33
-1 31 -17 -1 -23 -34 -37 -52 -22 -8 6 -20 9 -29 5 -8 -3 -14 0 -12 6 1 6 -9
14 -23 18 -21 5 -18 8 23 14 26 4 47 12 47 17 0 12 -60 49 -80 49 -8 0 1 -10
20 -22 l35 -22 -40 -7 c-91 -18 -122 -22 -167 -22 -27 -1 -46 -6 -45 -12 2
-10 -6 -10 -65 -1 -16 3 -28 0 -28 -5 0 -5 17 -10 38 -10 23 -1 28 -3 15 -6
-13 -2 -23 -10 -23 -16 0 -7 -4 -6 -10 3 -5 8 -10 10 -10 4 0 -20 11 -21 63
-4 43 15 56 15 77 5 27 -14 77 -14 98 -1 10 6 10 11 1 22 -9 11 -8 14 5 14 10
0 15 -4 11 -9 -3 -5 -1 -12 5 -16 5 -3 10 -2 10 4 0 6 7 8 15 5 24 -10 17 -22
-17 -30 -18 -3 -39 -15 -46 -25 -7 -10 -19 -16 -27 -13 -8 4 -15 2 -15 -4 0
-6 -3 -17 -6 -25 -4 -11 5 -19 30 -28 36 -13 53 -34 36 -44 -6 -4 -10 -1 -10
6 0 8 -3 9 -13 0 -8 -6 -16 -8 -19 -5 -3 2 -8 -2 -12 -11 -6 -18 16 -30 38
-22 8 3 22 -1 33 -9 16 -14 16 -14 -7 -3 -23 11 -24 11 -11 -5 10 -12 11 -20
3 -28 -8 -8 -21 -4 -50 15 -29 19 -51 25 -86 25 -35 -1 -43 -4 -31 -10 9 -6
27 -7 40 -4 17 4 47 -9 115 -51 l92 -58 -69 -17 c-122 -31 -227 -19 -210 26 5
12 1 16 -16 15 -12 0 -16 -3 -9 -6 6 -2 12 -12 12 -20 0 -14 -2 -14 -18 0 -29
26 -35 20 -11 -12 26 -35 20 -47 -35 -73 -34 -16 -36 -18 -11 -13 37 8 75 42
75 67 0 18 2 18 22 4 28 -20 112 -21 191 -2 31 7 57 11 57 8 0 -2 7 1 15 8 9
7 14 19 11 25 -4 13 42 40 52 31 3 -3 -3 -8 -12 -12 -28 -11 -9 -20 36 -18 24
2 43 3 43 4 0 1 18 4 40 6 21 3 37 3 34 0 -3 -3 -186 -50 -408 -105 -222 -56
-410 -106 -417 -112 -15 -12 -17 -9 -8 15 3 8 12 12 20 9 8 -3 14 0 14 7 0 8
9 10 26 6 18 -5 24 -3 18 5 -4 8 -3 9 4 5 7 -4 20 -2 29 4 16 10 16 11 -3 7
-15 -3 -24 3 -33 24 -7 16 -26 37 -42 46 -56 33 -47 74 20 93 48 13 160 13
199 -1 19 -6 37 -7 47 -2 16 9 -5 14 -163 39 -20 3 -32 1 -28 -4 3 -5 -13 -12
-35 -16 -50 -8 -112 -62 -88 -77 16 -10 15 -10 -56 -14 -56 -3 -127 -24 -120
-35 8 -14 27 -13 106 7 59 14 71 14 85 2 9 -8 27 -13 38 -12 19 3 19 2 -2 -7
-13 -6 -28 -8 -33 -5 -7 5 -65 -6 -109 -21 -31 -11 12 -21 53 -12 86 17 102
18 117 9 8 -5 12 -12 10 -14 -3 -3 -50 -15 -105 -28 -91 -20 -104 -21 -130 -8
-17 9 -29 22 -29 32 1 13 -6 17 -30 17 -38 1 -71 23 -63 45 8 18 27 26 124 51
70 18 72 18 92 -1 12 -10 24 -15 28 -11 4 3 -3 13 -15 22 -29 20 -28 34 2 34
33 0 53 25 35 46 -10 13 -24 15 -61 10 -45 -6 -52 -4 -105 34 -57 40 -81 46
-118 29 -16 -7 -12 -8 14 -4 28 4 44 -2 97 -40 62 -45 65 -46 104 -34 32 10
43 9 55 -1 20 -16 9 -24 -48 -34 -24 -5 -35 -11 -31 -18 4 -7 3 -8 -4 -4 -14
8 -84 -3 -78 -13 2 -3 -16 -6 -40 -5 -30 1 -42 -2 -37 -10 3 -6 2 -8 -2 -3 -5
4 -10 16 -12 27 -2 15 3 20 21 20 58 0 57 11 -1 53 -32 22 -61 46 -65 51 -5 8
-8 7 -8 -1 0 -7 20 -26 45 -43 51 -35 55 -46 20 -52 -14 -3 -25 -2 -25 1 0 3
-14 14 -32 24 -24 14 -28 15 -18 2 7 -8 8 -15 2 -15 -14 0 -33 26 -25 34 4 4
0 4 -8 1 -9 -3 -22 2 -30 11 -12 15 -12 16 10 9 16 -5 21 -4 17 4 -5 7 -28 10
-62 7 -32 -3 -54 -1 -54 5 0 6 -4 7 -10 4 -22 -13 -8 -25 29 -25 33 0 52 -10
115 -60 42 -33 76 -61 76 -63 0 -1 -20 -2 -45 -2 -39 0 -53 7 -115 55 -38 30
-70 58 -70 63 0 4 -4 5 -10 2 -6 -3 -7 1 -4 9 3 9 2 16 -3 16 -27 0 -2 -34 63
-86 40 -32 70 -62 68 -66 -3 -4 -41 22 -84 58 -77 63 -82 65 -120 59 -22 -4
-43 -11 -46 -16 -3 -6 -12 -2 -21 8 -8 10 -12 13 -9 6 4 -6 1 -13 -6 -15 -9
-3 -8 -10 5 -22 10 -10 24 -16 32 -13 7 3 19 -1 26 -9 11 -13 8 -14 -17 -9
-16 4 -35 8 -41 11 -7 2 -13 -1 -13 -6 0 -5 10 -12 23 -15 70 -16 112 -24 114
-21 2 1 -17 17 -42 35 -25 18 -45 36 -45 41 0 4 16 10 36 12 32 4 44 -2 103
-50 36 -30 70 -58 74 -62 19 -18 -81 -28 -140 -14 -76 18 -72 19 -85 -17 -11
-31 -41 -49 -81 -49 -13 1 -52 28 -91 64 l-70 64 43 7 c41 7 45 5 85 -34 l42
-42 12 26 c7 14 12 31 11 38 0 7 -4 2 -10 -11 -5 -13 -13 -20 -19 -17 -6 4 -8
10 -5 15 3 5 0 12 -6 16 -8 4 -9 3 -5 -4 13 -21 -7 -13 -34 13 l-27 26 -67
-17 c-63 -16 -70 -16 -102 0 -40 18 -44 19 -44 7 0 -5 15 -12 33 -16 l32 -7
-28 -10 c-21 -7 -25 -13 -17 -23 17 -21 -61 -28 -101 -9 -26 11 -28 14 -9 10
14 -2 35 -8 48 -11 16 -5 22 -3 22 7 0 11 -8 14 -27 10 -27 -4 -27 -4 -9 10
11 9 27 14 35 13 9 -1 10 0 4 2 -7 3 -13 11 -13 18 0 18 -25 32 -75 40 -30 5
-36 4 -25 -4 8 -6 27 -11 41 -11 30 0 57 -26 43 -40 -5 -5 -23 -12 -40 -16
-25 -5 -37 0 -59 20 -28 26 -71 43 -81 33 -3 -3 8 -8 24 -12 16 -3 40 -17 52
-31 22 -22 22 -24 5 -24 -10 0 -31 11 -45 25 -14 13 -41 27 -60 31 -26 4 -31
3 -20 -5 11 -8 5 -9 -25 -6 -29 3 -33 3 -15 -3 18 -6 21 -10 12 -16 -7 -4 -18
-3 -25 2 -7 5 -21 12 -32 14 -11 2 70 22 180 45 125 26 213 40 234 36 22 -4
29 -8 20 -14 -7 -4 -21 -3 -31 2 -11 6 -27 8 -36 6 -11 -2 -5 -7 18 -14 21 -6
42 -7 53 -1 22 11 13 28 -16 29 -12 0 68 20 178 45 184 40 267 54 205 34 -44
-14 9 -10 65 5 l50 14 -45 -6 c-105 -13 -13 10 335 82 204 42 461 96 573 121
119 26 214 42 230 38 21 -4 24 -3 12 5 -23 16 4 14 47 -4z m3134 -51 c6 -8 5
-14 -4 -17 -9 -3 -17 -30 -22 -73 -4 -37 -9 -77 -11 -88 -6 -36 -24 -161 -24
-171 0 -5 5 -3 10 5 8 13 10 12 10 -2 0 -10 -5 -18 -11 -18 -7 0 -9 -11 -5
-30 4 -22 2 -29 -5 -24 -8 5 -10 -3 -7 -25 2 -17 1 -31 -4 -31 -4 0 -7 -15 -7
-32 l1 -33 8 30 8 30 1 -31 c1 -21 -5 -34 -15 -38 -12 -4 -15 -15 -12 -36 3
-21 1 -27 -6 -20 -7 7 -6 40 2 108 19 145 30 247 37 342 5 78 11 112 31 195
l8 30 4 -30 c2 -16 8 -35 13 -41z m-2911 10 c0 -2 -13 2 -30 11 -16 9 -30 18
-30 21 0 2 14 -2 30 -11 17 -9 30 -18 30 -21z m3580 -4 c0 -5 -9 -8 -20 -7
-20 1 -25 8 -14 20 8 7 34 -3 34 -13z m-3540 -29 c0 -9 -5 -23 -11 -31 -9 -12
-10 -11 -6 7 3 13 0 26 -5 30 -7 3 -8 1 -4 -5 4 -7 2 -12 -3 -12 -13 0 -13 3
-5 24 7 19 34 9 34 -13z m5364 3 c17 -6 22 -24 8 -24 -5 0 -17 7 -28 15 -19
15 -8 20 20 9z m483 -66 c-2 -13 -4 -5 -4 17 -1 22 1 32 4 23 2 -10 2 -28 0
-40z m-6267 38 c0 -2 -7 -7 -16 -10 -8 -3 -12 -2 -9 4 6 10 25 14 25 6z m617
-22 c-3 -3 -12 -4 -19 -1 -8 3 -5 6 6 6 11 1 17 -2 13 -5z m-50 -10 c-3 -3
-12 -4 -19 -1 -8 3 -5 6 6 6 11 1 17 -2 13 -5z m-457 -8 c0 -3 -4 -8 -10 -11
-5 -3 -10 -1 -10 4 0 6 5 11 10 11 6 0 10 -2 10 -4z m287 -2 c-3 -3 -12 -4
-19 -1 -8 3 -5 6 6 6 11 1 17 -2 13 -5z m56 -11 c-22 -8 -14 -22 23 -41 l37
-19 -35 -21 c-20 -12 -39 -22 -44 -22 -5 0 6 9 25 21 l34 20 -32 20 c-17 10
-31 23 -31 27 0 12 11 22 24 21 6 0 5 -3 -1 -6z m140 0 c-7 -2 -19 -2 -25 0
-7 3 -2 5 12 5 14 0 19 -2 13 -5z m-276 -9 c-3 -3 -12 -4 -19 -1 -8 3 -5 6 6
6 11 1 17 -2 13 -5z m226 -1 c-7 -2 -19 -2 -25 0 -7 3 -2 5 12 5 14 0 19 -2
13 -5z m-48 -13 c3 -6 -1 -7 -9 -4 -18 7 -21 14 -7 14 6 0 13 -4 16 -10z
m-268 -6 c-3 -3 -12 -4 -19 -1 -8 3 -5 6 6 6 11 1 17 -2 13 -5z m100 0 c-3 -3
-12 -4 -19 -1 -8 3 -5 6 6 6 11 1 17 -2 13 -5z m-137 -19 c0 -8 -4 -15 -10
-15 -5 0 -7 7 -4 15 4 8 8 15 10 15 2 0 4 -7 4 -15z m693 -9 c12 -9 14 -16 8
-21 -6 -3 -11 -1 -11 4 0 6 -3 10 -7 10 -20 -3 -34 2 -28 11 8 13 16 12 38 -4z
m-353 -21 c0 -2 -10 -9 -22 -15 -22 -11 -22 -10 -4 4 21 17 26 19 26 11z
m-357 -12 c-7 -2 -19 -2 -25 0 -7 3 -2 5 12 5 14 0 19 -2 13 -5z m847 -3 c8
-5 11 -10 5 -10 -5 0 -17 5 -25 10 -8 5 -10 10 -5 10 6 0 17 -5 25 -10z m4600
-60 c-11 -27 -10 -33 5 -50 10 -11 15 -23 12 -27 -4 -3 -7 -2 -7 4 0 6 -6 13
-14 16 -11 5 -32 -49 -92 -231 -70 -217 -94 -279 -94 -243 0 8 20 73 44 145
24 72 65 200 92 284 30 97 51 149 57 143 6 -6 5 -21 -3 -41z m-4624 25 c18
-13 16 -14 -18 -11 -21 1 -38 -1 -38 -6 0 -4 -9 -8 -19 -8 -11 0 -22 -4 -26
-10 -3 -5 -12 -7 -20 -3 -8 3 -15 1 -15 -5 0 -5 -12 -10 -27 -11 -55 -1 -63
-2 -63 -12 0 -5 -7 -9 -15 -9 -8 0 -15 7 -15 16 0 8 5 12 11 8 6 -3 15 -1 18
5 4 7 26 13 49 14 22 0 38 5 35 10 -3 5 4 6 17 2 15 -5 20 -4 16 4 -5 7 3 11
23 11 16 0 33 5 36 10 9 14 28 12 51 -5z m-533 -12 c-7 -2 -19 -2 -25 0 -7 3
-2 5 12 5 14 0 19 -2 13 -5z m597 -13 c0 -5 7 -10 15 -10 8 0 22 -15 31 -32 9
-18 14 -30 10 -27 -11 10 -150 -22 -1021 -236 -516 -127 -776 -190 -925 -224
-74 -18 -157 -38 -185 -46 -27 -8 -140 -34 -250 -59 -110 -25 -301 -70 -425
-99 -124 -30 -304 -73 -400 -96 -96 -23 -186 -44 -200 -48 -14 -3 -23 -3 -20
0 3 3 71 22 150 42 80 20 150 41 156 46 6 5 13 6 16 3 3 -3 80 13 169 36 90
23 180 46 199 50 66 16 425 108 520 134 178 49 181 50 165 56 -9 3 39 20 107
38 135 35 177 41 83 11 -49 -15 -53 -18 -20 -13 22 3 67 12 99 21 48 13 56 18
40 25 -13 6 -9 7 14 3 17 -2 32 -1 32 4 0 10 38 18 115 25 28 3 64 10 80 16
17 7 98 29 180 50 389 99 480 124 483 132 2 4 8 6 12 3 11 -7 152 24 165 36 5
5 20 9 33 9 13 0 30 7 38 15 8 8 29 14 47 14 18 -1 121 22 230 50 109 28 207
51 218 51 10 0 19 7 19 15 0 8 5 15 10 15 6 0 10 -4 10 -10z m-935 -42 c4 -10
16 -18 28 -19 21 0 21 -1 2 -8 -17 -7 -49 8 -39 18 7 8 -39 40 -49 34 -6 -3
-7 -1 -3 5 10 16 54 -5 61 -30z m410 32 c3 -5 1 -10 -4 -10 -6 0 -11 5 -11 10
0 6 2 10 4 10 3 0 8 -4 11 -10z m162 4 c-3 -3 -12 -4 -19 -1 -8 3 -5 6 6 6 11
1 17 -2 13 -5z m-77 -20 c-25 -7 -52 -13 -60 -13 -21 1 60 27 85 27 11 0 0 -6
-25 -14z m2995 -1 c4 -10 8 -39 8 -65 2 -45 1 -47 -18 -34 -24 16 -29 36 -20
82 6 37 19 44 30 17z m370 -3 c-3 -5 -20 -10 -36 -10 -18 0 -28 4 -24 10 3 6
20 10 36 10 18 0 28 -4 24 -10z m-3918 -32 c-1 -6 4 -13 12 -16 10 -3 12 0 8
12 -8 20 0 21 18 2 12 -12 12 -16 1 -25 -11 -9 -22 -7 -50 10 -20 11 -34 25
-31 29 7 11 45 0 42 -12z m470 16 c-3 -3 -12 -4 -19 -1 -8 3 -5 6 6 6 11 1 17
-2 13 -5z m161 -6 c-3 -7 -13 -13 -23 -13 -10 0 -20 6 -22 13 -3 7 5 12 22 12
17 0 25 -5 23 -12z m6547 -5 c23 -57 63 -229 55 -237 -18 -18 -38 4 -50 56
-27 111 -29 112 -56 19 -28 -97 -71 -199 -116 -274 -131 -224 -367 -380 -509
-338 -69 21 -131 104 -99 134 9 9 16 7 28 -12 48 -68 68 -81 125 -81 144 0
342 169 450 385 48 98 109 285 93 285 -4 0 -36 -23 -71 -51 -62 -49 -95 -58
-95 -26 0 19 187 157 215 157 12 0 26 -8 30 -17z m-6748 1 c-3 -3 -12 -4 -19
-1 -8 3 -5 6 6 6 11 1 17 -2 13 -5z m143 -4 c17 -11 6 -24 -23 -27 -42 -4 -62
-9 -75 -17 -7 -4 -21 -4 -32 -1 -11 4 -20 2 -20 -4 0 -6 -9 -11 -20 -11 -11 0
-20 -4 -20 -8 0 -5 -16 -8 -36 -7 -19 0 -37 -2 -40 -6 -9 -15 -86 -21 -97 -9
-9 10 -8 12 6 7 10 -4 17 -2 17 5 0 6 3 9 6 6 3 -4 22 0 41 9 25 10 39 11 46
4 15 -15 30 -14 21 1 -5 7 -2 9 9 5 9 -3 17 -1 19 5 2 6 13 12 24 12 11 1 25
5 32 10 7 4 21 4 32 1 11 -4 20 -2 20 2 0 7 35 23 70 31 3 1 12 -2 20 -8z
m2863 0 c-7 -8 -52 -7 -47 1 2 4 15 6 28 5 13 0 22 -3 19 -6z m-3082 -16 c-25
-8 -61 -16 -80 -19 -20 -2 -7 4 29 14 75 22 117 26 51 5z m-198 -11 c-7 -2
-19 -2 -25 0 -7 3 -2 5 12 5 14 0 19 -2 13 -5z m-1063 -18 c20 -24 6 -28 -15
-5 -10 11 -13 20 -8 20 6 0 16 -7 23 -15z m4333 -30 c-8 -22 -22 -18 -16 5 3
11 9 17 14 15 4 -3 6 -12 2 -20z m376 9 c2 -2 0 -23 -5 -46 -9 -40 -11 -43
-38 -40 -17 2 -40 8 -54 13 -21 8 -22 10 -8 25 16 15 20 28 17 52 -2 9 9 11
41 6 24 -4 45 -8 47 -10z m-5788 -7 c32 -11 69 -38 69 -50 0 -7 -130 -35 -156
-34 -13 1 -20 6 -17 14 3 7 -2 13 -11 13 -9 0 -16 5 -16 10 0 12 -10 13 -30 0
-12 -8 -12 -11 3 -28 21 -23 13 -32 -31 -32 -26 0 -33 4 -29 14 4 10 1 13 -7
10 -7 -3 -16 1 -19 8 -3 10 5 15 25 16 16 1 39 9 51 17 16 10 32 12 60 6 21
-5 37 -5 37 0 0 16 23 10 47 -13 13 -12 23 -17 23 -11 0 20 -38 44 -76 48 -32
4 -34 3 -14 -4 31 -11 14 -13 -31 -4 l-34 7 50 12 c65 16 64 16 106 1z m162
-15 c28 -29 27 -43 -2 -41 -12 0 -11 3 4 10 14 6 5 7 -28 3 -66 -9 -106 25
-54 46 37 15 52 11 80 -18z m-1589 6 c-4 -7 -30 -48 -57 -91 l-50 -79 67 -67
68 -68 -39 -6 c-36 -6 -41 -4 -95 50 l-58 57 0 -71 c0 -70 0 -71 -29 -75 l-29
-4 -7 120 c-10 173 -6 198 27 207 l27 7 3 -71 3 -72 52 80 c51 77 69 93 106
94 12 1 16 -3 11 -11z m1915 -63 c6 -36 14 -71 17 -78 3 -9 -9 -16 -38 -23
-40 -8 -53 -5 -166 42 -67 28 -125 54 -128 57 -11 11 88 19 110 9 16 -7 37 -7
69 1 38 8 46 14 42 28 -5 13 1 19 22 22 62 9 60 11 72 -58z m-656 48 c-7 -2
-19 -2 -25 0 -7 3 -2 5 12 5 14 0 19 -2 13 -5z m2331 1 c25 -10 19 -22 -14
-28 -16 -3 -43 -9 -60 -12 -24 -4 -30 -2 -30 12 0 9 3 15 6 11 3 -3 17 -1 31
4 18 6 30 6 39 -2 12 -10 13 -9 8 5 -7 18 -4 19 20 10z m3376 -43 c13 -12 13
-13 -2 -8 -13 5 -17 0 -16 -26 0 -18 6 -38 12 -46 9 -12 8 -13 -4 -6 -48 27
-59 55 -43 113 5 23 6 23 22 5 9 -10 23 -24 31 -32z m-5770 29 c-14 -4 -34 -8
-45 -8 -16 0 -15 2 5 8 14 4 34 8 45 8 16 0 15 -2 -5 -8z m737 -12 c-3 -8 -6
-5 -6 6 -1 11 2 17 5 13 3 -3 4 -12 1 -19z m-274 5 c-7 -2 -19 -2 -25 0 -7 3
-2 5 12 5 14 0 19 -2 13 -5z m5162 -3 c-11 -5 -31 -8 -45 -8 -23 0 -22 1 5 8
42 11 65 11 40 0z m2310 -23 c-20 -11 -27 -5 -19 17 5 13 9 14 21 5 12 -11 12
-14 -2 -22z m-8012 16 c-7 -2 -19 -2 -25 0 -7 3 -2 5 12 5 14 0 19 -2 13 -5z
m1624 1 c-3 -3 -12 -4 -19 -1 -8 3 -5 6 6 6 11 1 17 -2 13 -5z m720 -18 c-2
-6 -15 -12 -28 -13 -45 -4 -64 -9 -94 -25 -25 -13 -49 -16 -87 -9 -5 0 -8 6
-8 12 0 6 7 9 15 5 8 -3 15 0 15 6 0 7 5 6 15 -2 13 -11 14 -10 9 5 -7 16 -3
17 29 12 23 -3 37 -2 37 5 0 6 10 8 23 6 13 -2 28 1 35 8 14 15 45 7 39 -10z
m-2390 8 c-3 -3 -12 -4 -19 -1 -8 3 -5 6 6 6 11 1 17 -2 13 -5z m224 -11 c13
-16 12 -17 -3 -4 -10 7 -18 15 -18 17 0 8 8 3 21 -13z m284 -43 c28 -26 57
-50 65 -53 13 -5 13 -6 0 -6 -9 -1 -38 22 -65 49 -31 32 -58 50 -73 50 -13 0
-21 4 -17 10 9 15 37 0 90 -50z m411 28 c16 -18 22 -27 14 -21 -19 14 -50 -6
-51 -33 0 -18 -1 -18 -9 1 -13 30 -12 73 3 78 6 3 12 6 13 6 0 1 13 -13 30
-31z m227 20 c10 2 17 -3 17 -12 0 -18 -35 -22 -45 -6 -5 8 -12 7 -23 -2 -14
-12 -14 -10 -3 10 7 14 17 20 24 15 7 -4 20 -6 30 -5z m182 2 c4 -6 -6 -10
-22 -9 -25 0 -26 1 -8 9 11 5 21 9 22 9 1 1 5 -3 8 -9z m302 4 c-3 -3 -12 -4
-19 -1 -8 3 -5 6 6 6 11 1 17 -2 13 -5z m-1687 -14 c-14 -4 -34 -8 -45 -8 -16
0 -15 2 5 8 14 4 34 8 45 8 16 0 15 -2 -5 -8z m155 1 c10 -17 -9 -20 -30 -5
-18 14 -18 14 2 14 12 0 24 -4 28 -9z m1335 -1 c10 -7 1 -8 -30 -4 -56 8 -64
14 -19 14 19 0 41 -5 49 -10z m1947 -22 c-3 -7 -5 -2 -5 12 0 14 2 19 5 13 2
-7 2 -19 0 -25z m-2164 15 c3 -5 -11 -18 -29 -30 -26 -17 -34 -19 -34 -8 0 8
3 14 8 13 4 -2 8 1 9 6 3 18 38 32 46 19z m-2616 -37 c34 -31 37 -39 41 -98 5
-84 -19 -136 -81 -173 -57 -33 -132 -35 -172 -3 -68 54 -72 178 -7 252 26 29
92 56 140 56 34 0 49 -6 79 -34z m1266 27 c-7 -2 -19 -2 -25 0 -7 3 -2 5 12 5
14 0 19 -2 13 -5z m207 -8 c16 -20 4 -35 -29 -35 -31 0 -57 23 -46 40 9 15 61
12 75 -5z m423 -43 l52 -51 44 10 c31 7 47 6 57 -2 19 -16 18 -29 -3 -29 -10
0 -68 -12 -130 -27 -93 -22 -114 -25 -127 -14 -24 20 -19 31 12 32 63 1 66 11
16 59 -69 68 -71 75 -17 74 40 -1 51 -7 96 -52z m911 47 c22 -6 53 -24 69 -40
27 -27 28 -31 15 -52 -34 -51 -186 -73 -264 -38 -46 21 -76 55 -67 78 6 16 55
43 98 54 46 11 106 10 149 -2z m-1591 -6 c-7 -2 -19 -2 -25 0 -7 3 -2 5 12 5
14 0 19 -2 13 -5z m-46 -9 c-3 -3 -12 -4 -19 -1 -8 3 -5 6 6 6 11 1 17 -2 13
-5z m2382 -8 c9 -11 7 -15 -9 -19 -15 -4 -20 0 -20 14 0 22 13 25 29 5z
m-2426 -3 c-7 -2 -19 -2 -25 0 -7 3 -2 5 12 5 14 0 19 -2 13 -5z m6381 -13 c4
-5 5 -27 1 -50 -7 -42 -7 -42 -42 -35 -53 10 -92 27 -71 32 20 5 34 53 17 63
-6 5 10 6 37 3 27 -3 53 -9 58 -13z m-6427 4 c-3 -3 -12 -4 -19 -1 -8 3 -5 6
6 6 11 1 17 -2 13 -5z m2433 -3 c0 -14 -46 -28 -145 -43 -11 -2 -23 -7 -26
-12 -4 -4 -20 -9 -37 -10 -17 -1 -34 -5 -38 -9 -11 -11 -36 -9 -29 3 3 6 -1 7
-9 4 -9 -3 -16 -2 -16 4 0 8 62 25 100 26 8 1 21 7 29 14 7 7 20 11 29 7 8 -3
21 0 28 6 8 6 23 9 34 6 11 -3 20 -1 20 4 0 5 14 9 30 9 17 0 30 -4 30 -9z
m3630 1 c0 -5 -13 -7 -30 -4 -16 2 -30 6 -30 8 0 2 14 4 30 4 17 0 30 -4 30
-8z m-6113 -8 c-3 -3 -12 -4 -19 -1 -8 3 -5 6 6 6 11 1 17 -2 13 -5z m623 -9
c7 -9 11 -17 9 -18 -2 -2 -47 -13 -99 -24 -81 -18 -97 -19 -109 -7 -8 7 -13
15 -10 17 3 3 171 44 190 46 4 1 12 -6 19 -14z m896 -8 c1 -7 5 -21 9 -32 3
-11 -1 -7 -10 8 -13 23 -21 28 -41 23 -13 -4 -24 -2 -24 3 0 5 12 11 28 13 31
4 35 2 38 -15z m6824 -141 c-28 -86 -55 -156 -58 -156 -4 1 -18 7 -32 15 -28
16 -19 21 10 5 17 -9 23 4 70 146 29 85 54 153 57 150 3 -2 -18 -75 -47 -160z
m-8383 148 c-3 -3 -12 -4 -19 -1 -8 3 -5 6 6 6 11 1 17 -2 13 -5z m-1340 -38
c34 -31 37 -39 41 -98 5 -84 -19 -136 -81 -173 -57 -33 -132 -35 -172 -3 -68
54 -72 178 -7 252 26 29 92 56 140 56 34 0 49 -6 79 -34z m1290 28 c-3 -3 -12
-4 -19 -1 -8 3 -5 6 6 6 11 1 17 -2 13 -5z m6170 0 c-3 -3 -12 -4 -19 -1 -8 3
-5 6 6 6 11 1 17 -2 13 -5z m-6214 -11 c-7 -2 -19 -2 -25 0 -7 3 -2 5 12 5 14
0 19 -2 13 -5z m6365 -23 c17 -16 26 -30 21 -30 -16 0 -10 -53 9 -73 16 -19
15 -19 -24 1 -47 24 -54 37 -54 93 0 47 9 49 48 9z m2181 -8 c-6 -18 -15 -32
-20 -32 -12 0 -11 6 7 41 19 39 28 33 13 -9z m-8592 22 c-3 -3 -12 -4 -19 -1
-8 3 -5 6 6 6 11 1 17 -2 13 -5z m6040 -16 c-3 -8 -6 -5 -6 6 -1 11 2 17 5 13
3 -3 4 -12 1 -19z m-6090 6 c-3 -3 -12 -4 -19 -1 -8 3 -5 6 6 6 11 1 17 -2 13
-5z m923 -36 c0 -5 -4 -7 -9 -4 -5 4 -48 -3 -96 -15 -83 -19 -87 -19 -100 -2
-12 16 -8 19 43 29 32 7 73 16 92 22 27 7 39 6 53 -6 9 -8 17 -19 17 -24z
m5357 10 c-3 -7 -5 -2 -5 12 0 14 2 19 5 13 2 -7 2 -19 0 -25z m-6370 6 c-3
-3 -12 -4 -19 -1 -8 3 -5 6 6 6 11 1 17 -2 13 -5z m2475 -19 c16 -14 26 -25
23 -25 -4 0 -20 11 -37 25 -16 14 -26 25 -23 25 4 0 20 -11 37 -25z m-47 -6
c-7 -10 -35 -1 -35 11 0 5 9 6 20 3 11 -3 17 -9 15 -14z m-3821 -11 c21 -30
20 -68 -3 -97 -19 -24 -19 -25 5 -44 47 -36 22 -119 -43 -146 -15 -6 -58 -17
-95 -24 l-66 -14 -7 121 c-4 67 -5 139 -3 161 3 39 4 40 53 52 86 19 142 16
159 -9z m7520 -15 c-4 -16 -7 -28 -8 -28 -1 0 -26 -12 -56 -28 l-55 -27 55 55
c30 30 58 55 62 55 5 0 5 -12 2 -27z m22 -28 c-5 -41 -3 -54 6 -51 7 1 10 1 5
-1 -4 -3 -5 -8 -2 -12 2 -4 0 -21 -5 -37 -6 -22 -9 -24 -10 -9 -2 12 -6 6 -10
-15 l-7 -35 -2 38 c-1 27 3 37 14 37 17 0 20 17 5 22 -11 3 -3 118 8 118 3 0
2 -25 -2 -55z m21 8 c-3 -10 -5 -2 -5 17 0 19 2 27 5 18 2 -10 2 -26 0 -35z
m216 40 c-7 -2 -21 -2 -30 0 -10 3 -4 5 12 5 17 0 24 -2 18 -5z m1035 -25 c25
-18 51 -36 56 -40 7 -5 7 -11 -1 -19 -13 -13 -46 6 -118 66 -29 24 -29 24 -7
25 13 0 44 -15 70 -32z m-6374 7 c7 -18 5 -19 -101 -43 -75 -18 -83 -18 -98
-3 -15 15 -9 18 72 37 109 27 119 28 127 9z m733 0 c0 -8 -4 -12 -9 -9 -5 3
-6 10 -3 15 9 13 12 11 12 -6z m320 1 c0 -8 -6 -12 -15 -8 -10 3 -13 1 -8 -6
3 -6 2 -13 -3 -16 -5 -4 -13 -1 -17 5 -5 8 -3 9 7 4 8 -5 10 -4 6 0 -10 12
-38 15 -31 4 3 -5 1 -9 -4 -9 -6 0 -12 7 -15 14 -5 11 4 16 36 19 23 2 42 4
43 5 0 1 1 -4 1 -12z m6684 -34 c17 -39 17 -41 -2 -58 -10 -9 -19 -21 -19 -25
0 -5 -9 -33 -20 -63 -14 -35 -28 -56 -41 -59 -17 -5 -6 -19 72 -99 51 -51 100
-93 108 -93 9 0 17 -9 19 -20 3 -20 3 -20 -13 -1 -8 11 -15 15 -15 9 0 -13 25
-35 32 -27 3 3 14 -6 24 -19 11 -13 26 -21 34 -19 12 4 13 3 2 -10 -10 -12
-10 -18 2 -27 12 -10 17 -8 27 10 32 62 16 235 -37 393 -18 52 -21 73 -13 88
17 31 31 16 56 -57 105 -312 54 -559 -130 -630 -70 -26 -201 -18 -287 20 -36
15 -78 28 -93 28 -45 0 -182 -104 -172 -131 3 -7 2 -12 -2 -10 -72 34 -83 43
-77 61 6 20 -21 57 -43 57 -19 0 -17 4 32 71 25 34 45 65 45 69 0 5 9 6 20 3
15 -4 20 0 20 16 0 11 6 21 13 21 7 1 5 6 -5 14 -19 14 -23 43 -10 61 13 18
49 15 67 -5 10 -11 26 -20 35 -20 9 0 31 -5 48 -11 25 -8 33 -18 38 -45 3 -19
10 -34 14 -34 11 0 21 30 14 41 -3 5 -3 9 0 9 14 0 156 -75 156 -83 0 -9 -41
-69 -54 -78 -17 -13 70 -34 139 -33 55 0 82 6 128 28 32 15 57 33 56 39 -3 26
2 38 12 32 6 -4 1 13 -12 36 -33 66 -136 193 -237 292 l-89 88 11 39 c9 36 13
40 52 46 40 6 44 9 58 52 20 57 21 54 -11 50 -22 -2 -30 -11 -39 -38 -6 -19
-17 -36 -23 -38 -8 -3 -7 8 3 33 9 20 13 41 10 46 -3 5 4 9 15 9 11 0 22 4 25
9 13 20 41 2 57 -37z m-8843 -109 c54 -82 142 -212 196 -290 53 -79 92 -143
87 -143 -6 0 -32 32 -57 70 -26 39 -49 68 -51 66 -2 -2 16 -35 42 -74 35 -56
51 -71 73 -74 20 -2 23 -5 11 -10 -31 -12 -63 18 -130 127 -38 61 -87 138
-109 172 -42 66 -48 79 -29 67 14 -8 -14 41 -43 77 -23 28 -14 7 15 -34 10
-16 17 -30 14 -33 -7 -8 -90 130 -89 149 0 10 -4 15 -10 11 -6 -4 -8 -3 -5 3
4 6 0 19 -8 29 -15 19 -19 34 -10 34 3 0 49 -66 103 -147z m6800 131 c33 -5
41 -10 38 -23 -3 -9 -8 -28 -12 -43 -3 -16 -12 -28 -18 -28 -27 0 -120 34
-104 37 24 6 35 52 17 65 -10 7 -7 8 11 4 14 -3 44 -8 68 -12z m-361 0 c-3 -3
-12 -4 -19 -1 -8 3 -5 6 6 6 11 1 17 -2 13 -5z m-4513 -18 c-3 -9 -12 -12 -22
-9 -15 6 -9 11 25 22 1 1 0 -5 -3 -13z m-59 -6 c3 -5 1 -10 -4 -10 -6 0 -11 5
-11 10 0 6 2 10 4 10 3 0 8 -4 11 -10z m7119 -6 c3 -8 2 -12 -4 -9 -6 3 -10
10 -10 16 0 14 7 11 14 -7z m-6617 0 c-3 -3 -12 -4 -19 -1 -8 3 -5 6 6 6 11 1
17 -2 13 -5z m4263 -68 c25 -18 25 -18 2 -11 -21 6 -23 5 -13 -14 6 -11 10
-26 9 -33 -2 -8 5 -12 17 -10 11 2 16 -1 10 -5 -5 -4 -17 -17 -25 -27 -14 -18
-14 -19 10 -6 48 25 60 60 30 81 -12 9 -11 10 5 4 11 -3 45 -11 75 -17 30 -5
63 -18 73 -29 10 -10 32 -27 50 -36 l32 -18 -43 -3 c-41 -3 -115 8 -153 23
-13 5 -17 -4 -23 -52 -15 -128 -117 -860 -124 -885 l-7 -27 -35 17 c-19 10
-48 23 -65 30 l-30 14 20 -23 c11 -12 43 -32 70 -45 28 -13 45 -23 39 -23 -23
-2 -84 30 -119 61 -36 31 -37 32 -30 92 18 173 80 585 86 574 4 -7 11 -10 14
-7 4 5 7 101 5 161 -1 10 6 66 14 125 9 59 17 120 18 135 l2 28 31 -29 c16
-15 41 -36 55 -45z m-195 44 c-6 -9 -43 -2 -50 9 -2 4 9 5 25 3 17 -2 28 -8
25 -12z m-8295 -14 c0 -22 -6 -26 -61 -37 l-60 -12 3 -41 c2 -25 8 -40 15 -39
87 17 93 17 93 -10 0 -23 -5 -26 -50 -32 l-50 -7 0 -45 0 -45 38 7 c20 3 47 9
60 12 18 4 22 1 22 -21 0 -28 3 -26 -111 -50 l-66 -13 -7 90 c-3 50 -6 122 -6
162 l0 72 78 15 c104 21 102 21 102 -6z m9755 14 c8 -13 -25 -13 -45 0 -12 8
-9 10 12 10 15 0 30 -4 33 -10z m-5968 -6 c-3 -3 -12 -4 -19 -1 -8 3 -5 6 6 6
11 1 17 -2 13 -5z m4496 -21 c-7 -2 -19 -2 -25 0 -7 3 -2 5 12 5 14 0 19 -2
13 -5z m2524 -36 c1 -17 5 -51 9 -74 3 -23 1 -49 -5 -60 -8 -15 -11 -10 -11
27 -1 25 -5 66 -9 92 -7 45 -4 65 7 53 3 -3 7 -20 9 -38z m-8960 -93 c43 -69
112 -179 154 -244 91 -140 98 -162 158 -540 45 -284 47 -297 25 -257 -8 15
-17 27 -19 27 -5 0 24 -71 35 -85 9 -12 30 -108 25 -114 -2 -2 -9 17 -16 43
-6 25 -16 49 -21 52 -12 7 0 -59 19 -103 12 -30 12 -32 -4 -26 -12 4 -8 -5 12
-27 17 -18 25 -30 18 -26 -6 3 -13 -1 -16 -11 -3 -13 -6 -10 -12 12 -4 17 -14
38 -21 48 -11 16 -12 14 -11 -21 1 -22 6 -39 11 -39 5 1 11 -4 14 -12 3 -8 0
-11 -7 -7 -14 9 -14 0 5 -90 14 -72 17 -193 2 -134 -9 36 -39 227 -45 282 -3
26 -11 52 -18 58 -14 11 -14 -13 0 -137 4 -31 2 -54 -4 -58 -7 -4 -11 6 -11
27 -1 35 -28 106 -29 76 -1 -9 4 -29 9 -44 18 -47 3 -38 -29 18 -17 29 -31 46
-31 38 -1 -13 -2 -12 -10 1 -8 13 -60 293 -60 317 0 4 21 -42 45 -103 39 -94
65 -144 65 -123 0 15 -103 253 -111 256 -5 2 -9 12 -9 22 0 10 -5 31 -11 47
-7 15 -13 38 -15 49 -1 12 -12 66 -24 120 -12 55 -25 128 -30 164 -5 36 -18
108 -29 162 -11 53 -27 146 -36 206 -9 60 -27 151 -40 202 -29 105 -28 100
-16 100 5 0 45 -57 88 -126z m6083 123 c0 -2 -10 -12 -22 -23 l-23 -19 19 23
c18 21 26 27 26 19z m-2255 -34 c-4 -16 -7 -28 -8 -29 -1 0 -29 -6 -62 -14
-33 -7 -66 -15 -72 -17 -9 -4 -13 5 -13 24 0 29 3 31 68 45 97 22 95 22 87 -9z
m-1758 11 c-3 -3 -12 -4 -19 -1 -8 3 -5 6 6 6 11 1 17 -2 13 -5z m-40 -10 c-3
-3 -12 -4 -19 -1 -8 3 -5 6 6 6 11 1 17 -2 13 -5z m5957 -23 c-15 -31 -29 -45
-54 -53 -13 -5 -16 1 -14 24 3 36 10 45 44 51 14 2 28 5 32 6 3 0 0 -12 -8
-28z m-9594 -5 c0 -27 -3 -29 -105 -50 -53 -11 -72 -12 -77 -3 -18 28 -1 41
72 58 106 23 110 23 110 -5z m3585 14 c-11 -5 -27 -9 -35 -9 -9 0 -8 4 5 9 11
5 27 9 35 9 9 0 8 -4 -5 -9z m5921 -21 c3 -5 3 -9 1 -9 -7 0 -67 31 -67 35 0
7 60 -17 66 -26z m-1872 -4 c-9 -14 -14 -36 -12 -50 3 -13 1 -22 -3 -19 -5 3
-9 0 -9 -5 0 -6 5 -11 10 -11 6 0 10 -6 10 -14 0 -7 7 -19 15 -26 13 -11 15
-8 15 14 0 26 0 26 31 11 17 -9 37 -14 46 -11 10 4 13 1 9 -12 -3 -9 -10 -53
-15 -97 -12 -97 -40 -266 -46 -280 -3 -5 -3 8 0 31 4 35 2 42 -18 52 -43 21
-95 24 -128 7 -23 -13 -34 -14 -43 -5 -26 26 6 195 56 295 27 52 86 145 93
145 3 0 -2 -11 -11 -25z m-4107 9 c-3 -3 -12 -4 -19 -1 -8 3 -5 6 6 6 11 1 17
-2 13 -5z m1725 -20 c-5 -26 -8 -28 -52 -38 -21 -4 -25 -11 -27 -48 -7 -133
-15 -188 -28 -188 -7 0 -21 -3 -31 -7 -16 -6 -17 2 -10 106 l7 112 -35 -7
c-34 -6 -36 -5 -36 20 0 22 7 27 53 40 159 45 166 46 159 10z m-1765 10 c-3
-3 -12 -4 -19 -1 -8 3 -5 6 6 6 11 1 17 -2 13 -5z m-40 -10 c-3 -3 -12 -4 -19
-1 -8 3 -5 6 6 6 11 1 17 -2 13 -5z m958 -4 c-3 -5 -14 -10 -23 -9 -14 0 -13
2 3 9 27 11 27 11 20 0z m-1020 -10 c-11 -5 -29 -8 -40 -8 -16 0 -15 2 5 8 34
11 60 11 35 0z m6087 -2 c-9 -9 -15 -9 -24 0 -9 9 -7 12 12 12 19 0 21 -3 12
-12z m-6167 -18 c-11 -5 -29 -8 -40 -8 -16 0 -15 2 5 8 34 11 60 11 35 0z
m985 0 c-8 -5 -19 -10 -25 -10 -5 0 -3 5 5 10 8 5 20 10 25 10 6 0 3 -5 -5
-10z m5748 -63 c-23 -69 -42 -92 -28 -34 10 42 39 111 45 105 2 -2 -5 -34 -17
-71z m-4618 35 c0 -25 -4 -28 -57 -40 -32 -7 -66 -16 -76 -19 -15 -4 -18 0
-15 23 3 25 9 30 68 45 36 9 68 18 73 18 4 1 7 -11 7 -27z m2391 14 c5 3 9 0
9 -5 0 -6 -7 -11 -15 -11 -8 0 -15 8 -14 18 0 10 3 12 6 4 2 -6 9 -10 14 -6z
m-4574 -2 c-3 -3 -12 -4 -19 -1 -8 3 -5 6 6 6 11 1 17 -2 13 -5z m974 -5 c-29
-12 -98 -23 -90 -15 6 6 77 24 99 24 8 1 4 -4 -9 -9z m773 -122 c21 -64 35
-121 32 -126 -3 -5 -17 -11 -32 -14 -22 -4 -28 0 -36 25 -11 30 -13 30 -75 7
-12 -5 -24 -20 -28 -38 -5 -24 -14 -33 -38 -39 -18 -5 -33 -6 -35 -2 -1 3 22
71 51 149 48 126 58 145 83 156 16 7 32 10 35 6 4 -3 23 -59 43 -124z m2778
101 c-8 -8 -9 -4 -5 13 4 13 8 18 11 10 2 -7 -1 -18 -6 -23z m1892 22 c14 -5
26 -16 26 -25 0 -8 5 -15 10 -15 9 0 7 -27 -6 -68 -2 -8 -19 -1 -51 22 -27 18
-67 43 -90 55 -51 26 -55 35 -10 29 17 -3 41 -2 52 3 28 11 40 11 69 -1z
m-6457 -6 c-3 -3 -12 -4 -19 -1 -8 3 -5 6 6 6 11 1 17 -2 13 -5z m2510 -16
c-3 -8 -6 -5 -6 6 -1 11 2 17 5 13 3 -3 4 -12 1 -19z m-1627 -8 c-8 -5 -22 -9
-30 -9 -10 0 -8 3 5 9 27 12 43 12 25 0z m-65 -19 c-11 -5 -36 -11 -55 -15
l-35 -6 35 14 c19 8 44 15 55 15 l20 0 -20 -8z m740 -133 c-4 -73 -10 -136
-13 -139 -4 -4 -18 -9 -32 -12 l-25 -6 3 92 3 92 -41 -68 -42 -68 -36 47 -37
47 -3 -92 c-3 -88 -4 -92 -28 -101 -14 -6 -30 -10 -36 -10 -16 0 -1 272 15
282 31 20 66 8 94 -32 15 -22 30 -40 33 -40 3 0 23 29 44 65 24 38 48 66 60
68 51 10 49 16 41 -125z m3052 110 c-3 -8 -6 -5 -6 6 -1 11 2 17 5 13 3 -3 4
-12 1 -19z m-2110 -30 c-3 -7 -5 -2 -5 12 0 14 2 19 5 13 2 -7 2 -19 0 -25z
m2779 4 c-3 -6 -15 -8 -26 -5 -11 3 -20 0 -20 -6 0 -6 9 -11 20 -11 15 0 20
-7 20 -25 0 -16 -6 -25 -15 -25 -17 0 -20 -17 -4 -22 8 -3 9 -15 4 -36 -5 -26
-12 -32 -33 -33 l-27 -2 28 -4 c32 -5 37 -23 5 -23 -21 0 -21 0 -2 -15 18 -14
18 -16 1 -29 -13 -10 -15 -15 -5 -19 10 -3 10 -9 1 -24 -8 -14 -8 -24 -1 -31
6 -6 3 -15 -12 -25 -15 -10 -18 -17 -10 -22 11 -7 -4 -20 -50 -41 -8 -4 -18
-12 -22 -18 -5 -8 -8 -7 -8 1 0 6 5 15 10 18 8 5 8 11 0 20 -7 9 -6 16 5 25
11 9 12 16 5 25 -7 9 -6 16 5 25 11 9 12 16 5 25 -7 9 -6 16 5 25 13 10 13 15
3 21 -9 6 -7 13 9 31 12 13 23 37 25 53 2 24 8 30 26 29 12 0 22 1 22 3 0 7
-33 38 -37 36 -7 -6 -23 -2 -23 6 0 5 18 11 40 15 22 3 40 11 40 17 0 5 -6 9
-12 8 -32 -4 -68 2 -68 11 0 6 7 10 15 10 8 0 15 4 15 9 0 6 15 11 33 13 38 4
41 3 33 -10z m-3050 -8 c-3 -9 -6 -21 -6 -28 0 -7 -26 -17 -57 -24 -32 -7 -68
-15 -79 -18 -19 -5 -22 -2 -20 20 1 21 8 28 36 36 19 5 51 13 70 18 52 15 63
14 56 -4z m4164 -36 c51 -30 69 -46 65 -57 -3 -9 -6 -37 -7 -61 -1 -25 -12
-68 -24 -96 -12 -28 -25 -67 -28 -85 -6 -30 -3 -37 29 -59 40 -29 45 -43 11
-34 -13 3 -54 -5 -97 -20 -41 -14 -128 -37 -194 -51 -66 -14 -124 -30 -130
-36 -5 -5 -15 -24 -22 -42 -6 -18 -12 -24 -12 -14 -1 9 -6 17 -11 17 -18 0
-40 63 -28 78 6 7 8 16 4 20 -4 4 -14 -1 -21 -11 -12 -17 -15 -16 -42 17 -15
20 -29 40 -29 46 -1 5 -2 14 -3 18 0 4 -35 32 -76 62 -41 30 -75 58 -75 62 0
3 8 8 18 10 10 2 31 -12 52 -36 19 -21 53 -52 74 -67 38 -29 39 -29 53 -9 22
31 45 120 45 172 0 41 -6 56 -46 109 -25 33 -46 71 -46 82 0 20 4 18 33 -14
46 -51 99 -88 176 -120 103 -44 184 -38 200 15 16 54 21 96 11 96 -6 0 -10 5
-10 11 0 6 7 9 15 5 10 -4 15 1 15 14 0 30 23 25 100 -22z m1072 -13 c3 -14 1
-25 -3 -25 -5 0 -9 11 -9 25 0 14 2 25 4 25 2 0 6 -11 8 -25z m-6253 -101 c-2
-144 -7 -166 -42 -175 l-27 -7 0 139 c0 135 1 140 23 149 47 19 48 17 46 -106z
m3368 94 c-3 -8 -6 -5 -6 6 -1 11 2 17 5 13 3 -3 4 -12 1 -19z m2832 -20 c1
-5 -3 -8 -9 -8 -5 0 -10 12 -9 28 0 24 1 25 9 7 5 -11 9 -23 9 -27z m-7819 18
c0 -3 -4 -8 -10 -11 -5 -3 -10 -1 -10 4 0 6 5 11 10 11 6 0 10 -2 10 -4z
m1510 -25 c0 -25 -5 -30 -37 -38 l-38 -9 -3 -117 c-2 -84 -6 -117 -15 -117 -7
0 -22 -3 -34 -6 -23 -6 -23 -6 -23 105 0 120 -1 122 -55 101 -25 -10 -26 -9
-23 21 3 31 5 32 108 59 58 16 108 29 113 29 4 1 7 -12 7 -28z m6024 -58 l3
-32 -26 18 c-14 10 -35 21 -46 24 -18 4 -17 5 3 6 17 1 27 10 35 31 11 30 12
30 20 8 5 -13 10 -37 11 -55z m-7564 57 c0 -5 -5 -10 -11 -10 -5 0 -7 5 -4 10
3 6 8 10 11 10 2 0 4 -4 4 -10z m2927 -12 c-3 -8 -6 -5 -6 6 -1 11 2 17 5 13
3 -3 4 -12 1 -19z m-5192 -48 c3 -6 -7 -22 -24 -36 -56 -47 -39 -107 54 -193
94 -85 256 -150 417 -166 l63 -7 -50 45 c-48 44 -56 65 -18 53 10 -3 45 -30
77 -60 71 -66 69 -72 -38 -110 -84 -30 -96 -31 -96 -13 0 7 26 22 58 32 l57
19 -50 8 c-283 49 -455 138 -520 273 -32 65 -28 102 17 140 32 27 43 30 53 15z
m1814 -4 c-7 -7 -131 -37 -136 -33 -2 3 22 11 54 20 59 15 90 20 82 13z m1661
-111 l0 -114 48 14 c26 8 48 15 50 15 1 0 2 -13 2 -28 0 -27 -4 -29 -84 -50
-46 -12 -87 -22 -90 -22 -3 0 -6 65 -6 144 0 142 0 145 23 149 60 12 57 17 57
-108z m4060 80 c0 -24 -5 -35 -14 -35 -8 0 -17 -6 -20 -12 -4 -7 -4 -2 -1 12
2 14 5 35 5 48 0 13 6 22 15 22 10 0 15 -11 15 -35z m-5626 -23 c4 -29 3 -41
-4 -37 -5 3 -10 25 -10 47 0 51 5 47 14 -10z m5353 16 c-3 -7 -5 -2 -5 12 0
14 2 19 5 13 2 -7 2 -19 0 -25z m-5283 -9 c-3 -5 -12 -9 -20 -9 -8 0 -14 -5
-14 -11 0 -6 9 -9 20 -6 11 3 18 1 14 -4 -5 -9 -44 -13 -44 -5 0 2 -3 11 -6
19 -8 22 25 51 42 36 8 -6 11 -15 8 -20z m1374 -96 c-3 -128 -13 -153 -69
-187 -26 -16 -27 -15 -31 13 -3 18 3 37 14 51 15 18 18 41 18 125 0 110 0 110
53 114 17 1 18 -8 15 -116z m1505 78 c-3 -61 -63 -85 -63 -26 0 40 18 67 43
63 18 -2 22 -9 20 -37z m-3208 20 c-11 -5 -36 -11 -55 -14 -35 -6 -34 -6 5 8
43 14 84 19 50 6z m158 -18 c18 2 22 -3 22 -28 0 -23 -5 -31 -22 -33 -15 -2
-23 2 -23 11 0 8 -2 27 -4 43 -2 16 -1 23 1 17 2 -7 14 -12 26 -10z m66 -21
c0 -24 -1 -25 -9 -7 -12 28 -12 47 0 40 6 -3 10 -18 9 -33z m2881 15 c0 -7 -7
-22 -15 -34 -11 -16 -12 -22 -2 -26 16 -6 8 -13 -25 -21 -35 -8 -35 4 -1 45
27 31 27 32 5 27 -21 -6 -29 2 -15 15 11 12 53 7 53 -6z m4670 6 c-1 -5 -8
-19 -16 -33 -8 -14 -13 -17 -10 -7 3 10 6 25 6 33 0 8 5 14 10 14 6 0 10 -3
10 -7z m-7883 -9 c-3 -3 -12 -4 -19 -1 -8 3 -5 6 6 6 11 1 17 -2 13 -5z m1655
-95 c3 -81 7 -104 21 -114 9 -7 17 -24 17 -39 0 -23 -4 -26 -33 -26 -59 0 -72
25 -75 155 -3 103 -2 114 15 118 50 13 50 13 55 -94z m-1707 81 c-11 -5 -27
-9 -35 -9 -9 0 -8 4 5 9 11 5 27 9 35 9 9 0 8 -4 -5 -9z m270 -25 c0 -23 -4
-30 -20 -30 -21 0 -31 25 -21 51 11 28 41 12 41 -21z m-66 -18 c-2 -30 -2 -31
-6 -4 -2 15 -9 27 -15 27 -6 0 -8 -11 -6 -25 3 -14 1 -25 -3 -25 -5 0 -9 12
-9 26 0 14 -4 23 -10 19 -6 -3 -8 -18 -5 -33 4 -23 4 -24 -4 -7 -16 33 -12 43
17 53 36 12 42 7 41 -31z m2947 17 c-4 -14 -2 -32 4 -39 7 -8 7 -16 2 -19 -6
-3 -15 1 -22 9 -17 20 -32 19 -28 -1 2 -10 -3 -19 -9 -21 -9 -3 -11 9 -8 44 2
26 4 49 5 51 0 1 14 2 31 2 29 0 31 -2 25 -26z m-76 10 c0 -4 -8 -13 -17 -20
-17 -13 -17 -13 0 -14 21 0 23 -20 2 -20 -8 0 -15 -5 -15 -11 0 -6 7 -9 15 -5
9 3 15 0 15 -8 0 -8 -11 -16 -25 -18 -24 -5 -25 -3 -25 43 0 37 4 49 18 52 27
7 32 7 32 1z m2952 -57 c-3 -16 -14 -39 -25 -50 l-20 -20 6 33 c4 18 7 45 7
61 0 26 2 28 18 18 13 -8 17 -20 14 -42z m791 33 c-3 -11 -7 -20 -9 -20 -2 0
-4 9 -4 20 0 11 4 20 9 20 5 0 7 -9 4 -20z m-6759 -2 c-3 -4 -12 -8 -20 -8 -8
0 -14 4 -14 8 0 4 9 8 19 8 11 0 17 -4 15 -8z m1484 -4 c57 -40 66 -142 18
-214 -29 -44 -96 -80 -150 -80 -75 0 -129 92 -68 118 l27 12 -27 -5 c-25 -5
-28 -2 -28 20 0 31 30 93 57 117 49 44 131 60 171 32z m1752 6 c0 -5 -4 -10
-9 -10 -6 0 -13 5 -16 10 -3 6 1 10 9 10 9 0 16 -4 16 -10z m-290 -34 c0 -37
-12 -51 -53 -61 -27 -7 -28 -7 -25 36 3 50 11 59 51 59 24 0 27 -4 27 -34z
m-2912 -11 c-3 -3 -9 2 -12 12 -6 14 -5 15 5 6 7 -7 10 -15 7 -18z m2820 -17
c-4 -59 -27 -62 -25 -4 1 30 6 46 15 46 9 0 12 -12 10 -42z m-54 26 c22 -9 20
-57 -3 -78 -11 -10 -30 -16 -43 -14 -33 4 -35 41 -4 73 28 28 28 28 50 19z
m-80 -36 c-14 -49 -33 -88 -43 -88 -5 0 -16 20 -24 45 -13 37 -13 45 -2 45 7
0 18 -12 23 -27 l10 -28 7 30 c10 38 14 45 26 45 6 0 7 -9 3 -22z m-1529 -18
c19 -21 15 -58 -10 -84 -20 -19 -19 -23 5 -29 31 -8 45 -50 30 -87 -17 -42
-44 -58 -139 -85 l-79 -22 -5 24 c-2 14 1 26 7 28 134 39 166 60 136 90 -14
13 -23 13 -82 -3 l-66 -19 -5 24 c-5 28 -8 26 70 48 64 18 88 44 64 68 -10 10
-75 -1 -129 -21 -10 -3 -13 3 -10 24 3 26 9 31 63 46 83 23 128 22 150 -2z
m4492 -2 c-3 -8 -6 -5 -6 6 -1 11 2 17 5 13 3 -3 4 -12 1 -19z m-3058 -10 c26
-69 25 -71 -8 -63 -23 5 -33 3 -37 -9 -10 -25 -26 -19 -18 7 26 85 47 107 63
65z m-219 -7 c0 -9 -78 -35 -142 -48 -56 -10 -25 6 58 31 44 13 80 24 82 25 1
1 2 -3 2 -8z m1197 -13 c-3 -8 -6 -5 -6 6 -1 11 2 17 5 13 3 -3 4 -12 1 -19z
m2345 -44 c-3 -20 -10 -34 -18 -34 -8 0 -14 -10 -14 -22 0 -12 -2 -19 -5 -16
-3 2 -2 32 1 66 6 53 9 59 23 50 12 -7 16 -20 13 -44z m1823 16 c3 -6 -5 -10
-19 -10 -14 0 -28 5 -31 10 -3 6 5 10 19 10 14 0 28 -4 31 -10z m-6864 -29
c16 -16 29 -38 30 -48 0 -10 2 -29 4 -43 10 -79 -55 -168 -139 -189 -42 -10
-53 -9 -84 6 -37 18 -79 80 -64 94 4 4 21 10 37 13 26 5 32 2 47 -24 18 -32
41 -37 81 -19 25 11 47 47 47 74 0 8 15 22 33 30 l32 15 -30 -5 c-26 -4 -32
-1 -45 28 -21 45 -60 49 -100 8 -17 -17 -30 -40 -30 -55 0 -29 -3 -31 -49 -41
l-34 -7 6 38 c8 50 53 112 97 135 20 11 55 19 83 19 40 0 54 -5 78 -29z m4697
-39 c2 -6 -2 -12 -10 -12 -21 0 -58 29 -58 46 0 14 5 13 32 -3 17 -10 33 -24
36 -31z m-10 -32 c7 0 11 -4 7 -9 -6 -11 -66 21 -87 46 -7 9 5 5 27 -10 22
-15 46 -27 53 -27z m-5013 0 c25 -27 23 -74 -4 -111 l-22 -30 50 -45 c28 -25
51 -49 51 -53 0 -4 -18 -12 -39 -17 l-40 -11 -58 59 c-31 32 -61 58 -66 58 -4
0 -6 -15 -3 -32 18 -120 19 -114 -21 -126 -20 -6 -38 -10 -39 -9 -6 5 -35 290
-30 294 9 9 140 41 172 42 19 1 38 -7 49 -19z m5349 -18 c-1 -7 -2 -21 -2 -32
-3 -32 -32 -24 -32 8 0 16 3 32 7 36 10 9 28 1 27 -12z m2141 -52 c3 -6 -1 -7
-9 -4 -18 7 -21 14 -7 14 6 0 13 -4 16 -10z m-6335 -160 l0 -160 -51 -26 -52
-26 7 36 c5 28 3 39 -15 57 -29 29 -19 75 24 114 19 17 37 41 41 55 9 31 40
110 44 110 1 0 2 -72 2 -160z m6405 115 l20 -16 -20 10 c-11 5 -29 17 -40 26
l-20 16 20 -10 c11 -5 29 -17 40 -26z m-4705 -7 c0 -13 -9 -117 -21 -233 -35
-354 -31 -327 -59 -336 -14 -4 -170 -53 -347 -108 -177 -56 -323 -101 -325
-101 -3 0 8 268 20 470 l7 125 225 66 c281 84 471 137 488 138 6 1 12 -9 12
-21z m3301 -35 c-4 -28 -6 -32 -9 -15 -3 22 3 52 11 52 1 0 1 -17 -2 -37z
m-3164 -55 c-2 -18 -4 -6 -4 27 0 33 2 48 4 33 2 -15 2 -42 0 -60z m4637 33
c-2 -3 -10 1 -16 7 -7 7 -21 12 -32 12 -17 0 -18 2 -7 9 14 9 65 -18 55 -28z
m-1104 6 c0 -2 -10 -12 -22 -23 l-23 -19 19 23 c18 21 26 27 26 19z m1159 -29
c8 3 12 -1 9 -9 -3 -8 2 -23 11 -33 9 -12 1 -8 -21 8 -21 16 -38 36 -38 45 1
15 2 15 13 0 7 -9 18 -14 26 -11z m-1581 -41 l21 -23 -29 -98 c-17 -55 -30
-101 -30 -103 0 -1 -9 -3 -21 -3 -17 0 -20 5 -16 23 3 12 13 68 23 125 10 56
20 102 24 102 4 0 16 -10 28 -23z m332 -10 c0 -2 -10 -12 -22 -23 l-23 -19 19
23 c18 21 26 27 26 19z m1308 -57 c-2 -7 -10 1 -17 16 -12 27 -11 28 4 12 10
-9 16 -21 13 -28z m-6792 -17 c10 -38 -5 -72 -39 -93 -17 -11 -38 -20 -44 -20
-21 0 -53 38 -53 64 0 28 35 75 64 85 29 11 65 -7 72 -36z m-956 -1 c0 -5 -17
-14 -39 -20 -47 -14 -51 -15 -51 -2 0 5 15 14 33 19 42 12 57 13 57 3z m-100
-30 c0 -12 -71 -33 -84 -25 -6 4 3 13 19 19 35 15 65 18 65 6z m6290 -13 c30
-11 60 -27 67 -36 13 -17 33 -10 33 13 0 15 1 15 38 19 28 3 28 -7 1 -31 -28
-24 -89 -119 -89 -137 0 -20 -63 -112 -68 -99 -2 6 -19 21 -38 33 -50 31 -67
69 -54 122 6 23 15 51 20 62 4 11 11 32 14 48 8 32 7 32 76 6z m-3213 -21 c-3
-8 -6 -5 -6 6 -1 11 2 17 5 13 3 -3 4 -12 1 -19z m4710 -34 c149 -87 145 -345
-10 -649 -151 -295 -443 -557 -676 -606 -133 -28 -265 47 -302 172 -18 62 -12
210 12 281 177 523 708 960 976 802z m147 11 c3 -8 1 -15 -4 -15 -6 0 -10 7
-10 15 0 8 2 15 4 15 2 0 6 -7 10 -15z m-660 -24 c3 -5 -5 -16 -19 -25 -26
-17 -34 -5 -12 19 14 17 24 18 31 6z m693 -93 c-3 -8 -6 -5 -6 6 -1 11 2 17 5
13 3 -3 4 -12 1 -19z m-10 -40 c-3 -8 -6 -5 -6 6 -1 11 2 17 5 13 3 -3 4 -12
1 -19z m-6818 -90 c1 -27 -2 -48 -6 -48 -5 0 -9 33 -10 73 -1 49 1 64 7 47 4
-14 8 -46 9 -72z m-52 15 c-3 -10 -5 -2 -5 17 0 19 2 27 5 18 2 -10 2 -26 0
-35z m-1800 -75 c-3 -7 -5 -2 -5 12 0 14 2 19 5 13 2 -7 2 -19 0 -25z m177
-48 l7 -45 -16 34 c-16 37 -21 81 -6 66 5 -6 12 -30 15 -55z m1728 29 c5 -3 9
-14 8 -25 -1 -10 -5 -89 -9 -174 -5 -113 -8 -133 -9 -75 -3 88 -18 265 -24
271 -2 2 -33 -5 -68 -16 -81 -25 -90 -19 -13 9 32 12 67 25 78 30 13 5 21 4
24 -3 2 -6 8 -14 13 -17z m1697 -53 c-12 -11 -191 -67 -202 -63 -6 2 31 18 83
35 86 28 130 38 119 28z m-1648 -48 c8 -15 8 -19 0 -14 -8 5 -9 -17 -5 -78 5
-62 3 -90 -6 -101 -7 -8 -15 -13 -19 -11 -4 3 -8 57 -10 120 -2 103 -1 115 13
110 9 -4 21 -15 27 -26z m-369 -123 c3 -55 3 -55 -32 -69 -41 -16 -50 -13 -50
20 0 14 -6 24 -14 24 -7 0 -16 11 -18 25 -4 21 0 26 36 39 70 25 74 23 78 -39z
m1518 11 c0 -3 -4 -8 -10 -11 -5 -3 -10 -1 -10 4 0 6 5 11 10 11 6 0 10 -2 10
-4z m-1123 -38 c-3 -8 -6 -5 -6 6 -1 11 2 17 5 13 3 -3 4 -12 1 -19z m-363
-80 c3 -29 6 -72 6 -95 0 -37 -4 -44 -30 -58 -38 -20 -37 -21 -45 23 -3 20
-15 56 -25 78 -10 23 -15 46 -11 51 6 10 80 52 92 53 3 0 9 -24 13 -52z
m-1567 -5 c-3 -10 -5 -4 -5 12 0 17 2 24 5 18 2 -7 2 -21 0 -30z m2729 22
c-11 -8 -25 -15 -30 -15 -6 0 -2 7 8 15 11 8 25 15 30 15 6 0 2 -7 -8 -15z
m-46 -15 c0 -5 -2 -10 -4 -10 -3 0 -8 5 -11 10 -3 6 -1 10 4 10 6 0 11 -4 11
-10z m-41 -10 c-19 -11 -1020 -345 -1514 -505 -181 -59 -397 -131 -480 -161
-270 -97 -286 -102 -283 -92 6 18 330 130 1008 348 157 51 506 165 775 255
270 90 495 164 500 164 6 0 3 -4 -6 -9z m-1388 -87 c13 -17 13 -17 -6 -3 -11
8 -22 16 -24 17 -2 2 0 3 6 3 6 0 17 -8 24 -17z m8975 -102 c48 -22 83 -66 91
-117 5 -33 2 -39 -46 -81 -28 -24 -51 -48 -51 -52 0 -5 23 -18 50 -29 l50 -21
-1 -183 0 -183 -35 95 c-18 52 -52 140 -73 195 -22 55 -43 108 -46 117 -5 13
-2 15 16 11 19 -5 21 -3 16 18 -4 13 -17 63 -29 112 -13 48 -25 87 -28 87 -4
0 -79 -154 -98 -202 -2 -4 10 -8 26 -8 28 0 30 -2 46 -80 18 -83 35 -232 36
-311 l0 -47 -44 5 c-25 3 -114 -2 -198 -11 -84 -10 -175 -16 -203 -14 l-50 3
2 63 c2 83 26 150 78 220 52 72 143 134 231 158 35 9 64 18 64 20 0 2 -30 45
-67 95 l-68 92 -8 -109 c-5 -60 -10 -111 -12 -113 -2 -2 -43 24 -91 58 -47 34
-88 60 -90 58 -3 -3 7 -52 22 -111 15 -59 25 -108 23 -110 -2 -2 -51 6 -109
19 -58 13 -106 22 -107 21 -1 -1 29 -41 67 -89 39 -47 70 -88 70 -90 0 -3 -39
-8 -87 -12 -140 -11 -141 -13 -40 -80 48 -32 87 -61 87 -64 0 -3 -39 -28 -85
-56 -47 -27 -85 -53 -85 -56 0 -3 48 -14 108 -24 59 -10 109 -20 111 -22 3 -2
-15 -24 -39 -48 -52 -53 -83 -57 -150 -22 -30 16 -51 37 -67 67 -23 43 -23 48
-23 380 0 332 0 337 23 380 16 30 37 51 67 67 43 23 48 23 374 23 301 0 335
-2 372 -19z m1326 -28 c36 -32 11 -83 -41 -83 -34 0 -51 17 -51 52 0 44 56 64
92 31z m1970 0 c36 -32 11 -83 -41 -83 -34 0 -51 17 -51 52 0 44 56 64 92 31z
m-1783 -98 c-2 -47 -3 -85 -2 -85 1 0 19 11 39 25 66 45 157 26 201 -42 15
-22 19 -53 21 -165 l4 -138 -46 0 -46 0 0 119 c0 103 -3 122 -20 144 -36 45
-102 44 -137 -2 -8 -11 -12 -58 -13 -138 l0 -123 -45 0 -45 0 0 245 0 245 46
0 46 0 -3 -85z m1339 0 c-2 -47 -1 -85 0 -85 2 0 18 10 34 22 17 12 52 23 79
26 120 11 205 -112 170 -246 -31 -115 -159 -167 -250 -103 -36 26 -40 26 -34
1 5 -18 0 -20 -41 -20 l-46 0 0 245 0 245 46 0 45 0 -3 -85z m-2528 -145 l0
-200 75 0 75 0 0 -30 0 -30 -120 0 -120 0 0 230 0 230 45 0 45 0 0 -200z m766
153 l-1 -48 43 -3 c41 -3 42 -4 42 -38 0 -34 0 -34 -45 -34 l-45 0 0 -91 c0
-109 8 -129 55 -129 33 0 35 -2 35 -35 l0 -35 -50 0 c-60 0 -94 15 -109 47 -6
13 -11 73 -11 133 l0 110 -25 0 c-22 0 -25 4 -25 34 0 28 4 35 23 38 19 3 22
10 25 51 l3 47 43 0 42 0 0 -47z m864 -48 l0 -95 100 0 100 0 0 95 0 95 45 0
45 0 0 -230 0 -230 -45 0 -45 0 0 100 0 100 -100 0 -100 0 0 -100 0 -100 -45
0 -45 0 0 230 0 230 45 0 45 0 0 -95z m-1196 -20 c44 -30 46 -30 46 -5 0 17 7
20 45 20 l45 0 0 -180 0 -180 -45 0 c-42 0 -45 2 -45 27 l0 26 -22 -21 c-51
-47 -121 -54 -182 -19 -126 71 -110 299 24 350 38 14 98 6 134 -18z m1833 6
c26 -12 52 -35 70 -62 24 -36 28 -53 28 -108 0 -113 -60 -178 -173 -188 -130
-10 -220 93 -197 227 20 119 154 184 272 131z m-1257 -171 l0 -180 -45 0 -45
0 0 180 0 180 45 0 45 0 0 -180z m1970 0 l0 -180 -45 0 -45 0 0 180 0 180 45
0 45 0 0 -180z m-2200 -327 l1 -48 22 28 c22 26 47 36 47 19 0 -5 -9 -17 -20
-27 -25 -23 -25 -33 2 -62 18 -19 19 -23 5 -23 -9 0 -22 9 -29 20 -7 11 -16
20 -20 20 -5 0 -8 -9 -8 -20 0 -11 -4 -20 -10 -20 -6 0 -10 33 -10 80 0 47 4
80 10 80 6 0 10 -21 10 -47z m440 -31 l0 -79 -47 1 c-41 1 -49 5 -61 28 -24
51 33 112 73 78 13 -11 15 -8 15 19 0 17 5 31 10 31 6 0 10 -33 10 -78z m620
47 c0 -16 5 -18 25 -13 33 8 65 -20 65 -57 0 -41 -23 -58 -75 -57 l-45 1 0 72
c0 39 3 75 6 78 11 11 24 -3 24 -24z m130 16 c0 -8 -4 -15 -9 -15 -13 0 -22
16 -14 24 11 11 23 6 23 -9z m350 -63 l0 -78 -45 -2 c-38 -1 -47 2 -61 23 -33
50 15 112 65 86 19 -11 21 -9 21 19 0 16 5 30 10 30 6 0 10 -33 10 -78z m520
63 c0 -8 -4 -15 -9 -15 -13 0 -22 16 -14 24 11 11 23 6 23 -9z m-2856 -5 c18
-6 26 -17 26 -33 0 -31 -18 -47 -52 -47 -24 0 -28 -4 -28 -30 0 -16 -4 -30
-10 -30 -6 0 -10 32 -10 75 0 73 1 75 24 75 14 0 36 -4 50 -10z m601 -4 c12
-9 16 -20 12 -36 -3 -13 -2 -32 4 -42 18 -33 -6 -58 -56 -58 l-45 0 0 68 c0
38 3 72 7 75 11 12 58 8 78 -7z m987 -18 c3 -29 7 -33 35 -36 29 -3 32 -1 35
30 6 60 23 34 26 -39 2 -60 0 -73 -13 -73 -10 0 -15 10 -15 30 0 28 -3 30 -35
30 -32 0 -35 -2 -35 -30 0 -16 -4 -30 -10 -30 -6 0 -10 32 -10 75 0 74 16 105
22 43z m488 -43 c0 -43 -4 -75 -10 -75 -6 0 -10 32 -10 75 0 43 4 75 10 75 6
0 10 -32 10 -75z m-1644 56 c-3 -5 4 -12 17 -15 21 -7 21 -8 3 -15 -22 -9 -29
-71 -9 -78 20 -8 15 -23 -7 -23 -20 0 -24 11 -33 80 -5 43 0 60 19 60 9 0 13
-4 10 -9z m609 -1 c-3 -5 1 -10 9 -10 20 0 21 -16 1 -24 -9 -3 -15 -18 -15
-36 0 -18 6 -33 15 -36 22 -9 18 -24 -5 -24 -20 0 -24 11 -33 80 -5 43 0 60
19 60 9 0 12 -4 9 -10z m-973 -65 c2 -30 8 -41 22 -43 24 -5 36 14 36 61 0 20
5 37 10 37 6 0 10 -26 10 -59 l0 -59 -44 2 c-25 1 -48 5 -52 9 -9 9 -14 88 -7
100 10 16 22 -8 25 -48z m174 38 c20 -21 1 -32 -22 -12 -11 9 -18 9 -27 0 -8
-8 -4 -14 21 -23 36 -14 48 -34 31 -54 -12 -15 -37 -18 -63 -8 -28 11 -17 26
14 19 37 -8 41 11 5 25 -31 12 -41 35 -25 55 17 20 45 19 66 -2z m142 -46 l3
-54 -45 -1 c-52 -1 -76 16 -76 55 0 42 26 63 74 59 l41 -4 3 -55z m327 53 c5
-8 11 -8 19 -1 20 16 26 3 26 -54 l0 -52 -50 -2 c-53 -1 -70 14 -70 60 0 42
57 79 75 49z m277 -10 c4 -8 7 -34 7 -56 l1 -41 -45 -1 c-51 -1 -75 16 -75 55
0 40 27 64 69 61 20 -2 39 -10 43 -18z m343 10 c5 -8 11 -8 19 -1 20 16 26 3
26 -54 l0 -52 -50 -2 c-53 -1 -70 14 -70 60 0 42 57 79 75 49z m153 -4 c14 -9
17 -106 2 -106 -5 0 -10 17 -10 39 0 46 -22 70 -45 51 -9 -7 -15 -29 -15 -51
0 -22 -4 -39 -10 -39 -6 0 -10 26 -10 59 l0 59 38 -2 c20 -1 43 -5 50 -10z
m312 -6 c24 -24 25 -48 4 -78 -29 -42 -104 -18 -104 35 0 28 33 63 60 63 11 0
29 -9 40 -20z m190 -40 c0 -33 -4 -60 -10 -60 -6 0 -10 27 -10 60 0 33 4 60
10 60 6 0 10 -27 10 -60z m210 40 c13 -20 13 -100 0 -100 -5 0 -10 15 -10 33
0 41 -21 73 -44 64 -11 -5 -16 -19 -16 -52 0 -33 -4 -45 -15 -45 -11 0 -15 13
-15 53 0 30 2 56 4 58 12 11 88 2 96 -11z m248 4 c26 -18 30 -65 6 -88 -18
-19 -65 -21 -82 -4 -17 17 -15 68 5 90 20 22 42 23 71 2z m130 2 c14 -9 17
-106 2 -106 -5 0 -10 17 -10 39 0 46 -22 70 -45 51 -9 -7 -15 -29 -15 -51 0
-22 -4 -39 -10 -39 -6 0 -10 26 -10 59 l0 59 38 -2 c20 -1 43 -5 50 -10z m122
-6 c34 -34 26 -50 -26 -50 -32 0 -44 -4 -41 -12 2 -8 19 -13 41 -12 37 1 48
-9 20 -20 -64 -25 -113 45 -67 96 21 24 48 23 73 -2z m106 6 c25 -19 12 -31
-15 -14 -15 9 -23 10 -32 1 -9 -9 -3 -15 25 -27 30 -12 37 -20 34 -38 -4 -29
-58 -38 -78 -13 -12 15 -10 16 23 10 45 -9 50 8 7 24 -38 13 -50 39 -25 57 24
18 36 18 61 0z m54 -46 c0 -33 -4 -60 -10 -60 -6 0 -10 27 -10 60 0 33 4 60
10 60 6 0 10 -27 10 -60z m95 50 c5 -8 11 -8 19 -1 19 16 21 8 18 -52 l-4 -54
-40 -1 c-50 -2 -68 11 -68 51 0 49 55 90 75 57z m-3700 -103 c50 -14 126 -32
170 -41 109 -20 235 -68 235 -88 0 -5 -102 -7 -227 -6 l-228 3 -31 60 c-17 33
-34 73 -38 88 -6 25 -4 27 11 19 10 -5 59 -21 108 -35z"/>
<path d="M7740 8790 c-71 -15 -166 -67 -206 -113 -105 -120 -131 -326 -59
-472 56 -116 187 -163 336 -119 111 32 184 98 236 211 35 75 44 220 19 306
-42 144 -172 219 -326 187z"/>
<path d="M6455 8589 c-27 -4 -80 -13 -117 -19 l-68 -12 0 -116 c0 -65 4 -122
8 -129 5 -8 34 -6 112 8 58 10 119 24 137 30 90 29 124 169 53 219 -34 24 -65
29 -125 19z"/>
<path d="M6465 8110 c-22 -4 -73 -13 -114 -20 l-74 -12 5 -129 c3 -71 7 -132
11 -135 10 -10 249 37 289 57 49 25 70 58 76 119 9 101 -62 146 -193 120z"/>
<path d="M5100 8337 c-74 -17 -155 -63 -197 -112 -105 -119 -130 -324 -58
-471 56 -115 187 -161 336 -118 111 32 184 98 236 211 35 75 44 220 19 306
-43 149 -175 221 -336 184z"/>
<path d="M14966 8090 c-87 -16 -161 -32 -164 -35 -8 -7 -84 -517 -78 -522 11
-11 364 59 418 84 75 33 148 112 179 191 31 79 33 199 3 238 -59 79 -123 87
-358 44z"/>
<path d="M3750 8119 c-25 -4 -60 -11 -78 -14 l-33 -6 3 -144 c2 -79 6 -147 10
-151 4 -4 55 1 112 11 159 27 214 68 224 164 6 65 -3 97 -35 127 -22 21 -35
24 -92 23 -36 -1 -86 -5 -111 -10z"/>
<path d="M11923 6718 c-15 -20 -25 -38 -20 -38 3 0 12 11 21 25 17 26 16 35
-1 13z"/>
<path d="M8129 6906 c-155 -33 -269 -97 -385 -219 -68 -71 -93 -107 -134 -190
-140 -284 -131 -595 22 -732 65 -58 130 -80 238 -79 276 3 532 185 650 462
142 333 79 672 -138 747 -66 22 -175 27 -253 11z"/>
<path d="M3627 6008 c-3 -7 -86 -192 -185 -410 -133 -294 -176 -398 -164 -398
22 0 486 81 490 85 4 4 -128 727 -133 733 -1 2 -5 -3 -8 -10z"/>
<path d="M12401 5774 c0 -11 3 -14 6 -6 3 7 2 16 -1 19 -3 4 -6 -2 -5 -13z"/>
<path d="M12412 5730 c0 -14 2 -19 5 -12 2 6 2 18 0 25 -3 6 -5 1 -5 -13z"/>
<path d="M12030 5020 c0 -5 5 -10 10 -10 6 0 10 5 10 10 0 6 -4 10 -10 10 -5
0 -10 -4 -10 -10z"/>
<path d="M13610 3818 c1 -23 26 -47 48 -45 29 2 28 9 -8 35 -34 25 -40 27 -40
10z"/>
<path d="M11396 4600 c3 -14 10 -32 15 -40 7 -13 8 -13 8 0 0 8 -6 26 -15 40
l-15 25 7 -25z"/>
<path d="M11217 4448 c-32 -11 -56 -22 -54 -24 4 -5 127 36 127 42 0 6 -11 4
-73 -18z"/>
<path d="M17147 4627 c-15 -33 -25 -62 -23 -65 3 -2 23 -1 46 3 31 5 40 11 36
22 -3 8 -9 32 -12 54 -4 22 -9 41 -13 43 -3 2 -18 -24 -34 -57z"/>
<path d="M16028 4523 c-16 -2 -28 -7 -28 -11 0 -8 -16 -116 -26 -171 l-5 -34
42 6 c65 9 111 60 117 129 5 58 -4 73 -48 81 -14 2 -37 2 -52 0z"/>
<path d="M15350 4403 c-53 -19 -97 -99 -85 -153 23 -103 185 -28 185 85 0 60
-43 89 -100 68z"/>
<path d="M15044 4353 c-20 -4 -34 -36 -34 -78 0 -19 81 -1 97 21 18 24 16 51
-3 58 -16 6 -24 6 -60 -1z"/>
<path d="M15028 4233 c-16 -2 -28 -10 -28 -17 0 -8 -3 -28 -6 -45 -6 -28 -4
-31 19 -31 64 0 116 50 87 85 -12 15 -20 16 -72 8z"/>
<path d="M14750 4303 c-53 -19 -97 -99 -85 -153 23 -103 185 -28 185 85 0 60
-43 89 -100 68z"/>
<path d="M8355 4200 c3 -5 11 -10 16 -10 6 0 7 5 4 10 -3 6 -11 10 -16 10 -6
0 -7 -4 -4 -10z"/>
<path d="M8267 4169 c7 -7 15 -10 18 -7 3 3 -2 9 -12 12 -14 6 -15 5 -6 -5z"/>
<path d="M14443 4253 c-17 -3 -23 -14 -29 -49 -3 -25 -4 -47 -1 -50 12 -12 72
14 91 39 33 44 4 73 -61 60z"/>
<path d="M7818 4223 c6 -2 18 -2 25 0 6 3 1 5 -13 5 -14 0 -19 -2 -12 -5z"/>
<path d="M7728 4203 c7 -3 16 -2 19 1 4 3 -2 6 -13 5 -11 0 -14 -3 -6 -6z"/>
<path d="M8041 4166 c-37 -39 -21 -46 86 -34 8 1 8 6 0 19 -7 11 -15 15 -22 9
-6 -5 -17 -5 -25 2 -12 8 -11 9 3 4 12 -4 17 -2 15 6 -8 22 -33 19 -57 -6z m9
-16 c-6 -11 -13 -20 -16 -20 -2 0 0 9 6 20 6 11 13 20 16 20 2 0 0 -9 -6 -20z"/>
<path d="M7458 4143 c7 -3 16 -2 19 1 4 3 -2 6 -13 5 -11 0 -14 -3 -6 -6z"/>
<path d="M7308 4113 c7 -3 16 -2 19 1 4 3 -2 6 -13 5 -11 0 -14 -3 -6 -6z"/>
<path d="M7770 4096 c0 -9 30 -14 35 -6 4 6 -3 10 -14 10 -12 0 -21 -2 -21 -4z"/>
<path d="M7168 4083 c7 -3 16 -2 19 1 4 3 -2 6 -13 5 -11 0 -14 -3 -6 -6z"/>
<path d="M7118 4073 c7 -3 16 -2 19 1 4 3 -2 6 -13 5 -11 0 -14 -3 -6 -6z"/>
<path d="M7068 4063 c7 -3 16 -2 19 1 4 3 -2 6 -13 5 -11 0 -14 -3 -6 -6z"/>
<path d="M7018 4053 c6 -2 18 -2 25 0 6 3 1 5 -13 5 -14 0 -19 -2 -12 -5z"/>
<path d="M7440 4051 c0 -5 9 -7 20 -4 27 7 107 -14 139 -36 56 -38 101 -62
101 -54 0 11 -101 73 -144 90 -37 14 -116 17 -116 4z"/>
<path d="M6968 4043 c6 -2 18 -2 25 0 6 3 1 5 -13 5 -14 0 -19 -2 -12 -5z"/>
<path d="M7381 4039 c-13 -5 -21 -12 -18 -15 3 -3 14 -1 25 5 14 7 25 6 41 -6
15 -10 19 -18 12 -23 -7 -4 10 -21 45 -44 31 -21 58 -35 61 -33 2 3 -19 21
-47 40 -52 35 -52 35 -24 40 28 4 28 4 3 6 -14 0 -34 10 -44 21 -20 22 -21 22
-54 9z"/>
<path d="M6918 4033 c6 -2 18 -2 25 0 6 3 1 5 -13 5 -14 0 -19 -2 -12 -5z"/>
<path d="M6840 4020 c-20 -6 -21 -8 -5 -8 11 0 31 4 45 8 20 6 21 8 5 8 -11 0
-31 -4 -45 -8z"/>
<path d="M7193 4001 c-39 -9 -75 -20 -80 -25 -4 -5 1 -6 12 -3 11 3 48 11 83
18 l63 12 77 -53 c78 -53 114 -65 187 -62 22 0 76 -6 119 -14 44 -8 81 -12 83
-10 9 8 -65 28 -122 32 -33 2 -71 6 -85 9 -20 5 -22 3 -10 -5 23 -17 -50 -1
-77 16 -13 8 -23 13 -23 10 0 -8 -68 60 -73 74 -4 12 -6 11 -6 -2 -1 -23 -10
-22 -41 2 -14 11 -27 19 -30 19 -3 -1 -37 -9 -77 -18z"/>
<path d="M7510 3997 c0 -10 113 -78 123 -73 8 3 8 5 -1 5 -7 1 -32 14 -55 29
-53 36 -67 44 -67 39z"/>
<path d="M6638 3973 c6 -2 18 -2 25 0 6 3 1 5 -13 5 -14 0 -19 -2 -12 -5z"/>
<path d="M6588 3963 c6 -2 18 -2 25 0 6 3 1 5 -13 5 -14 0 -19 -2 -12 -5z"/>
<path d="M6548 3953 c7 -3 16 -2 19 1 4 3 -2 6 -13 5 -11 0 -14 -3 -6 -6z"/>
<path d="M7170 3949 c-19 -4 -42 -6 -50 -3 -11 4 -12 2 -4 -6 8 -7 25 -7 62 0
51 11 51 11 111 -30 77 -52 80 -45 4 9 -59 43 -66 44 -123 30z"/>
<path d="M6498 3943 c6 -2 18 -2 25 0 6 3 1 5 -13 5 -14 0 -19 -2 -12 -5z"/>
<path d="M6458 3933 c7 -3 16 -2 19 1 4 3 -2 6 -13 5 -11 0 -14 -3 -6 -6z"/>
<path d="M6790 3930 c0 -5 5 -10 11 -10 5 0 7 5 4 10 -3 6 -8 10 -11 10 -2 0
-4 -4 -4 -10z"/>
<path d="M6408 3923 c7 -3 16 -2 19 1 4 3 -2 6 -13 5 -11 0 -14 -3 -6 -6z"/>
<path d="M6358 3913 c6 -2 18 -2 25 0 6 3 1 5 -13 5 -14 0 -19 -2 -12 -5z"/>
<path d="M6370 3874 c13 -33 13 -32 -7 -36 -10 -3 -44 9 -77 25 -51 25 -63 27
-95 18 -30 -9 -31 -10 -6 -7 19 3 56 -6 99 -24 87 -37 122 -25 100 34 -3 9
-10 16 -15 16 -5 0 -4 -12 1 -26z"/>
<path d="M6061 3856 c2 -2 18 -6 34 -10 22 -5 26 -4 15 4 -14 9 -59 15 -49 6z"/>
<path d="M7710 3831 c0 -14 36 -24 61 -16 27 9 19 16 -25 22 -21 3 -36 0 -36
-6z"/>
<path d="M6135 3820 c3 -5 12 -10 20 -10 8 0 17 5 20 10 4 6 -5 10 -20 10 -15
0 -24 -4 -20 -10z"/>
<path d="M7378 3813 c-10 -2 -18 -11 -18 -18 0 -41 151 -62 158 -22 6 31 -80
56 -140 40z m101 -14 c34 -12 40 -24 15 -33 -25 -10 -52 -7 -92 9 -29 13 -34
18 -22 25 20 13 60 12 99 -1z"/>
<path d="M7365 3709 c11 -4 49 -8 85 -8 82 1 68 6 -30 12 -43 2 -66 1 -55 -4z"/>
<path d="M8540 3826 c0 -2 7 -7 16 -10 8 -3 12 -2 9 4 -6 10 -25 14 -25 6z"/>
<path d="M8460 3800 c0 -5 5 -10 11 -10 5 0 7 5 4 10 -3 6 -8 10 -11 10 -2 0
-4 -4 -4 -10z"/>
<path d="M8167 3720 c-9 -12 -9 -13 2 -3 7 6 19 9 26 7 7 -3 15 -2 18 3 10 16
-34 9 -46 -7z"/>
<path d="M8110 3710 c0 -5 5 -10 10 -10 6 0 10 5 10 10 0 6 -4 10 -10 10 -5 0
-10 -4 -10 -10z"/>
<path d="M7978 3673 c7 -3 16 -2 19 1 4 3 -2 6 -13 5 -11 0 -14 -3 -6 -6z"/>
<path d="M7938 3663 c7 -3 16 -2 19 1 4 3 -2 6 -13 5 -11 0 -14 -3 -6 -6z"/>
<path d="M7898 3653 c7 -3 16 -2 19 1 4 3 -2 6 -13 5 -11 0 -14 -3 -6 -6z"/>
<path d="M7733 3619 c-18 -5 -33 -12 -33 -15 0 -8 63 6 75 17 11 11 1 10 -42
-2z"/>
<path d="M7585 3583 c-33 -8 -64 -18 -68 -22 -8 -8 76 9 138 28 48 15 -2 11
-70 -6z"/>
<path d="M7445 3545 c-40 -14 -40 -14 -5 -9 19 4 39 10 45 15 11 11 10 11 -40
-6z"/>
<path d="M7368 3523 c6 -2 18 -2 25 0 6 3 1 5 -13 5 -14 0 -19 -2 -12 -5z"/>
<path d="M7328 3513 c7 -3 16 -2 19 1 4 3 -2 6 -13 5 -11 0 -14 -3 -6 -6z"/>
<path d="M6978 3453 c7 -3 16 -2 19 1 4 3 -2 6 -13 5 -11 0 -14 -3 -6 -6z"/>
<path d="M6915 3440 c-18 -8 -17 -9 7 -9 15 -1 30 4 33 9 7 12 -12 12 -40 0z"/>
<path d="M5845 3800 c11 -5 27 -9 35 -9 13 -1 13 0 0 9 -8 5 -24 9 -35 9 l-20
0 20 -9z"/>
<path d="M5705 3720 c-3 -5 -2 -10 4 -10 5 0 13 5 16 10 3 6 2 10 -4 10 -5 0
-13 -4 -16 -10z"/>
<path d="M5990 3790 c0 -5 7 -10 16 -10 8 0 12 5 9 10 -3 6 -10 10 -16 10 -5
0 -9 -4 -9 -10z"/>
<path d="M6256 3712 c-2 -4 8 -13 25 -19 29 -11 36 -7 21 12 -9 13 -39 18 -46
7z"/>
<path d="M6419 3738 c0 -2 -2 -13 -5 -26 -4 -20 -2 -21 17 -12 16 9 18 14 8
26 -11 13 -18 17 -20 12z"/>
<path d="M3992 3647 c-72 -41 -77 -170 -7 -197 60 -23 135 41 135 115 0 79
-61 118 -128 82z"/>
<path d="M5560 3701 c0 -5 7 -11 15 -15 8 -3 15 -1 15 3 0 5 -7 11 -15 15 -8
3 -15 1 -15 -3z"/>
<path d="M6803 3670 c-28 -11 -29 -22 -3 -45 26 -23 109 -31 133 -13 52 39
-57 87 -130 58z m60 -24 c12 -8 34 -14 49 -12 15 2 25 -1 22 -5 -13 -22 -134
-1 -134 23 0 13 39 9 63 -6z"/>
<path d="M3642 3577 c-72 -41 -77 -170 -7 -197 60 -23 135 41 135 115 0 79
-61 118 -128 82z"/>
<path d="M3323 3523 c-19 -4 -23 -11 -23 -42 0 -21 2 -40 5 -43 14 -13 87 16
97 38 20 43 -11 60 -79 47z"/>
<path d="M3333 3393 c-20 -4 -23 -11 -23 -50 l0 -45 38 7 c61 11 91 52 60 83
-12 12 -32 13 -75 5z"/>
<path d="M13500 3374 c-10 -30 -10 -38 1 -45 32 -20 42 -11 63 59 7 19 4 22
-23 22 -25 0 -31 -5 -41 -36z"/>
<path d="M4729 3455 c17 -33 31 -51 31 -40 0 6 -10 21 -21 35 -13 17 -17 18
-10 5z"/>
<path d="M4902 3190 c28 -44 53 -78 55 -76 5 5 -94 156 -102 156 -2 0 19 -36
47 -80z"/>
<path d="M11320 3205 c0 -8 4 -15 8 -15 5 0 9 7 9 15 0 8 -4 15 -9 15 -4 0 -8
-7 -8 -15z"/>
<path d="M11320 3153 c0 -4 9 -14 21 -21 18 -12 20 -11 17 5 -3 17 -38 32 -38
16z"/>
<path d="M11373 3126 c9 -22 -3 -26 -29 -9 -30 19 -32 1 -4 -27 24 -24 36 -25
48 -4 11 20 4 54 -10 54 -6 0 -8 -6 -5 -14z"/>
<path d="M11310 3080 c0 -5 5 -10 10 -10 6 0 10 5 10 10 0 6 -4 10 -10 10 -5
0 -10 -4 -10 -10z"/>
<path d="M11310 3044 c0 -12 50 -54 64 -54 3 0 6 8 6 18 -1 21 -70 57 -70 36z"/>
<path d="M11280 3009 c0 -5 5 -7 10 -4 6 3 10 8 10 11 0 2 -4 4 -10 4 -5 0
-10 -5 -10 -11z"/>
<path d="M11300 2993 c0 -9 54 -53 65 -53 14 0 3 38 -12 43 -10 2 -26 8 -35
12 -10 4 -18 3 -18 -2z"/>
<path d="M11297 2924 c3 -7 9 -14 14 -14 14 0 10 17 -5 23 -10 4 -13 1 -9 -9z"/>
<path d="M11270 2916 c0 -8 15 -25 33 -37 17 -13 34 -27 35 -31 8 -18 22 -6
22 18 0 15 -4 23 -10 19 -6 -4 -26 5 -45 20 -26 19 -35 22 -35 11z"/>
<path d="M11286 2842 c-3 -5 6 -15 19 -22 14 -7 25 -19 25 -27 0 -10 -6 -9
-27 4 -25 16 -26 16 -21 1 4 -9 2 -19 -5 -21 -7 -2 -9 -8 -4 -12 4 -5 13 0 21
10 13 18 14 18 21 -4 10 -33 30 -20 32 21 1 26 -3 38 -15 42 -9 3 -22 8 -29
12 -6 3 -14 1 -17 -4z"/>
<path d="M11270 2736 c0 -7 13 -22 29 -34 26 -19 30 -19 35 -5 4 9 5 16 4 17
-2 1 -18 9 -35 18 -24 13 -33 14 -33 4z"/>
<path d="M11250 2691 c0 -13 50 -51 66 -51 8 0 14 5 14 10 0 6 -6 10 -13 10
-7 0 -23 9 -35 20 -23 22 -32 25 -32 11z"/>
<path d="M11230 2643 c0 -5 20 -24 45 -42 27 -19 45 -27 45 -19 0 7 -17 24
-38 38 -47 32 -52 34 -52 23z"/>
<path d="M11230 2586 c0 -2 8 -10 18 -17 15 -13 16 -12 3 4 -13 16 -21 21 -21
13z"/>
<path d="M11270 2556 c0 -2 8 -10 18 -17 15 -13 16 -12 3 4 -13 16 -21 21 -21
13z"/>
<path d="M11220 2518 c0 -8 14 -24 31 -37 24 -18 33 -20 45 -11 8 7 14 20 13
29 0 10 -2 11 -6 4 -7 -19 -27 -16 -57 8 -19 15 -26 17 -26 7z"/>
<path d="M5050 2330 c0 -8 5 -22 10 -30 9 -13 10 -13 10 0 0 8 -5 22 -10 30
-9 13 -10 13 -10 0z"/>
<path d="M5066 2264 c-3 -8 -2 -12 4 -9 5 3 10 -4 9 -17 -1 -41 13 -108 23
-108 5 0 7 12 4 28 -3 15 -8 48 -12 75 -6 48 -17 60 -28 31z"/>
<path d="M5032 2070 c0 -19 2 -27 5 -17 2 9 2 25 0 35 -3 9 -5 1 -5 -18z"/>
<path d="M8061 3184 c-15 -52 -15 -52 14 -46 21 4 24 8 19 31 -13 53 -21 57
-33 15z"/>
<path d="M11578 3073 c6 -2 18 -2 25 0 6 3 1 5 -13 5 -14 0 -19 -2 -12 -5z"/>
<path d="M11555 2989 c18 -5 33 -5 39 1 7 7 -4 10 -29 9 -40 -1 -40 -1 -10
-10z"/>
<path d="M11538 2943 c12 -2 30 -2 40 0 9 3 -1 5 -23 4 -22 0 -30 -2 -17 -4z"/>
<path d="M11533 2893 c9 -2 25 -2 35 0 9 3 1 5 -18 5 -19 0 -27 -2 -17 -5z"/>
<path d="M11518 2843 c7 -3 16 -2 19 1 4 3 -2 6 -13 5 -11 0 -14 -3 -6 -6z"/>
<path d="M12681 3181 c-10 -17 -9 -21 3 -21 20 0 27 13 16 29 -6 11 -10 9 -19
-8z"/>
<path d="M12720 2939 c-13 -24 -4 -41 10 -19 10 16 13 40 5 40 -2 0 -9 -9 -15
-21z"/>
<path d="M12577 2848 c-4 -12 -1 -28 4 -35 8 -9 4 -14 -16 -19 -17 -4 -30 -2
-35 6 -5 9 -9 9 -14 1 -18 -28 16 -33 103 -15 20 4 22 7 10 15 -10 8 -6 9 14
4 19 -4 26 -2 22 5 -3 5 -13 10 -21 10 -8 0 -19 11 -24 25 -12 31 -36 33 -43
3z"/>
<path d="M12525 2839 c-4 -6 -5 -12 -2 -15 2 -3 7 2 10 11 7 17 1 20 -8 4z"/>
<path d="M5615 3020 c-3 -5 -1 -10 4 -10 6 0 11 5 11 10 0 6 -2 10 -4 10 -3 0
-8 -4 -11 -10z"/>
<path d="M8487 3004 c-10 -10 -9 -54 2 -54 12 0 22 43 13 52 -5 5 -11 5 -15 2z"/>
<path d="M5466 2983 c-12 -12 -6 -43 9 -43 8 0 15 9 15 19 0 21 -13 34 -24 24z"/>
<path d="M5390 2944 c0 -31 23 -28 28 4 2 15 -2 22 -12 22 -11 0 -16 -9 -16
-26z"/>
<path d="M8270 2939 c0 -5 5 -7 10 -4 6 3 10 8 10 11 0 2 -4 4 -10 4 -5 0 -10
-5 -10 -11z"/>
<path d="M6589 2865 c-48 -26 -66 -103 -35 -150 19 -29 35 -31 76 -10 26 13
43 45 45 80 0 5 9 11 20 13 11 2 24 8 30 13 6 6 -3 7 -23 3 -28 -6 -32 -4 -32
14 0 12 -10 28 -22 36 -27 19 -26 19 -59 1z"/>
<path d="M8108 2885 c-3 -13 -3 -27 0 -30 9 -9 32 17 32 36 0 28 -27 23 -32
-6z"/>
<path d="M7983 2873 c-7 -3 -13 -16 -13 -30 0 -18 5 -24 17 -21 19 4 30 35 16
48 -4 4 -14 5 -20 3z"/>
<path d="M5666 2633 c-14 -4 -17 -11 -12 -35 3 -17 6 -34 6 -39 0 -18 31 -8
56 16 20 20 23 28 14 45 -10 20 -26 23 -64 13z"/>
<path d="M6860 2423 c-24 -31 -23 -71 3 -87 37 -23 87 70 55 102 -19 19 -35
14 -58 -15z"/>
<path d="M8417 2423 c-4 -3 -7 -11 -7 -17 0 -6 5 -5 12 2 6 6 9 14 7 17 -3 3
-9 2 -12 -2z"/>
<path d="M8261 2396 c-6 -14 -17 -26 -26 -26 -20 0 -42 -47 -28 -61 5 -5 21
-7 35 -4 22 6 27 14 32 57 8 57 1 73 -13 34z m-11 -50 c0 -15 -18 -31 -26 -23
-7 7 7 37 17 37 5 0 9 -6 9 -14z"/>
<path d="M8300 2381 c-17 -33 -12 -51 14 -51 14 0 28 5 32 11 4 8 -1 9 -17 5
-23 -7 -23 -7 -5 8 11 9 23 16 28 16 4 0 5 7 2 15 -9 21 -41 19 -54 -4z"/>
<path d="M8175 2380 c-3 -5 -1 -10 4 -10 6 0 11 5 11 10 0 6 -2 10 -4 10 -3 0
-8 -4 -11 -10z"/>
<path d="M8405 2369 c-10 -15 3 -25 16 -12 7 7 7 13 1 17 -6 3 -14 1 -17 -5z"/>
<path d="M8123 2337 c-26 -11 -31 -37 -8 -37 8 0 15 -4 15 -10 0 -5 -7 -10
-15 -10 -8 0 -15 -4 -15 -10 0 -5 3 -10 8 -10 13 1 42 27 42 39 0 6 -8 11 -17
11 -16 1 -16 2 1 15 25 19 18 26 -11 12z"/>
<path d="M8168 2320 c-3 -19 -1 -29 6 -27 14 4 21 57 8 57 -5 0 -12 -14 -14
-30z"/>
<path d="M7988 2324 c-14 -22 -21 -94 -9 -94 6 0 14 6 17 14 8 20 0 93 -8 80z"/>
<path d="M8039 2313 c-11 -2 -18 -17 -21 -39 -2 -21 0 -33 6 -31 6 2 12 16 14
30 4 34 22 35 22 2 0 -33 16 -32 24 0 10 41 -1 50 -45 38z"/>
<path d="M8080 2189 c0 -5 5 -7 10 -4 6 3 10 8 10 11 0 2 -4 4 -10 4 -5 0 -10
-5 -10 -11z"/>
<path d="M8177 2169 c7 -7 15 -10 18 -7 3 3 -2 9 -12 12 -14 6 -15 5 -6 -5z"/>
<path d="M8050 2146 c0 -2 7 -7 16 -10 8 -3 12 -2 9 4 -6 10 -25 14 -25 6z"/>
<path d="M8130 2100 c0 -5 5 -10 11 -10 5 0 7 5 4 10 -3 6 -8 10 -11 10 -2 0
-4 -4 -4 -10z"/>
<path d="M8205 2060 c3 -5 8 -10 11 -10 2 0 4 5 4 10 0 6 -5 10 -11 10 -5 0
-7 -4 -4 -10z"/>
<path d="M6652 2357 c-12 -13 -22 -35 -22 -49 0 -54 58 -64 93 -16 44 60 -21
119 -71 65z"/>
<path d="M13292 2060 c-13 -50 -21 -94 -18 -97 3 -4 6 -1 6 5 0 14 44 -3 73
-26 16 -14 17 -10 17 66 0 75 -2 84 -27 112 l-28 31 -23 -91z"/>
<path d="M12903 1993 c9 -2 25 -2 35 0 9 3 1 5 -18 5 -19 0 -27 -2 -17 -5z"/>
<path d="M12627 1623 c-20 -43 -37 -82 -37 -86 0 -12 43 13 77 46 27 25 30 33
21 50 -6 12 -14 32 -17 45 -6 21 -12 14 -44 -55z"/>
<path d="M12885 1341 c-16 -10 -55 -42 -85 -71 -30 -29 -47 -47 -37 -40 9 7
20 10 23 7 8 -8 81 19 133 50 45 26 45 26 23 43 -12 10 -18 20 -15 24 13 13
-13 5 -42 -13z"/>
<path d="M6900 1840 c0 -5 5 -10 10 -10 6 0 10 5 10 10 0 6 -4 10 -10 10 -5 0
-10 -4 -10 -10z"/>
<path d="M6462 1720 c0 -14 2 -19 5 -12 2 6 2 18 0 25 -3 6 -5 1 -5 -13z"/>
<path d="M14889 991 c-33 -33 -39 -45 -39 -82 0 -117 122 -177 209 -103 91 77
34 224 -87 224 -38 0 -50 -6 -83 -39z"/>
<path d="M18139 1141 c-25 -25 -29 -37 -29 -81 0 -44 4 -56 29 -81 88 -87 214
28 156 141 -31 59 -107 69 -156 21z"/>
<path d="M15889 1141 c-23 -23 -29 -38 -29 -71 0 -75 37 -120 100 -120 42 0
67 15 85 50 28 54 11 136 -34 160 -39 20 -91 12 -122 -19z"/>
<path d="M17734 1173 c-12 -2 -32 -15 -45 -29 -20 -21 -24 -36 -24 -86 0 -53
3 -62 28 -84 60 -52 147 -20 162 59 16 85 -45 155 -121 140z"/>
<path d="M16721 706 c-21 -25 -10 -61 18 -61 31 0 50 28 35 53 -15 23 -38 26
-53 8z"/>
<path d="M17431 706 c-21 -25 -10 -61 18 -61 31 0 50 28 35 53 -15 23 -38 26
-53 8z"/>
<path d="M17822 708 c-32 -32 0 -84 37 -61 22 14 25 38 6 57 -20 19 -27 20
-43 4z"/>
<path d="M15510 725 c0 -20 5 -25 25 -25 29 0 45 28 24 41 -27 17 -49 10 -49
-16z"/>
<path d="M16104 735 c-4 -9 -2 -21 4 -27 15 -15 54 1 50 20 -4 23 -46 28 -54
7z"/>
<path d="M16107 683 c-4 -3 -7 -15 -7 -25 0 -23 55 -26 64 -3 8 21 -40 45 -57
28z"/>
<path d="M15860 705 c-24 -29 8 -75 44 -62 30 12 14 77 -20 77 -6 0 -17 -7
-24 -15z"/>
<path d="M16230 705 c-24 -29 8 -75 44 -62 30 12 14 77 -20 77 -6 0 -17 -7
-24 -15z"/>
<path d="M16470 705 c-24 -29 8 -75 44 -62 30 12 14 77 -20 77 -6 0 -17 -7
-24 -15z"/>
<path d="M16850 705 c-24 -29 8 -75 44 -62 30 12 14 77 -20 77 -6 0 -17 -7
-24 -15z"/>
<path d="M17296 704 c-19 -18 -19 -20 -6 -45 21 -38 76 -10 62 31 -11 31 -34
37 -56 14z"/>
<path d="M17951 706 c-21 -25 -10 -61 18 -61 31 0 50 28 35 53 -15 23 -38 26
-53 8z"/>
<path d="M18200 705 c-11 -13 -7 -15 25 -15 32 0 36 2 25 15 -7 8 -18 15 -25
15 -7 0 -18 -7 -25 -15z"/>
<path d="M18472 708 c-25 -25 -6 -68 30 -68 22 0 35 45 18 65 -15 18 -32 19
-48 3z"/>
</g>
</svg>
