<?xml version="1.0" standalone="no"?>
<!DOCTYPE svg PUBLIC "-//W3C//DTD SVG 20010904//EN"
 "http://www.w3.org/TR/2001/REC-SVG-20010904/DTD/svg10.dtd">
<svg version="1.0" xmlns="http://www.w3.org/2000/svg"
 width="1920.000000pt" height="1080.000000pt" viewBox="0 0 1920.000000 1080.000000"
 preserveAspectRatio="xMidYMid meet">

<g transform="translate(0.000000,1080.000000) scale(0.100000,-0.100000)"
fill="#000000" stroke="none">
<path d="M1 9523 l0 -1278 1160 -855 c638 -470 1164 -859 1168 -865 5 -6 -485
-676 -1160 -1590 l-1168 -1580 -1 -1677 0 -1678 9600 0 9600 0 0 5400 0 5400
-9600 0 -9600 0 1 -1277z m18324 543 c80 -34 99 -141 44 -256 -33 -71 -74
-126 -158 -212 -30 -32 -49 -58 -41 -58 8 0 64 9 124 20 140 25 136 26 136
-10 0 -25 -4 -30 -32 -35 -18 -3 -106 -18 -195 -34 l-163 -28 0 25 c0 17 30
57 98 131 155 169 200 246 187 326 -8 55 -29 75 -79 75 -71 0 -121 -44 -140
-122 -5 -21 -12 -28 -31 -28 -38 0 -40 2 -37 39 12 124 170 216 287 167z
m-16550 -277 c110 -94 203 -176 207 -183 4 -6 8 -35 8 -63 0 -49 2 -53 24 -53
41 0 78 -40 80 -86 l1 -39 -125 0 -125 0 -3 97 -3 97 -166 140 -167 141 -78 0
-78 0 -97 -82 c-54 -45 -131 -110 -170 -146 l-73 -64 0 -94 0 -94 -120 0 -120
0 0 43 c0 54 8 65 56 82 38 13 39 14 44 71 l5 58 203 173 203 173 147 0 147 0
200 -171z m15754 -156 c1 -231 -9 -211 97 -193 32 6 69 13 82 16 21 4 23 2 20
-28 l-3 -33 -130 -21 c-71 -12 -131 -21 -132 -20 -1 1 -5 128 -9 283 l-7 282
34 3 c33 3 34 2 41 -42 3 -25 7 -136 7 -247z m-209 224 l0 -34 -112 -19 -111
-19 2 -90 c1 -49 3 -91 5 -92 1 -2 40 4 87 12 110 20 109 20 109 -14 0 -31 10
-28 -132 -52 l-68 -11 0 -94 c0 -109 -10 -102 120 -79 112 20 110 20 110 -15
0 -16 -3 -30 -7 -30 -5 0 -71 -11 -148 -24 -77 -13 -141 -23 -142 -22 -1 1 -5
128 -9 282 l-7 280 144 26 c79 14 147 26 152 27 4 1 7 -14 7 -32z m-412 -49
c-3 -7 -47 -139 -98 -293 -51 -154 -95 -283 -99 -287 -3 -4 -23 -8 -45 -10
l-38 -3 -113 262 -112 261 30 6 c16 3 35 6 41 6 7 0 52 -99 101 -220 49 -121
92 -217 96 -212 4 4 42 115 84 247 42 132 82 243 88 247 20 13 70 9 65 -4z
m-588 -121 l0 -33 -112 -19 -111 -20 2 -90 c1 -49 3 -91 5 -92 1 -2 40 4 87
12 110 20 109 20 109 -14 0 -31 10 -28 -132 -52 l-68 -11 0 -94 c0 -109 -10
-102 120 -79 112 20 110 20 110 -15 0 -16 -3 -30 -7 -30 -5 0 -71 -11 -148
-24 -77 -13 -141 -23 -142 -22 -1 1 -5 128 -9 282 l-7 280 144 26 c79 14 147
26 152 27 4 1 7 -14 7 -32z m-591 -364 c1 -231 -9 -211 97 -193 32 6 69 13 82
16 21 4 23 2 20 -28 l-3 -33 -130 -21 c-71 -12 -131 -21 -132 -20 -1 1 -5 128
-9 283 l-7 282 34 3 c33 3 34 2 41 -42 3 -25 7 -136 7 -247z m-14440 86 c31
-29 43 -67 36 -110 -17 -98 -127 -123 -170 -39 -28 53 -11 134 32 159 30 17
78 12 102 -10z m382 11 c25 -14 49 -62 49 -100 0 -38 -24 -86 -49 -100 -74
-39 -151 30 -136 121 12 70 79 109 136 79z m7813 -196 c4 -64 5 -119 2 -122
-3 -2 -75 -17 -161 -32 -86 -15 -158 -30 -161 -32 -2 -3 0 -178 6 -389 5 -211
10 -434 10 -495 l0 -111 -147 -25 c-82 -14 -149 -24 -151 -23 -4 3 -21 611
-23 823 -1 171 -2 173 -23 169 -60 -14 -297 -49 -301 -45 -7 6 -20 238 -14
238 2 0 209 36 459 79 250 44 464 80 476 80 20 1 21 -6 28 -115z m-8473 33 c5
-64 8 -71 50 -113 173 -177 557 -177 734 1 42 42 44 46 47 112 l3 68 125 0
c113 0 125 -2 128 -18 11 -57 -30 -107 -87 -107 -36 0 -42 -4 -71 -51 -64
-105 -191 -199 -325 -242 -94 -30 -282 -31 -365 -3 -142 48 -259 132 -331 237
-33 49 -45 59 -69 59 -15 0 -36 3 -45 6 -31 12 -59 97 -38 118 4 3 59 5 122 4
l116 -3 6 -68z m6979 -193 c133 -31 233 -98 305 -203 66 -98 87 -164 92 -303
6 -142 -11 -230 -66 -344 -127 -262 -378 -425 -655 -426 -165 -1 -276 42 -387
152 -239 236 -204 666 75 934 168 161 429 239 636 190z m-1229 -229 c62 -21
113 -66 140 -122 34 -69 33 -197 -1 -268 -24 -49 -92 -126 -140 -157 l-25 -17
25 -1 c42 -1 103 -35 141 -77 50 -55 73 -128 67 -213 -12 -165 -134 -301 -318
-354 -69 -20 -650 -119 -657 -112 -5 5 -16 350 -29 917 -6 305 -6 317 12 322
15 5 454 81 579 101 50 7 157 -2 206 -19z m9329 -189 c0 -17 -278 -1900 -285
-1931 -4 -18 -29 -24 -231 -58 -127 -21 -231 -34 -235 -30 -5 5 -138 243 -295
529 -157 285 -290 523 -295 529 -6 5 -9 5 -9 -3 0 -15 -168 -1150 -175 -1178
-4 -18 -27 -24 -230 -58 -125 -21 -228 -36 -230 -35 -2 2 32 243 76 534 43
292 108 730 144 975 36 244 68 446 70 449 4 4 426 79 450 81 6 0 143 -243 305
-539 210 -384 297 -535 302 -523 4 9 46 280 93 602 47 321 88 587 91 590 5 5
399 76 437 79 9 0 17 -6 17 -13z m-10730 -32 c133 -31 233 -98 305 -203 68
-100 87 -164 92 -312 5 -107 2 -137 -16 -202 -91 -332 -381 -560 -710 -559
-167 1 -271 42 -382 152 -115 114 -166 258 -156 440 14 241 140 450 354 587
149 96 353 135 513 97z m-1242 -249 c70 -31 123 -84 156 -154 30 -66 30 -223
-2 -301 -38 -96 -105 -168 -217 -235 -16 -9 -1 -35 122 -220 77 -116 142 -215
146 -221 4 -7 -47 -20 -151 -37 -86 -15 -164 -27 -172 -27 -9 0 -71 89 -145
206 -71 113 -132 207 -135 209 -3 1 -19 0 -37 -2 l-31 -5 5 -233 6 -234 -24
-5 c-66 -15 -272 -46 -276 -42 -5 5 -32 934 -33 1133 0 98 1 103 23 108 12 3
137 26 277 50 306 54 388 55 488 10z m9503 -1090 c109 -506 196 -921 194 -923
-6 -6 -478 -83 -482 -78 -3 3 -18 73 -34 157 -16 83 -31 154 -34 157 -3 3
-164 -21 -357 -54 l-352 -59 -79 -175 c-43 -96 -81 -178 -85 -182 -7 -7 -367
104 -380 116 -3 3 192 425 433 938 241 513 439 934 439 935 2 3 521 91 530 89
5 -1 98 -416 207 -921z m-1611 678 c-1 -5 -13 -89 -28 -188 l-28 -179 -385
-65 c-211 -35 -385 -66 -387 -67 -6 -4 -64 -416 -60 -420 2 -2 132 19 289 45
156 27 285 48 286 48 2 -3 -55 -359 -59 -361 -2 -2 -132 -25 -290 -51 l-286
-48 -6 -31 c-2 -17 -7 -49 -11 -72 -5 -34 -11 -42 -38 -50 -31 -9 -34 -15 -99
-199 -76 -213 -94 -309 -63 -335 10 -8 36 -22 59 -30 31 -12 42 -21 44 -40 6
-60 -2 -59 -225 17 -196 66 -208 72 -206 94 5 50 254 1729 256 1730 10 3 1198
207 1215 208 12 1 22 -2 22 -6z m-2280 -384 c227 -28 393 -142 485 -333 56
-117 69 -188 69 -376 1 -178 -13 -273 -60 -417 -30 -94 -120 -282 -138 -289
-9 -4 -299 89 -378 121 -14 6 -12 15 22 78 21 40 51 110 66 157 25 77 28 99
28 230 1 128 -2 152 -22 202 -49 122 -155 188 -300 188 -99 0 -175 -19 -282
-72 -140 -69 -270 -214 -336 -376 -55 -138 -76 -293 -55 -419 l13 -72 -80
-143 c-161 -290 -162 -293 -162 -339 l-1 -44 -57 60 c-112 118 -169 268 -179
471 -35 696 469 1294 1155 1373 110 12 118 12 212 0z m-1852 -363 c188 -50
270 -203 228 -426 -24 -129 -81 -236 -175 -330 -42 -41 -104 -91 -138 -111
l-62 -36 53 -12 c109 -24 191 -102 223 -210 23 -79 14 -223 -20 -319 -83 -237
-281 -408 -562 -486 -86 -24 -992 -182 -999 -175 -2 2 58 425 135 939 76 514
141 954 144 977 4 27 12 44 23 47 9 3 204 36 432 75 228 38 426 72 440 74 60
10 229 6 278 -7z m-2123 -351 c180 -40 319 -152 400 -320 56 -116 69 -187 69
-375 1 -238 -33 -389 -133 -595 -122 -250 -339 -469 -589 -594 -89 -45 -251
-97 -356 -116 -111 -19 -270 -19 -359 0 -230 48 -407 228 -464 472 -24 105
-24 361 0 485 94 476 432 859 884 1002 198 62 388 76 548 41z m-1982 -350 c86
-22 147 -57 200 -114 84 -90 116 -207 96 -363 -32 -264 -192 -492 -435 -624
-38 -21 -70 -38 -71 -39 -2 -1 69 -158 157 -350 88 -191 159 -350 156 -352
-11 -12 -512 -90 -517 -81 -4 5 -66 152 -139 326 -73 175 -137 321 -141 326
-4 5 -32 5 -61 2 l-54 -7 -53 -357 c-29 -196 -54 -364 -57 -373 -3 -12 -56
-24 -230 -53 -124 -21 -227 -36 -229 -35 -1 2 59 425 136 939 76 514 141 954
144 977 5 33 11 44 28 48 12 3 193 34 402 69 209 36 391 67 405 69 60 10 210
6 263 -8z m7538 -191 c33 -16 46 -44 19 -37 -14 4 -21 -2 -25 -19 -5 -18 -12
-23 -33 -22 -15 0 -29 2 -32 4 -3 1 -18 4 -35 6 -46 5 -76 25 -73 48 6 43 112
54 179 20z m-1624 -131 c43 -32 50 -49 28 -73 -10 -11 -26 -20 -34 -19 -9 1
-28 -1 -44 -6 -17 -4 -39 -2 -59 6 -18 7 -40 14 -50 14 -51 4 -48 67 5 91 42
19 121 12 154 -13z m1573 -33 c0 -5 -7 -10 -16 -10 -8 0 -12 5 -9 10 3 6 10
10 16 10 5 0 9 -4 9 -10z m427 -46 c-3 -3 -12 -4 -19 -1 -8 3 -5 6 6 6 11 1
17 -2 13 -5z m18 -34 c3 -5 -1 -10 -9 -10 -9 0 -16 5 -16 10 0 6 4 10 9 10 6
0 13 -4 16 -10z m-2055 -10 c-20 -13 -33 -13 -25 0 3 6 14 10 23 10 15 0 15
-2 2 -10z m2281 -81 c-22 -9 -24 -4 -9 20 12 19 13 19 19 3 4 -11 0 -19 -10
-23z m-2276 11 c-3 -5 -15 -10 -26 -10 -11 0 -17 5 -14 10 3 6 15 10 26 10 11
0 17 -4 14 -10z m2645 -60 c0 -5 -5 -10 -11 -10 -5 0 -7 5 -4 10 3 6 8 10 11
10 2 0 4 -4 4 -10z m-71 -13 l44 -14 -31 -22 c-29 -20 -33 -21 -59 -7 l-28 15
31 -5 c42 -8 52 11 17 30 -35 19 -30 19 26 3z m-82 -23 c-3 -3 -12 -4 -19 -1
-8 3 -5 6 6 6 11 1 17 -2 13 -5z m-3003 -19 c47 -20 71 -56 56 -84 -6 -12 -16
-21 -22 -21 -6 0 -19 -6 -27 -14 -22 -19 -97 -30 -82 -12 9 10 -2 16 -47 26
-31 7 -60 16 -65 20 -4 3 -2 20 4 37 19 57 107 80 183 48z m2026 -36 c0 -18
-20 -18 -29 0 -9 16 -8 18 9 14 11 -3 20 -9 20 -14z m1340 -4 c-22 -24 -50
-33 -50 -17 0 8 50 41 64 42 5 0 -1 -11 -14 -25z m-68 -18 c-7 -8 -9 -17 -5
-20 3 -4 1 -7 -5 -7 -15 0 -15 23 0 38 16 16 24 6 10 -11z m93 -2 c-16 -14
-34 -25 -40 -25 -5 0 4 11 20 25 17 13 35 24 40 24 6 0 -3 -11 -20 -24z m260
-47 c3 -3 -1 -11 -10 -18 -12 -10 -15 -9 -15 6 0 13 -3 15 -11 7 -6 -6 -8 -16
-5 -22 9 -14 43 -14 51 -1 3 6 13 10 22 10 11 0 7 -8 -13 -26 -42 -36 -56 -43
-79 -33 -19 7 -19 8 3 8 12 1 22 5 22 10 0 12 -43 10 -51 -2 -3 -5 -9 -2 -12
7 -5 12 0 16 19 16 21 0 23 3 14 19 -8 16 -6 20 8 24 21 5 49 3 57 -5z m283
-100 c-6 -18 -57 -53 -65 -45 -9 9 37 57 55 57 7 0 12 -5 10 -12z m-3928 -6
c0 -5 -14 -9 -32 -10 -23 -1 -28 2 -18 8 19 12 50 13 50 2z m3960 -6 c0 -17
-18 -32 -55 -45 -28 -10 -29 -10 -11 4 11 8 23 15 27 15 4 0 11 9 14 20 7 23
25 27 25 6z m-114 -41 c10 -8 14 -15 8 -15 -5 0 -19 7 -30 15 -10 8 -14 15 -8
15 5 0 19 -7 30 -15z m409 -45 c3 -6 -1 -7 -9 -4 -18 7 -21 14 -7 14 6 0 13
-4 16 -10z m-135 -35 c-12 -15 -30 -12 -30 6 0 5 10 9 21 9 18 0 19 -2 9 -15z
m50 1 c0 -11 -19 -15 -25 -6 -3 5 1 10 9 10 9 0 16 -2 16 -4z m510 -38 c55
-28 73 -67 45 -98 -10 -11 -23 -20 -28 -20 -6 0 -1 9 11 20 29 27 28 48 -3 62
-14 6 -25 15 -25 20 0 4 -5 8 -12 8 -7 0 -6 -6 4 -17 9 -10 13 -24 11 -30 -3
-7 3 -13 12 -13 12 0 14 -4 6 -19 -15 -26 -34 -32 -64 -16 -14 7 -42 15 -63
18 -20 3 -43 12 -52 20 -30 31 29 82 98 86 9 1 36 -9 60 -21z m-2886 -37 c11
-10 20 -10 37 -1 28 15 237 21 314 9 33 -6 69 -12 80 -13 64 -11 189 -53 250
-84 90 -47 171 -126 181 -176 3 -21 14 -40 23 -43 37 -11 61 -27 61 -40 0 -20
-31 -16 -125 18 -83 30 -85 32 -69 50 23 26 9 55 -48 101 -103 84 -267 136
-456 145 -104 5 -116 4 -141 -15 l-29 -21 -53 20 c-30 11 -74 27 -98 35 -31
12 -39 19 -30 25 18 12 84 5 103 -10z m-101 -80 c48 -16 92 -33 98 -36 6 -5
-2 -18 -23 -35 l-33 -28 21 -29 c11 -15 36 -50 55 -78 81 -118 102 -125 372
-125 l199 0 38 30 39 31 93 -32 c51 -18 97 -36 102 -40 14 -12 -40 -22 -80
-14 -29 5 -41 2 -58 -13 -19 -19 -39 -20 -276 -24 l-255 -3 -105 39 c-57 22
-114 50 -126 63 -11 12 -52 68 -89 123 l-69 100 22 16 c25 17 29 34 8 34 -18
0 -39 27 -31 40 8 13 -3 15 98 -19z m2847 19 c0 -5 -2 -10 -4 -10 -3 0 -8 5
-11 10 -3 6 -1 10 4 10 6 0 11 -4 11 -10z m-4600 -60 c0 -14 -5 -31 -12 -38
-9 -9 -9 -12 0 -12 7 0 12 -7 12 -15 0 -16 -15 -18 -70 -9 -34 6 -35 7 -32 47
6 89 6 88 57 69 37 -14 45 -21 45 -42z m4750 26 c0 -8 -51 -13 -56 -5 -3 5 9
9 25 9 17 0 31 -2 31 -4z m-2616 -16 c19 -7 26 -17 26 -35 0 -43 -81 -60 -141
-29 -75 38 29 97 115 64z m2600 -49 c8 -13 -16 -20 -48 -14 -20 4 -24 8 -14
14 17 11 55 11 62 0z m4305 -35 c13 -14 20 -29 16 -35 -9 -16 -44 -13 -62 5
-39 39 -133 -14 -155 -87 -21 -72 12 -117 77 -105 31 6 95 63 95 85 0 5 -19 5
-42 0 -59 -11 -58 -11 -58 10 0 14 10 20 43 25 23 4 57 9 75 12 28 6 32 4 32
-16 0 -42 -58 -117 -112 -146 -71 -37 -153 -3 -165 68 -9 57 36 141 95 179 61
38 128 40 161 5z m-6596 -25 c59 -23 25 -81 -47 -81 -75 0 -122 46 -80 77 21
15 92 17 127 4z m6248 -11 c51 -28 61 -119 20 -187 -47 -76 -158 -117 -215
-79 -77 50 -36 209 68 260 36 18 99 21 127 6z m-9237 -44 c-21 -15 -30 -14
-19 3 3 6 14 11 23 11 13 0 13 -2 -4 -14z m510 -1 l39 -6 -6 -133 -7 -133 98
-6 c53 -3 131 -15 172 -27 186 -52 480 -237 559 -352 14 -20 34 -40 45 -44 15
-5 16 -8 5 -15 -11 -6 -11 -11 -1 -21 6 -6 12 -20 12 -29 0 -12 12 -18 41 -22
44 -6 100 -49 98 -76 0 -11 -4 -9 -11 7 -13 26 -64 33 -54 6 3 -9 6 -20 6 -25
0 -5 9 -9 20 -9 11 0 20 -4 20 -10 0 -5 -7 -10 -15 -10 -8 0 -15 -5 -15 -11 0
-6 -8 -8 -18 -5 -9 3 -31 -3 -49 -14 -28 -17 -36 -33 -67 -129 -54 -172 -97
-403 -96 -518 l1 -28 20 27 c23 31 79 68 103 68 9 0 36 -9 59 -20 l44 -21 84
45 c46 25 113 52 149 60 133 32 328 14 497 -45 48 -17 95 -30 103 -30 64 0
115 -14 145 -41 19 -16 35 -38 37 -49 2 -11 43 -55 93 -97 49 -43 117 -113
152 -157 79 -101 165 -273 195 -390 47 -187 21 -439 -62 -606 -73 -146 -135
-182 -250 -148 -37 11 -53 23 -222 160 -177 145 -357 251 -548 322 -148 55
-146 55 -154 13 -11 -60 -35 -106 -80 -155 l-44 -46 107 -141 c163 -218 383
-598 514 -889 102 -226 114 -278 77 -315 -75 -75 -528 73 -834 273 -200 131
-276 212 -298 320 -11 54 -11 59 24 144 44 107 68 218 75 339 7 107 0 118 -79
128 -29 4 -91 25 -137 47 -46 21 -89 39 -95 39 -6 0 -47 -49 -90 -110 -174
-243 -366 -385 -538 -398 -48 -4 -64 0 -100 21 -83 49 -152 176 -216 402 -173
609 -225 894 -202 1116 5 56 15 120 21 142 13 48 50 84 95 93 19 3 34 9 34 13
0 3 -36 50 -80 105 -187 233 -211 403 -93 641 59 119 217 267 364 341 41 20
92 49 114 65 22 15 58 32 80 38 l41 11 13 70 c8 46 9 75 3 83 -5 7 -6 21 -1
32 4 11 8 37 8 57 1 53 10 69 35 64 11 -3 39 -8 60 -11z m8370 -97 c-8 -51
-16 -106 -19 -122 l-5 -28 46 7 c40 6 45 4 42 -11 -2 -13 -20 -22 -67 -31 -35
-7 -66 -11 -69 -9 -2 3 6 65 17 140 12 74 21 138 21 141 0 3 11 5 23 5 l24 0
-13 -92z m-7955 40 c13 -5 22 -11 19 -13 -3 -3 -25 4 -49 15 -41 19 -22 18 30
-2z m7785 -109 c16 -72 26 -132 24 -134 -1 -2 -12 -5 -22 -7 -14 -2 -21 4 -25
20 -7 27 -6 27 -72 18 -44 -6 -51 -11 -66 -41 -10 -21 -24 -35 -35 -35 -10 0
-18 4 -18 9 0 16 131 286 143 293 36 23 44 10 71 -123z m-7605 34 c29 -13 51
-27 47 -30 -3 -3 -11 -2 -18 4 -7 5 -50 25 -95 44 -46 19 -83 37 -83 41 0 7
32 -6 149 -59z m7357 40 c-2 -10 -12 -73 -22 -140 -15 -107 -20 -122 -38 -127
-26 -7 -26 -7 -76 86 -23 43 -45 80 -49 83 -4 2 -14 -40 -21 -95 -10 -84 -15
-100 -32 -106 -11 -3 -22 -4 -25 -1 -2 3 5 66 16 141 12 74 21 138 21 141 0 3
11 5 25 5 20 0 32 -14 72 -85 28 -52 50 -80 53 -73 4 7 13 52 20 101 11 82 13
87 37 87 18 0 23 -4 19 -17z m-352 -174 c16 -72 26 -132 24 -134 -1 -2 -12 -5
-22 -7 -14 -2 -21 4 -25 20 -7 27 -6 27 -72 18 -44 -6 -51 -11 -66 -41 -10
-21 -24 -35 -35 -35 -10 0 -18 4 -18 9 0 16 131 286 143 293 36 23 44 10 71
-123z m-3074 101 c0 -5 -10 -10 -22 -9 -22 0 -22 1 -3 9 11 5 21 9 23 9 1 1 2
-3 2 -9z m-3840 -10 c8 -5 11 -10 5 -10 -5 0 -17 5 -25 10 -8 5 -10 10 -5 10
6 0 17 -5 25 -10z m6550 -30 c0 -15 -9 -21 -39 -26 l-39 -6 -16 -103 c-9 -57
-16 -112 -16 -123 0 -17 -37 -38 -48 -27 -2 2 4 51 12 109 21 143 23 136 -20
129 -31 -5 -36 -4 -32 13 3 15 21 22 98 35 52 9 96 17 98 18 1 0 2 -8 2 -19z
m-6563 -26 c-7 -8 -57 15 -57 26 0 6 13 4 31 -5 17 -9 29 -19 26 -21z m-404
-21 c134 -41 133 -40 124 -49 -4 -4 -26 0 -49 8 -24 9 -79 26 -123 38 -44 12
-84 26 -89 31 -18 16 13 10 137 -28z m462 -3 c3 -6 -1 -7 -9 -4 -18 7 -21 14
-7 14 6 0 13 -4 16 -10z m6196 -10 c51 -28 61 -119 20 -187 -47 -76 -158 -117
-215 -79 -77 50 -36 209 68 260 36 18 99 21 127 6z m-300 -61 c24 -24 20 -61
-12 -95 -18 -19 -18 -22 -4 -34 36 -30 5 -106 -52 -128 -37 -14 -135 -34 -140
-28 -4 4 35 277 40 282 3 3 109 21 130 23 9 0 26 -8 38 -20z m-1966 -58 c16
-9 37 -29 45 -44 14 -25 14 -28 -16 -57 -30 -30 -31 -31 -85 -19 -29 6 -63 16
-74 22 -11 6 -26 11 -33 12 -7 0 -21 12 -29 27 -15 23 -15 29 -2 44 37 45 129
53 194 15z m1666 19 c51 -28 61 -119 20 -187 -47 -76 -158 -117 -215 -79 -77
50 -36 209 68 260 36 18 99 21 127 6z m-303 -62 c6 -6 12 -26 12 -45 0 -27 -8
-43 -36 -71 l-36 -36 21 -43 c27 -56 26 -63 -5 -63 -20 0 -29 9 -46 48 -25 57
-22 54 -41 46 -10 -4 -18 -24 -22 -60 -6 -41 -12 -55 -27 -60 -11 -3 -22 -4
-25 -1 -4 5 34 278 40 283 1 1 27 6 57 12 57 10 86 7 108 -10z m-4250 -42 c10
4 5 -5 -12 -21 -15 -14 -31 -23 -35 -19 -3 4 0 9 7 11 6 3 12 14 13 26 0 12 3
17 5 10 3 -7 13 -9 22 -7z m106 -32 c29 -11 17 -25 -34 -38 -3 0 -19 -11 -35
-24 -21 -16 -26 -25 -17 -29 8 -3 -6 -18 -37 -38 -28 -17 -48 -35 -45 -38 8
-8 -41 -20 -57 -15 -7 2 37 45 97 96 60 50 110 92 111 92 1 0 8 -3 17 -6z
m2743 -30 c-3 -3 -12 -4 -19 -1 -8 3 -5 6 6 6 11 1 17 -2 13 -5z m-2997 -74
c-8 -6 -24 -15 -35 -21 -16 -8 -15 -6 4 10 13 12 28 21 35 21 6 0 4 -5 -4 -10z
m2985 0 c-3 -5 -14 -10 -23 -10 -15 0 -15 2 -2 10 20 13 33 13 25 0z m936
-170 c-11 -51 -37 -83 -28 -35 8 41 26 89 33 83 2 -3 0 -24 -5 -48z m-3161 37
c0 -2 -12 -14 -27 -28 l-28 -24 24 28 c23 25 31 32 31 24z m1890 -49 c18 -13
38 -30 43 -39 12 -20 3 -59 -21 -89 -17 -21 -19 -22 -56 -6 -36 15 -40 15 -51
-1 -11 -15 -14 -14 -35 10 -13 15 -33 27 -45 27 -51 0 -59 47 -16 91 26 26 37
29 89 29 45 0 67 -5 92 -22z m-1900 9 c0 -2 -10 -12 -22 -23 l-23 -19 19 23
c18 21 26 27 26 19z m-50 -21 c0 -2 -8 -10 -17 -17 -16 -13 -17 -12 -4 4 13
16 21 21 21 13z m4205 -23 c17 -43 64 -227 59 -235 -9 -14 -33 -9 -43 10 -5 9
-14 43 -22 75 -12 55 -29 86 -29 53 0 -33 -61 -205 -100 -281 -110 -215 -308
-386 -464 -402 -40 -4 -64 -1 -99 15 -49 22 -89 72 -85 106 5 34 26 29 52 -12
13 -21 38 -45 55 -52 128 -53 365 117 490 350 40 76 115 283 109 301 -2 6 -34
-13 -71 -41 -65 -49 -97 -58 -97 -27 0 12 92 88 170 140 32 22 66 22 75 0z
m-4734 -10 c13 -15 12 -15 -11 -3 -34 17 -36 20 -18 20 9 0 22 -7 29 -17z
m489 -6 c0 -2 -10 -12 -22 -23 l-23 -19 19 23 c18 21 26 27 26 19z m-970 -27
c-20 -13 -33 -13 -25 0 3 6 14 10 23 10 15 0 15 -2 2 -10z m1635 -39 c3 -5 1
-12 -5 -16 -5 -3 -10 1 -10 9 0 18 6 21 15 7z m-1965 -51 c-20 -13 -53 -13
-45 0 3 6 18 10 33 10 21 0 24 -2 12 -10z m873 -80 c40 -17 89 -44 107 -60 31
-26 33 -31 20 -42 -9 -7 -22 -22 -30 -34 -15 -20 -16 -20 -180 44 -91 36 -167
67 -170 69 -12 11 44 43 64 38 15 -5 17 -4 7 3 -11 8 -10 11 5 15 35 10 104
-3 177 -33z m-877 15 c-11 -8 -27 -15 -35 -15 -13 1 -12 4 3 15 11 8 27 15 35
15 13 -1 12 -4 -3 -15z m2238 -25 c8 0 19 7 26 15 7 8 19 15 27 15 10 0 5 -11
-15 -35 -31 -35 -49 -92 -38 -120 7 -20 -14 -65 -30 -65 -17 0 -44 51 -44 83
0 26 -3 27 -162 52 -20 3 -67 0 -105 -6 -108 -19 -118 -18 -118 11 0 36 44 55
130 53 39 0 83 -3 100 -6 16 -3 51 -9 77 -12 26 -4 50 -11 54 -16 10 -17 22
-9 45 27 18 30 23 34 31 20 5 -9 15 -16 22 -16z m1026 -5 c-14 -16 -50 -21
-50 -6 0 11 18 19 44 20 15 1 16 -2 6 -14z m-1949 -45 l24 -21 -35 17 c-43 21
-47 24 -28 24 9 0 26 -9 39 -20z m1269 -48 c-6 -9 -19 -30 -29 -47 -17 -28
-40 -40 -42 -22 -2 15 64 97 73 91 4 -3 3 -13 -2 -22z m-124 -68 c49 -30 98
-63 109 -73 21 -18 102 -71 108 -71 3 0 35 -21 73 -47 96 -64 196 -109 282
-124 59 -10 75 -10 85 1 9 10 9 13 0 17 -18 7 -16 21 9 75 18 38 29 48 62 59
23 7 45 16 51 21 5 4 22 8 38 8 29 0 29 0 22 -47 -3 -27 -9 -59 -12 -73 -5
-24 -4 -23 32 10 20 19 47 55 60 80 25 49 59 85 72 77 5 -3 19 1 33 8 21 11
29 11 54 -2 25 -13 27 -17 13 -25 -9 -5 -17 -20 -17 -33 0 -13 -4 -26 -9 -29
-5 -3 -7 -14 -4 -24 2 -10 -5 -29 -16 -43 -11 -13 -20 -19 -21 -14 0 6 -12 10
-27 10 -20 -1 -45 -18 -89 -62 -42 -42 -76 -66 -111 -79 l-50 -18 -42 -225
c-61 -325 -69 -357 -89 -359 -39 -5 -67 -1 -77 9 -11 11 -14 149 -2 149 4 0 7
9 7 21 0 11 12 71 26 132 14 62 30 139 34 172 4 33 9 66 11 73 3 9 -19 20 -68
32 -154 40 -264 105 -508 302 -123 100 -168 148 -137 148 5 0 49 -25 98 -56z
m1154 -24 c0 -5 -4 -10 -10 -10 -5 0 -10 5 -10 10 0 6 5 10 10 10 6 0 10 -4
10 -10z m-2365 -42 c18 -8 22 -14 13 -19 -10 -6 -7 -12 10 -24 12 -9 20 -21
17 -26 -4 -5 -1 -9 5 -9 8 0 10 9 5 28 -8 32 9 19 19 -15 5 -15 -1 -29 -20
-50 -23 -25 -32 -28 -77 -25 -29 2 -59 10 -68 18 -8 8 -27 14 -41 14 -54 0
-60 61 -11 100 29 23 106 27 148 8z m-4985 -37 c0 -9 -103 -51 -209 -86 -63
-20 -174 -14 -203 11 -12 12 -27 14 -59 9 -52 -9 -45 10 7 20 29 5 43 2 65
-14 22 -17 43 -21 96 -21 56 1 89 9 183 45 63 24 116 44 118 44 1 1 2 -3 2 -8z
m6896 -19 c6 -4 4 -13 -8 -24 -17 -17 -18 -17 -18 7 0 26 7 30 26 17z m613
-26 c25 -13 86 -43 135 -67 80 -39 91 -47 108 -85 10 -23 20 -64 23 -91 l5
-48 -14 46 c-7 25 -17 53 -22 61 -19 34 -106 100 -181 137 -77 39 -126 70
-109 71 4 0 29 -11 55 -24z m-7424 -25 c-6 -6 -65 -30 -133 -56 -114 -42 -128
-45 -185 -39 -34 3 -73 13 -87 22 -25 16 -82 17 -111 2 -8 -5 -21 -5 -28 0
-27 16 0 28 65 29 52 1 72 -3 91 -19 44 -35 128 -27 258 25 110 43 148 54 130
36z m45 -25 c0 -2 -26 -14 -57 -26 -32 -13 -82 -34 -111 -48 -39 -18 -57 -21
-65 -13 -14 14 -4 23 30 27 15 2 60 16 98 33 63 27 105 37 105 27z m6590 -21
c0 -9 -9 -15 -22 -14 -17 1 -19 2 -5 6 9 2 17 9 17 14 0 5 2 9 5 9 3 0 5 -7 5
-15z m-1744 -10 c-21 -16 -32 -13 -21 4 3 6 14 11 23 11 15 -1 15 -2 -2 -15z
m-1362 -43 c2 -4 -2 -16 -10 -27 -13 -18 -14 -18 -14 8 0 25 13 36 24 19z
m1356 -32 c-19 -12 -30 -12 -30 -1 0 10 31 20 40 14 2 -2 -2 -8 -10 -13z
m-5989 -58 c24 -21 52 -41 62 -45 23 -9 22 -24 -3 -32 -23 -7 -43 2 -37 18 2
6 -14 26 -34 43 l-38 32 -77 -24 c-42 -13 -95 -32 -117 -43 -21 -11 -46 -17
-55 -14 -9 4 -13 2 -9 -4 4 -6 0 -14 -9 -17 -13 -5 -14 -9 -4 -20 9 -11 9 -20
0 -37 -11 -19 -7 -27 36 -70 29 -29 42 -49 33 -49 -8 0 -35 20 -59 45 -39 40
-42 47 -33 68 12 26 1 47 -24 47 -18 0 -55 -39 -48 -50 8 -14 -29 -30 -45 -20
-12 7 -6 16 25 44 l40 36 -45 -15 c-25 -8 -55 -20 -67 -26 -12 -7 -30 -8 -40
-5 -17 7 -17 8 1 21 10 8 23 12 28 9 9 -6 60 8 113 31 59 25 70 28 98 27 16 0
31 6 34 14 3 8 16 14 30 14 13 0 45 9 71 19 40 16 103 37 123 40 3 1 26 -16
50 -37z m1310 8 c26 -14 24 -25 -8 -39 -21 -10 -24 -14 -13 -21 9 -5 31 0 63
16 27 14 54 23 60 21 12 -5 -94 -57 -113 -57 -15 0 -90 51 -90 61 0 14 11 11
34 -8 18 -15 19 -16 8 -1 -11 14 -10 18 5 27 23 13 30 13 54 1z m-351 -30 c0
-12 -141 -51 -160 -45 -33 11 -23 19 52 46 56 20 77 24 90 15 10 -6 18 -13 18
-16z m48 -42 c9 -9 -2 -17 -49 -35 -70 -26 -90 -28 -107 -11 -10 10 0 17 45
34 68 26 95 28 111 12z m-208 -68 c41 -33 76 -64 78 -68 1 -5 -12 -12 -29 -16
-27 -5 -40 0 -83 34 l-51 39 -5 -32 c-6 -35 -15 -38 -100 -23 l-45 8 52 -38
c29 -22 53 -42 53 -45 0 -3 -15 -10 -33 -16 -32 -9 -36 -7 -111 55 -56 47 -74
68 -66 76 13 13 89 14 142 3 37 -8 37 -7 44 28 6 36 27 53 64 54 8 1 49 -26
90 -59z m-2510 45 c0 -3 -26 -44 -57 -91 l-57 -85 68 -68 68 -68 -38 -7 c-35
-7 -40 -5 -95 50 l-59 58 0 -71 c0 -69 -1 -71 -27 -76 -16 -3 -30 -3 -33 0 -3
2 -7 76 -9 163 l-3 157 31 5 c31 5 31 4 31 -43 0 -85 8 -87 57 -12 25 37 52
74 61 81 15 12 62 17 62 7z m2794 -20 c11 -8 18 -16 15 -18 -2 -2 -38 -15 -81
-29 -65 -23 -79 -25 -95 -13 -22 17 -23 16 62 47 84 32 76 31 99 13z m395 -53
c-52 -26 -191 -83 -309 -127 l-213 -80 -19 -44 c-10 -24 -16 -52 -13 -62 4
-12 -1 -19 -16 -24 -28 -9 -51 12 -28 25 9 5 26 34 39 64 l22 54 101 37 c225
82 357 135 423 169 38 19 78 35 89 35 11 0 -23 -22 -76 -47z m131 20 c0 -9
-183 -98 -262 -127 -30 -11 -48 -24 -52 -38 -6 -24 9 -38 77 -69 26 -13 47
-26 47 -30 0 -3 41 10 91 30 79 31 87 37 67 45 -22 8 -22 9 -4 22 10 8 23 12
27 9 5 -2 35 9 68 26 33 16 68 30 76 30 9 0 -14 -16 -52 -36 -87 -45 -93 -51
-57 -60 16 -4 82 -43 147 -86 65 -43 124 -81 132 -84 8 -3 40 9 72 28 90 52
82 52 178 -13 l87 -59 -79 -36 -78 -36 24 -17 c72 -48 101 -30 -371 -218 -238
-95 -446 -172 -463 -171 -16 0 -44 11 -61 24 l-32 23 -133 -53 c-74 -30 -180
-72 -236 -95 -56 -22 -107 -41 -112 -41 -6 0 -11 -4 -11 -10 0 -5 13 -10 28
-10 15 0 43 -11 62 -25 19 -14 43 -25 55 -25 12 0 26 -5 32 -11 7 -7 44 4 129
41 66 29 198 83 294 120 96 38 198 78 225 90 28 12 163 67 300 122 138 55 317
129 399 164 l149 64 48 -31 c27 -17 49 -37 49 -45 0 -8 9 -14 19 -14 21 0 31
-19 31 -60 0 -22 -6 -30 -30 -38 -18 -7 -31 -19 -34 -34 -9 -45 -36 -301 -32
-305 2 -3 14 1 26 7 12 6 24 9 27 6 3 -3 -11 -13 -31 -22 -19 -10 -38 -15 -41
-12 -3 3 4 76 15 162 22 175 23 188 11 166 -5 -8 -14 -73 -21 -143 -13 -133
-14 -134 -81 -225 -9 -12 -45 -34 -80 -48 -35 -14 -82 -34 -105 -44 -57 -27
-143 -60 -153 -60 -4 0 -7 10 -6 23 1 17 17 28 76 54 86 37 93 38 85 18 -3 -9
0 -15 10 -15 8 0 17 7 20 15 4 8 11 15 17 15 6 0 36 10 67 21 40 16 64 34 87
65 30 40 34 53 49 179 8 75 13 139 10 143 -3 3 -6 -1 -6 -9 -1 -8 -7 -67 -14
-132 -10 -91 -18 -125 -35 -147 -11 -16 -21 -33 -21 -38 0 -14 -29 -36 -37
-28 -4 3 2 16 13 29 11 12 26 30 33 40 12 15 12 17 -3 11 -10 -4 -16 -1 -16 9
0 9 8 18 19 22 28 9 44 109 19 118 -10 3 -10 9 0 26 13 22 17 99 5 87 -5 -4
-15 -37 -24 -74 l-17 -67 -1 64 c-1 56 -3 62 -18 56 -10 -4 -67 -25 -126 -46
-60 -22 -113 -42 -118 -45 -13 -8 -11 -81 4 -107 17 -31 28 -37 50 -25 10 5
21 8 23 5 3 -3 26 3 52 13 l47 18 1 50 c1 51 10 76 23 68 4 -3 3 -33 -3 -66
l-11 -61 -60 -25 c-33 -14 -68 -28 -77 -31 -10 -3 -18 -9 -18 -13 0 -14 24
-18 49 -8 29 11 34 7 26 -24 -5 -19 -22 -30 -78 -51 -88 -34 -96 -34 -89 -2 3
16 13 27 28 31 15 4 24 13 24 25 0 23 -12 24 -51 3 -31 -16 -46 -14 -35 4 3 6
24 13 45 17 31 5 41 12 46 32 4 17 1 31 -10 43 -12 13 -14 28 -9 59 l7 42 -29
-12 c-16 -6 -88 -33 -160 -59 -158 -58 -299 -118 -414 -175 -47 -23 -123 -57
-170 -75 -47 -19 -90 -38 -96 -42 -6 -4 -12 -36 -13 -70 -1 -35 -5 -66 -9 -70
-4 -4 -92 -43 -197 -86 -104 -44 -235 -100 -290 -125 -55 -24 -199 -79 -321
-121 -121 -42 -312 -116 -425 -165 -112 -49 -309 -134 -438 -190 -128 -56
-235 -100 -237 -98 -2 2 31 19 74 37 42 18 110 48 150 67 41 18 77 33 82 33 5
0 6 7 3 17 -4 11 -3 14 6 9 15 -10 54 23 47 40 -8 21 19 37 34 19 17 -21 47
-19 67 5 11 13 21 16 28 10 8 -7 20 -4 38 10 14 11 30 20 37 20 6 0 9 4 5 9
-3 6 -20 1 -40 -10 -19 -11 -38 -18 -43 -15 -5 3 -17 -3 -27 -14 -20 -22 -50
-26 -61 -9 -11 18 19 60 47 66 15 3 42 19 60 37 19 18 34 26 36 19 3 -8 15 -5
39 9 19 11 34 15 34 9 0 -6 9 -2 21 10 12 12 29 19 40 16 10 -3 19 -1 19 4 0
4 12 15 28 23 34 19 20 21 -16 3 -15 -8 -42 -21 -59 -30 -18 -9 -35 -12 -38
-7 -3 5 4 12 16 15 11 4 18 9 16 12 -3 2 -18 -2 -34 -11 -15 -8 -21 -16 -13
-16 9 0 5 -6 -10 -15 -30 -17 -44 -19 -35 -5 9 15 1 13 -75 -22 -39 -17 -67
-34 -61 -37 5 -4 1 -16 -9 -29 -18 -21 -37 -31 -25 -13 7 12 -29 6 -52 -9 -15
-9 -12 -10 15 -5 34 7 42 -4 18 -25 -8 -6 -16 -21 -18 -33 -2 -13 -10 -22 -20
-22 -10 0 -23 -6 -30 -13 -6 -6 -22 -12 -34 -12 -12 0 -27 -7 -34 -15 -18 -21
-30 -19 -31 8 -1 22 -1 22 -8 -2 -3 -13 -16 -30 -27 -38 -20 -13 -21 -12 -19
9 1 13 0 15 -2 5 -2 -10 -15 -25 -29 -33 -19 -13 -27 -14 -39 -4 -11 9 -15 9
-15 1 0 -11 -57 -51 -73 -51 -4 0 -7 21 -5 47 3 46 4 48 36 49 18 1 35 -2 38
-7 3 -6 15 2 26 16 13 17 27 25 38 22 12 -3 22 4 29 19 11 25 31 32 31 12 0
-7 9 -2 20 12 17 21 21 23 29 10 8 -12 12 -12 29 3 10 9 29 17 41 17 17 0 21
4 17 16 -4 11 7 21 40 35 25 12 43 23 41 26 -3 2 -18 -2 -34 -10 -15 -8 -102
-45 -193 -82 -283 -115 -260 -102 -249 -138 5 -18 9 -41 8 -52 0 -15 -18 41
-29 92 0 4 91 43 215 93 116 46 472 200 604 261 35 17 98 39 140 51 259 72
493 162 759 292 51 25 129 57 175 72 52 16 90 35 102 50 12 13 26 24 33 24 22
0 92 42 92 55 0 8 5 17 12 21 8 5 9 2 5 -9 -4 -12 -1 -17 10 -17 20 0 83 39
83 51 0 13 -13 11 -38 -7 -12 -8 -28 -13 -35 -11 -6 3 15 17 48 32 46 21 64
24 77 16 14 -9 21 -5 38 19 12 17 27 30 33 30 7 0 6 -4 -3 -10 -8 -5 -11 -12
-7 -16 4 -4 15 0 24 8 10 8 26 18 36 21 10 4 23 20 28 37 6 16 15 28 19 25 4
-3 149 52 322 121 172 70 359 145 415 168 56 23 102 45 102 50 0 5 5 12 13 17
9 6 6 8 -10 6 -12 0 -22 -5 -22 -9 0 -4 -9 -8 -20 -8 -11 0 -23 -6 -26 -14 -3
-8 -13 -17 -21 -20 -13 -5 -14 -4 -3 9 15 18 7 19 -21 4 -11 -5 -17 -14 -14
-19 3 -6 -1 -7 -10 -4 -8 4 -21 1 -29 -5 -7 -6 -15 -8 -18 -5 -3 2 -25 -4 -49
-15 -24 -11 -116 -47 -204 -81 -88 -33 -175 -67 -193 -75 -18 -8 -37 -15 -43
-15 -6 0 -44 -16 -85 -37 -54 -26 -72 -39 -62 -45 9 -7 6 -8 -9 -5 -13 3 -25
1 -28 -4 -3 -4 -12 -6 -20 -3 -9 4 -12 0 -9 -13 3 -13 -6 -23 -31 -35 -20 -10
-42 -18 -50 -18 -8 0 -29 -6 -47 -14 -47 -21 -71 -29 -88 -32 -40 -7 -61 -14
-84 -29 -14 -10 -26 -15 -26 -11 0 3 -17 -3 -37 -14 -21 -11 -44 -20 -51 -20
-7 0 -31 -9 -52 -20 -22 -11 -40 -17 -40 -13 0 5 -7 -1 -16 -12 -8 -11 -18
-20 -22 -19 -4 0 -22 -5 -40 -13 -18 -7 -38 -11 -44 -7 -6 4 -8 3 -5 -3 9 -14
-31 -34 -74 -37 -19 -2 -52 -12 -74 -23 -22 -11 -46 -18 -52 -16 -7 3 -13 0
-13 -6 0 -6 -9 -11 -19 -11 -11 0 -50 -14 -88 -31 -37 -17 -68 -30 -68 -29 0
2 -39 -13 -109 -41 -37 -16 -78 -29 -91 -29 -12 0 -28 -6 -34 -14 -7 -8 -23
-17 -36 -20 -14 -4 -25 -11 -25 -16 0 -6 -7 -6 -17 1 -14 8 -30 6 -71 -10 -29
-12 -64 -21 -77 -21 -24 0 -42 -16 -31 -28 4 -3 20 -1 36 5 17 6 30 8 30 4 0
-4 -16 -13 -36 -19 -28 -8 -36 -8 -41 3 -6 18 -49 10 -118 -20 -62 -27 -152
-61 -185 -71 -14 -3 -43 -14 -65 -24 -22 -10 -85 -34 -140 -54 -55 -21 -113
-43 -130 -51 -42 -19 -144 -55 -180 -64 -50 -13 -100 -42 -86 -51 9 -5 8 -9
-4 -13 -11 -5 -14 -3 -9 5 5 7 2 9 -8 5 -9 -3 -24 3 -34 14 -9 10 -23 19 -31
19 -35 0 -5 20 75 50 48 18 93 37 100 43 6 5 12 6 12 1 0 -5 4 -4 8 1 4 6 48
26 97 45 50 18 104 39 120 46 17 7 75 29 130 48 55 20 132 50 170 66 39 16 61
22 50 13 -18 -14 -18 -15 -2 -9 10 3 23 6 28 6 5 0 8 5 7 11 -2 6 53 30 122
54 204 69 291 101 356 128 34 14 90 36 125 48 35 12 75 27 89 34 14 7 40 19
58 25 18 7 37 21 43 31 12 23 31 25 22 2 -5 -12 -3 -14 8 -7 8 5 29 14 48 19
19 6 36 16 39 24 3 10 0 12 -13 8 -19 -8 -82 38 -65 48 5 3 7 12 3 20 -3 9 1
22 8 31 11 13 9 14 -17 8 -16 -4 -66 -21 -112 -38 -73 -28 -87 -38 -120 -81
-50 -66 -179 -158 -275 -195 -141 -55 -226 -71 -417 -76 l-175 -6 -240 -78
c-132 -43 -269 -86 -305 -95 -36 -9 -70 -21 -76 -26 -7 -6 -30 20 -70 79 -72
106 -68 97 -47 99 31 2 295 71 367 96 l70 23 -46 32 c-122 84 -170 198 -133
319 5 14 3 21 -7 20 -38 -1 -58 4 -58 17 0 14 30 26 91 40 15 3 33 16 42 29
22 34 113 101 187 138 155 77 304 109 505 109 196 0 340 -33 464 -105 l60 -35
127 15 c127 16 154 15 154 -5 0 -14 -41 -29 -135 -47 -44 -9 -81 -17 -83 -19
-4 -2 49 -84 54 -84 4 0 193 71 344 130 74 28 150 57 168 63 18 6 31 14 30 19
-2 5 -55 51 -117 101 -63 51 -116 97 -118 103 -2 6 11 15 29 21 49 17 348 126
466 171 l103 39 -28 29 c-16 16 -41 38 -57 49 -28 20 -28 22 -15 49 11 21 35
36 109 67 52 21 122 52 155 68 69 35 65 34 65 23z m-1435 -12 c10 -16 -18 -51
-38 -46 -10 2 -14 0 -10 -7 4 -6 0 -8 -10 -4 -9 3 -17 1 -20 -6 -2 -6 -21 -11
-42 -10 -21 1 -33 -2 -26 -6 6 -4 -17 -17 -54 -30 -36 -13 -69 -21 -72 -17 -4
3 -13 0 -22 -8 -16 -13 -135 -56 -155 -56 -6 0 -4 5 4 10 9 6 10 10 3 10 -7 0
-16 -6 -20 -14 -4 -7 -42 -25 -83 -39 -68 -24 -77 -25 -97 -11 -13 8 -23 19
-23 24 0 13 48 32 60 25 5 -3 11 -1 14 4 7 11 106 44 113 37 3 -3 12 1 19 9 8
8 34 17 59 21 25 3 45 10 45 14 0 6 21 15 60 25 3 0 22 7 43 14 30 10 41 10
52 1 12 -10 15 -9 15 3 0 24 17 29 47 14 24 -13 30 -13 41 -1 7 8 8 14 2 14
-18 0 -11 15 13 26 28 15 74 17 82 4z m1005 -31 c29 -24 32 -31 20 -39 -8 -5
-22 -8 -30 -6 -8 2 -28 7 -45 11 -28 6 -29 6 -10 -9 14 -10 17 -18 9 -26 -7
-7 -22 -2 -53 20 -51 38 -45 55 17 46 36 -5 42 -4 33 7 -11 15 -5 27 13 27 6
-1 27 -14 46 -31z m-3224 -21 c84 -78 58 -225 -49 -280 -110 -56 -217 5 -217
125 0 106 78 186 183 187 40 0 53 -5 83 -32z m1344 -10 c0 -5 -5 -8 -12 -8 -7
0 6 -18 27 -40 21 -22 34 -40 27 -40 -7 0 -26 16 -43 35 -17 19 -39 35 -49 35
-10 0 -28 9 -41 20 l-24 19 27 1 c15 0 30 5 33 10 6 10 54 -18 55 -32z m895
32 c-3 -5 -11 -10 -16 -10 -6 0 -7 5 -4 10 3 6 11 10 16 10 6 0 7 -4 4 -10z
m280 -62 c40 -35 74 -65 74 -68 1 -3 -13 -11 -31 -18 -31 -11 -34 -10 -102 50
-39 34 -75 65 -80 70 -9 7 26 26 52 27 7 1 46 -27 87 -61z m8365 36 c134 -37
181 -78 184 -159 1 -25 1 -45 1 -45 -1 0 -18 23 -39 50 -21 28 -48 55 -60 61
-13 7 -10 1 9 -15 17 -14 27 -25 24 -26 -7 0 -122 46 -169 68 -47 23 -328 21
-527 -2 -192 -22 -203 -21 -203 7 0 12 4 27 8 33 6 8 124 23 387 47 80 7 335
-5 385 -19z m-9641 -38 c18 -19 39 -32 46 -30 6 3 18 -2 25 -11 16 -20 -3 -45
-35 -45 -28 0 -55 28 -37 39 8 5 3 16 -18 36 -30 28 -38 45 -22 45 4 0 23 -15
41 -34z m1835 13 c60 -23 74 -42 29 -39 -47 3 -64 0 -58 -9 3 -6 -3 -15 -13
-20 -17 -9 -22 -5 -37 29 -29 64 -11 73 79 39z m-717 -23 c22 -19 25 -26 15
-38 -10 -13 -1 -17 59 -28 38 -7 72 -16 74 -20 2 -4 -13 -12 -35 -19 -39 -11
-69 -7 -185 26 -13 3 -6 -7 20 -30 22 -19 38 -37 35 -40 -3 -3 -21 -8 -40 -11
-33 -5 -40 -1 -109 63 l-73 70 78 25 c99 32 126 32 161 2z m-2711 -18 c84 -78
58 -225 -49 -280 -110 -56 -217 5 -217 125 0 106 78 186 183 187 40 0 53 -5
83 -32z m3304 23 c0 -5 -6 -12 -12 -14 -7 -2 -1 -3 15 -1 27 4 37 -9 16 -22
-8 -4 -7 -9 2 -15 12 -8 11 -11 -1 -19 -21 -14 -20 -14 -65 24 l-40 34 25 11
c32 13 60 14 60 2z m-59 -50 l24 -20 -21 -21 c-11 -11 -36 -23 -55 -26 -28 -5
-41 -1 -64 18 -30 27 -28 43 9 58 36 15 83 11 107 -9z m-3578 -29 c23 -20 22
-74 -2 -103 -18 -23 -18 -23 5 -42 33 -25 32 -76 -1 -115 -21 -25 -42 -34
-112 -51 -48 -11 -89 -18 -93 -15 -3 3 -7 76 -9 163 l-3 157 78 16 c84 17 108
15 137 -10z m2824 -6 c35 -31 26 -52 -36 -82 l-43 -21 26 -20 c14 -12 26 -23
26 -26 0 -3 -16 -8 -35 -11 -33 -7 -40 -3 -110 60 -41 37 -73 69 -71 71 2 2
35 15 72 28 90 32 135 32 171 1z m600 1 c4 -8 16 -17 26 -20 26 -10 16 -29
-24 -48 -33 -17 -34 -16 -71 13 -21 16 -38 33 -38 38 0 10 47 28 77 29 12 1
26 -5 30 -12z m-1209 -33 c58 -16 -12 -78 -88 -78 -69 0 -81 15 -42 53 31 32
74 40 130 25z m1103 -10 c36 -18 35 -43 -1 -60 -82 -40 -109 -46 -140 -35 -29
10 -31 9 -19 -5 10 -13 10 -17 -1 -24 -9 -5 -26 2 -52 23 -21 16 -38 34 -38
37 0 13 57 32 86 28 20 -2 29 -8 28 -20 -1 -11 8 -18 30 -21 30 -4 30 -4 8 11
-32 21 -28 50 11 67 41 18 52 18 88 -1z m-3841 -48 c0 -26 -7 -30 -73 -42 -43
-7 -52 -21 -43 -60 7 -25 9 -25 56 -19 48 7 50 6 50 -18 0 -22 -6 -26 -47 -33
-48 -9 -48 -9 -51 -53 l-3 -43 38 6 c21 4 48 10 61 13 18 4 22 1 22 -21 0 -18
-6 -27 -22 -31 -121 -27 -153 -33 -158 -29 -3 3 -7 77 -9 163 l-3 158 73 15
c105 22 109 22 109 -6z m3055 13 c48 -13 95 -55 95 -84 0 -71 -183 -115 -261
-62 -19 12 -38 35 -43 50 -8 22 -6 31 14 52 23 25 94 53 135 54 11 1 38 -4 60
-10z m7939 -4 c3 -8 1 -15 -4 -15 -6 0 -10 7 -10 15 0 8 2 15 4 15 2 0 6 -7
10 -15z m-11 -54 c3 -13 -1 -21 -14 -24 -20 -5 -24 8 -13 37 7 19 20 13 27
-13z m-10741 -36 c4 -20 1 -26 -16 -30 -11 -3 -52 -11 -89 -20 -89 -20 -89
-20 -85 13 3 25 8 28 78 44 103 22 107 22 112 -7z m1341 -57 c52 -68 156 -205
162 -216 1 -1 21 4 43 12 23 9 42 13 42 11 0 -2 3 -10 6 -18 3 -10 -4 -17 -23
-22 -25 -7 -20 -10 36 -19 67 -11 88 -29 50 -41 -15 -5 -26 -2 -34 8 -6 8 -32
18 -57 22 -54 8 -53 6 -192 188 -94 122 -116 157 -102 157 2 0 33 -37 69 -82z
m1201 57 c10 -7 16 -20 14 -27 -3 -8 8 -17 30 -23 86 -25 61 -70 -60 -111 -71
-23 -82 -25 -95 -11 -13 13 -8 17 51 37 36 12 66 26 66 31 0 21 -34 20 -97 -1
-59 -20 -67 -21 -81 -6 -18 17 -18 17 57 39 49 14 67 37 29 37 -14 0 -46 -7
-72 -16 -43 -15 -49 -15 -63 -1 -14 14 -8 18 63 41 90 29 131 32 158 11z
m-1197 -136 c57 -74 114 -148 127 -165 20 -26 37 -34 106 -48 74 -16 84 -17
121 -2 21 9 43 15 47 14 4 -1 20 4 36 11 19 7 33 8 39 2 17 -17 0 -27 -75 -46
-70 -17 -77 -17 -153 -1 -44 10 -87 19 -96 22 -9 2 -70 74 -135 160 -156 204
-152 198 -134 192 8 -2 61 -65 117 -139z m-12 -68 c80 -107 142 -198 138 -202
-6 -6 -132 -39 -149 -39 -2 0 -4 4 -4 9 0 5 29 15 65 22 36 7 65 16 65 20 0 4
-65 93 -145 199 -80 105 -139 190 -130 188 8 -2 80 -90 160 -197z m10675 154
c0 -8 -101 -57 -107 -52 -2 3 20 16 49 30 63 30 58 28 58 22z m-9723 -36 c66
-25 94 -87 55 -122 -47 -43 -160 -61 -230 -36 -36 12 -62 48 -62 83 0 60 150
108 237 75z m-1202 -10 c11 -17 -1 -21 -15 -4 -8 9 -8 15 -2 15 6 0 14 -5 17
-11z m10764 -33 c-56 -28 -79 -37 -79 -31 0 6 102 54 115 54 6 0 -11 -10 -36
-23z m71 -26 c-19 -11 -39 -19 -45 -19 -5 0 6 8 25 19 19 11 40 19 45 19 6 0
-6 -8 -25 -19z m-9916 -32 c8 -13 8 -23 -1 -36 -10 -17 -4 -20 58 -37 38 -11
69 -22 69 -26 0 -4 12 -7 26 -6 15 1 29 -4 31 -10 8 -21 -28 -27 -57 -9 -21
12 -35 14 -53 7 -18 -7 -45 -3 -103 15 -95 29 -91 29 -70 5 11 -12 26 -17 39
-14 21 4 21 4 4 -10 -14 -12 -15 -17 -6 -23 9 -5 2 -12 -22 -20 -18 -7 -37
-13 -41 -13 -10 -1 -131 149 -125 155 3 3 31 14 64 24 74 24 171 22 187 -2z
m9741 13 c-20 -19 -256 -132 -273 -130 -6 0 267 137 278 138 2 1 0 -3 -5 -8z
m-40 -81 c-77 -38 -143 -69 -148 -69 -4 -1 -2 8 5 19 7 11 19 18 26 15 7 -2
63 20 125 50 61 30 117 54 122 54 6 -1 -53 -32 -130 -69z m-10620 -46 c17 -23
59 -82 94 -130 118 -163 150 -212 144 -218 -4 -3 -2 -6 4 -6 6 0 23 -17 39
-37 l29 -38 -29 23 c-17 12 -41 39 -55 60 -26 38 -30 43 -70 77 l-24 20 19
-30 c16 -26 17 -28 1 -16 -11 9 -17 10 -17 2 0 -20 -18 -12 -26 12 -5 12 -7
25 -6 28 1 4 -8 5 -18 2 -26 -7 -25 -11 5 -55 32 -48 32 -58 -2 -27 -20 18
-25 20 -20 7 4 -10 3 -18 -2 -18 -17 0 -151 385 -151 434 0 18 4 16 28 -13 15
-19 41 -54 57 -77z m305 -45 c0 -15 -69 -22 -85 -9 -23 19 -18 29 18 38 24 7
36 5 50 -6 9 -8 17 -19 17 -23z m3850 31 c-8 -5 -19 -10 -25 -10 -5 0 -3 5 5
10 8 5 20 10 25 10 6 0 3 -5 -5 -10z m-4745 -10 c3 -6 -7 -22 -24 -36 -54 -45
-35 -111 56 -194 92 -84 250 -147 413 -165 l65 -6 -47 41 c-27 23 -48 46 -48
51 0 24 41 3 99 -51 52 -48 62 -62 52 -73 -16 -21 -158 -70 -178 -63 -22 9
-11 17 55 42 l57 21 -65 8 c-167 19 -334 87 -432 174 -101 91 -123 180 -57
235 33 28 44 31 54 16z m10895 -20 c-19 -11 -39 -19 -45 -19 -5 0 6 8 25 19
19 11 40 19 45 19 6 0 -6 -8 -25 -19z m150 15 c0 -7 -101 -57 -107 -52 -2 3
17 16 44 30 50 26 63 30 63 22z m-1550 -63 c3 -3 -2 -3 -10 0 -55 19 -60 19
-61 1 0 -11 -3 -13 -6 -5 -3 7 -2 19 1 27 4 12 10 12 38 -2 18 -9 35 -18 38
-21z m-4925 9 c-6 -5 -21 -11 -35 -15 -21 -5 -20 -3 5 9 35 17 42 18 30 6z
m6215 -6 c0 -6 -76 -45 -87 -45 -4 1 12 12 37 25 50 27 50 27 50 20z m-1250
-15 c8 -5 11 -10 5 -10 -5 0 -17 5 -25 10 -8 5 -10 10 -5 10 6 0 17 -5 25 -10z
m-123 -47 c-3 -10 -5 -4 -5 12 0 17 2 24 5 18 2 -7 2 -21 0 -30z m-8252 16
c10 -15 -1 -22 -39 -25 -18 -2 -78 -14 -134 -28 -112 -29 -120 -30 -106 -16 5
5 56 20 113 34 58 14 109 30 115 36 13 13 43 13 51 -1z m189 -40 l29 -41 121
3 c118 4 148 -3 112 -26 -11 -7 -22 -6 -36 3 -15 9 -45 11 -109 6 l-87 -7 -40
47 c-38 45 -40 46 -74 35 -19 -5 -102 -27 -185 -49 -82 -21 -158 -41 -167 -45
-10 -4 -18 -3 -18 3 0 13 37 25 155 52 50 11 126 31 170 44 44 13 85 22 90 19
6 -2 23 -22 39 -44z m3101 41 c-3 -5 -14 -10 -23 -10 -15 0 -15 2 -2 10 20 13
33 13 25 0z m6220 -14 c-11 -7 -31 -16 -45 -20 -19 -5 -16 -2 10 13 40 23 65
28 35 7z m-6300 -15 c-6 -5 -21 -11 -35 -15 -21 -5 -20 -3 5 9 35 17 42 18 30
6z m-3161 -50 c-3 -3 -18 -7 -32 -7 -15 -1 -54 -9 -87 -18 -67 -17 -95 -20
-95 -8 0 4 37 16 83 26 45 11 89 23 97 27 15 8 45 -9 34 -20z m8233 23 c-3 -3
-12 -4 -19 -1 -8 3 -5 6 6 6 11 1 17 -2 13 -5z m1117 -9 c-10 -8 -23 -14 -29
-14 -5 0 -1 6 9 14 11 8 24 15 30 15 5 0 1 -7 -10 -15z m-6303 -10 c-18 -8
-36 -15 -40 -15 -13 1 45 29 59 29 8 0 0 -6 -19 -14z m6244 -15 c-3 -5 -12
-10 -18 -10 -7 0 -6 4 3 10 19 12 23 12 15 0z m-9301 -18 c5 -8 -55 -27 -119
-38 -16 -2 -36 -7 -42 -9 -7 -2 -13 1 -13 9 0 20 163 56 174 38z m3784 -63
c-21 -13 -28 -11 -28 11 0 10 8 23 18 29 14 8 18 6 20 -11 2 -11 -2 -25 -10
-29z m-3758 25 c0 -8 -4 -13 -8 -10 -5 3 -29 -1 -55 -9 -31 -9 -49 -10 -53 -4
-8 14 -6 16 46 27 64 14 70 14 70 -4z m-140 -29 c0 -14 -32 -13 -37 1 -2 6 5
11 17 10 11 0 20 -5 20 -11z m8540 1 c0 -2 -8 -10 -17 -17 -16 -13 -17 -12 -4
4 13 16 21 21 21 13z m-5084 -27 c19 -22 19 -22 -6 -14 -32 9 -33 11 -25 24 8
15 9 14 31 -10z m-3736 -29 c11 -11 20 -27 20 -36 0 -8 5 -24 10 -35 13 -24 2
-25 -17 -1 -12 15 -43 79 -43 88 0 9 11 3 30 -16z m9006 -22 c-2 -18 -4 -57
-5 -87 -1 -71 -10 -61 -12 14 -2 58 -2 58 -21 36 -10 -13 -18 -20 -18 -16 0 7
53 84 57 85 2 0 1 -15 -1 -32z m-4831 -47 c-3 -5 -27 -17 -53 -27 -26 -9 -51
-21 -56 -26 -14 -12 -28 -10 -24 3 2 7 31 22 63 34 70 26 78 28 70 16z m-4064
-18 c13 -16 12 -17 -3 -4 -17 13 -22 21 -14 21 2 0 10 -8 17 -17z m3523 -139
c-7 -69 -16 -130 -21 -135 -4 -4 -20 -11 -35 -14 -26 -7 -27 -5 -23 27 12 96
13 138 5 133 -6 -4 -10 -10 -10 -15 0 -7 -48 -86 -67 -109 -2 -3 -22 13 -44
35 -39 37 -41 38 -39 14 4 -52 -1 -146 -8 -157 -4 -7 -21 -15 -37 -19 l-30 -6
10 133 10 133 34 13 c33 14 35 13 71 -22 l37 -36 41 66 c29 45 52 70 74 80 18
7 35 12 38 10 3 -2 0 -61 -6 -131z m541 127 c-6 -6 -50 -25 -100 -44 -90 -34
-90 -34 -101 -78 -8 -32 -22 -53 -57 -83 -26 -21 -49 -37 -52 -34 -3 3 15 20
39 39 34 26 47 43 51 69 10 56 17 63 116 102 101 39 119 44 104 29z m4272 -23
c-3 -8 -6 -5 -6 6 -1 11 2 17 5 13 3 -3 4 -12 1 -19z m-8297 -18 c12 -16 19
-30 16 -30 -2 0 -14 14 -26 30 -12 17 -19 30 -16 30 2 0 14 -13 26 -30z m2744
6 c-10 -8 -21 -12 -24 -10 -5 6 21 24 34 24 6 0 1 -6 -10 -14z m-2584 -18 c0
-6 -6 -5 -15 2 -8 7 -15 14 -15 16 0 2 7 1 15 -2 8 -4 15 -11 15 -16z m8637
-25 c-3 -10 -5 -4 -5 12 0 17 2 24 5 18 2 -7 2 -21 0 -30z m-495 -25 c-8 -8
-9 -4 -5 13 4 13 8 18 11 10 2 -7 -1 -18 -6 -23z m539 1 c-5 -13 -10 -19 -10
-12 -1 15 10 45 15 40 3 -2 0 -15 -5 -28z m-5189 -11 c-21 -21 -13 -27 18 -15
34 13 41 9 34 -20 -5 -19 -36 -34 -157 -79 -34 -13 -16 39 20 57 17 9 44 30
59 48 14 17 29 29 32 26 3 -3 0 -11 -6 -17z m-3688 -34 c3 -8 2 -12 -4 -9 -6
3 -10 10 -10 16 0 14 7 11 14 -7z m117 -1 c13 -16 12 -17 -3 -4 -17 13 -22 21
-14 21 2 0 10 -8 17 -17z m3053 -50 c-15 -213 -15 -211 -32 -216 -9 -3 -25 -8
-36 -12 -17 -8 -18 -4 -13 36 4 24 7 84 9 133 2 87 3 89 33 107 16 11 33 19
37 19 4 0 5 -30 2 -67z m-794 -13 c8 -5 11 -12 7 -17 -5 -4 -11 -3 -15 3 -4 6
-14 14 -22 17 -13 5 -13 5 0 6 8 0 22 -3 30 -9z m651 -10 c27 -15 24 -58 -7
-104 l-26 -38 36 -37 c20 -20 36 -39 36 -42 0 -3 -18 -12 -40 -19 l-40 -13
-36 41 c-20 23 -39 42 -42 42 -4 0 -8 -28 -9 -61 -2 -68 -5 -74 -47 -85 l-28
-7 7 129 c4 71 10 132 14 136 7 8 142 67 154 68 5 0 17 -5 28 -10z m-697 -18
c5 -9 -64 -35 -72 -28 -3 4 46 33 60 35 4 1 9 -3 12 -7z m-106 -13 c-10 -5
-18 -16 -18 -23 0 -8 -7 -16 -15 -20 -12 -4 -13 -2 -2 17 14 25 27 37 42 37 6
-1 2 -5 -7 -11z m6501 -10 c-6 -12 -9 -29 -6 -40 3 -10 -2 -26 -10 -36 -14
-17 -14 -17 -5 1 5 10 7 27 5 36 -5 17 12 60 23 60 2 0 0 -9 -7 -21z m-8605
-15 c3 -8 2 -12 -4 -9 -6 3 -10 10 -10 16 0 14 7 11 14 -7z m346 -24 c0 -5 -8
-10 -17 -10 -15 0 -16 2 -3 10 19 12 20 12 20 0z m1623 -7 c-8 -23 -33 -43
-52 -42 -9 0 -4 5 10 10 15 6 29 19 32 29 3 11 8 20 11 20 3 0 3 -8 -1 -17z
m703 -38 c31 -48 -10 -124 -90 -163 -44 -23 -46 -25 -46 -68 0 -42 -2 -46 -35
-60 -19 -7 -36 -14 -37 -14 -2 0 -2 60 0 134 l3 134 72 30 c89 38 112 39 133
7z m-826 -5 c-6 -11 -13 -20 -16 -20 -2 0 0 9 6 20 6 11 13 20 16 20 2 0 0 -9
-6 -20z m-1670 -40 c6 -11 8 -20 6 -20 -3 0 -10 9 -16 20 -6 11 -8 20 -6 20 3
0 10 -9 16 -20z m1558 -5 c-7 -7 -56 -30 -108 -50 -116 -45 -140 -56 -140 -66
0 -6 -43 -20 -67 -21 -5 0 -19 -8 -33 -18 -14 -10 -45 -25 -70 -33 -25 -8 -83
-32 -130 -52 -91 -39 -179 -75 -195 -78 -5 -1 -16 -8 -23 -14 -7 -7 -20 -13
-28 -13 -8 0 -37 -11 -66 -25 -28 -14 -57 -25 -62 -25 -6 0 -22 -6 -36 -13
-14 -7 -45 -19 -70 -26 -100 -30 -115 -38 -122 -67 -6 -23 -7 -22 -3 9 2 22 0
35 -6 32 -5 -4 -9 5 -9 19 0 21 5 26 25 26 24 0 112 32 212 77 28 12 55 23 58
23 3 0 31 11 61 25 30 14 58 25 62 25 4 0 21 7 37 16 26 13 199 84 380 153
100 39 241 89 268 95 15 4 27 10 27 15 0 4 12 6 26 3 21 -4 23 -7 12 -17z
m6419 3 c-3 -8 -6 -5 -6 6 -1 11 2 17 5 13 3 -3 4 -12 1 -19z m-8103 -4 c3 -8
2 -12 -4 -9 -6 3 -10 10 -10 16 0 14 7 11 14 -7z m157 -41 c13 -16 12 -17 -3
-4 -17 13 -22 21 -14 21 2 0 10 -8 17 -17z m1243 3 c-9 -24 -74 -47 -74 -26 0
6 11 10 24 10 13 0 29 7 36 15 15 19 21 19 14 1z m916 -21 c28 -15 46 -51 38
-76 -2 -6 -18 -17 -36 -25 -27 -11 -32 -11 -32 1 0 17 -27 45 -45 45 -24 0
-75 -51 -83 -83 -6 -23 -18 -37 -43 -49 -19 -9 -35 -15 -37 -13 -2 2 2 23 8
46 19 71 121 160 193 168 4 1 21 -6 37 -14z m-2190 -68 c0 -5 9 -20 20 -34 11
-14 20 -31 20 -37 0 -6 -6 -2 -12 9 -6 11 -29 43 -50 72 -21 29 -38 56 -38 60
0 10 59 -60 60 -70z m7953 58 c-3 -9 -8 -14 -10 -11 -3 3 -2 9 2 15 9 16 15
13 8 -4z m-6813 -31 c-25 -7 -49 -13 -55 -13 -18 1 59 27 80 28 11 0 0 -7 -25
-15z m-1176 -30 c3 -8 2 -12 -4 -9 -6 3 -10 10 -10 16 0 14 7 11 14 -7z m7956
-69 l-7 -80 -1 67 c-2 55 5 108 12 96 1 -2 -1 -39 -4 -83z m-6933 49 c-3 -3
-12 -4 -19 -1 -8 3 -5 6 6 6 11 1 17 -2 13 -5z m-683 -79 c25 -32 33 -36 60
-32 l31 6 -32 -16 c-18 -9 -34 -15 -36 -12 -82 121 -91 142 -23 54z m1908 -2
c-54 -103 -195 -164 -243 -104 -29 36 -24 59 17 76 45 19 42 19 46 -7 8 -55
109 -13 123 51 4 18 17 33 38 43 30 14 32 14 35 -3 2 -9 -6 -35 -16 -56z
m-2197 19 c-6 -7 -34 29 -34 43 0 6 9 -1 20 -14 11 -13 17 -26 14 -29z m1895
-5 c0 -12 -9 -33 -19 -47 -19 -24 -19 -24 2 -35 29 -14 33 -42 13 -80 -19 -35
-52 -58 -144 -97 -76 -33 -82 -34 -82 -8 0 15 15 27 58 45 73 32 83 38 96 58
8 12 7 20 -1 28 -9 9 -28 5 -77 -15 -37 -14 -68 -26 -71 -26 -3 0 -5 10 -5 23
0 18 14 27 73 52 56 23 73 35 75 53 4 28 -11 28 -80 2 -66 -25 -68 -25 -68 3
0 18 10 26 53 41 132 49 177 49 177 3z m-1869 -29 c11 -21 11 -22 -4 -9 -10 7
-17 17 -17 22 0 15 9 10 21 -13z m699 2 c-8 -5 -22 -9 -30 -9 -10 0 -8 3 5 9
27 12 43 12 25 0z m-737 -37 c15 -32 15 -35 1 -18 -24 30 -36 55 -26 55 4 0
16 -17 25 -37z m85 17 c7 -11 11 -20 9 -20 -2 0 -12 9 -22 20 -10 11 -14 20
-9 20 5 0 15 -9 22 -20z m962 -16 c0 -6 -65 -34 -77 -33 -4 0 10 9 32 19 48
22 45 21 45 14z m-921 -48 c-3 -3 -11 5 -18 17 -13 21 -12 21 5 5 10 -10 16
-20 13 -22z m1482 5 c41 -41 38 -65 -8 -79 -28 -9 -39 -9 -42 -1 -9 27 -43 50
-64 44 -32 -10 -77 -62 -77 -90 0 -19 -10 -30 -40 -45 l-40 -20 0 25 c0 92
107 195 203 195 29 0 46 -7 68 -29z m-1510 -13 c11 -21 11 -22 -4 -9 -10 7
-17 17 -17 22 0 15 9 10 21 -13z m-46 -20 c17 -29 17 -31 1 -19 -21 17 -40 51
-29 51 5 0 17 -15 28 -32z m445 22 c-8 -5 -24 -9 -35 -9 -16 1 -16 2 5 9 35
11 48 11 30 0z m7448 -58 c15 12 16 11 3 -4 -22 -29 -31 -21 -29 30 l1 47 4
-43 c4 -39 6 -42 21 -30z m-7793 38 c3 -5 1 -10 -4 -10 -6 0 -11 5 -11 10 0 6
2 10 4 10 3 0 8 -4 11 -10z m7859 -104 c-4 -26 -11 -49 -15 -52 -12 -7 -11 -2
2 52 9 34 9 48 0 57 -6 6 -11 16 -11 21 0 6 7 1 15 -11 11 -15 13 -34 9 -67z
m-7916 23 c-3 -8 -7 -3 -11 10 -4 17 -3 21 5 13 5 -5 8 -16 6 -23z m1542 22
c0 -18 -24 -78 -42 -104 -31 -44 -115 -87 -170 -87 -38 0 -50 5 -67 26 -12 15
-21 33 -21 41 0 18 73 50 78 34 7 -21 33 -41 54 -41 26 0 88 62 88 89 0 12 11
26 28 35 31 17 52 20 52 7z m-1280 -27 c0 -8 -4 -12 -10 -9 -5 3 -10 10 -10
16 0 5 5 9 10 9 6 0 10 -7 10 -16z m931 -8 c14 -31 6 -64 -22 -95 -25 -27 -30
-20 51 -82 l33 -25 -46 -18 -47 -18 -51 41 c-29 23 -55 41 -59 41 -4 0 -5 -30
-2 -68 l4 -67 -37 -13 c-20 -8 -38 -12 -39 -10 -7 7 -26 262 -21 267 17 18
155 69 188 70 30 1 39 -3 48 -23z m-1166 -17 c11 -17 -1 -21 -15 -4 -8 9 -8
15 -2 15 6 0 14 -5 17 -11z m33 -50 c19 -30 8 -34 -12 -4 -9 14 -13 25 -9 25
5 0 14 -9 21 -21z m11118 -18 c49 -22 84 -68 91 -119 5 -35 2 -40 -46 -80 -28
-24 -51 -47 -51 -51 0 -4 23 -17 50 -28 l50 -21 0 -183 c0 -100 -2 -180 -4
-178 -2 2 -22 56 -44 119 -22 64 -56 155 -76 203 -20 48 -36 89 -36 91 0 2 9
2 20 -1 25 -7 25 -4 -5 98 -13 46 -25 92 -25 102 0 36 -17 14 -60 -80 -25 -53
-46 -100 -48 -105 -2 -4 10 -8 26 -8 28 0 30 -2 46 -80 18 -83 35 -232 36
-311 l0 -47 -44 5 c-25 3 -114 -2 -198 -11 -84 -10 -175 -16 -203 -14 l-50 3
1 60 c2 172 133 333 310 381 35 9 64 18 64 20 0 2 -30 45 -67 95 l-68 92 -8
-108 c-4 -60 -9 -111 -12 -113 -2 -3 -43 23 -91 57 -47 34 -88 60 -90 58 -3
-3 7 -52 22 -111 15 -59 25 -109 22 -111 -2 -2 -51 7 -108 20 -58 13 -106 22
-107 22 -1 -1 30 -41 68 -89 38 -49 69 -90 69 -92 0 -2 -39 -7 -87 -11 -138
-11 -139 -12 -39 -80 47 -32 86 -61 86 -64 0 -3 -38 -28 -85 -56 -46 -27 -85
-53 -85 -56 0 -4 50 -14 110 -24 61 -10 110 -20 110 -23 0 -4 -19 -26 -42 -49
-34 -35 -49 -43 -78 -43 -52 0 -110 38 -137 89 -23 44 -23 48 -23 381 0 332 0
337 23 380 16 30 37 51 67 67 43 23 48 23 374 23 301 0 335 -2 372 -19z
m-10962 -329 c60 -100 90 -159 96 -194 6 -28 8 -53 6 -55 -2 -2 -16 18 -31 44
-15 26 -81 129 -145 228 -108 166 -117 185 -123 240 l-6 60 58 -90 c32 -49 97
-154 145 -233z m560 310 c3 -5 -24 -33 -59 -62 -64 -53 -64 -53 -62 -103 1
-35 -2 -52 -13 -58 -52 -30 -224 -108 -228 -104 -3 3 49 31 116 62 l121 57 -6
46 c-5 45 -4 47 43 89 27 24 52 51 56 62 8 20 23 25 32 11z m11728 -9 c36 -32
11 -83 -41 -83 -34 0 -51 17 -51 52 0 44 56 64 92 31z m1970 0 c36 -32 11 -83
-41 -83 -34 0 -51 17 -51 52 0 44 56 64 92 31z m-14353 -58 c0 -11 -25 20 -41
50 -5 11 2 7 16 -10 14 -16 25 -34 25 -40z m12571 -40 l0 -84 36 24 c66 45
157 26 201 -42 15 -22 19 -53 21 -165 l4 -138 -46 0 -46 0 0 119 c0 103 -3
122 -20 144 -24 30 -60 40 -96 27 -48 -19 -53 -35 -54 -167 l0 -123 -45 0 -45
0 0 245 0 245 45 0 45 0 0 -85z m1338 0 c-2 -47 -1 -85 0 -85 2 0 18 10 35 22
45 32 121 35 171 6 95 -56 113 -213 35 -303 -53 -60 -144 -71 -208 -26 -36 26
-40 26 -34 1 5 -18 0 -20 -41 -20 l-46 0 0 245 0 245 46 0 45 0 -3 -85z
m-2528 -145 l0 -200 75 0 75 0 0 -30 0 -30 -120 0 -120 0 0 230 0 230 45 0 45
0 0 -200z m765 160 c-4 -45 10 -58 58 -56 25 2 27 -1 27 -36 0 -36 -1 -37 -42
-40 l-43 -3 2 -97 c0 -53 4 -102 8 -107 3 -6 22 -11 41 -11 32 0 34 -2 34 -35
l0 -35 -50 0 c-60 0 -94 15 -109 47 -6 13 -11 73 -11 133 l0 110 -25 0 c-23 0
-25 4 -25 41 0 22 4 38 9 35 23 -15 41 7 41 50 l0 44 44 0 45 0 -4 -40z m865
-55 l0 -95 100 0 100 0 0 95 0 95 45 0 45 0 0 -230 0 -230 -45 0 -45 0 0 100
0 100 -100 0 -100 0 0 -100 0 -100 -45 0 -45 0 0 230 0 230 45 0 45 0 0 -95z
m-12730 65 c8 6 20 10 25 9 11 0 -35 -28 -47 -29 -5 0 -8 8 -8 18 0 11 3 13 8
5 5 -8 13 -9 22 -3z m520 -25 c0 -15 -74 -105 -91 -110 -11 -4 -32 -18 -46
-31 -15 -14 -33 -22 -40 -20 -7 3 -13 2 -13 -2 0 -4 -27 -20 -59 -35 -47 -22
-65 -36 -86 -73 -26 -44 -26 -49 -19 -144 4 -58 10 -97 16 -94 6 4 7 42 2 94
-6 81 -5 91 15 119 12 17 20 35 17 40 -3 5 1 14 8 20 29 24 26 -8 -4 -51 -29
-42 -30 -45 -24 -125 4 -50 11 -83 18 -83 6 0 -14 -16 -44 -35 -52 -33 -93
-48 -59 -22 13 10 14 25 8 92 -4 44 -11 99 -14 123 l-6 43 -36 -21 c-20 -11
-38 -19 -40 -16 -3 2 14 14 37 26 52 26 56 22 64 -69 12 -115 18 -151 27 -151
11 0 11 32 -1 130 l-8 75 36 59 c31 50 45 63 92 83 92 40 174 85 187 102 7 9
19 31 28 49 13 27 35 44 35 27z m11014 -60 c45 -31 46 -31 46 -1 0 21 4 23 45
23 l45 0 0 -183 0 -184 -45 0 c-38 0 -45 3 -45 20 0 25 -4 25 -40 -1 -43 -33
-115 -35 -165 -7 -119 68 -112 290 10 344 49 22 107 17 149 -11z m574 -162 l2
-183 -45 0 -45 0 0 184 0 184 43 -2 42 -1 3 -182z m1259 168 c26 -12 52 -35
70 -62 24 -36 28 -53 28 -108 0 -113 -60 -178 -173 -188 -130 -10 -220 93
-197 227 20 119 154 184 272 131z m711 -168 l2 -183 -45 0 -45 0 0 186 0 185
43 -3 42 -3 3 -182z m-13900 47 c-4 -12 -168 -92 -168 -82 0 4 31 22 69 40 38
17 72 36 76 42 8 13 28 13 23 0z m-102 -205 c-11 -8 -25 -15 -30 -15 -6 0 -2
7 8 15 11 8 25 15 30 15 6 0 2 -7 -8 -15z m11804 -172 l1 -48 22 28 c22 26 47
36 47 19 0 -5 -9 -17 -20 -27 -25 -23 -25 -33 2 -62 18 -19 19 -23 5 -23 -9 0
-22 9 -29 20 -7 11 -16 20 -20 20 -5 0 -8 -9 -8 -20 0 -11 -4 -20 -10 -20 -6
0 -10 33 -10 80 0 47 4 80 10 80 6 0 10 -21 10 -47z m440 -31 l0 -79 -47 1
c-41 1 -49 5 -61 28 -23 49 18 99 68 83 16 -5 20 -2 20 19 0 14 5 26 10 26 6
0 10 -33 10 -78z m620 47 c0 -16 5 -18 25 -13 33 8 65 -20 65 -57 0 -41 -23
-58 -75 -57 l-45 1 0 72 c0 39 3 75 6 78 11 11 24 -3 24 -24z m130 16 c0 -8
-4 -15 -9 -15 -13 0 -22 16 -14 24 11 11 23 6 23 -9z m350 -63 l0 -78 -45 -2
c-36 -1 -47 3 -60 20 -21 30 -19 54 6 79 15 15 28 19 50 14 26 -6 29 -4 29 19
0 14 5 26 10 26 6 0 10 -33 10 -78z m520 63 c0 -8 -4 -15 -9 -15 -13 0 -22 16
-14 24 11 11 23 6 23 -9z m-2849 -5 c21 -12 25 -50 7 -68 -7 -7 -25 -12 -40
-12 -24 0 -28 -4 -28 -30 0 -16 -4 -30 -10 -30 -6 0 -10 32 -10 75 l0 75 31 0
c17 0 39 -5 50 -10z m440 -41 c-13 -5 -16 -15 -13 -43 2 -20 8 -36 13 -36 5 0
9 -4 9 -10 0 -21 -40 -10 -44 13 -12 54 -13 93 -4 110 9 17 11 17 33 -5 22
-21 22 -24 6 -29z m154 37 c12 -9 16 -20 12 -36 -3 -12 -1 -33 5 -46 16 -35
-5 -54 -58 -54 l-44 0 0 75 0 75 33 0 c18 0 41 -6 52 -14z m440 -7 c-4 -5 1
-9 9 -9 20 0 21 -16 1 -24 -9 -3 -15 -18 -15 -36 0 -18 6 -33 15 -36 23 -9 18
-26 -7 -22 -20 3 -24 11 -29 58 -6 56 4 95 22 85 5 -4 7 -11 4 -16z m547 -11
c3 -29 7 -33 35 -36 29 -3 32 -1 35 30 6 60 23 34 26 -39 2 -60 0 -73 -13 -73
-10 0 -15 10 -15 30 0 28 -3 30 -35 30 -32 0 -35 -2 -35 -30 0 -16 -4 -30 -10
-30 -6 0 -10 32 -10 75 0 74 16 105 22 43z m488 -43 c0 -43 -4 -75 -10 -75 -6
0 -10 32 -10 75 0 43 4 75 10 75 6 0 10 -32 10 -75z m-2008 -10 c2 -30 8 -41
22 -43 24 -5 36 14 36 61 0 20 5 37 10 37 6 0 10 -26 10 -58 l0 -58 -45 -2
c-41 -1 -47 1 -56 25 -8 21 -8 53 0 93 1 2 5 0 10 -5 5 -6 11 -28 13 -50z
m174 38 c20 -21 1 -32 -22 -12 -11 9 -18 9 -27 0 -8 -8 -4 -14 21 -23 36 -14
48 -34 31 -55 -15 -17 -71 -13 -77 6 -3 10 3 11 27 6 41 -9 42 12 1 26 -31 11
-39 36 -18 57 17 17 44 15 64 -5z m142 -45 l3 -55 -50 -1 c-40 -1 -53 2 -61
18 -29 55 2 102 64 96 l41 -4 3 -54z m370 0 l3 -55 -50 -1 c-40 -1 -53 2 -61
18 -29 55 2 102 64 96 l41 -4 3 -54z m234 47 c4 -5 8 -31 8 -56 l0 -46 -50 -2
c-39 0 -52 3 -60 19 -28 52 2 102 59 98 20 -2 39 -7 43 -13z m386 -47 l3 -55
-50 -1 c-40 -1 -53 2 -61 18 -29 55 2 102 64 96 l41 -4 3 -54z m110 48 c14 -9
17 -106 2 -106 -5 0 -10 17 -10 39 0 46 -22 70 -45 51 -9 -7 -15 -29 -15 -51
0 -22 -4 -39 -10 -39 -6 0 -10 26 -10 59 l0 59 38 -2 c20 -1 43 -5 50 -10z
m312 -6 c24 -24 25 -48 4 -78 -29 -42 -104 -18 -104 35 0 28 33 63 60 63 11 0
29 -9 40 -20z m190 -40 c0 -33 -4 -60 -10 -60 -6 0 -10 27 -10 60 0 33 4 60
10 60 6 0 10 -27 10 -60z m204 44 c18 -17 22 -104 6 -104 -5 0 -10 15 -10 33
0 41 -21 73 -44 64 -11 -5 -16 -19 -16 -52 0 -33 -4 -45 -15 -45 -11 0 -15 13
-15 53 0 30 2 56 4 58 12 12 76 7 90 -7z m254 0 c26 -18 30 -65 6 -88 -18 -19
-65 -21 -82 -4 -17 17 -15 68 5 90 20 22 42 23 71 2z m130 2 c14 -9 17 -106 2
-106 -5 0 -10 17 -10 39 0 46 -22 70 -45 51 -9 -7 -15 -29 -15 -51 0 -22 -4
-39 -10 -39 -6 0 -10 26 -10 59 l0 59 38 -2 c20 -1 43 -5 50 -10z m120 -2 c12
-8 22 -24 22 -35 0 -16 -7 -19 -46 -19 -32 0 -44 -4 -41 -12 2 -8 19 -12 41
-11 37 2 49 -10 20 -21 -9 -3 -26 -6 -39 -6 -42 0 -60 66 -28 102 20 22 42 23
71 2z m108 2 c25 -19 12 -31 -15 -14 -15 9 -23 10 -32 1 -9 -9 -3 -15 25 -27
30 -12 37 -20 34 -38 -4 -29 -58 -38 -78 -13 -12 15 -10 16 23 10 45 -9 50 8
7 24 -35 12 -47 35 -30 56 16 19 41 19 66 1z m54 -46 c0 -33 -4 -60 -10 -60
-6 0 -10 27 -10 60 0 33 4 60 10 60 6 0 10 -27 10 -60z m95 50 c5 -8 11 -7 21
1 8 6 14 9 15 5 0 -3 1 -30 1 -58 l1 -53 -43 -3 c-51 -3 -70 10 -70 51 0 49
55 90 75 57z m-3590 -129 c55 -12 118 -27 140 -32 55 -15 155 -60 155 -70 0
-5 -101 -9 -225 -9 l-225 0 -23 38 c-23 37 -57 115 -57 131 0 5 30 -1 68 -14
37 -12 112 -32 167 -44z"/>
<path d="M7734 8785 c-164 -36 -269 -151 -294 -322 -11 -80 1 -185 29 -248 39
-87 131 -145 230 -145 152 1 281 83 344 219 39 82 49 224 23 313 -43 149 -171
219 -332 183z"/>
<path d="M6358 8572 l-88 -15 0 -106 c0 -58 3 -115 6 -127 l5 -21 112 19 c176
30 222 64 222 165 0 102 -54 121 -257 85z"/>
<path d="M6396 8097 l-119 -20 7 -131 c4 -72 8 -132 10 -134 10 -9 256 42 290
61 94 53 103 186 16 229 -42 22 -52 21 -204 -5z"/>
<path d="M5118 8340 c-211 -37 -340 -232 -307 -464 18 -127 75 -209 167 -240
162 -56 357 35 435 203 39 82 49 224 23 313 -41 143 -164 215 -318 188z"/>
<path d="M3795 8125 c-5 -2 -43 -9 -84 -15 l-74 -12 6 -145 c3 -80 8 -147 11
-150 9 -9 200 28 242 46 64 29 89 72 89 154 0 65 -2 70 -33 98 -28 25 -40 29
-90 28 -31 0 -61 -2 -67 -4z"/>
<path d="M12903 7243 c-98 -217 -166 -379 -159 -380 6 -2 110 14 231 35 167
29 221 42 223 53 3 16 -114 658 -121 666 -2 2 -81 -167 -174 -374z"/>
<path d="M7275 6793 c-82 -14 -151 -27 -153 -28 -5 -4 -65 -416 -61 -420 2 -2
85 11 184 29 190 35 245 55 303 110 57 53 76 101 77 188 0 74 -1 79 -32 110
-30 29 -39 33 -100 35 -38 1 -134 -10 -218 -24z"/>
<path d="M7176 6029 c-88 -16 -163 -32 -166 -36 -9 -10 -71 -425 -64 -432 8
-9 372 59 428 79 107 41 175 137 183 260 4 53 1 71 -17 98 -43 70 -114 76
-364 31z"/>
<path d="M5300 6414 c-30 -8 -93 -33 -140 -56 -67 -33 -101 -58 -165 -122
-110 -111 -168 -216 -212 -377 -24 -91 -24 -295 1 -364 41 -111 108 -173 219
-202 125 -32 327 19 458 116 201 149 320 412 307 677 -9 174 -72 278 -193 323
-67 25 -191 27 -275 5z"/>
<path d="M3410 6112 c-64 -5 -313 -51 -320 -59 -4 -5 -23 -115 -42 -245 -31
-211 -33 -238 -19 -238 39 0 310 52 351 67 103 37 177 119 205 228 19 75 19
115 -1 164 -25 62 -85 91 -174 83z"/>
<path d="M9170 5810 c0 -5 5 -10 10 -10 6 0 10 5 10 10 0 6 -4 10 -10 10 -5 0
-10 -4 -10 -10z"/>
<path d="M13746 5428 c3 -4 11 -5 19 -1 21 7 19 12 -4 10 -11 0 -18 -5 -15 -9z"/>
<path d="M10990 5070 c0 -5 5 -10 10 -10 6 0 10 5 10 10 0 6 -4 10 -10 10 -5
0 -10 -4 -10 -10z"/>
<path d="M17680 5193 c-51 -18 -100 -107 -85 -153 16 -50 53 -61 111 -34 36
17 74 82 74 127 0 49 -49 78 -100 60z"/>
<path d="M9000 4956 c0 -2 7 -9 15 -16 13 -11 14 -10 9 4 -5 14 -24 23 -24 12z"/>
<path d="M9889 3597 c-57 -70 -77 -150 -44 -177 18 -15 15 -18 50 40 15 25 50
68 77 97 48 49 49 52 30 62 -39 21 -85 12 -113 -22z"/>
<path d="M11022 3588 c3 -7 13 -15 24 -17 16 -3 17 -1 5 13 -16 19 -34 21 -29
4z"/>
<path d="M17170 5043 c-7 -16 -19 -43 -27 -62 l-14 -33 38 7 c21 4 40 8 42 10
6 7 -11 105 -18 105 -4 0 -14 -12 -21 -27z"/>
<path d="M16570 4943 c-7 -16 -19 -43 -27 -62 l-14 -33 38 7 c21 4 40 8 42 10
6 7 -11 105 -18 105 -4 0 -14 -12 -21 -27z"/>
<path d="M15880 4883 c-51 -18 -100 -107 -85 -153 16 -50 53 -61 111 -34 36
17 74 82 74 127 0 49 -49 78 -100 60z"/>
<path d="M15578 4833 c-18 -3 -28 -11 -28 -21 0 -9 -3 -27 -6 -39 -5 -20 -2
-23 19 -23 37 0 76 20 83 42 6 21 -12 49 -30 47 -6 -1 -23 -4 -38 -6z"/>
<path d="M15567 4713 c-30 -5 -32 -8 -41 -60 -5 -27 -2 -33 13 -33 38 0 83 23
92 47 10 27 -3 54 -25 52 -6 -1 -24 -4 -39 -6z"/>
<path d="M15280 4783 c-51 -18 -100 -107 -85 -153 16 -50 53 -61 111 -34 36
17 74 82 74 127 0 49 -49 78 -100 60z"/>
<path d="M14979 4733 c-22 -3 -28 -11 -33 -41 -10 -61 -9 -62 27 -55 47 8 69
31 65 67 -3 32 -12 36 -59 29z"/>
<path d="M11247 3894 c-4 -4 -7 -15 -7 -25 0 -12 6 -16 21 -12 11 3 16 9 11
12 -5 3 -11 12 -13 19 -3 7 -8 10 -12 6z"/>
<path d="M11133 3877 c-6 -10 -4 -13 25 -21 17 -6 22 -3 22 11 0 19 -36 27
-47 10z"/>
<path d="M11195 3880 c4 -6 11 -8 16 -5 14 9 11 15 -7 15 -8 0 -12 -5 -9 -10z"/>
<path d="M11254 3828 c-3 -4 6 -8 20 -8 14 0 26 4 26 8 0 4 -9 8 -21 8 -11 0
-23 -4 -25 -8z"/>
<path d="M6170 3129 c0 -5 5 -7 10 -4 6 3 10 8 10 11 0 2 -4 4 -10 4 -5 0 -10
-5 -10 -11z"/>
<path d="M6720 3130 c0 -5 6 -10 14 -10 8 0 18 5 21 10 3 6 -3 10 -14 10 -12
0 -21 -4 -21 -10z"/>
<path d="M6760 3100 c0 -5 9 -10 20 -10 11 0 20 5 20 10 0 6 -9 10 -20 10 -11
0 -20 -4 -20 -10z"/>
<path d="M6607 3093 c-30 -29 26 -62 73 -43 29 12 30 14 14 31 -17 18 -73 26
-87 12z m43 -7 c0 -3 -4 -8 -10 -11 -5 -3 -10 -1 -10 4 0 6 5 11 10 11 6 0 10
-2 10 -4z m30 -16 c-8 -5 -19 -10 -25 -10 -5 0 -3 5 5 10 8 5 20 10 25 10 6 0
3 -5 -5 -10z"/>
<path d="M6518 3077 c8 -10 6 -16 -9 -25 -44 -28 22 -59 77 -36 l36 15 -38 29
c-40 30 -87 42 -66 17z m43 -42 c-1 -15 -24 -12 -29 3 -3 9 2 13 12 10 10 -1
17 -7 17 -13z"/>
<path d="M6418 3038 c9 -9 15 -9 24 0 9 9 7 12 -12 12 -19 0 -21 -3 -12 -12z"/>
<path d="M6450 3014 c19 -22 49 -36 61 -29 12 8 -33 45 -56 45 -15 0 -15 -3
-5 -16z"/>
<path d="M7097 3023 c-13 -13 -7 -21 13 -16 11 3 17 9 14 14 -6 11 -18 12 -27
2z"/>
<path d="M6384 3005 c-16 -13 -17 -16 -4 -25 8 -5 24 -7 35 -4 16 4 17 3 5 -5
-8 -5 -12 -13 -9 -16 9 -8 59 13 59 24 0 14 -34 23 -56 15 -18 -6 -17 -5 1 9
16 13 17 16 4 17 -8 0 -24 -7 -35 -15z"/>
<path d="M6794 3005 c-17 -13 -17 -14 -2 -15 9 0 20 5 23 11 11 17 0 20 -21 4z"/>
<path d="M7055 3000 c-3 -5 -2 -10 4 -10 5 0 13 5 16 10 3 6 2 10 -4 10 -5 0
-13 -4 -16 -10z"/>
<path d="M6753 2985 c0 -8 4 -12 9 -9 5 3 6 10 3 15 -9 13 -12 11 -12 -6z"/>
<path d="M6292 2976 c-12 -6 -21 -15 -19 -21 6 -16 55 -40 64 -31 4 4 0 12
-10 17 -9 6 -17 14 -17 19 0 15 26 12 40 -5 7 -8 22 -15 34 -15 20 1 19 2 -7
25 -30 27 -49 29 -85 11z"/>
<path d="M7000 2974 c0 -8 5 -12 10 -9 6 3 10 10 10 16 0 5 -4 9 -10 9 -5 0
-10 -7 -10 -16z"/>
<path d="M6715 2970 c-3 -5 -1 -10 4 -10 6 0 11 5 11 10 0 6 -2 10 -4 10 -3 0
-8 -4 -11 -10z"/>
<path d="M6190 2963 c1 -12 71 -63 87 -63 22 0 15 13 -21 43 -33 26 -66 36
-66 20z"/>
<path d="M6680 2954 c0 -8 5 -12 10 -9 6 3 10 10 10 16 0 5 -4 9 -10 9 -5 0
-10 -7 -10 -16z"/>
<path d="M6920 2962 c0 -4 -13 -13 -30 -19 -16 -6 -30 -16 -30 -23 0 -6 5 -8
13 -3 6 4 18 8 26 10 8 1 17 7 21 14 5 7 13 8 21 3 12 -6 12 -5 0 9 -15 19
-21 21 -21 9z"/>
<path d="M6600 2946 c-8 -10 -7 -15 4 -19 11 -4 13 -1 9 11 -6 15 -5 15 10 3
9 -7 17 -9 17 -3 0 16 -28 22 -40 8z"/>
<path d="M6546 2911 c-4 -7 -5 -15 -2 -18 9 -9 19 4 14 18 -4 11 -6 11 -12 0z"/>
<path d="M6580 2910 c0 -5 5 -10 11 -10 5 0 7 5 4 10 -3 6 -8 10 -11 10 -2 0
-4 -4 -4 -10z"/>
<path d="M6813 2903 c14 -14 19 -15 29 -4 9 9 9 12 1 7 -6 -3 -14 -2 -18 4 -3
5 -11 10 -18 10 -6 0 -4 -7 6 -17z"/>
<path d="M6475 2880 c-3 -5 1 -10 10 -10 9 0 13 5 10 10 -3 6 -8 10 -10 10 -2
0 -7 -4 -10 -10z"/>
<path d="M6730 2878 c-14 -6 -20 -12 -13 -15 7 -2 23 3 35 11 25 18 15 20 -22
4z"/>
<path d="M6387 2863 c-11 -17 13 -28 26 -13 9 10 9 11 0 6 -6 -3 -13 -1 -15 6
-3 9 -6 9 -11 1z"/>
<path d="M6676 2854 c-4 -10 -1 -14 6 -12 15 5 23 28 10 28 -5 0 -13 -7 -16
-16z"/>
<path d="M6640 2828 c-12 -22 -12 -22 6 -6 10 10 15 20 12 24 -4 3 -12 -5 -18
-18z"/>
<path d="M6605 2830 c-3 -5 -1 -10 4 -10 6 0 11 5 11 10 0 6 -2 10 -4 10 -3 0
-8 -4 -11 -10z"/>
<path d="M6864 2822 c-10 -10 -27 -16 -36 -14 -10 2 -18 -1 -18 -7 0 -6 8 -11
18 -11 20 0 69 36 61 44 -3 3 -14 -2 -25 -12z"/>
<path d="M6557 2813 c-4 -3 -7 -11 -7 -17 0 -6 5 -5 12 2 6 6 9 14 7 17 -3 3
-9 2 -12 -2z"/>
<path d="M6481 2791 c-10 -6 -10 -10 -1 -16 13 -8 24 -1 19 14 -3 6 -10 7 -18
2z"/>
<path d="M6770 2790 c0 -5 5 -10 11 -10 5 0 7 5 4 10 -3 6 -8 10 -11 10 -2 0
-4 -4 -4 -10z"/>
<path d="M6720 2776 c0 -2 7 -7 16 -10 8 -3 12 -2 9 4 -6 10 -25 14 -25 6z"/>
<path d="M7670 2760 c-18 -12 -2 -12 25 0 13 6 15 9 5 9 -8 0 -22 -4 -30 -9z"/>
<path d="M6690 2745 c0 -9 6 -12 15 -9 8 4 12 10 9 15 -8 14 -24 10 -24 -6z"/>
<path d="M6642 2738 c-16 -16 -15 -29 1 -22 8 3 14 11 14 19 0 18 0 18 -15 3z"/>
<path d="M7585 2729 c-22 -10 -29 -16 -15 -13 38 10 87 32 70 32 -8 0 -33 -8
-55 -19z"/>
<path d="M6578 2704 c23 -16 42 -12 42 9 0 7 -4 6 -10 -3 -7 -12 -12 -12 -22
-2 -6 6 -17 12 -22 12 -6 0 0 -7 12 -16z"/>
<path d="M7445 2680 c-20 -8 -136 -52 -228 -85 -26 -10 -46 -19 -44 -21 6 -6
292 98 305 110 8 8 -9 6 -33 -4z"/>
<path d="M5538 2565 c-32 -25 -60 -45 -63 -45 -4 0 -34 14 -67 30 -34 17 -66
29 -71 27 -5 -1 20 -16 56 -32 37 -17 67 -32 67 -35 0 -3 -33 -31 -74 -63
l-74 -57 -4 61 c-2 50 0 63 15 70 21 12 22 25 2 33 -10 4 -19 -2 -25 -17 -7
-17 -9 -18 -9 -4 -1 11 -9 17 -23 16 l-23 0 23 -16 c19 -13 22 -24 22 -84 0
-37 4 -71 10 -74 5 -3 48 23 94 59 46 36 88 66 94 66 5 0 12 6 15 14 3 8 29
33 57 55 29 23 48 41 43 41 -4 0 -34 -20 -65 -45z"/>
<path d="M5672 2570 c0 -14 2 -19 5 -12 2 6 2 18 0 25 -3 6 -5 1 -5 -13z"/>
<path d="M7100 2550 c-8 -5 -10 -10 -5 -10 6 0 17 5 25 10 8 5 11 10 5 10 -5
0 -17 -5 -25 -10z"/>
<path d="M5100 2532 c0 -12 46 -32 74 -32 29 0 39 10 25 27 -12 14 -99 19 -99
5z"/>
<path d="M7012 2518 c-29 -12 -51 -22 -49 -24 5 -5 100 27 112 37 14 13 -3 10
-63 -13z"/>
<path d="M5681 2504 c0 -11 3 -14 6 -6 3 7 2 16 -1 19 -3 4 -6 -2 -5 -13z"/>
<path d="M4531 2478 c0 -16 2 -18 6 -8 3 8 11 18 17 22 7 5 4 8 -6 8 -12 0
-18 -7 -17 -22z"/>
<path d="M4757 2455 c-66 -51 -68 -60 -3 -16 37 26 75 62 65 61 -2 -1 -30 -21
-62 -45z"/>
<path d="M6895 2470 c-22 -11 -29 -17 -15 -14 29 8 80 33 65 33 -5 0 -28 -8
-50 -19z"/>
<path d="M5560 2470 c8 -5 20 -10 25 -10 6 0 3 5 -5 10 -8 5 -19 10 -25 10 -5
0 -3 -5 5 -10z"/>
<path d="M5605 2451 c3 -5 19 -14 35 -20 17 -5 28 -6 25 -2 -3 5 -19 14 -35
20 -17 5 -28 6 -25 2z"/>
<path d="M5692 2440 c0 -14 2 -19 5 -12 2 6 2 18 0 25 -3 6 -5 1 -5 -13z"/>
<path d="M7343 2425 c0 -8 6 -15 13 -15 8 0 11 6 8 15 -4 8 -9 15 -13 15 -4 0
-8 -7 -8 -15z"/>
<path d="M6785 2420 c-3 -5 -2 -10 4 -10 5 0 13 5 16 10 3 6 2 10 -4 10 -5 0
-13 -4 -16 -10z"/>
<path d="M4840 2405 c-20 -24 4 -45 40 -35 45 13 53 20 39 36 -15 18 -63 18
-79 -1z m68 -7 c-5 -15 -68 -24 -68 -10 0 15 13 22 43 22 18 0 27 -4 25 -12z"/>
<path d="M5967 2403 c-12 -12 -7 -33 7 -33 18 0 76 -32 76 -42 0 -5 -5 -8 -12
-8 -8 0 -9 -3 -2 -10 7 -7 18 -6 35 2 24 11 25 13 11 41 -19 38 -95 71 -115
50z"/>
<path d="M6673 2403 c-18 -7 -16 -30 3 -37 8 -3 13 -2 10 3 -3 5 1 12 10 15 8
3 12 2 9 -4 -9 -15 7 -11 30 6 20 16 20 16 -2 10 -12 -4 -24 -2 -28 4 -7 11
-13 11 -32 3z"/>
<path d="M4610 2349 l-75 -52 -6 44 c-5 34 -6 37 -8 14 -1 -16 -4 -40 -7 -52
-10 -36 14 -28 96 33 79 59 86 64 79 64 -2 0 -38 -23 -79 -51z"/>
<path d="M6620 2340 c-19 -11 -30 -19 -25 -19 6 0 26 8 45 19 19 11 31 19 25
19 -5 0 -26 -8 -45 -19z"/>
<path d="M5093 2290 c-22 -9 -42 -55 -29 -67 3 -4 6 3 6 13 0 29 20 44 55 43
16 0 24 -3 18 -6 -10 -3 -9 -9 3 -20 9 -9 14 -26 11 -39 -2 -13 0 -21 4 -18
13 8 11 48 -3 62 -8 8 -9 12 -1 12 6 0 16 -12 21 -27 9 -23 11 -25 11 -7 2 39
-55 70 -96 54z"/>
<path d="M5096 2254 c-21 -20 -20 -38 1 -55 15 -13 15 -12 3 8 -12 19 -12 24
4 42 22 24 15 28 -8 5z"/>
<path d="M4732 2248 c-19 -19 -14 -33 6 -15 21 19 42 22 42 7 0 -5 5 -10 11
-10 5 0 7 4 4 10 -3 6 1 7 9 4 9 -3 16 -1 16 5 0 15 -73 14 -88 -1z"/>
<path d="M4740 2219 c-16 -30 -8 -31 13 -3 10 13 13 24 8 24 -6 0 -15 -9 -21
-21z"/>
<path d="M4821 2216 c-9 -11 -9 -16 0 -22 7 -4 9 -3 5 4 -3 5 0 12 6 15 7 2
10 7 7 11 -3 4 -12 0 -18 -8z"/>
<path d="M5828 1973 c6 -2 9 -10 6 -15 -4 -7 -2 -8 5 -4 13 9 5 26 -12 25 -9
0 -8 -2 1 -6z"/>
<path d="M5730 1940 c-12 -8 -12 -10 -1 -10 11 0 11 -3 0 -17 -13 -15 -12 -15
8 -2 14 8 18 16 11 20 -7 4 -6 8 3 12 8 3 10 6 4 6 -5 0 -17 -4 -25 -9z"/>
<path d="M5680 1920 c-13 -9 -13 -10 0 -10 13 0 13 -1 0 -10 -8 -5 -30 -9 -48
-8 -19 1 -37 -3 -40 -8 -4 -5 -11 -9 -17 -9 -23 -1 -200 -47 -242 -64 -39 -15
-43 -19 -25 -23 12 -4 24 -3 27 2 3 4 13 10 24 13 14 3 18 1 14 -10 -5 -13 -2
-13 19 1 14 9 30 16 34 14 13 -4 76 23 97 41 16 13 17 13 11 -2 -3 -9 -10 -17
-14 -17 -5 0 -10 -15 -12 -32 -2 -24 -9 -34 -23 -36 -11 -2 -24 -8 -29 -12
-11 -11 35 0 50 11 6 5 13 6 16 3 4 -3 20 2 37 11 17 8 31 13 31 9 0 -4 6 -2
13 4 6 5 26 13 44 16 17 4 37 14 43 21 10 12 8 13 -16 0 -16 -7 -42 -15 -59
-17 -16 -2 -36 -9 -43 -15 -18 -18 -35 -16 -28 2 3 8 1 15 -5 15 -5 0 -2 14 6
30 9 17 21 30 28 28 7 -1 22 3 35 10 12 7 22 8 22 3 0 -12 19 -9 55 12 17 9
23 16 15 17 -13 0 -13 1 0 10 8 5 11 10 5 10 -5 0 -17 -5 -25 -10z"/>
<path d="M5834 1888 l-19 -23 23 19 c12 11 22 21 22 23 0 8 -8 2 -26 -19z"/>
<path d="M5770 1866 c-6 -8 -21 -17 -33 -19 -21 -4 -21 -4 -1 -6 11 0 29 8 39
19 10 11 16 20 13 20 -3 0 -11 -6 -18 -14z"/>
<path d="M5210 1760 c-19 -11 -30 -19 -25 -19 6 0 26 8 45 19 19 11 31 19 25
19 -5 0 -26 -8 -45 -19z"/>
<path d="M5421 1743 c-7 -8 -21 -13 -30 -11 -9 2 -24 -4 -33 -14 -10 -10 -14
-18 -9 -18 6 0 13 5 16 10 3 6 14 10 24 10 19 0 59 26 51 33 -3 3 -11 -2 -19
-10z"/>
<path d="M5305 1690 c-3 -6 1 -7 9 -4 18 7 21 14 7 14 -6 0 -13 -4 -16 -10z"/>
<path d="M5260 1675 c-14 -8 -20 -14 -14 -15 5 0 19 7 30 15 24 18 16 19 -16
0z"/>
<path d="M5193 1651 c-17 -14 -19 -20 -9 -24 8 -3 18 5 25 19 13 29 12 29 -16
5z"/>
<path d="M5124 1618 c-19 -23 -19 -23 2 -5 11 9 24 14 29 10 4 -5 5 -2 1 5 -9
16 -10 16 -32 -10z"/>
<path d="M3089 3365 c-49 -27 -68 -119 -35 -170 24 -36 85 -35 127 3 26 23 33
38 36 79 5 45 2 55 -20 77 -29 29 -68 33 -108 11z"/>
<path d="M6265 3360 c3 -5 8 -10 11 -10 2 0 4 5 4 10 0 6 -5 10 -11 10 -5 0
-7 -4 -4 -10z"/>
<path d="M5470 3321 c0 -18 25 -29 48 -20 33 13 26 29 -13 29 -19 0 -35 -4
-35 -9z"/>
<path d="M2739 3295 c-49 -27 -68 -119 -35 -170 24 -36 85 -35 127 3 26 23 33
38 36 79 5 45 2 55 -20 77 -29 29 -68 33 -108 11z"/>
<path d="M6042 3303 c-20 -8 6 -33 34 -33 34 0 39 18 9 30 -14 6 -27 10 -28 9
-1 0 -8 -3 -15 -6z"/>
<path d="M2432 3243 c-28 -5 -36 -24 -28 -58 7 -28 30 -32 70 -14 31 14 39 34
26 60 -11 19 -22 21 -68 12z"/>
<path d="M2438 3113 c-26 -4 -28 -8 -28 -50 l0 -45 38 7 c61 11 91 52 60 83
-12 12 -20 13 -70 5z"/>
<path d="M5252 3253 c-23 -4 -23 -5 -6 -24 20 -23 47 -25 63 -5 10 12 8 17 -8
25 -11 6 -21 10 -23 10 -2 -1 -13 -4 -26 -6z"/>
<path d="M5955 3230 c4 -6 11 -8 16 -5 14 9 11 15 -7 15 -8 0 -12 -5 -9 -10z"/>
<path d="M4665 3216 c-11 -8 -16 -18 -12 -22 4 -5 12 -3 16 5 7 10 12 10 28 0
23 -14 57 -5 51 14 -6 18 -60 20 -83 3z m75 -6 c0 -5 -7 -10 -16 -10 -8 0 -12
5 -9 10 3 6 10 10 16 10 5 0 9 -4 9 -10z"/>
<path d="M5790 3205 c0 -19 48 -31 63 -16 9 9 8 14 -3 21 -23 15 -60 12 -60
-5z"/>
<path d="M5670 3170 c0 -5 7 -10 16 -10 8 0 12 5 9 10 -3 6 -10 10 -16 10 -5
0 -9 -4 -9 -10z"/>
<path d="M4960 3145 c-37 -45 59 -97 121 -65 25 14 24 34 -3 60 -26 24 -99 28
-118 5z"/>
<path d="M4423 2978 c-31 -15 -30 -51 2 -72 45 -30 125 -15 125 23 0 42 -80
73 -127 49z"/>
<path d="M4132 2892 c-10 -7 -10 -11 2 -21 19 -16 69 -6 63 12 -4 15 -47 20
-65 9z"/>
<path d="M4355 2580 c3 -5 8 -10 11 -10 2 0 4 5 4 10 0 6 -5 10 -11 10 -5 0
-7 -4 -4 -10z"/>
<path d="M6608 2049 c-18 -10 -26 -69 -10 -69 20 0 52 34 52 56 0 25 -14 30
-42 13z"/>
<path d="M6353 1943 c-14 -5 -18 -83 -4 -83 4 0 20 9 35 21 34 27 36 69 4 68
-13 0 -29 -3 -35 -6z"/>
<path d="M5134 1440 c-16 -6 -19 -15 -16 -44 l4 -35 29 14 c68 36 54 94 -17
65z"/>
<path d="M14889 991 c-34 -33 -39 -45 -39 -83 0 -128 150 -183 225 -83 66 86
5 205 -105 205 -36 0 -48 -6 -81 -39z"/>
<path d="M4115 1320 c-3 -5 -1 -10 4 -10 6 0 11 5 11 10 0 6 -2 10 -4 10 -3 0
-8 -4 -11 -10z"/>
<path d="M18139 1141 c-25 -25 -29 -37 -29 -81 0 -44 4 -56 29 -81 88 -87 214
28 156 141 -31 59 -107 69 -156 21z"/>
<path d="M15889 1141 c-23 -23 -29 -38 -29 -71 0 -75 37 -120 100 -120 42 0
67 15 85 50 28 54 11 136 -34 160 -39 20 -91 12 -122 -19z"/>
<path d="M17723 1165 c-57 -24 -80 -104 -48 -165 43 -83 163 -61 180 33 18 93
-55 165 -132 132z"/>
<path d="M16721 706 c-21 -25 -10 -61 18 -61 31 0 50 28 35 53 -15 23 -38 26
-53 8z"/>
<path d="M17430 706 c-16 -21 -9 -60 13 -64 41 -8 64 48 28 68 -25 13 -26 13
-41 -4z"/>
<path d="M17822 708 c-32 -32 0 -84 37 -61 22 14 25 38 6 57 -20 19 -27 20
-43 4z"/>
<path d="M15517 743 c-4 -3 -7 -15 -7 -25 0 -20 44 -26 55 -8 14 22 -30 52
-48 33z"/>
<path d="M16104 735 c-4 -9 -2 -21 4 -27 15 -15 54 1 50 20 -4 23 -46 28 -54
7z"/>
<path d="M16107 683 c-4 -3 -7 -15 -7 -25 0 -13 8 -18 30 -18 23 0 30 5 30 19
0 24 -37 41 -53 24z"/>
<path d="M15860 705 c-24 -29 8 -75 44 -62 30 12 14 77 -20 77 -6 0 -17 -7
-24 -15z"/>
<path d="M16230 705 c-24 -29 8 -75 44 -62 30 12 14 77 -20 77 -6 0 -17 -7
-24 -15z"/>
<path d="M16470 705 c-24 -29 8 -75 44 -62 30 12 14 77 -20 77 -6 0 -17 -7
-24 -15z"/>
<path d="M16850 705 c-24 -29 8 -75 44 -62 30 12 14 77 -20 77 -6 0 -17 -7
-24 -15z"/>
<path d="M17304 712 c-32 -22 -15 -78 22 -71 23 5 33 57 12 70 -16 11 -20 11
-34 1z"/>
<path d="M17951 706 c-21 -25 -10 -61 18 -61 31 0 50 28 35 53 -15 23 -38 26
-53 8z"/>
<path d="M18200 705 c-11 -13 -7 -15 25 -15 32 0 36 2 25 15 -7 8 -18 15 -25
15 -7 0 -18 -7 -25 -15z"/>
<path d="M18472 708 c-25 -25 -6 -68 30 -68 22 0 35 45 18 65 -15 18 -32 19
-48 3z"/>
</g>
</svg>
